0
SECTION
2
HEADER
9
$INSUNITS
70
4
9
$ACADVER
1
AC1014
9
$HANDSEED
5
FFFF
0
ENDSEC
0
SECTION
2
TABLES
0
TABLE
2
VPORT
5
8
100
AcDbSymbolTable
0
ENDTAB
0
TABLE
2
LTYPE
5
5
100
AcDbSymbolTable
0
LTYPE
5
14
100
AcDbSymbolTableRecord
100
AcDbLinetypeTableRecord
2
BYBLOCK
70
0
0
LTYPE
5
15
100
AcDbSymbolTableRecord
100
AcDbLinetypeTableRecord
2
BYLAYER
70
0
0
ENDTAB
0
TABLE
2
LAYER
5
2
100
AcDbSymbolTable
70
2
0
LAYER
5
50
100
AcDbSymbolTableRecord
100
AcDbLayerTableRecord
2
0
70
0
6
CONTINUOUS
0
ENDTAB
0
TABLE
2
STYLE
5
3
100
AcDbSymbolTable
70
1
0
STYLE
5
11
100
AcDbSymbolTableRecord
100
AcDbTextStyleTableRecord
2
STANDARD
70
0
0
ENDTAB
0
TABLE
2
VIEW
5
6
100
AcDbSymbolTable
70
0
0
ENDTAB
0
TABLE
2
UCS
5
7
100
AcDbSymbolTable
70
0
0
ENDTAB
0
TABLE
2
APPID
5
9
100
AcDbSymbolTable
70
2
0
APPID
5
12
100
AcDbSymbolTableRecord
100
AcDbRegAppTableRecord
2
ACAD
70
0
0
ENDTAB
0
TABLE
2
DIMSTYLE
5
A
100
AcDbSymbolTable
70
1
0
ENDTAB
0
TABLE
2
BLOCK_RECORD
5
1
100
AcDbSymbolTable
70
1
0
BLOCK_RECORD
5
1F
100
AcDbSymbolTableRecord
100
AcDbBlockTableRecord
2
*MODEL_SPACE
0
BLOCK_RECORD
5
1B
100
AcDbSymbolTableRecord
100
AcDbBlockTableRecord
2
*PAPER_SPACE
0
ENDTAB
0
ENDSEC
0
SECTION
2
BLOCKS
0
BLOCK
5
20
100
AcDbEntity
100
AcDbBlockBegin
2
*MODEL_SPACE
0
ENDBLK
5
21
100
AcDbEntity
100
AcDbBlockEnd
0
BLOCK
5
1C
100
AcDbEntity
100
AcDbBlockBegin
2
*PAPER_SPACE
0
ENDBLK
5
1D
100
AcDbEntity
100
AcDbBlockEnd
0
ENDSEC
0
SECTION
2
ENTITIES
0
CIRCLE
5
100
100
AcDbEntity
8
0
100
AcDbCircle
10
-37.633142999999997
20
-29.985245000000003
30
0
40
2.1499999999999986
210
-0
220
0
230
1
0
CIRCLE
5
101
100
AcDbEntity
8
0
100
AcDbCircle
10
-72.208078
20
-2.084975
30
0
40
2.1499999999999986
210
-0
220
0
230
1
0
ARC
5
102
100
AcDbEntity
8
0
100
AcDbCircle
10
-43.180000000000007
20
-36.716300000000011
30
0
40
2.5400000000000045
210
0
220
-0
230
1
100
AcDbArc
50
90
51
180
0
LINE
5
103
100
AcDbEntity
8
0
100
AcDbLine
10
-43.180000000000007
20
-34.176300000000005
30
0
11
-37.690062996660821
21
-34.176299746371974
31
0
0
ARC
5
104
100
AcDbEntity
8
0
100
AcDbCircle
10
-37.658024000000005
20
-29.916741000000002
30
0
40
4.2596792380531445
210
0
220
0
230
1
100
AcDbArc
50
-90.430951838071721
51
58.960463398712093
0
ARC
5
105
100
AcDbEntity
8
0
100
AcDbCircle
10
-33.842316000000011
20
-22.269265000000015
30
0
40
4.3132326300069828
210
0
220
0
230
1
100
AcDbArc
50
191.20801040482166
51
247.94946529480777
0
LINE
5
106
100
AcDbEntity
8
0
100
AcDbLine
10
-38.073286615268152
20
-23.107634473021616
30
0
11
-38.066405346910422
21
0.76713485652098345
31
0
0
ARC
5
107
100
AcDbEntity
8
0
100
AcDbCircle
10
-39.875902000000011
20
0.44012399999999841
30
0
40
1.8388078305861661
210
0
220
-0
230
1
100
AcDbArc
50
10.243884739640809
51
78.692701290143646
0
LINE
5
108
100
AcDbEntity
8
0
100
AcDbLine
10
-39.515365000000003
20
2.2432400000000023
30
0
11
-42.261281602363844
21
2.2376431510606452
31
0
0
LINE
5
109
100
AcDbEntity
8
0
100
AcDbLine
10
-43.740005315083124
20
2.23462915083946
30
0
11
-46.956573001135496
21
2.2280729431974344
31
0
0
ARC
5
110
100
AcDbEntity
8
0
100
AcDbCircle
10
-72.539867999999601
20
-9.8585369999999255
30
0
40
3.0581407292939478
210
0
220
0
230
1
100
AcDbArc
50
179.98370011811062
51
199.38022758295415
0
LINE
5
111
100
AcDbEntity
8
0
100
AcDbLine
10
-75.424726000000007
20
-10.873337000000001
30
0
11
-71.944999587285906
21
-23.062584070437829
31
0
0
LINE
5
112
100
AcDbEntity
8
0
100
AcDbLine
10
-43.740005315083124
20
2.23462915083946
30
0
11
-42.261281602363844
21
2.2376431510606452
31
0
0
LINE
5
113
100
AcDbEntity
8
0
100
AcDbLine
10
-71.944999587285906
20
-23.062584070437829
30
0
11
-71.944999587285906
21
-61.000000908970833
31
0
0
LINE
5
114
100
AcDbEntity
8
0
100
AcDbLine
10
-45.720000000000013
20
-36.716299999999997
30
0
11
-45.720000000000098
21
-61.000000908970833
31
0
0
ARC
5
115
100
AcDbEntity
8
0
100
AcDbCircle
10
-68.000001013278961
20
-61.000000908970833
30
0
40
3.9449985740069504
210
0
220
0
230
1
100
AcDbArc
50
180
51
270
0
ARC
5
116
100
AcDbEntity
8
0
100
AcDbCircle
10
-49.816522090843456
20
-60.905184008095965
30
0
40
4.0976192460329184
210
-0
220
0
230
1
100
AcDbArc
50
272.11919098983742
51
358.67408540412424
0
ARC
5
117
100
AcDbEntity
8
0
100
AcDbCircle
10
-72.208078
20
-2.084975
30
0
40
3.4737168405417593
210
0
220
-0
230
1
100
AcDbArc
50
90
51
180.61909433362166
0
LINE
5
118
100
AcDbEntity
8
0
100
AcDbLine
10
-75.598008605541864
20
-9.8576669999318263
30
0
11
-75.681592058922661
21
-2.1225085946855984
31
0
0
LINE
5
119
100
AcDbEntity
8
0
100
AcDbLine
10
-68.000001013278961
20
-64.944999482977778
30
0
11
-49.664998574007022
21
-65.00000074505806
31
0
0
LINE
5
120
100
AcDbEntity
8
0
100
AcDbLine
10
-63.200356854685751
20
-0.61125815945823891
30
0
11
-63.200356854685751
21
-13.61125815945824
31
0
0
LINE
5
121
100
AcDbEntity
8
0
100
AcDbLine
10
-63.200356854685751
20
-13.61125815945824
30
0
11
-51.200356854685751
21
-13.61125815945824
31
0
0
LINE
5
122
100
AcDbEntity
8
0
100
AcDbLine
10
-51.200356854685751
20
-13.61125815945824
30
0
11
-51.200356854685751
21
-0.61125815945824091
31
0
0
ARC
5
123
100
AcDbEntity
8
0
100
AcDbCircle
10
-65.200356884431272
20
-0.61125815945823836
30
0
40
2.0000000297455234
210
-0
220
0
230
1
100
AcDbArc
50
0
51
90.000000052688705
0
LINE
5
124
100
AcDbEntity
8
0
100
AcDbLine
10
-65.200356884431272
20
-0.61125815945823836
30
0
11
-63.200356854685751
21
-0.61125815945823891
31
0
0
LINE
5
125
100
AcDbEntity
8
0
100
AcDbLine
10
-65.200356884431272
20
-0.61125815945823836
30
0
11
-65.200356886270455
21
1.3887418702872887
31
0
0
LINE
5
126
100
AcDbEntity
8
0
100
AcDbLine
10
-65.200356886270455
20
1.3887418702872887
30
0
11
-72.208078
21
1.3887418405417598
31
0
0
LWPOLYLINE
5
127
100
AcDbEntity
8
0
100
AcDbPolyline
90
3
70
1
43
0.0
10
-51.200356854685751
20
-0.61125815945824102
42
-0.41421356237309503
10
-49.200356854685751
20
1.3887418405417624
10
-49.200356854685751
20
-0.61125815945824091
0
LINE
5
128
100
AcDbEntity
8
0
100
AcDbLine
10
-46.956573001135496
20
2.2280729431974344
30
0
11
-49.200356854685751
21
1.3887418405417624
31
0
0
LWPOLYLINE
5
129
100
AcDbEntity
8
0
100
AcDbPolyline
90
4
70
1
43
0.0
10
-52.736990907967574
20
-31.308665445333741
10
-62.131505887120738
20
-31.308665445333741
10
-62.131505887120738
20
-40.460000640749939
10
-52.736990907967574
20
-40.460000640749939
0
ENDSEC
0
SECTION
2
OBJECTS
0
DICTIONARY
5
C
100
AcDbDictionary
3
ACAD_GROUP
350
D
3
ACAD_MLINESTYLE
350
17
0
DICTIONARY
5
D
100
AcDbDictionary
0
DICTIONARY
5
1A
330
C
100
AcDbDictionary
0
DICTIONARY
5
17
100
AcDbDictionary
0
ENDSEC
0
EOF
