%TF.GenerationSoftware,KiCad,Pcbnew,6.0.0-rc1-bf2b03b42f~115~ubuntu21.10.1*%
%TF.CreationDate,2021-12-08T18:47:44+01:00*%
%TF.ProjectId,adapter,61646170-7465-4722-9e6b-696361645f70,0.1*%
%TF.SameCoordinates,Original*%
%TF.FileFunction,Legend,Bot*%
%TF.FilePolarity,Positive*%
%FSLAX46Y46*%
G04 Gerber Fmt 4.6, Leading zero omitted, Abs format (unit mm)*
G04 Created by KiCad (PCBNEW 6.0.0-rc1-bf2b03b42f~115~ubuntu21.10.1) date 2021-12-08 18:47:44*
%MOMM*%
%LPD*%
G01*
G04 APERTURE LIST*
G04 Aperture macros list*
%AMRoundRect*
0 Rectangle with rounded corners*
0 $1 Rounding radius*
0 $2 $3 $4 $5 $6 $7 $8 $9 X,Y pos of 4 corners*
0 Add a 4 corners polygon primitive as box body*
4,1,4,$2,$3,$4,$5,$6,$7,$8,$9,$2,$3,0*
0 Add four circle primitives for the rounded corners*
1,1,$1+$1,$2,$3*
1,1,$1+$1,$4,$5*
1,1,$1+$1,$6,$7*
1,1,$1+$1,$8,$9*
0 Add four rect primitives between the rounded corners*
20,1,$1+$1,$2,$3,$4,$5,0*
20,1,$1+$1,$4,$5,$6,$7,0*
20,1,$1+$1,$6,$7,$8,$9,0*
20,1,$1+$1,$8,$9,$2,$3,0*%
G04 Aperture macros list end*
%ADD10C,0.120000*%
%ADD11C,0.150000*%
%ADD12C,0.200000*%
%ADD13C,0.203200*%
%ADD14C,5.000000*%
%ADD15R,1.700000X1.700000*%
%ADD16O,1.700000X1.700000*%
%ADD17RoundRect,0.250000X0.625000X-0.400000X0.625000X0.400000X-0.625000X0.400000X-0.625000X-0.400000X0*%
%ADD18O,1.400000X2.000000*%
%ADD19O,1.500000X1.500000*%
%ADD20O,1.400000X3.500000*%
%ADD21R,1.400000X2.000000*%
%ADD22C,1.700000*%
%ADD23R,1.300000X1.800000*%
G04 APERTURE END LIST*
D10*
X131171079Y-29094111D02*
X132190190Y-29094111D01*
X132200001Y-36496077D02*
G75*
G03*
X132971079Y-35715189I-29641J800408D01*
G01*
X117642083Y-35758781D02*
X117642083Y-29933781D01*
X115842083Y-29137704D02*
G75*
G03*
X115071005Y-29918592I29641J-800408D01*
G01*
X130400000Y-35700000D02*
G75*
G03*
X131180890Y-36496078I800386J4081D01*
G01*
X115071005Y-29918592D02*
X115071004Y-35743592D01*
X116871005Y-36539670D02*
X115851894Y-36539670D01*
X132971080Y-29890189D02*
G75*
G03*
X132190190Y-29094111I-800386J-4081D01*
G01*
X115071004Y-35743592D02*
G75*
G03*
X115851894Y-36539670I800386J4081D01*
G01*
X130400001Y-29875000D02*
X130400000Y-35700000D01*
X131171079Y-29094112D02*
G75*
G03*
X130400001Y-29875000I29641J-800408D01*
G01*
X117642084Y-29933781D02*
G75*
G03*
X116861194Y-29137703I-800386J-4081D01*
G01*
X115842083Y-29137703D02*
X116861194Y-29137703D01*
X132971079Y-35715189D02*
X132971079Y-29890189D01*
X116871005Y-36539669D02*
G75*
G03*
X117642083Y-35758781I-29641J800408D01*
G01*
X132200001Y-36496078D02*
X131180890Y-36496078D01*
D11*
X107023050Y-78890417D02*
X107023050Y-78944292D01*
X107076925Y-79052041D01*
X107130800Y-79105916D01*
X107238549Y-79159791D01*
X107346299Y-79159791D01*
X107427111Y-79132854D01*
X107561798Y-79052041D01*
X107642610Y-78971229D01*
X107723422Y-78836542D01*
X107750360Y-78755730D01*
X107750360Y-78647980D01*
X107696485Y-78540231D01*
X107642610Y-78486356D01*
X107534861Y-78432481D01*
X107480986Y-78432481D01*
X106861425Y-78082295D02*
X106484302Y-78459418D01*
X107211612Y-78001483D02*
X106942238Y-78540231D01*
X106592051Y-78190044D01*
X96352709Y-82273644D02*
X96244960Y-82219769D01*
X96110273Y-82085082D01*
X96083335Y-82004270D01*
X96083335Y-81950395D01*
X96110273Y-81869583D01*
X96164148Y-81815708D01*
X96244960Y-81788771D01*
X96298835Y-81788771D01*
X96379647Y-81815708D01*
X96514334Y-81896521D01*
X96595146Y-81923458D01*
X96649021Y-81923458D01*
X96729833Y-81896521D01*
X96783708Y-81842646D01*
X96810645Y-81761834D01*
X96810645Y-81707959D01*
X96783708Y-81627147D01*
X96649021Y-81492460D01*
X96541271Y-81438585D01*
X95490712Y-81357773D02*
X95490712Y-81411647D01*
X95544587Y-81519397D01*
X95598462Y-81573272D01*
X95706212Y-81627147D01*
X95813961Y-81627147D01*
X95894774Y-81600209D01*
X96029461Y-81519397D01*
X96110273Y-81438585D01*
X96191085Y-81303898D01*
X96218022Y-81223086D01*
X96218022Y-81115336D01*
X96164148Y-81007586D01*
X96110273Y-80953711D01*
X96002523Y-80899837D01*
X95948648Y-80899837D01*
X94925027Y-80899837D02*
X95194401Y-81169211D01*
X95760087Y-80603525D01*
X94736465Y-80711275D02*
X95302151Y-80145589D01*
X94413216Y-80388026D02*
X94978902Y-80307214D01*
X94978902Y-79822341D02*
X94978902Y-80468838D01*
X146593175Y-76405302D02*
X147051111Y-76324490D01*
X146916424Y-76728551D02*
X147482109Y-76162865D01*
X147266610Y-75947366D01*
X147185798Y-75920428D01*
X147131923Y-75920428D01*
X147051111Y-75947366D01*
X146970299Y-76028178D01*
X146943361Y-76108990D01*
X146943361Y-76162865D01*
X146970299Y-76243677D01*
X147185798Y-76459177D01*
X146054427Y-75866554D02*
X146377676Y-76189803D01*
X146216051Y-76028178D02*
X146781737Y-75462493D01*
X146754800Y-75597180D01*
X146754800Y-75704929D01*
X146781737Y-75785741D01*
X153476509Y-82292143D02*
X153368760Y-82238268D01*
X153234073Y-82103581D01*
X153207135Y-82022769D01*
X153207135Y-81968894D01*
X153234073Y-81888082D01*
X153287948Y-81834207D01*
X153368760Y-81807270D01*
X153422635Y-81807270D01*
X153503447Y-81834207D01*
X153638134Y-81915020D01*
X153718946Y-81941957D01*
X153772821Y-81941957D01*
X153853633Y-81915020D01*
X153907508Y-81861145D01*
X153934445Y-81780333D01*
X153934445Y-81726458D01*
X153907508Y-81645646D01*
X153772821Y-81510959D01*
X153665071Y-81457084D01*
X152614512Y-81376272D02*
X152614512Y-81430146D01*
X152668387Y-81537896D01*
X152722262Y-81591771D01*
X152830012Y-81645646D01*
X152937761Y-81645646D01*
X153018574Y-81618708D01*
X153153261Y-81537896D01*
X153234073Y-81457084D01*
X153314885Y-81322397D01*
X153341822Y-81241585D01*
X153341822Y-81133835D01*
X153287948Y-81026085D01*
X153234073Y-80972210D01*
X153126323Y-80918336D01*
X153072448Y-80918336D01*
X152048827Y-80918336D02*
X152318201Y-81187710D01*
X152883887Y-80622024D01*
X151860265Y-80729774D02*
X152425951Y-80164088D01*
X151537016Y-80406525D02*
X152102702Y-80325713D01*
X152102702Y-79840840D02*
X152102702Y-80487337D01*
X128904761Y-83717904D02*
X129285714Y-83717904D01*
X129285714Y-82917904D01*
X128638095Y-83717904D02*
X128638095Y-83184571D01*
X128638095Y-82917904D02*
X128676190Y-82956000D01*
X128638095Y-82994095D01*
X128600000Y-82956000D01*
X128638095Y-82917904D01*
X128638095Y-82994095D01*
X127914285Y-83679809D02*
X127990476Y-83717904D01*
X128142857Y-83717904D01*
X128219047Y-83679809D01*
X128257142Y-83641714D01*
X128295238Y-83565523D01*
X128295238Y-83336952D01*
X128257142Y-83260761D01*
X128219047Y-83222666D01*
X128142857Y-83184571D01*
X127990476Y-83184571D01*
X127914285Y-83222666D01*
X127266666Y-83679809D02*
X127342857Y-83717904D01*
X127495238Y-83717904D01*
X127571428Y-83679809D01*
X127609523Y-83603619D01*
X127609523Y-83298857D01*
X127571428Y-83222666D01*
X127495238Y-83184571D01*
X127342857Y-83184571D01*
X127266666Y-83222666D01*
X127228571Y-83298857D01*
X127228571Y-83375047D01*
X127609523Y-83451238D01*
X126885714Y-83184571D02*
X126885714Y-83717904D01*
X126885714Y-83260761D02*
X126847619Y-83222666D01*
X126771428Y-83184571D01*
X126657142Y-83184571D01*
X126580952Y-83222666D01*
X126542857Y-83298857D01*
X126542857Y-83717904D01*
X126200000Y-83679809D02*
X126123809Y-83717904D01*
X125971428Y-83717904D01*
X125895238Y-83679809D01*
X125857142Y-83603619D01*
X125857142Y-83565523D01*
X125895238Y-83489333D01*
X125971428Y-83451238D01*
X126085714Y-83451238D01*
X126161904Y-83413142D01*
X126200000Y-83336952D01*
X126200000Y-83298857D01*
X126161904Y-83222666D01*
X126085714Y-83184571D01*
X125971428Y-83184571D01*
X125895238Y-83222666D01*
X125209523Y-83679809D02*
X125285714Y-83717904D01*
X125438095Y-83717904D01*
X125514285Y-83679809D01*
X125552380Y-83603619D01*
X125552380Y-83298857D01*
X125514285Y-83222666D01*
X125438095Y-83184571D01*
X125285714Y-83184571D01*
X125209523Y-83222666D01*
X125171428Y-83298857D01*
X125171428Y-83375047D01*
X125552380Y-83451238D01*
X124485714Y-83717904D02*
X124485714Y-82917904D01*
X124485714Y-83679809D02*
X124561904Y-83717904D01*
X124714285Y-83717904D01*
X124790476Y-83679809D01*
X124828571Y-83641714D01*
X124866666Y-83565523D01*
X124866666Y-83336952D01*
X124828571Y-83260761D01*
X124790476Y-83222666D01*
X124714285Y-83184571D01*
X124561904Y-83184571D01*
X124485714Y-83222666D01*
X123152380Y-83184571D02*
X123152380Y-83717904D01*
X123495238Y-83184571D02*
X123495238Y-83603619D01*
X123457142Y-83679809D01*
X123380952Y-83717904D01*
X123266666Y-83717904D01*
X123190476Y-83679809D01*
X123152380Y-83641714D01*
X122771428Y-83184571D02*
X122771428Y-83717904D01*
X122771428Y-83260761D02*
X122733333Y-83222666D01*
X122657142Y-83184571D01*
X122542857Y-83184571D01*
X122466666Y-83222666D01*
X122428571Y-83298857D01*
X122428571Y-83717904D01*
X121704761Y-83717904D02*
X121704761Y-82917904D01*
X121704761Y-83679809D02*
X121780952Y-83717904D01*
X121933333Y-83717904D01*
X122009523Y-83679809D01*
X122047619Y-83641714D01*
X122085714Y-83565523D01*
X122085714Y-83336952D01*
X122047619Y-83260761D01*
X122009523Y-83222666D01*
X121933333Y-83184571D01*
X121780952Y-83184571D01*
X121704761Y-83222666D01*
X121019047Y-83679809D02*
X121095238Y-83717904D01*
X121247619Y-83717904D01*
X121323809Y-83679809D01*
X121361904Y-83603619D01*
X121361904Y-83298857D01*
X121323809Y-83222666D01*
X121247619Y-83184571D01*
X121095238Y-83184571D01*
X121019047Y-83222666D01*
X120980952Y-83298857D01*
X120980952Y-83375047D01*
X121361904Y-83451238D01*
X120638095Y-83717904D02*
X120638095Y-83184571D01*
X120638095Y-83336952D02*
X120600000Y-83260761D01*
X120561904Y-83222666D01*
X120485714Y-83184571D01*
X120409523Y-83184571D01*
X129133333Y-84929714D02*
X129171428Y-84967809D01*
X129285714Y-85005904D01*
X129361904Y-85005904D01*
X129476190Y-84967809D01*
X129552380Y-84891619D01*
X129590476Y-84815428D01*
X129628571Y-84663047D01*
X129628571Y-84548761D01*
X129590476Y-84396380D01*
X129552380Y-84320190D01*
X129476190Y-84244000D01*
X129361904Y-84205904D01*
X129285714Y-84205904D01*
X129171428Y-84244000D01*
X129133333Y-84282095D01*
X128790476Y-84586857D02*
X128523809Y-84586857D01*
X128409523Y-85005904D02*
X128790476Y-85005904D01*
X128790476Y-84205904D01*
X128409523Y-84205904D01*
X127609523Y-85005904D02*
X127876190Y-84624952D01*
X128066666Y-85005904D02*
X128066666Y-84205904D01*
X127761904Y-84205904D01*
X127685714Y-84244000D01*
X127647619Y-84282095D01*
X127609523Y-84358285D01*
X127609523Y-84472571D01*
X127647619Y-84548761D01*
X127685714Y-84586857D01*
X127761904Y-84624952D01*
X128066666Y-84624952D01*
X127266666Y-85005904D02*
X127266666Y-84205904D01*
X126809523Y-85005904D01*
X126809523Y-84205904D01*
X126428571Y-84701142D02*
X125819047Y-84701142D01*
X125285714Y-84205904D02*
X125133333Y-84205904D01*
X125057142Y-84244000D01*
X124980952Y-84320190D01*
X124942857Y-84472571D01*
X124942857Y-84739238D01*
X124980952Y-84891619D01*
X125057142Y-84967809D01*
X125133333Y-85005904D01*
X125285714Y-85005904D01*
X125361904Y-84967809D01*
X125438095Y-84891619D01*
X125476190Y-84739238D01*
X125476190Y-84472571D01*
X125438095Y-84320190D01*
X125361904Y-84244000D01*
X125285714Y-84205904D01*
X124600000Y-85005904D02*
X124600000Y-84205904D01*
X124600000Y-84586857D02*
X124142857Y-84586857D01*
X124142857Y-85005904D02*
X124142857Y-84205904D01*
X123380952Y-85005904D02*
X123761904Y-85005904D01*
X123761904Y-84205904D01*
X123114285Y-84701142D02*
X122504761Y-84701142D01*
X122200000Y-84205904D02*
X122009523Y-85005904D01*
X121857142Y-84434476D01*
X121704761Y-85005904D01*
X121514285Y-84205904D01*
X120676190Y-84472571D02*
X120485714Y-85005904D01*
X120295238Y-84472571D01*
X120028571Y-84282095D02*
X119990476Y-84244000D01*
X119914285Y-84205904D01*
X119723809Y-84205904D01*
X119647619Y-84244000D01*
X119609523Y-84282095D01*
X119571428Y-84358285D01*
X119571428Y-84434476D01*
X119609523Y-84548761D01*
X120066666Y-85005904D01*
X119571428Y-85005904D01*
X156247810Y-71610295D02*
X156133524Y-71648390D01*
X155943048Y-71648390D01*
X155866858Y-71610295D01*
X155828763Y-71572200D01*
X155790667Y-71496009D01*
X155790667Y-71419819D01*
X155828763Y-71343628D01*
X155866858Y-71305533D01*
X155943048Y-71267438D01*
X156095429Y-71229343D01*
X156171620Y-71191247D01*
X156209715Y-71153152D01*
X156247810Y-71076962D01*
X156247810Y-71000771D01*
X156209715Y-70924581D01*
X156171620Y-70886486D01*
X156095429Y-70848390D01*
X155904953Y-70848390D01*
X155790667Y-70886486D01*
X155447810Y-71648390D02*
X155447810Y-70848390D01*
X155143048Y-70848390D01*
X155066858Y-70886486D01*
X155028763Y-70924581D01*
X154990667Y-71000771D01*
X154990667Y-71115057D01*
X155028763Y-71191247D01*
X155066858Y-71229343D01*
X155143048Y-71267438D01*
X155447810Y-71267438D01*
X154647810Y-71648390D02*
X154647810Y-70848390D01*
X162714285Y-25050000D02*
X162790476Y-25011904D01*
X162904762Y-25011904D01*
X163019047Y-25050000D01*
X163095238Y-25126190D01*
X163133333Y-25202380D01*
X163171428Y-25354761D01*
X163171428Y-25469047D01*
X163133333Y-25621428D01*
X163095238Y-25697619D01*
X163019047Y-25773809D01*
X162904762Y-25811904D01*
X162828571Y-25811904D01*
X162714285Y-25773809D01*
X162676190Y-25735714D01*
X162676190Y-25469047D01*
X162828571Y-25469047D01*
X162333333Y-25811904D02*
X162333333Y-25011904D01*
X161876190Y-25811904D01*
X161876190Y-25011904D01*
X161495238Y-25811904D02*
X161495238Y-25011904D01*
X161304762Y-25011904D01*
X161190476Y-25050000D01*
X161114285Y-25126190D01*
X161076190Y-25202380D01*
X161038095Y-25354761D01*
X161038095Y-25469047D01*
X161076190Y-25621428D01*
X161114285Y-25697619D01*
X161190476Y-25773809D01*
X161304762Y-25811904D01*
X161495238Y-25811904D01*
X112207142Y-42223810D02*
X112169047Y-42109524D01*
X112130952Y-42071429D01*
X112054761Y-42033334D01*
X111940476Y-42033334D01*
X111864285Y-42071429D01*
X111826190Y-42109524D01*
X111788095Y-42185715D01*
X111788095Y-42490477D01*
X112588095Y-42490477D01*
X112588095Y-42223810D01*
X112550000Y-42147619D01*
X112511904Y-42109524D01*
X112435714Y-42071429D01*
X112359523Y-42071429D01*
X112283333Y-42109524D01*
X112245238Y-42147619D01*
X112207142Y-42223810D01*
X112207142Y-42490477D01*
X111788095Y-41309524D02*
X111788095Y-41690477D01*
X112588095Y-41690477D01*
X112016666Y-41080953D02*
X112016666Y-40700000D01*
X111788095Y-41157143D02*
X112588095Y-40890477D01*
X111788095Y-40623810D01*
X111864285Y-39900000D02*
X111826190Y-39938096D01*
X111788095Y-40052381D01*
X111788095Y-40128572D01*
X111826190Y-40242857D01*
X111902380Y-40319048D01*
X111978571Y-40357143D01*
X112130952Y-40395238D01*
X112245238Y-40395238D01*
X112397619Y-40357143D01*
X112473809Y-40319048D01*
X112550000Y-40242857D01*
X112588095Y-40128572D01*
X112588095Y-40052381D01*
X112550000Y-39938096D01*
X112511904Y-39900000D01*
X111788095Y-39557143D02*
X112588095Y-39557143D01*
X111788095Y-39100000D02*
X112245238Y-39442857D01*
X112588095Y-39100000D02*
X112130952Y-39557143D01*
X111788095Y-38757143D02*
X112588095Y-38757143D01*
X112588095Y-38452381D01*
X112550000Y-38376191D01*
X112511904Y-38338096D01*
X112435714Y-38300000D01*
X112321428Y-38300000D01*
X112245238Y-38338096D01*
X112207142Y-38376191D01*
X112169047Y-38452381D01*
X112169047Y-38757143D01*
X111788095Y-37957143D02*
X112588095Y-37957143D01*
X111788095Y-37195238D02*
X111788095Y-37576191D01*
X112588095Y-37576191D01*
X111788095Y-36547619D02*
X111788095Y-36928572D01*
X112588095Y-36928572D01*
X111788095Y-35671429D02*
X112588095Y-35671429D01*
X112207142Y-35671429D02*
X112207142Y-35214286D01*
X111788095Y-35214286D02*
X112588095Y-35214286D01*
X112588095Y-34680953D02*
X112588095Y-34528572D01*
X112550000Y-34452381D01*
X112473809Y-34376191D01*
X112321428Y-34338096D01*
X112054761Y-34338096D01*
X111902380Y-34376191D01*
X111826190Y-34452381D01*
X111788095Y-34528572D01*
X111788095Y-34680953D01*
X111826190Y-34757143D01*
X111902380Y-34833334D01*
X112054761Y-34871429D01*
X112321428Y-34871429D01*
X112473809Y-34833334D01*
X112550000Y-34757143D01*
X112588095Y-34680953D01*
X111788095Y-33614286D02*
X111788095Y-33995238D01*
X112588095Y-33995238D01*
X111788095Y-33347619D02*
X112588095Y-33347619D01*
X112588095Y-33157143D01*
X112550000Y-33042857D01*
X112473809Y-32966667D01*
X112397619Y-32928572D01*
X112245238Y-32890477D01*
X112130952Y-32890477D01*
X111978571Y-32928572D01*
X111902380Y-32966667D01*
X111826190Y-33042857D01*
X111788095Y-33157143D01*
X111788095Y-33347619D01*
X112207142Y-32547619D02*
X112207142Y-32280953D01*
X111788095Y-32166667D02*
X111788095Y-32547619D01*
X112588095Y-32547619D01*
X112588095Y-32166667D01*
X111788095Y-31366667D02*
X112169047Y-31633334D01*
X111788095Y-31823810D02*
X112588095Y-31823810D01*
X112588095Y-31519048D01*
X112550000Y-31442857D01*
X112511904Y-31404762D01*
X112435714Y-31366667D01*
X112321428Y-31366667D01*
X112245238Y-31404762D01*
X112207142Y-31442857D01*
X112169047Y-31519048D01*
X112169047Y-31823810D01*
X112588095Y-30261905D02*
X112588095Y-30185715D01*
X112550000Y-30109524D01*
X112511904Y-30071429D01*
X112435714Y-30033334D01*
X112283333Y-29995238D01*
X112092857Y-29995238D01*
X111940476Y-30033334D01*
X111864285Y-30071429D01*
X111826190Y-30109524D01*
X111788095Y-30185715D01*
X111788095Y-30261905D01*
X111826190Y-30338096D01*
X111864285Y-30376191D01*
X111940476Y-30414286D01*
X112092857Y-30452381D01*
X112283333Y-30452381D01*
X112435714Y-30414286D01*
X112511904Y-30376191D01*
X112550000Y-30338096D01*
X112588095Y-30261905D01*
X111864285Y-29652381D02*
X111826190Y-29614286D01*
X111788095Y-29652381D01*
X111826190Y-29690477D01*
X111864285Y-29652381D01*
X111788095Y-29652381D01*
X111788095Y-28852381D02*
X111788095Y-29309524D01*
X111788095Y-29080953D02*
X112588095Y-29080953D01*
X112473809Y-29157143D01*
X112397619Y-29233334D01*
X112359523Y-29309524D01*
X163540830Y-42221578D02*
X163921782Y-42488245D01*
X163540830Y-42678721D02*
X164340830Y-42678721D01*
X164340830Y-42373959D01*
X164302735Y-42297769D01*
X164264639Y-42259674D01*
X164188449Y-42221578D01*
X164074163Y-42221578D01*
X163997973Y-42259674D01*
X163959877Y-42297769D01*
X163921782Y-42373959D01*
X163921782Y-42678721D01*
X164302735Y-41459674D02*
X164340830Y-41535864D01*
X164340830Y-41650150D01*
X164302735Y-41764436D01*
X164226544Y-41840626D01*
X164150354Y-41878721D01*
X163997973Y-41916817D01*
X163883687Y-41916817D01*
X163731306Y-41878721D01*
X163655115Y-41840626D01*
X163578925Y-41764436D01*
X163540830Y-41650150D01*
X163540830Y-41573959D01*
X163578925Y-41459674D01*
X163617020Y-41421578D01*
X163883687Y-41421578D01*
X163883687Y-41573959D01*
X163959877Y-40812055D02*
X163921782Y-40697769D01*
X163883687Y-40659674D01*
X163807496Y-40621578D01*
X163693211Y-40621578D01*
X163617020Y-40659674D01*
X163578925Y-40697769D01*
X163540830Y-40773959D01*
X163540830Y-41078721D01*
X164340830Y-41078721D01*
X164340830Y-40812055D01*
X164302735Y-40735864D01*
X164264639Y-40697769D01*
X164188449Y-40659674D01*
X164112258Y-40659674D01*
X164036068Y-40697769D01*
X163997973Y-40735864D01*
X163959877Y-40812055D01*
X163959877Y-41078721D01*
X107023050Y-81430417D02*
X107023050Y-81484292D01*
X107076925Y-81592041D01*
X107130800Y-81645916D01*
X107238549Y-81699791D01*
X107346299Y-81699791D01*
X107427111Y-81672854D01*
X107561798Y-81592041D01*
X107642610Y-81511229D01*
X107723422Y-81376542D01*
X107750360Y-81295730D01*
X107750360Y-81187980D01*
X107696485Y-81080231D01*
X107642610Y-81026356D01*
X107534861Y-80972481D01*
X107480986Y-80972481D01*
X107023050Y-80406796D02*
X107292424Y-80676170D01*
X107049987Y-80972481D01*
X107049987Y-80918606D01*
X107023050Y-80837794D01*
X106888363Y-80703107D01*
X106807551Y-80676170D01*
X106753676Y-80676170D01*
X106672864Y-80703107D01*
X106538177Y-80837794D01*
X106511239Y-80918606D01*
X106511239Y-80972481D01*
X106538177Y-81053293D01*
X106672864Y-81187980D01*
X106753676Y-81214918D01*
X106807551Y-81214918D01*
X83583830Y-41915577D02*
X83964782Y-42182244D01*
X83583830Y-42372720D02*
X84383830Y-42372720D01*
X84383830Y-42067958D01*
X84345735Y-41991768D01*
X84307639Y-41953673D01*
X84231449Y-41915577D01*
X84117163Y-41915577D01*
X84040973Y-41953673D01*
X84002877Y-41991768D01*
X83964782Y-42067958D01*
X83964782Y-42372720D01*
X84345735Y-41153673D02*
X84383830Y-41229863D01*
X84383830Y-41344149D01*
X84345735Y-41458435D01*
X84269544Y-41534625D01*
X84193354Y-41572720D01*
X84040973Y-41610816D01*
X83926687Y-41610816D01*
X83774306Y-41572720D01*
X83698115Y-41534625D01*
X83621925Y-41458435D01*
X83583830Y-41344149D01*
X83583830Y-41267958D01*
X83621925Y-41153673D01*
X83660020Y-41115577D01*
X83926687Y-41115577D01*
X83926687Y-41267958D01*
X84002877Y-40506054D02*
X83964782Y-40391768D01*
X83926687Y-40353673D01*
X83850496Y-40315577D01*
X83736211Y-40315577D01*
X83660020Y-40353673D01*
X83621925Y-40391768D01*
X83583830Y-40467958D01*
X83583830Y-40772720D01*
X84383830Y-40772720D01*
X84383830Y-40506054D01*
X84345735Y-40429863D01*
X84307639Y-40391768D01*
X84231449Y-40353673D01*
X84155258Y-40353673D01*
X84079068Y-40391768D01*
X84040973Y-40429863D01*
X84002877Y-40506054D01*
X84002877Y-40772720D01*
X162752380Y-29111904D02*
X163133333Y-29111904D01*
X163171428Y-29492857D01*
X163133333Y-29454761D01*
X163057142Y-29416666D01*
X162866666Y-29416666D01*
X162790476Y-29454761D01*
X162752380Y-29492857D01*
X162714285Y-29569047D01*
X162714285Y-29759523D01*
X162752380Y-29835714D01*
X162790476Y-29873809D01*
X162866666Y-29911904D01*
X163057142Y-29911904D01*
X163133333Y-29873809D01*
X163171428Y-29835714D01*
X162485714Y-29111904D02*
X162219047Y-29911904D01*
X161952380Y-29111904D01*
X87309523Y-29011904D02*
X87690476Y-29011904D01*
X87728571Y-29392857D01*
X87690476Y-29354761D01*
X87614285Y-29316666D01*
X87423809Y-29316666D01*
X87347619Y-29354761D01*
X87309523Y-29392857D01*
X87271428Y-29469047D01*
X87271428Y-29659523D01*
X87309523Y-29735714D01*
X87347619Y-29773809D01*
X87423809Y-29811904D01*
X87614285Y-29811904D01*
X87690476Y-29773809D01*
X87728571Y-29735714D01*
X87042857Y-29011904D02*
X86776190Y-29811904D01*
X86509523Y-29011904D01*
X93794034Y-71605323D02*
X93679748Y-71643418D01*
X93489272Y-71643418D01*
X93413082Y-71605323D01*
X93374987Y-71567228D01*
X93336891Y-71491037D01*
X93336891Y-71414847D01*
X93374987Y-71338656D01*
X93413082Y-71300561D01*
X93489272Y-71262466D01*
X93641653Y-71224371D01*
X93717844Y-71186275D01*
X93755939Y-71148180D01*
X93794034Y-71071990D01*
X93794034Y-70995799D01*
X93755939Y-70919609D01*
X93717844Y-70881514D01*
X93641653Y-70843418D01*
X93451177Y-70843418D01*
X93336891Y-70881514D01*
X92994034Y-71643418D02*
X92994034Y-70843418D01*
X92689272Y-70843418D01*
X92613082Y-70881514D01*
X92574987Y-70919609D01*
X92536891Y-70995799D01*
X92536891Y-71110085D01*
X92574987Y-71186275D01*
X92613082Y-71224371D01*
X92689272Y-71262466D01*
X92994034Y-71262466D01*
X92194034Y-71643418D02*
X92194034Y-70843418D01*
X140982850Y-83924711D02*
X140982850Y-83978586D01*
X141036725Y-84086335D01*
X141090600Y-84140210D01*
X141198349Y-84194085D01*
X141306099Y-84194085D01*
X141386911Y-84167148D01*
X141521598Y-84086335D01*
X141602410Y-84005523D01*
X141683222Y-83870836D01*
X141710160Y-83790024D01*
X141710160Y-83682274D01*
X141656285Y-83574525D01*
X141602410Y-83520650D01*
X141494661Y-83466775D01*
X141440786Y-83466775D01*
X141009787Y-82928027D02*
X141117537Y-83035777D01*
X141144474Y-83116589D01*
X141144474Y-83170464D01*
X141117537Y-83305151D01*
X141036725Y-83439838D01*
X140821225Y-83655337D01*
X140740413Y-83682274D01*
X140686538Y-83682274D01*
X140605726Y-83655337D01*
X140497977Y-83547587D01*
X140471039Y-83466775D01*
X140471039Y-83412900D01*
X140497977Y-83332088D01*
X140632664Y-83197401D01*
X140713476Y-83170464D01*
X140767351Y-83170464D01*
X140848163Y-83197401D01*
X140955912Y-83305151D01*
X140982850Y-83385963D01*
X140982850Y-83439838D01*
X140955912Y-83520650D01*
X163608619Y-33597809D02*
X163494333Y-33635904D01*
X163303857Y-33635904D01*
X163227666Y-33597809D01*
X163189571Y-33559714D01*
X163151476Y-33483523D01*
X163151476Y-33407333D01*
X163189571Y-33331142D01*
X163227666Y-33293047D01*
X163303857Y-33254952D01*
X163456238Y-33216857D01*
X163532428Y-33178761D01*
X163570523Y-33140666D01*
X163608619Y-33064476D01*
X163608619Y-32988285D01*
X163570523Y-32912095D01*
X163532428Y-32874000D01*
X163456238Y-32835904D01*
X163265761Y-32835904D01*
X163151476Y-32874000D01*
X162808619Y-33216857D02*
X162541952Y-33216857D01*
X162427666Y-33635904D02*
X162808619Y-33635904D01*
X162808619Y-32835904D01*
X162427666Y-32835904D01*
X161627666Y-33635904D02*
X161894333Y-33254952D01*
X162084809Y-33635904D02*
X162084809Y-32835904D01*
X161780047Y-32835904D01*
X161703857Y-32874000D01*
X161665761Y-32912095D01*
X161627666Y-32988285D01*
X161627666Y-33102571D01*
X161665761Y-33178761D01*
X161703857Y-33216857D01*
X161780047Y-33254952D01*
X162084809Y-33254952D01*
X161284809Y-33635904D02*
X161284809Y-32835904D01*
X160941952Y-33407333D02*
X160561000Y-33407333D01*
X161018142Y-33635904D02*
X160751476Y-32835904D01*
X160484809Y-33635904D01*
X159837190Y-33635904D02*
X160218142Y-33635904D01*
X160218142Y-32835904D01*
X91088095Y-82994104D02*
X91088095Y-82536961D01*
X90288095Y-82765533D02*
X91088095Y-82765533D01*
X90288095Y-81813152D02*
X90669047Y-82079819D01*
X90288095Y-82270295D02*
X91088095Y-82270295D01*
X91088095Y-81965533D01*
X91050000Y-81889342D01*
X91011904Y-81851247D01*
X90935714Y-81813152D01*
X90821428Y-81813152D01*
X90745238Y-81851247D01*
X90707142Y-81889342D01*
X90669047Y-81965533D01*
X90669047Y-82270295D01*
X90516666Y-81508390D02*
X90516666Y-81127438D01*
X90288095Y-81584580D02*
X91088095Y-81317914D01*
X90288095Y-81051247D01*
X90364285Y-80327438D02*
X90326190Y-80365533D01*
X90288095Y-80479819D01*
X90288095Y-80556009D01*
X90326190Y-80670295D01*
X90402380Y-80746485D01*
X90478571Y-80784580D01*
X90630952Y-80822676D01*
X90745238Y-80822676D01*
X90897619Y-80784580D01*
X90973809Y-80746485D01*
X91050000Y-80670295D01*
X91088095Y-80556009D01*
X91088095Y-80479819D01*
X91050000Y-80365533D01*
X91011904Y-80327438D01*
X90288095Y-79984580D02*
X91088095Y-79984580D01*
X90288095Y-79527438D02*
X90745238Y-79870295D01*
X91088095Y-79527438D02*
X90630952Y-79984580D01*
X90707142Y-78917914D02*
X90669047Y-78803628D01*
X90630952Y-78765533D01*
X90554761Y-78727438D01*
X90440476Y-78727438D01*
X90364285Y-78765533D01*
X90326190Y-78803628D01*
X90288095Y-78879819D01*
X90288095Y-79184580D01*
X91088095Y-79184580D01*
X91088095Y-78917914D01*
X91050000Y-78841723D01*
X91011904Y-78803628D01*
X90935714Y-78765533D01*
X90859523Y-78765533D01*
X90783333Y-78803628D01*
X90745238Y-78841723D01*
X90707142Y-78917914D01*
X90707142Y-79184580D01*
X90516666Y-78422676D02*
X90516666Y-78041723D01*
X90288095Y-78498866D02*
X91088095Y-78232200D01*
X90288095Y-77965533D01*
X90288095Y-77317914D02*
X90288095Y-77698866D01*
X91088095Y-77698866D01*
X90288095Y-76670295D02*
X90288095Y-77051247D01*
X91088095Y-77051247D01*
X96233028Y-84773238D02*
X96798714Y-84207553D01*
X96206091Y-84423052D01*
X96421590Y-83830429D01*
X95855905Y-84396114D01*
X95586531Y-84126740D02*
X96152216Y-83561055D01*
X95371032Y-83857366D02*
X95263282Y-83803492D01*
X95128595Y-83668805D01*
X95101658Y-83587992D01*
X95101658Y-83534118D01*
X95128595Y-83453305D01*
X95182470Y-83399431D01*
X95263282Y-83372493D01*
X95317157Y-83372493D01*
X95397969Y-83399431D01*
X95532656Y-83480243D01*
X95613468Y-83507180D01*
X95667343Y-83507180D01*
X95748155Y-83480243D01*
X95802030Y-83426368D01*
X95828967Y-83345556D01*
X95828967Y-83291681D01*
X95802030Y-83210869D01*
X95667343Y-83076182D01*
X95559593Y-83022307D01*
X95236345Y-82645183D02*
X95128595Y-82537434D01*
X95047783Y-82510496D01*
X94940033Y-82510496D01*
X94805346Y-82591309D01*
X94616784Y-82779870D01*
X94535972Y-82914557D01*
X94535972Y-83022307D01*
X94562910Y-83103119D01*
X94670659Y-83210869D01*
X94751471Y-83237806D01*
X94859221Y-83237806D01*
X94993908Y-83156994D01*
X95182470Y-82968432D01*
X95263282Y-82833745D01*
X95263282Y-82725996D01*
X95236345Y-82645183D01*
X140903575Y-86512644D02*
X141361511Y-86431832D01*
X141226824Y-86835893D02*
X141792509Y-86270207D01*
X141577010Y-86054708D01*
X141496198Y-86027770D01*
X141442323Y-86027770D01*
X141361511Y-86054708D01*
X141280699Y-86135520D01*
X141253761Y-86216332D01*
X141253761Y-86270207D01*
X141280699Y-86351019D01*
X141496198Y-86566519D01*
X140957450Y-85435148D02*
X141226824Y-85704522D01*
X140984387Y-86000833D01*
X140984387Y-85946958D01*
X140957450Y-85866146D01*
X140822763Y-85731459D01*
X140741951Y-85704522D01*
X140688076Y-85704522D01*
X140607264Y-85731459D01*
X140472577Y-85866146D01*
X140445639Y-85946958D01*
X140445639Y-86000833D01*
X140472577Y-86081645D01*
X140607264Y-86216332D01*
X140688076Y-86243270D01*
X140741951Y-86243270D01*
X150786810Y-71610295D02*
X150672524Y-71648390D01*
X150482048Y-71648390D01*
X150405858Y-71610295D01*
X150367763Y-71572200D01*
X150329667Y-71496009D01*
X150329667Y-71419819D01*
X150367763Y-71343628D01*
X150405858Y-71305533D01*
X150482048Y-71267438D01*
X150634429Y-71229343D01*
X150710620Y-71191247D01*
X150748715Y-71153152D01*
X150786810Y-71076962D01*
X150786810Y-71000771D01*
X150748715Y-70924581D01*
X150710620Y-70886486D01*
X150634429Y-70848390D01*
X150443953Y-70848390D01*
X150329667Y-70886486D01*
X149986810Y-71648390D02*
X149986810Y-70848390D01*
X149682048Y-70848390D01*
X149605858Y-70886486D01*
X149567763Y-70924581D01*
X149529667Y-71000771D01*
X149529667Y-71115057D01*
X149567763Y-71191247D01*
X149605858Y-71229343D01*
X149682048Y-71267438D01*
X149986810Y-71267438D01*
X149186810Y-71648390D02*
X149186810Y-70848390D01*
X159791333Y-44430904D02*
X159791333Y-43630904D01*
X159600857Y-43630904D01*
X159486571Y-43669000D01*
X159410381Y-43745190D01*
X159372286Y-43821380D01*
X159334190Y-43973761D01*
X159334190Y-44088047D01*
X159372286Y-44240428D01*
X159410381Y-44316619D01*
X159486571Y-44392809D01*
X159600857Y-44430904D01*
X159791333Y-44430904D01*
X158991333Y-44430904D02*
X158991333Y-43630904D01*
X158610381Y-44430904D02*
X158610381Y-43630904D01*
X158153238Y-44430904D01*
X158153238Y-43630904D01*
X143471477Y-71648390D02*
X143471477Y-70848390D01*
X143204810Y-71419819D01*
X142938143Y-70848390D01*
X142938143Y-71648390D01*
X142595286Y-71419819D02*
X142214334Y-71419819D01*
X142671477Y-71648390D02*
X142404810Y-70848390D01*
X142138143Y-71648390D01*
X141985763Y-70848390D02*
X141528620Y-70848390D01*
X141757191Y-71648390D02*
X141757191Y-70848390D01*
X140804810Y-71648390D02*
X141071477Y-71267438D01*
X141261953Y-71648390D02*
X141261953Y-70848390D01*
X140957191Y-70848390D01*
X140881001Y-70886486D01*
X140842905Y-70924581D01*
X140804810Y-71000771D01*
X140804810Y-71115057D01*
X140842905Y-71191247D01*
X140881001Y-71229343D01*
X140957191Y-71267438D01*
X141261953Y-71267438D01*
X140461953Y-71648390D02*
X140461953Y-70848390D01*
X140157191Y-70848390D02*
X139623858Y-71648390D01*
X139623858Y-70848390D02*
X140157191Y-71648390D01*
X87728571Y-22773809D02*
X87614285Y-22811904D01*
X87423809Y-22811904D01*
X87347619Y-22773809D01*
X87309523Y-22735714D01*
X87271428Y-22659523D01*
X87271428Y-22583333D01*
X87309523Y-22507142D01*
X87347619Y-22469047D01*
X87423809Y-22430952D01*
X87576190Y-22392857D01*
X87652380Y-22354761D01*
X87690476Y-22316666D01*
X87728571Y-22240476D01*
X87728571Y-22164285D01*
X87690476Y-22088095D01*
X87652380Y-22050000D01*
X87576190Y-22011904D01*
X87385714Y-22011904D01*
X87271428Y-22050000D01*
X140928975Y-73818586D02*
X141386911Y-73737774D01*
X141252224Y-74141835D02*
X141817909Y-73576149D01*
X141602410Y-73360650D01*
X141521598Y-73333712D01*
X141467723Y-73333712D01*
X141386911Y-73360650D01*
X141306099Y-73441462D01*
X141279161Y-73522274D01*
X141279161Y-73576149D01*
X141306099Y-73656961D01*
X141521598Y-73872461D01*
X140821225Y-72956589D02*
X140444102Y-73333712D01*
X141171412Y-72875777D02*
X140902038Y-73414525D01*
X140551851Y-73064338D01*
X106969175Y-73864292D02*
X107427111Y-73783480D01*
X107292424Y-74187541D02*
X107858109Y-73621855D01*
X107642610Y-73406356D01*
X107561798Y-73379418D01*
X107507923Y-73379418D01*
X107427111Y-73406356D01*
X107346299Y-73487168D01*
X107319361Y-73567980D01*
X107319361Y-73621855D01*
X107346299Y-73702667D01*
X107561798Y-73918167D01*
X106861425Y-73002295D02*
X106484302Y-73379418D01*
X107211612Y-72921483D02*
X106942238Y-73460231D01*
X106592051Y-73110044D01*
X159372285Y-41129000D02*
X159448476Y-41090904D01*
X159562762Y-41090904D01*
X159677047Y-41129000D01*
X159753238Y-41205190D01*
X159791333Y-41281380D01*
X159829428Y-41433761D01*
X159829428Y-41548047D01*
X159791333Y-41700428D01*
X159753238Y-41776619D01*
X159677047Y-41852809D01*
X159562762Y-41890904D01*
X159486571Y-41890904D01*
X159372285Y-41852809D01*
X159334190Y-41814714D01*
X159334190Y-41548047D01*
X159486571Y-41548047D01*
X158991333Y-41890904D02*
X158991333Y-41090904D01*
X158534190Y-41890904D01*
X158534190Y-41090904D01*
X158153238Y-41890904D02*
X158153238Y-41090904D01*
X157962762Y-41090904D01*
X157848476Y-41129000D01*
X157772285Y-41205190D01*
X157734190Y-41281380D01*
X157696095Y-41433761D01*
X157696095Y-41548047D01*
X157734190Y-41700428D01*
X157772285Y-41776619D01*
X157848476Y-41852809D01*
X157962762Y-41890904D01*
X158153238Y-41890904D01*
X158172095Y-83006313D02*
X158172095Y-82549170D01*
X157372095Y-82777742D02*
X158172095Y-82777742D01*
X157372095Y-81825361D02*
X157753047Y-82092028D01*
X157372095Y-82282504D02*
X158172095Y-82282504D01*
X158172095Y-81977742D01*
X158134000Y-81901551D01*
X158095904Y-81863456D01*
X158019714Y-81825361D01*
X157905428Y-81825361D01*
X157829238Y-81863456D01*
X157791142Y-81901551D01*
X157753047Y-81977742D01*
X157753047Y-82282504D01*
X157600666Y-81520599D02*
X157600666Y-81139647D01*
X157372095Y-81596789D02*
X158172095Y-81330123D01*
X157372095Y-81063456D01*
X157448285Y-80339647D02*
X157410190Y-80377742D01*
X157372095Y-80492028D01*
X157372095Y-80568218D01*
X157410190Y-80682504D01*
X157486380Y-80758694D01*
X157562571Y-80796789D01*
X157714952Y-80834885D01*
X157829238Y-80834885D01*
X157981619Y-80796789D01*
X158057809Y-80758694D01*
X158134000Y-80682504D01*
X158172095Y-80568218D01*
X158172095Y-80492028D01*
X158134000Y-80377742D01*
X158095904Y-80339647D01*
X157372095Y-79996789D02*
X158172095Y-79996789D01*
X157372095Y-79539647D02*
X157829238Y-79882504D01*
X158172095Y-79539647D02*
X157714952Y-79996789D01*
X157791142Y-78930123D02*
X157753047Y-78815837D01*
X157714952Y-78777742D01*
X157638761Y-78739647D01*
X157524476Y-78739647D01*
X157448285Y-78777742D01*
X157410190Y-78815837D01*
X157372095Y-78892028D01*
X157372095Y-79196789D01*
X158172095Y-79196789D01*
X158172095Y-78930123D01*
X158134000Y-78853932D01*
X158095904Y-78815837D01*
X158019714Y-78777742D01*
X157943523Y-78777742D01*
X157867333Y-78815837D01*
X157829238Y-78853932D01*
X157791142Y-78930123D01*
X157791142Y-79196789D01*
X157600666Y-78434885D02*
X157600666Y-78053932D01*
X157372095Y-78511075D02*
X158172095Y-78244409D01*
X157372095Y-77977742D01*
X157372095Y-77330123D02*
X157372095Y-77711075D01*
X158172095Y-77711075D01*
X157372095Y-76682504D02*
X157372095Y-77063456D01*
X158172095Y-77063456D01*
X96308428Y-79693238D02*
X96874114Y-79127553D01*
X96281491Y-79343052D01*
X96496990Y-78750429D01*
X95931305Y-79316114D01*
X96119867Y-78373305D02*
X96012117Y-78265556D01*
X95931305Y-78238618D01*
X95823555Y-78238618D01*
X95688868Y-78319431D01*
X95500306Y-78507992D01*
X95419494Y-78642679D01*
X95419494Y-78750429D01*
X95446432Y-78831241D01*
X95554181Y-78938991D01*
X95634993Y-78965928D01*
X95742743Y-78965928D01*
X95877430Y-78885116D01*
X96065992Y-78696554D01*
X96146804Y-78561867D01*
X96146804Y-78454118D01*
X96119867Y-78373305D01*
X95123183Y-78454118D02*
X95015433Y-78400243D01*
X94880746Y-78265556D01*
X94853809Y-78184744D01*
X94853809Y-78130869D01*
X94880746Y-78050057D01*
X94934621Y-77996182D01*
X95015433Y-77969244D01*
X95069308Y-77969244D01*
X95150120Y-77996182D01*
X95284807Y-78076994D01*
X95365619Y-78103931D01*
X95419494Y-78103931D01*
X95500306Y-78076994D01*
X95554181Y-78023119D01*
X95581119Y-77942307D01*
X95581119Y-77888432D01*
X95554181Y-77807620D01*
X95419494Y-77672933D01*
X95311745Y-77619058D01*
X94530560Y-77915370D02*
X95096245Y-77349684D01*
X106969175Y-76404292D02*
X107427111Y-76323480D01*
X107292424Y-76727541D02*
X107858109Y-76161855D01*
X107642610Y-75946356D01*
X107561798Y-75919418D01*
X107507923Y-75919418D01*
X107427111Y-75946356D01*
X107346299Y-76027168D01*
X107319361Y-76107980D01*
X107319361Y-76161855D01*
X107346299Y-76242667D01*
X107561798Y-76458167D01*
X107346299Y-75650044D02*
X106996112Y-75299858D01*
X106969175Y-75703919D01*
X106888363Y-75623107D01*
X106807551Y-75596170D01*
X106753676Y-75596170D01*
X106672864Y-75623107D01*
X106538177Y-75757794D01*
X106511239Y-75838606D01*
X106511239Y-75892481D01*
X106538177Y-75973293D01*
X106699801Y-76134918D01*
X106780613Y-76161855D01*
X106834488Y-76161855D01*
X146647050Y-73811427D02*
X146647050Y-73865302D01*
X146700925Y-73973051D01*
X146754800Y-74026926D01*
X146862549Y-74080801D01*
X146970299Y-74080801D01*
X147051111Y-74053864D01*
X147185798Y-73973051D01*
X147266610Y-73892239D01*
X147347422Y-73757552D01*
X147374360Y-73676740D01*
X147374360Y-73568990D01*
X147320485Y-73461241D01*
X147266610Y-73407366D01*
X147158861Y-73353491D01*
X147104986Y-73353491D01*
X146970299Y-73111054D02*
X146620112Y-72760868D01*
X146593175Y-73164929D01*
X146512363Y-73084117D01*
X146431551Y-73057180D01*
X146377676Y-73057180D01*
X146296864Y-73084117D01*
X146162177Y-73218804D01*
X146135239Y-73299616D01*
X146135239Y-73353491D01*
X146162177Y-73434303D01*
X146323801Y-73595928D01*
X146404613Y-73622865D01*
X146458488Y-73622865D01*
X106943775Y-86558350D02*
X107401711Y-86477538D01*
X107267024Y-86881599D02*
X107832709Y-86315913D01*
X107617210Y-86100414D01*
X107536398Y-86073476D01*
X107482523Y-86073476D01*
X107401711Y-86100414D01*
X107320899Y-86181226D01*
X107293961Y-86262038D01*
X107293961Y-86315913D01*
X107320899Y-86396725D01*
X107536398Y-86612225D01*
X106997650Y-85480854D02*
X107267024Y-85750228D01*
X107024587Y-86046539D01*
X107024587Y-85992664D01*
X106997650Y-85911852D01*
X106862963Y-85777165D01*
X106782151Y-85750228D01*
X106728276Y-85750228D01*
X106647464Y-85777165D01*
X106512777Y-85911852D01*
X106485839Y-85992664D01*
X106485839Y-86046539D01*
X106512777Y-86127351D01*
X106647464Y-86262038D01*
X106728276Y-86288976D01*
X106782151Y-86288976D01*
X153356828Y-84791737D02*
X153922514Y-84226052D01*
X153329891Y-84441551D01*
X153545390Y-83848928D01*
X152979705Y-84414613D01*
X152710331Y-84145239D02*
X153276016Y-83579554D01*
X152494832Y-83875865D02*
X152387082Y-83821991D01*
X152252395Y-83687304D01*
X152225458Y-83606491D01*
X152225458Y-83552617D01*
X152252395Y-83471804D01*
X152306270Y-83417930D01*
X152387082Y-83390992D01*
X152440957Y-83390992D01*
X152521769Y-83417930D01*
X152656456Y-83498742D01*
X152737268Y-83525679D01*
X152791143Y-83525679D01*
X152871955Y-83498742D01*
X152925830Y-83444867D01*
X152952767Y-83364055D01*
X152952767Y-83310180D01*
X152925830Y-83229368D01*
X152791143Y-83094681D01*
X152683393Y-83040806D01*
X152360145Y-82663682D02*
X152252395Y-82555933D01*
X152171583Y-82528995D01*
X152063833Y-82528995D01*
X151929146Y-82609808D01*
X151740584Y-82798369D01*
X151659772Y-82933056D01*
X151659772Y-83040806D01*
X151686710Y-83121618D01*
X151794459Y-83229368D01*
X151875271Y-83256305D01*
X151983021Y-83256305D01*
X152117708Y-83175493D01*
X152306270Y-82986931D01*
X152387082Y-82852244D01*
X152387082Y-82744495D01*
X152360145Y-82663682D01*
X159410380Y-38550904D02*
X159791333Y-38550904D01*
X159829428Y-38931857D01*
X159791333Y-38893761D01*
X159715142Y-38855666D01*
X159524666Y-38855666D01*
X159448476Y-38893761D01*
X159410380Y-38931857D01*
X159372285Y-39008047D01*
X159372285Y-39198523D01*
X159410380Y-39274714D01*
X159448476Y-39312809D01*
X159524666Y-39350904D01*
X159715142Y-39350904D01*
X159791333Y-39312809D01*
X159829428Y-39274714D01*
X159143714Y-38550904D02*
X158877047Y-39350904D01*
X158610380Y-38550904D01*
X132071433Y-78644101D02*
X132033338Y-78606006D01*
X131957147Y-78567910D01*
X131766671Y-78567910D01*
X131690481Y-78606006D01*
X131652385Y-78644101D01*
X131614290Y-78720291D01*
X131614290Y-78796482D01*
X131652385Y-78910767D01*
X132109528Y-79367910D01*
X131614290Y-79367910D01*
X131119052Y-78567910D02*
X131042862Y-78567910D01*
X130966671Y-78606006D01*
X130928576Y-78644101D01*
X130890481Y-78720291D01*
X130852385Y-78872672D01*
X130852385Y-79063148D01*
X130890481Y-79215529D01*
X130928576Y-79291720D01*
X130966671Y-79329815D01*
X131042862Y-79367910D01*
X131119052Y-79367910D01*
X131195243Y-79329815D01*
X131233338Y-79291720D01*
X131271433Y-79215529D01*
X131309528Y-79063148D01*
X131309528Y-78872672D01*
X131271433Y-78720291D01*
X131233338Y-78644101D01*
X131195243Y-78606006D01*
X131119052Y-78567910D01*
X130547624Y-78644101D02*
X130509528Y-78606006D01*
X130433338Y-78567910D01*
X130242862Y-78567910D01*
X130166671Y-78606006D01*
X130128576Y-78644101D01*
X130090481Y-78720291D01*
X130090481Y-78796482D01*
X130128576Y-78910767D01*
X130585719Y-79367910D01*
X130090481Y-79367910D01*
X129328576Y-79367910D02*
X129785719Y-79367910D01*
X129557147Y-79367910D02*
X129557147Y-78567910D01*
X129633338Y-78682196D01*
X129709528Y-78758386D01*
X129785719Y-78796482D01*
X127842862Y-79444101D02*
X127919052Y-79406006D01*
X127995243Y-79329815D01*
X128109528Y-79215529D01*
X128185719Y-79177434D01*
X128261909Y-79177434D01*
X128223814Y-79367910D02*
X128300005Y-79329815D01*
X128376195Y-79253625D01*
X128414290Y-79101244D01*
X128414290Y-78834577D01*
X128376195Y-78682196D01*
X128300005Y-78606006D01*
X128223814Y-78567910D01*
X128071433Y-78567910D01*
X127995243Y-78606006D01*
X127919052Y-78682196D01*
X127880957Y-78834577D01*
X127880957Y-79101244D01*
X127919052Y-79253625D01*
X127995243Y-79329815D01*
X128071433Y-79367910D01*
X128223814Y-79367910D01*
X127538100Y-78567910D02*
X127538100Y-79215529D01*
X127500005Y-79291720D01*
X127461909Y-79329815D01*
X127385719Y-79367910D01*
X127233338Y-79367910D01*
X127157147Y-79329815D01*
X127119052Y-79291720D01*
X127080957Y-79215529D01*
X127080957Y-78567910D01*
X126700005Y-78948863D02*
X126433338Y-78948863D01*
X126319052Y-79367910D02*
X126700005Y-79367910D01*
X126700005Y-78567910D01*
X126319052Y-78567910D01*
X125976195Y-79367910D02*
X125976195Y-78567910D01*
X125519052Y-79367910D01*
X125519052Y-78567910D01*
X125252385Y-78567910D02*
X124795243Y-78567910D01*
X125023814Y-79367910D02*
X125023814Y-78567910D01*
X124528576Y-79367910D02*
X124528576Y-78567910D01*
X124147624Y-79367910D02*
X124147624Y-78567910D01*
X123690481Y-79367910D01*
X123690481Y-78567910D01*
X122319052Y-79367910D02*
X122700005Y-79367910D01*
X122700005Y-78567910D01*
X122052385Y-78948863D02*
X121785719Y-78948863D01*
X121671433Y-79367910D02*
X122052385Y-79367910D01*
X122052385Y-78567910D01*
X121671433Y-78567910D01*
X121061909Y-78948863D02*
X120947624Y-78986958D01*
X120909528Y-79025053D01*
X120871433Y-79101244D01*
X120871433Y-79215529D01*
X120909528Y-79291720D01*
X120947624Y-79329815D01*
X121023814Y-79367910D01*
X121328576Y-79367910D01*
X121328576Y-78567910D01*
X121061909Y-78567910D01*
X120985719Y-78606006D01*
X120947624Y-78644101D01*
X120909528Y-78720291D01*
X120909528Y-78796482D01*
X120947624Y-78872672D01*
X120985719Y-78910767D01*
X121061909Y-78948863D01*
X121328576Y-78948863D01*
X120566671Y-79139339D02*
X120185719Y-79139339D01*
X120642862Y-79367910D02*
X120376195Y-78567910D01*
X120109528Y-79367910D01*
X119880957Y-79329815D02*
X119766671Y-79367910D01*
X119576195Y-79367910D01*
X119500005Y-79329815D01*
X119461909Y-79291720D01*
X119423814Y-79215529D01*
X119423814Y-79139339D01*
X119461909Y-79063148D01*
X119500005Y-79025053D01*
X119576195Y-78986958D01*
X119728576Y-78948863D01*
X119804766Y-78910767D01*
X119842862Y-78872672D01*
X119880957Y-78796482D01*
X119880957Y-78720291D01*
X119842862Y-78644101D01*
X119804766Y-78606006D01*
X119728576Y-78567910D01*
X119538100Y-78567910D01*
X119423814Y-78606006D01*
X119195243Y-78567910D02*
X118738100Y-78567910D01*
X118966671Y-79367910D02*
X118966671Y-78567910D01*
X118509528Y-79139339D02*
X118128576Y-79139339D01*
X118585719Y-79367910D02*
X118319052Y-78567910D01*
X118052385Y-79367910D01*
X117328576Y-79367910D02*
X117595243Y-78986958D01*
X117785719Y-79367910D02*
X117785719Y-78567910D01*
X117480957Y-78567910D01*
X117404766Y-78606006D01*
X117366671Y-78644101D01*
X117328576Y-78720291D01*
X117328576Y-78834577D01*
X117366671Y-78910767D01*
X117404766Y-78948863D01*
X117480957Y-78986958D01*
X117785719Y-78986958D01*
X116985719Y-79367910D02*
X116985719Y-78567910D01*
X116795243Y-78567910D01*
X116680957Y-78606006D01*
X116604766Y-78682196D01*
X116566671Y-78758386D01*
X116528576Y-78910767D01*
X116528576Y-79025053D01*
X116566671Y-79177434D01*
X116604766Y-79253625D01*
X116680957Y-79329815D01*
X116795243Y-79367910D01*
X116985719Y-79367910D01*
X131271433Y-80427339D02*
X130890481Y-80427339D01*
X131347624Y-80655910D02*
X131080957Y-79855910D01*
X130814290Y-80655910D01*
X130547624Y-80655910D02*
X130547624Y-79855910D01*
X130090481Y-80655910D01*
X130090481Y-79855910D01*
X129709528Y-80655910D02*
X129709528Y-79855910D01*
X129519052Y-79855910D01*
X129404766Y-79894006D01*
X129328576Y-79970196D01*
X129290481Y-80046386D01*
X129252385Y-80198767D01*
X129252385Y-80313053D01*
X129290481Y-80465434D01*
X129328576Y-80541625D01*
X129404766Y-80617815D01*
X129519052Y-80655910D01*
X129709528Y-80655910D01*
X128338100Y-80617815D02*
X128223814Y-80655910D01*
X128033338Y-80655910D01*
X127957147Y-80617815D01*
X127919052Y-80579720D01*
X127880957Y-80503529D01*
X127880957Y-80427339D01*
X127919052Y-80351148D01*
X127957147Y-80313053D01*
X128033338Y-80274958D01*
X128185719Y-80236863D01*
X128261909Y-80198767D01*
X128300005Y-80160672D01*
X128338100Y-80084482D01*
X128338100Y-80008291D01*
X128300005Y-79932101D01*
X128261909Y-79894006D01*
X128185719Y-79855910D01*
X127995243Y-79855910D01*
X127880957Y-79894006D01*
X127652385Y-79855910D02*
X127195243Y-79855910D01*
X127423814Y-80655910D02*
X127423814Y-79855910D01*
X126928576Y-80236863D02*
X126661909Y-80236863D01*
X126547624Y-80655910D02*
X126928576Y-80655910D01*
X126928576Y-79855910D01*
X126547624Y-79855910D01*
X125938100Y-80236863D02*
X126204766Y-80236863D01*
X126204766Y-80655910D02*
X126204766Y-79855910D01*
X125823814Y-79855910D01*
X125557147Y-80427339D02*
X125176195Y-80427339D01*
X125633338Y-80655910D02*
X125366671Y-79855910D01*
X125100005Y-80655910D01*
X124833338Y-80655910D02*
X124833338Y-79855910D01*
X124376195Y-80655910D01*
X124376195Y-79855910D01*
X123385719Y-80655910D02*
X123385719Y-79855910D01*
X122928576Y-80655910D02*
X123271433Y-80198767D01*
X122928576Y-79855910D02*
X123385719Y-80313053D01*
X122585719Y-80236863D02*
X122319052Y-80236863D01*
X122204766Y-80655910D02*
X122585719Y-80655910D01*
X122585719Y-79855910D01*
X122204766Y-79855910D01*
X121404766Y-80655910D02*
X121671433Y-80274958D01*
X121861909Y-80655910D02*
X121861909Y-79855910D01*
X121557147Y-79855910D01*
X121480957Y-79894006D01*
X121442862Y-79932101D01*
X121404766Y-80008291D01*
X121404766Y-80122577D01*
X121442862Y-80198767D01*
X121480957Y-80236863D01*
X121557147Y-80274958D01*
X121861909Y-80274958D01*
X121061909Y-80655910D02*
X121061909Y-79855910D01*
X120604766Y-80655910D02*
X120947624Y-80198767D01*
X120604766Y-79855910D02*
X121061909Y-80313053D01*
X120261909Y-80655910D02*
X120261909Y-79855910D01*
X119995243Y-80427339D01*
X119728576Y-79855910D01*
X119728576Y-80655910D01*
X119385719Y-80427339D02*
X119004766Y-80427339D01*
X119461909Y-80655910D02*
X119195243Y-79855910D01*
X118928576Y-80655910D01*
X118661909Y-80655910D02*
X118661909Y-79855910D01*
X118204766Y-80655910D01*
X118204766Y-79855910D01*
X117823814Y-80655910D02*
X117823814Y-79855910D01*
X117366671Y-80655910D01*
X117366671Y-79855910D01*
X96389241Y-86316555D02*
X96470053Y-86343493D01*
X96550865Y-86424305D01*
X96604740Y-86532054D01*
X96604740Y-86639804D01*
X96577802Y-86720616D01*
X96496990Y-86855303D01*
X96416178Y-86936115D01*
X96281491Y-87016928D01*
X96200679Y-87043865D01*
X96092929Y-87043865D01*
X95985180Y-86989990D01*
X95931305Y-86936115D01*
X95877430Y-86828366D01*
X95877430Y-86774491D01*
X96065992Y-86585929D01*
X96173741Y-86693679D01*
X95581119Y-86585929D02*
X96146804Y-86020244D01*
X95257870Y-86262680D01*
X95823555Y-85696995D01*
X94988496Y-85993306D02*
X95554181Y-85427621D01*
X95419494Y-85292934D01*
X95311745Y-85239059D01*
X95203995Y-85239059D01*
X95123183Y-85265997D01*
X94988496Y-85346809D01*
X94907684Y-85427621D01*
X94826871Y-85562308D01*
X94799934Y-85643120D01*
X94799934Y-85750870D01*
X94853809Y-85858619D01*
X94988496Y-85993306D01*
X153513041Y-86335054D02*
X153593853Y-86361992D01*
X153674665Y-86442804D01*
X153728540Y-86550553D01*
X153728540Y-86658303D01*
X153701602Y-86739115D01*
X153620790Y-86873802D01*
X153539978Y-86954614D01*
X153405291Y-87035427D01*
X153324479Y-87062364D01*
X153216729Y-87062364D01*
X153108980Y-87008489D01*
X153055105Y-86954614D01*
X153001230Y-86846865D01*
X153001230Y-86792990D01*
X153189792Y-86604428D01*
X153297541Y-86712178D01*
X152704919Y-86604428D02*
X153270604Y-86038743D01*
X152381670Y-86281179D01*
X152947355Y-85715494D01*
X152112296Y-86011805D02*
X152677981Y-85446120D01*
X152543294Y-85311433D01*
X152435545Y-85257558D01*
X152327795Y-85257558D01*
X152246983Y-85284496D01*
X152112296Y-85365308D01*
X152031484Y-85446120D01*
X151950671Y-85580807D01*
X151923734Y-85661619D01*
X151923734Y-85769369D01*
X151977609Y-85877118D01*
X152112296Y-86011805D01*
X101533575Y-76276102D02*
X101991511Y-76195290D01*
X101856824Y-76599351D02*
X102422509Y-76033665D01*
X102207010Y-75818166D01*
X102126198Y-75791228D01*
X102072323Y-75791228D01*
X101991511Y-75818166D01*
X101910699Y-75898978D01*
X101883761Y-75979790D01*
X101883761Y-76033665D01*
X101910699Y-76114477D01*
X102126198Y-76329977D01*
X100994827Y-75737354D02*
X101318076Y-76060603D01*
X101156451Y-75898978D02*
X101722137Y-75333293D01*
X101695199Y-75467980D01*
X101695199Y-75575729D01*
X101722137Y-75656541D01*
D12*
X115589932Y-34908782D02*
X116304218Y-35408782D01*
X115589932Y-35765924D02*
X117089932Y-35765924D01*
X117089932Y-35194496D01*
X117018504Y-35051639D01*
X116947075Y-34980210D01*
X116804218Y-34908782D01*
X116589932Y-34908782D01*
X116447075Y-34980210D01*
X116375646Y-35051639D01*
X116304218Y-35194496D01*
X116304218Y-35765924D01*
X115589932Y-34265924D02*
X117089932Y-34265924D01*
X117018504Y-32765924D02*
X117089932Y-32908782D01*
X117089932Y-33123067D01*
X117018504Y-33337353D01*
X116875646Y-33480210D01*
X116732789Y-33551639D01*
X116447075Y-33623067D01*
X116232789Y-33623067D01*
X115947075Y-33551639D01*
X115804218Y-33480210D01*
X115661361Y-33337353D01*
X115589932Y-33123067D01*
X115589932Y-32980210D01*
X115661361Y-32765924D01*
X115732789Y-32694496D01*
X116232789Y-32694496D01*
X116232789Y-32980210D01*
X115589932Y-32051639D02*
X117089932Y-32051639D01*
X116375646Y-32051639D02*
X116375646Y-31194496D01*
X115589932Y-31194496D02*
X117089932Y-31194496D01*
X117089932Y-30694496D02*
X117089932Y-29837353D01*
X115589932Y-30265924D02*
X117089932Y-30265924D01*
D11*
X101533575Y-83896102D02*
X101991511Y-83815290D01*
X101856824Y-84219351D02*
X102422509Y-83653665D01*
X102207010Y-83438166D01*
X102126198Y-83411228D01*
X102072323Y-83411228D01*
X101991511Y-83438166D01*
X101910699Y-83518978D01*
X101883761Y-83599790D01*
X101883761Y-83653665D01*
X101910699Y-83734477D01*
X102126198Y-83949977D01*
X101829887Y-83168792D02*
X101829887Y-83114917D01*
X101802949Y-83034105D01*
X101668262Y-82899418D01*
X101587450Y-82872480D01*
X101533575Y-82872480D01*
X101452763Y-82899418D01*
X101398888Y-82953293D01*
X101345013Y-83061042D01*
X101345013Y-83707540D01*
X100994827Y-83357354D01*
X140928975Y-76358586D02*
X141386911Y-76277774D01*
X141252224Y-76681835D02*
X141817909Y-76116149D01*
X141602410Y-75900650D01*
X141521598Y-75873712D01*
X141467723Y-75873712D01*
X141386911Y-75900650D01*
X141306099Y-75981462D01*
X141279161Y-76062274D01*
X141279161Y-76116149D01*
X141306099Y-76196961D01*
X141521598Y-76412461D01*
X141306099Y-75604338D02*
X140955912Y-75254152D01*
X140928975Y-75658213D01*
X140848163Y-75577401D01*
X140767351Y-75550464D01*
X140713476Y-75550464D01*
X140632664Y-75577401D01*
X140497977Y-75712088D01*
X140471039Y-75792900D01*
X140471039Y-75846775D01*
X140497977Y-75927587D01*
X140659601Y-76089212D01*
X140740413Y-76116149D01*
X140794288Y-76116149D01*
X108710201Y-71643418D02*
X108710201Y-70843418D01*
X108443534Y-71414847D01*
X108176867Y-70843418D01*
X108176867Y-71643418D01*
X107834010Y-71414847D02*
X107453058Y-71414847D01*
X107910201Y-71643418D02*
X107643534Y-70843418D01*
X107376867Y-71643418D01*
X107224487Y-70843418D02*
X106767344Y-70843418D01*
X106995915Y-71643418D02*
X106995915Y-70843418D01*
X106043534Y-71643418D02*
X106310201Y-71262466D01*
X106500677Y-71643418D02*
X106500677Y-70843418D01*
X106195915Y-70843418D01*
X106119725Y-70881514D01*
X106081629Y-70919609D01*
X106043534Y-70995799D01*
X106043534Y-71110085D01*
X106081629Y-71186275D01*
X106119725Y-71224371D01*
X106195915Y-71262466D01*
X106500677Y-71262466D01*
X105700677Y-71643418D02*
X105700677Y-70843418D01*
X105395915Y-70843418D02*
X104862582Y-71643418D01*
X104862582Y-70843418D02*
X105395915Y-71643418D01*
X107023050Y-83970417D02*
X107023050Y-84024292D01*
X107076925Y-84132041D01*
X107130800Y-84185916D01*
X107238549Y-84239791D01*
X107346299Y-84239791D01*
X107427111Y-84212854D01*
X107561798Y-84132041D01*
X107642610Y-84051229D01*
X107723422Y-83916542D01*
X107750360Y-83835730D01*
X107750360Y-83727980D01*
X107696485Y-83620231D01*
X107642610Y-83566356D01*
X107534861Y-83512481D01*
X107480986Y-83512481D01*
X107049987Y-82973733D02*
X107157737Y-83081483D01*
X107184674Y-83162295D01*
X107184674Y-83216170D01*
X107157737Y-83350857D01*
X107076925Y-83485544D01*
X106861425Y-83701043D01*
X106780613Y-83727980D01*
X106726738Y-83727980D01*
X106645926Y-83701043D01*
X106538177Y-83593293D01*
X106511239Y-83512481D01*
X106511239Y-83458606D01*
X106538177Y-83377794D01*
X106672864Y-83243107D01*
X106753676Y-83216170D01*
X106807551Y-83216170D01*
X106888363Y-83243107D01*
X106996112Y-83350857D01*
X107023050Y-83431669D01*
X107023050Y-83485544D01*
X106996112Y-83566356D01*
X101587450Y-73682227D02*
X101587450Y-73736102D01*
X101641325Y-73843851D01*
X101695200Y-73897726D01*
X101802949Y-73951601D01*
X101910699Y-73951601D01*
X101991511Y-73924664D01*
X102126198Y-73843851D01*
X102207010Y-73763039D01*
X102287822Y-73628352D01*
X102314760Y-73547540D01*
X102314760Y-73439790D01*
X102260885Y-73332041D01*
X102207010Y-73278166D01*
X102099261Y-73224291D01*
X102045386Y-73224291D01*
X101910699Y-72981854D02*
X101560512Y-72631668D01*
X101533575Y-73035729D01*
X101452763Y-72954917D01*
X101371951Y-72927980D01*
X101318076Y-72927980D01*
X101237264Y-72954917D01*
X101102577Y-73089604D01*
X101075639Y-73170416D01*
X101075639Y-73224291D01*
X101102577Y-73305103D01*
X101264201Y-73466728D01*
X101345013Y-73493665D01*
X101398888Y-73493665D01*
X113657142Y-42223809D02*
X113619047Y-42109523D01*
X113580952Y-42071428D01*
X113504761Y-42033333D01*
X113390476Y-42033333D01*
X113314285Y-42071428D01*
X113276190Y-42109523D01*
X113238095Y-42185714D01*
X113238095Y-42490476D01*
X114038095Y-42490476D01*
X114038095Y-42223809D01*
X114000000Y-42147619D01*
X113961904Y-42109523D01*
X113885714Y-42071428D01*
X113809523Y-42071428D01*
X113733333Y-42109523D01*
X113695238Y-42147619D01*
X113657142Y-42223809D01*
X113657142Y-42490476D01*
X113466666Y-41728571D02*
X113466666Y-41347619D01*
X113238095Y-41804761D02*
X114038095Y-41538095D01*
X113238095Y-41271428D01*
X113276190Y-41042857D02*
X113238095Y-40928571D01*
X113238095Y-40738095D01*
X113276190Y-40661904D01*
X113314285Y-40623809D01*
X113390476Y-40585714D01*
X113466666Y-40585714D01*
X113542857Y-40623809D01*
X113580952Y-40661904D01*
X113619047Y-40738095D01*
X113657142Y-40890476D01*
X113695238Y-40966666D01*
X113733333Y-41004761D01*
X113809523Y-41042857D01*
X113885714Y-41042857D01*
X113961904Y-41004761D01*
X114000000Y-40966666D01*
X114038095Y-40890476D01*
X114038095Y-40699999D01*
X114000000Y-40585714D01*
X114038095Y-40357142D02*
X114038095Y-39899999D01*
X113238095Y-40128571D02*
X114038095Y-40128571D01*
X113466666Y-39671428D02*
X113466666Y-39290476D01*
X113238095Y-39747619D02*
X114038095Y-39480952D01*
X113238095Y-39214285D01*
X113238095Y-38490476D02*
X113619047Y-38757142D01*
X113238095Y-38947619D02*
X114038095Y-38947619D01*
X114038095Y-38642857D01*
X114000000Y-38566666D01*
X113961904Y-38528571D01*
X113885714Y-38490476D01*
X113771428Y-38490476D01*
X113695238Y-38528571D01*
X113657142Y-38566666D01*
X113619047Y-38642857D01*
X113619047Y-38947619D01*
X113238095Y-38147619D02*
X114038095Y-38147619D01*
X114038095Y-37957142D01*
X114000000Y-37842857D01*
X113923809Y-37766666D01*
X113847619Y-37728571D01*
X113695238Y-37690476D01*
X113580952Y-37690476D01*
X113428571Y-37728571D01*
X113352380Y-37766666D01*
X113276190Y-37842857D01*
X113238095Y-37957142D01*
X113238095Y-38147619D01*
X113238095Y-37347619D02*
X114038095Y-37347619D01*
X113238095Y-36890476D02*
X113695238Y-37233333D01*
X114038095Y-36890476D02*
X113580952Y-37347619D01*
X113657142Y-36280952D02*
X113619047Y-36166666D01*
X113580952Y-36128571D01*
X113504761Y-36090476D01*
X113390476Y-36090476D01*
X113314285Y-36128571D01*
X113276190Y-36166666D01*
X113238095Y-36242857D01*
X113238095Y-36547619D01*
X114038095Y-36547619D01*
X114038095Y-36280952D01*
X114000000Y-36204761D01*
X113961904Y-36166666D01*
X113885714Y-36128571D01*
X113809523Y-36128571D01*
X113733333Y-36166666D01*
X113695238Y-36204761D01*
X113657142Y-36280952D01*
X113657142Y-36547619D01*
X113238095Y-35214285D02*
X113771428Y-34795238D01*
X113771428Y-35214285D02*
X113238095Y-34795238D01*
X113238095Y-33880952D02*
X114038095Y-33880952D01*
X113238095Y-33423809D02*
X113695238Y-33766666D01*
X114038095Y-33423809D02*
X113580952Y-33880952D01*
X113466666Y-33119047D02*
X113466666Y-32738095D01*
X113238095Y-33195238D02*
X114038095Y-32928571D01*
X113238095Y-32661904D01*
X113238095Y-31938095D02*
X113619047Y-32204761D01*
X113238095Y-32395238D02*
X114038095Y-32395238D01*
X114038095Y-32090476D01*
X114000000Y-32014285D01*
X113961904Y-31976190D01*
X113885714Y-31938095D01*
X113771428Y-31938095D01*
X113695238Y-31976190D01*
X113657142Y-32014285D01*
X113619047Y-32090476D01*
X113619047Y-32395238D01*
X113238095Y-31214285D02*
X113238095Y-31595238D01*
X114038095Y-31595238D01*
X113238095Y-30947619D02*
X114038095Y-30947619D01*
X113238095Y-30490476D02*
X113695238Y-30833333D01*
X114038095Y-30490476D02*
X113580952Y-30947619D01*
X113238095Y-30109523D02*
X113238095Y-29957142D01*
X113276190Y-29880952D01*
X113314285Y-29842857D01*
X113428571Y-29766666D01*
X113580952Y-29728571D01*
X113885714Y-29728571D01*
X113961904Y-29766666D01*
X114000000Y-29804761D01*
X114038095Y-29880952D01*
X114038095Y-30033333D01*
X114000000Y-30109523D01*
X113961904Y-30147619D01*
X113885714Y-30185714D01*
X113695238Y-30185714D01*
X113619047Y-30147619D01*
X113580952Y-30109523D01*
X113542857Y-30033333D01*
X113542857Y-29880952D01*
X113580952Y-29804761D01*
X113619047Y-29766666D01*
X113695238Y-29728571D01*
X114038095Y-29233333D02*
X114038095Y-29157142D01*
X114000000Y-29080952D01*
X113961904Y-29042857D01*
X113885714Y-29004761D01*
X113733333Y-28966666D01*
X113542857Y-28966666D01*
X113390476Y-29004761D01*
X113314285Y-29042857D01*
X113276190Y-29080952D01*
X113238095Y-29157142D01*
X113238095Y-29233333D01*
X113276190Y-29309523D01*
X113314285Y-29347619D01*
X113390476Y-29385714D01*
X113542857Y-29423809D01*
X113733333Y-29423809D01*
X113885714Y-29385714D01*
X113961904Y-29347619D01*
X114000000Y-29309523D01*
X114038095Y-29233333D01*
X101587450Y-78762227D02*
X101587450Y-78816102D01*
X101641325Y-78923851D01*
X101695200Y-78977726D01*
X101802949Y-79031601D01*
X101910699Y-79031601D01*
X101991511Y-79004664D01*
X102126198Y-78923851D01*
X102207010Y-78843039D01*
X102287822Y-78708352D01*
X102314760Y-78627540D01*
X102314760Y-78519790D01*
X102260885Y-78412041D01*
X102207010Y-78358166D01*
X102099261Y-78304291D01*
X102045386Y-78304291D01*
X101829887Y-78088792D02*
X101829887Y-78034917D01*
X101802949Y-77954105D01*
X101668262Y-77819418D01*
X101587450Y-77792480D01*
X101533575Y-77792480D01*
X101452763Y-77819418D01*
X101398888Y-77873293D01*
X101345013Y-77981042D01*
X101345013Y-78627540D01*
X100994827Y-78277354D01*
X88697618Y-38590904D02*
X89078571Y-38590904D01*
X89116666Y-38971857D01*
X89078571Y-38933761D01*
X89002380Y-38895666D01*
X88811904Y-38895666D01*
X88735714Y-38933761D01*
X88697618Y-38971857D01*
X88659523Y-39048047D01*
X88659523Y-39238523D01*
X88697618Y-39314714D01*
X88735714Y-39352809D01*
X88811904Y-39390904D01*
X89002380Y-39390904D01*
X89078571Y-39352809D01*
X89116666Y-39314714D01*
X88430952Y-38590904D02*
X88164285Y-39390904D01*
X87897618Y-38590904D01*
X152691450Y-76323210D02*
X152691450Y-76377085D01*
X152745325Y-76484834D01*
X152799200Y-76538709D01*
X152906949Y-76592584D01*
X153014699Y-76592584D01*
X153095511Y-76565647D01*
X153230198Y-76484834D01*
X153311010Y-76404022D01*
X153391822Y-76269335D01*
X153418760Y-76188523D01*
X153418760Y-76080773D01*
X153364885Y-75973024D01*
X153311010Y-75919149D01*
X153203261Y-75865274D01*
X153149386Y-75865274D01*
X152449013Y-76134648D02*
X152341264Y-76080773D01*
X152206577Y-75946086D01*
X152179639Y-75865274D01*
X152179639Y-75811399D01*
X152206577Y-75730587D01*
X152260451Y-75676712D01*
X152341264Y-75649775D01*
X152395138Y-75649775D01*
X152475951Y-75676712D01*
X152610638Y-75757524D01*
X152691450Y-75784462D01*
X152745325Y-75784462D01*
X152826137Y-75757524D01*
X152880012Y-75703650D01*
X152906949Y-75622837D01*
X152906949Y-75568963D01*
X152880012Y-75488150D01*
X152745325Y-75353463D01*
X152637575Y-75299589D01*
X153432228Y-79711737D02*
X153997914Y-79146052D01*
X153405291Y-79361551D01*
X153620790Y-78768928D01*
X153055105Y-79334613D01*
X153243667Y-78391804D02*
X153135917Y-78284055D01*
X153055105Y-78257117D01*
X152947355Y-78257117D01*
X152812668Y-78337930D01*
X152624106Y-78526491D01*
X152543294Y-78661178D01*
X152543294Y-78768928D01*
X152570232Y-78849740D01*
X152677981Y-78957490D01*
X152758793Y-78984427D01*
X152866543Y-78984427D01*
X153001230Y-78903615D01*
X153189792Y-78715053D01*
X153270604Y-78580366D01*
X153270604Y-78472617D01*
X153243667Y-78391804D01*
X152246983Y-78472617D02*
X152139233Y-78418742D01*
X152004546Y-78284055D01*
X151977609Y-78203243D01*
X151977609Y-78149368D01*
X152004546Y-78068556D01*
X152058421Y-78014681D01*
X152139233Y-77987743D01*
X152193108Y-77987743D01*
X152273920Y-78014681D01*
X152408607Y-78095493D01*
X152489419Y-78122430D01*
X152543294Y-78122430D01*
X152624106Y-78095493D01*
X152677981Y-78041618D01*
X152704919Y-77960806D01*
X152704919Y-77906931D01*
X152677981Y-77826119D01*
X152543294Y-77691432D01*
X152435545Y-77637557D01*
X151654360Y-77933869D02*
X152220045Y-77368183D01*
X163171428Y-22873809D02*
X163057142Y-22911904D01*
X162866666Y-22911904D01*
X162790476Y-22873809D01*
X162752380Y-22835714D01*
X162714285Y-22759523D01*
X162714285Y-22683333D01*
X162752380Y-22607142D01*
X162790476Y-22569047D01*
X162866666Y-22530952D01*
X163019047Y-22492857D01*
X163095237Y-22454761D01*
X163133333Y-22416666D01*
X163171428Y-22340476D01*
X163171428Y-22264285D01*
X163133333Y-22188095D01*
X163095237Y-22150000D01*
X163019047Y-22111904D01*
X162828571Y-22111904D01*
X162714285Y-22150000D01*
D13*
X97594619Y-67481619D02*
X96785095Y-67481619D01*
X96689857Y-67434000D01*
X96642238Y-67386380D01*
X96594619Y-67291142D01*
X96594619Y-67100666D01*
X96642238Y-67005428D01*
X96689857Y-66957809D01*
X96785095Y-66910190D01*
X97594619Y-66910190D01*
X96594619Y-66434000D02*
X97594619Y-66434000D01*
X97594619Y-66053047D01*
X97547000Y-65957809D01*
X97499380Y-65910190D01*
X97404142Y-65862571D01*
X97261285Y-65862571D01*
X97166047Y-65910190D01*
X97118428Y-65957809D01*
X97070809Y-66053047D01*
X97070809Y-66434000D01*
X96594619Y-65434000D02*
X97594619Y-65434000D01*
X97594619Y-65195904D01*
X97547000Y-65053047D01*
X97451761Y-64957809D01*
X97356523Y-64910190D01*
X97166047Y-64862571D01*
X97023190Y-64862571D01*
X96832714Y-64910190D01*
X96737476Y-64957809D01*
X96642238Y-65053047D01*
X96594619Y-65195904D01*
X96594619Y-65434000D01*
X96880333Y-64481619D02*
X96880333Y-64005428D01*
X96594619Y-64576857D02*
X97594619Y-64243523D01*
X96594619Y-63910190D01*
X97594619Y-63719714D02*
X97594619Y-63148285D01*
X96594619Y-63434000D02*
X97594619Y-63434000D01*
X97118428Y-62814952D02*
X97118428Y-62481619D01*
X96594619Y-62338761D02*
X96594619Y-62814952D01*
X97594619Y-62814952D01*
X97594619Y-62338761D01*
D11*
X153216729Y-73284868D02*
X153486103Y-73554242D01*
X153243667Y-73850553D01*
X153243667Y-73796679D01*
X153216729Y-73715866D01*
X153082042Y-73581179D01*
X153001230Y-73554242D01*
X152947355Y-73554242D01*
X152866543Y-73581179D01*
X152731856Y-73715866D01*
X152704919Y-73796679D01*
X152704919Y-73850553D01*
X152731856Y-73931366D01*
X152866543Y-74066053D01*
X152947355Y-74092990D01*
X153001230Y-74092990D01*
X153028167Y-73096306D02*
X152273920Y-73473430D01*
X152651044Y-72719183D01*
X146647050Y-78891427D02*
X146647050Y-78945302D01*
X146700925Y-79053051D01*
X146754800Y-79106926D01*
X146862549Y-79160801D01*
X146970299Y-79160801D01*
X147051111Y-79133864D01*
X147185798Y-79053051D01*
X147266610Y-78972239D01*
X147347422Y-78837552D01*
X147374360Y-78756740D01*
X147374360Y-78648990D01*
X147320485Y-78541241D01*
X147266610Y-78487366D01*
X147158861Y-78433491D01*
X147104986Y-78433491D01*
X146889487Y-78217992D02*
X146889487Y-78164117D01*
X146862549Y-78083305D01*
X146727862Y-77948618D01*
X146647050Y-77921680D01*
X146593175Y-77921680D01*
X146512363Y-77948618D01*
X146458488Y-78002493D01*
X146404613Y-78110242D01*
X146404613Y-78756740D01*
X146054427Y-78406554D01*
X99251150Y-71605323D02*
X99136864Y-71643418D01*
X98946388Y-71643418D01*
X98870198Y-71605323D01*
X98832103Y-71567228D01*
X98794007Y-71491037D01*
X98794007Y-71414847D01*
X98832103Y-71338656D01*
X98870198Y-71300561D01*
X98946388Y-71262466D01*
X99098769Y-71224371D01*
X99174960Y-71186275D01*
X99213055Y-71148180D01*
X99251150Y-71071990D01*
X99251150Y-70995799D01*
X99213055Y-70919609D01*
X99174960Y-70881514D01*
X99098769Y-70843418D01*
X98908293Y-70843418D01*
X98794007Y-70881514D01*
X98451150Y-71643418D02*
X98451150Y-70843418D01*
X98146388Y-70843418D01*
X98070198Y-70881514D01*
X98032103Y-70919609D01*
X97994007Y-70995799D01*
X97994007Y-71110085D01*
X98032103Y-71186275D01*
X98070198Y-71224371D01*
X98146388Y-71262466D01*
X98451150Y-71262466D01*
X97651150Y-71643418D02*
X97651150Y-70843418D01*
X101587450Y-81302227D02*
X101587450Y-81356102D01*
X101641325Y-81463851D01*
X101695200Y-81517726D01*
X101802949Y-81571601D01*
X101910699Y-81571601D01*
X101991511Y-81544664D01*
X102126198Y-81463851D01*
X102207010Y-81383039D01*
X102287822Y-81248352D01*
X102314760Y-81167540D01*
X102314760Y-81059790D01*
X102260885Y-80952041D01*
X102207010Y-80898166D01*
X102099261Y-80844291D01*
X102045386Y-80844291D01*
X100994827Y-80817354D02*
X101318076Y-81140603D01*
X101156451Y-80978978D02*
X101722137Y-80413293D01*
X101695199Y-80547980D01*
X101695199Y-80655729D01*
X101722137Y-80736541D01*
X146593175Y-84025302D02*
X147051111Y-83944490D01*
X146916424Y-84348551D02*
X147482109Y-83782865D01*
X147266610Y-83567366D01*
X147185798Y-83540428D01*
X147131923Y-83540428D01*
X147051111Y-83567366D01*
X146970299Y-83648178D01*
X146943361Y-83728990D01*
X146943361Y-83782865D01*
X146970299Y-83863677D01*
X147185798Y-84079177D01*
X146889487Y-83297992D02*
X146889487Y-83244117D01*
X146862549Y-83163305D01*
X146727862Y-83028618D01*
X146647050Y-83001680D01*
X146593175Y-83001680D01*
X146512363Y-83028618D01*
X146458488Y-83082493D01*
X146404613Y-83190242D01*
X146404613Y-83836740D01*
X146054427Y-83486554D01*
X95567650Y-76304711D02*
X95567650Y-76358586D01*
X95621525Y-76466335D01*
X95675400Y-76520210D01*
X95783149Y-76574085D01*
X95890899Y-76574085D01*
X95971711Y-76547148D01*
X96106398Y-76466335D01*
X96187210Y-76385523D01*
X96268022Y-76250836D01*
X96294960Y-76170024D01*
X96294960Y-76062274D01*
X96241085Y-75954525D01*
X96187210Y-75900650D01*
X96079461Y-75846775D01*
X96025586Y-75846775D01*
X95325213Y-76116149D02*
X95217464Y-76062274D01*
X95082777Y-75927587D01*
X95055839Y-75846775D01*
X95055839Y-75792900D01*
X95082777Y-75712088D01*
X95136651Y-75658213D01*
X95217464Y-75631276D01*
X95271338Y-75631276D01*
X95352151Y-75658213D01*
X95486838Y-75739025D01*
X95567650Y-75765963D01*
X95621525Y-75765963D01*
X95702337Y-75739025D01*
X95756212Y-75685151D01*
X95783149Y-75604338D01*
X95783149Y-75550464D01*
X95756212Y-75469651D01*
X95621525Y-75334964D01*
X95513775Y-75281090D01*
X146647050Y-81431427D02*
X146647050Y-81485302D01*
X146700925Y-81593051D01*
X146754800Y-81646926D01*
X146862549Y-81700801D01*
X146970299Y-81700801D01*
X147051111Y-81673864D01*
X147185798Y-81593051D01*
X147266610Y-81512239D01*
X147347422Y-81377552D01*
X147374360Y-81296740D01*
X147374360Y-81188990D01*
X147320485Y-81081241D01*
X147266610Y-81027366D01*
X147158861Y-80973491D01*
X147104986Y-80973491D01*
X146054427Y-80946554D02*
X146377676Y-81269803D01*
X146216051Y-81108178D02*
X146781737Y-80542493D01*
X146754800Y-80677180D01*
X146754800Y-80784929D01*
X146781737Y-80865741D01*
X134557142Y-42223810D02*
X134519047Y-42109524D01*
X134480952Y-42071429D01*
X134404761Y-42033334D01*
X134290476Y-42033334D01*
X134214285Y-42071429D01*
X134176190Y-42109524D01*
X134138095Y-42185715D01*
X134138095Y-42490477D01*
X134938095Y-42490477D01*
X134938095Y-42223810D01*
X134900000Y-42147619D01*
X134861904Y-42109524D01*
X134785714Y-42071429D01*
X134709523Y-42071429D01*
X134633333Y-42109524D01*
X134595238Y-42147619D01*
X134557142Y-42223810D01*
X134557142Y-42490477D01*
X134138095Y-41309524D02*
X134138095Y-41690477D01*
X134938095Y-41690477D01*
X134366666Y-41080953D02*
X134366666Y-40700000D01*
X134138095Y-41157143D02*
X134938095Y-40890477D01*
X134138095Y-40623810D01*
X134214285Y-39900000D02*
X134176190Y-39938096D01*
X134138095Y-40052381D01*
X134138095Y-40128572D01*
X134176190Y-40242857D01*
X134252380Y-40319048D01*
X134328571Y-40357143D01*
X134480952Y-40395238D01*
X134595238Y-40395238D01*
X134747619Y-40357143D01*
X134823809Y-40319048D01*
X134900000Y-40242857D01*
X134938095Y-40128572D01*
X134938095Y-40052381D01*
X134900000Y-39938096D01*
X134861904Y-39900000D01*
X134138095Y-39557143D02*
X134938095Y-39557143D01*
X134138095Y-39100000D02*
X134595238Y-39442857D01*
X134938095Y-39100000D02*
X134480952Y-39557143D01*
X134138095Y-38757143D02*
X134938095Y-38757143D01*
X134938095Y-38452381D01*
X134900000Y-38376191D01*
X134861904Y-38338096D01*
X134785714Y-38300000D01*
X134671428Y-38300000D01*
X134595238Y-38338096D01*
X134557142Y-38376191D01*
X134519047Y-38452381D01*
X134519047Y-38757143D01*
X134138095Y-37957143D02*
X134938095Y-37957143D01*
X134138095Y-37195238D02*
X134138095Y-37576191D01*
X134938095Y-37576191D01*
X134138095Y-36547619D02*
X134138095Y-36928572D01*
X134938095Y-36928572D01*
X134138095Y-35671429D02*
X134938095Y-35671429D01*
X134557142Y-35671429D02*
X134557142Y-35214286D01*
X134138095Y-35214286D02*
X134938095Y-35214286D01*
X134938095Y-34680953D02*
X134938095Y-34528572D01*
X134900000Y-34452381D01*
X134823809Y-34376191D01*
X134671428Y-34338096D01*
X134404761Y-34338096D01*
X134252380Y-34376191D01*
X134176190Y-34452381D01*
X134138095Y-34528572D01*
X134138095Y-34680953D01*
X134176190Y-34757143D01*
X134252380Y-34833334D01*
X134404761Y-34871429D01*
X134671428Y-34871429D01*
X134823809Y-34833334D01*
X134900000Y-34757143D01*
X134938095Y-34680953D01*
X134138095Y-33614286D02*
X134138095Y-33995238D01*
X134938095Y-33995238D01*
X134138095Y-33347619D02*
X134938095Y-33347619D01*
X134938095Y-33157143D01*
X134900000Y-33042857D01*
X134823809Y-32966667D01*
X134747619Y-32928572D01*
X134595238Y-32890477D01*
X134480952Y-32890477D01*
X134328571Y-32928572D01*
X134252380Y-32966667D01*
X134176190Y-33042857D01*
X134138095Y-33157143D01*
X134138095Y-33347619D01*
X134557142Y-32547619D02*
X134557142Y-32280953D01*
X134138095Y-32166667D02*
X134138095Y-32547619D01*
X134938095Y-32547619D01*
X134938095Y-32166667D01*
X134138095Y-31366667D02*
X134519047Y-31633334D01*
X134138095Y-31823810D02*
X134938095Y-31823810D01*
X134938095Y-31519048D01*
X134900000Y-31442857D01*
X134861904Y-31404762D01*
X134785714Y-31366667D01*
X134671428Y-31366667D01*
X134595238Y-31404762D01*
X134557142Y-31442857D01*
X134519047Y-31519048D01*
X134519047Y-31823810D01*
X134938095Y-30261905D02*
X134938095Y-30185715D01*
X134900000Y-30109524D01*
X134861904Y-30071429D01*
X134785714Y-30033334D01*
X134633333Y-29995238D01*
X134442857Y-29995238D01*
X134290476Y-30033334D01*
X134214285Y-30071429D01*
X134176190Y-30109524D01*
X134138095Y-30185715D01*
X134138095Y-30261905D01*
X134176190Y-30338096D01*
X134214285Y-30376191D01*
X134290476Y-30414286D01*
X134442857Y-30452381D01*
X134633333Y-30452381D01*
X134785714Y-30414286D01*
X134861904Y-30376191D01*
X134900000Y-30338096D01*
X134938095Y-30261905D01*
X134214285Y-29652381D02*
X134176190Y-29614286D01*
X134138095Y-29652381D01*
X134176190Y-29690477D01*
X134214285Y-29652381D01*
X134138095Y-29652381D01*
X134138095Y-28852381D02*
X134138095Y-29309524D01*
X134138095Y-29080953D02*
X134938095Y-29080953D01*
X134823809Y-29157143D01*
X134747619Y-29233334D01*
X134709523Y-29309524D01*
D13*
X143568619Y-67608619D02*
X142759095Y-67608619D01*
X142663857Y-67561000D01*
X142616238Y-67513380D01*
X142568619Y-67418142D01*
X142568619Y-67227666D01*
X142616238Y-67132428D01*
X142663857Y-67084809D01*
X142759095Y-67037190D01*
X143568619Y-67037190D01*
X142568619Y-66561000D02*
X143568619Y-66561000D01*
X143568619Y-66180047D01*
X143521000Y-66084809D01*
X143473380Y-66037190D01*
X143378142Y-65989571D01*
X143235285Y-65989571D01*
X143140047Y-66037190D01*
X143092428Y-66084809D01*
X143044809Y-66180047D01*
X143044809Y-66561000D01*
X142568619Y-65561000D02*
X143568619Y-65561000D01*
X143568619Y-65322904D01*
X143521000Y-65180047D01*
X143425761Y-65084809D01*
X143330523Y-65037190D01*
X143140047Y-64989571D01*
X142997190Y-64989571D01*
X142806714Y-65037190D01*
X142711476Y-65084809D01*
X142616238Y-65180047D01*
X142568619Y-65322904D01*
X142568619Y-65561000D01*
X142854333Y-64608619D02*
X142854333Y-64132428D01*
X142568619Y-64703857D02*
X143568619Y-64370523D01*
X142568619Y-64037190D01*
X143568619Y-63846714D02*
X143568619Y-63275285D01*
X142568619Y-63561000D02*
X143568619Y-63561000D01*
X143092428Y-62941952D02*
X143092428Y-62608619D01*
X142568619Y-62465761D02*
X142568619Y-62941952D01*
X143568619Y-62941952D01*
X143568619Y-62465761D01*
D11*
X89650000Y-44470904D02*
X89650000Y-43670904D01*
X89459524Y-43670904D01*
X89345238Y-43709000D01*
X89269048Y-43785190D01*
X89230953Y-43861380D01*
X89192857Y-44013761D01*
X89192857Y-44128047D01*
X89230953Y-44280428D01*
X89269048Y-44356619D01*
X89345238Y-44432809D01*
X89459524Y-44470904D01*
X89650000Y-44470904D01*
X88850000Y-44470904D02*
X88850000Y-43670904D01*
X88469048Y-44470904D02*
X88469048Y-43670904D01*
X88011905Y-44470904D01*
X88011905Y-43670904D01*
X136007142Y-42223809D02*
X135969047Y-42109523D01*
X135930952Y-42071428D01*
X135854761Y-42033333D01*
X135740476Y-42033333D01*
X135664285Y-42071428D01*
X135626190Y-42109523D01*
X135588095Y-42185714D01*
X135588095Y-42490476D01*
X136388095Y-42490476D01*
X136388095Y-42223809D01*
X136350000Y-42147619D01*
X136311904Y-42109523D01*
X136235714Y-42071428D01*
X136159523Y-42071428D01*
X136083333Y-42109523D01*
X136045238Y-42147619D01*
X136007142Y-42223809D01*
X136007142Y-42490476D01*
X135816666Y-41728571D02*
X135816666Y-41347619D01*
X135588095Y-41804761D02*
X136388095Y-41538095D01*
X135588095Y-41271428D01*
X135626190Y-41042857D02*
X135588095Y-40928571D01*
X135588095Y-40738095D01*
X135626190Y-40661904D01*
X135664285Y-40623809D01*
X135740476Y-40585714D01*
X135816666Y-40585714D01*
X135892857Y-40623809D01*
X135930952Y-40661904D01*
X135969047Y-40738095D01*
X136007142Y-40890476D01*
X136045238Y-40966666D01*
X136083333Y-41004761D01*
X136159523Y-41042857D01*
X136235714Y-41042857D01*
X136311904Y-41004761D01*
X136350000Y-40966666D01*
X136388095Y-40890476D01*
X136388095Y-40699999D01*
X136350000Y-40585714D01*
X136388095Y-40357142D02*
X136388095Y-39899999D01*
X135588095Y-40128571D02*
X136388095Y-40128571D01*
X135816666Y-39671428D02*
X135816666Y-39290476D01*
X135588095Y-39747619D02*
X136388095Y-39480952D01*
X135588095Y-39214285D01*
X135588095Y-38490476D02*
X135969047Y-38757142D01*
X135588095Y-38947619D02*
X136388095Y-38947619D01*
X136388095Y-38642857D01*
X136350000Y-38566666D01*
X136311904Y-38528571D01*
X136235714Y-38490476D01*
X136121428Y-38490476D01*
X136045238Y-38528571D01*
X136007142Y-38566666D01*
X135969047Y-38642857D01*
X135969047Y-38947619D01*
X135588095Y-38147619D02*
X136388095Y-38147619D01*
X136388095Y-37957142D01*
X136350000Y-37842857D01*
X136273809Y-37766666D01*
X136197619Y-37728571D01*
X136045238Y-37690476D01*
X135930952Y-37690476D01*
X135778571Y-37728571D01*
X135702380Y-37766666D01*
X135626190Y-37842857D01*
X135588095Y-37957142D01*
X135588095Y-38147619D01*
X135588095Y-37347619D02*
X136388095Y-37347619D01*
X135588095Y-36890476D02*
X136045238Y-37233333D01*
X136388095Y-36890476D02*
X135930952Y-37347619D01*
X136007142Y-36280952D02*
X135969047Y-36166666D01*
X135930952Y-36128571D01*
X135854761Y-36090476D01*
X135740476Y-36090476D01*
X135664285Y-36128571D01*
X135626190Y-36166666D01*
X135588095Y-36242857D01*
X135588095Y-36547619D01*
X136388095Y-36547619D01*
X136388095Y-36280952D01*
X136350000Y-36204761D01*
X136311904Y-36166666D01*
X136235714Y-36128571D01*
X136159523Y-36128571D01*
X136083333Y-36166666D01*
X136045238Y-36204761D01*
X136007142Y-36280952D01*
X136007142Y-36547619D01*
X135588095Y-35214285D02*
X136121428Y-34795238D01*
X136121428Y-35214285D02*
X135588095Y-34795238D01*
X135588095Y-33880952D02*
X136388095Y-33880952D01*
X135588095Y-33423809D02*
X136045238Y-33766666D01*
X136388095Y-33423809D02*
X135930952Y-33880952D01*
X135816666Y-33119047D02*
X135816666Y-32738095D01*
X135588095Y-33195238D02*
X136388095Y-32928571D01*
X135588095Y-32661904D01*
X135588095Y-31938095D02*
X135969047Y-32204761D01*
X135588095Y-32395238D02*
X136388095Y-32395238D01*
X136388095Y-32090476D01*
X136350000Y-32014285D01*
X136311904Y-31976190D01*
X136235714Y-31938095D01*
X136121428Y-31938095D01*
X136045238Y-31976190D01*
X136007142Y-32014285D01*
X135969047Y-32090476D01*
X135969047Y-32395238D01*
X135588095Y-31214285D02*
X135588095Y-31595238D01*
X136388095Y-31595238D01*
X135588095Y-30947619D02*
X136388095Y-30947619D01*
X135588095Y-30490476D02*
X136045238Y-30833333D01*
X136388095Y-30490476D02*
X135930952Y-30947619D01*
X135588095Y-30109523D02*
X135588095Y-29957142D01*
X135626190Y-29880952D01*
X135664285Y-29842857D01*
X135778571Y-29766666D01*
X135930952Y-29728571D01*
X136235714Y-29728571D01*
X136311904Y-29766666D01*
X136350000Y-29804761D01*
X136388095Y-29880952D01*
X136388095Y-30033333D01*
X136350000Y-30109523D01*
X136311904Y-30147619D01*
X136235714Y-30185714D01*
X136045238Y-30185714D01*
X135969047Y-30147619D01*
X135930952Y-30109523D01*
X135892857Y-30033333D01*
X135892857Y-29880952D01*
X135930952Y-29804761D01*
X135969047Y-29766666D01*
X136045238Y-29728571D01*
X136388095Y-29233333D02*
X136388095Y-29157142D01*
X136350000Y-29080952D01*
X136311904Y-29042857D01*
X136235714Y-29004761D01*
X136083333Y-28966666D01*
X135892857Y-28966666D01*
X135740476Y-29004761D01*
X135664285Y-29042857D01*
X135626190Y-29080952D01*
X135588095Y-29157142D01*
X135588095Y-29233333D01*
X135626190Y-29309523D01*
X135664285Y-29347619D01*
X135740476Y-29385714D01*
X135892857Y-29423809D01*
X136083333Y-29423809D01*
X136235714Y-29385714D01*
X136311904Y-29347619D01*
X136350000Y-29309523D01*
X136388095Y-29233333D01*
X88251064Y-33578625D02*
X88136778Y-33616720D01*
X87946302Y-33616720D01*
X87870111Y-33578625D01*
X87832016Y-33540530D01*
X87793921Y-33464339D01*
X87793921Y-33388149D01*
X87832016Y-33311958D01*
X87870111Y-33273863D01*
X87946302Y-33235768D01*
X88098683Y-33197673D01*
X88174873Y-33159577D01*
X88212968Y-33121482D01*
X88251064Y-33045292D01*
X88251064Y-32969101D01*
X88212968Y-32892911D01*
X88174873Y-32854816D01*
X88098683Y-32816720D01*
X87908206Y-32816720D01*
X87793921Y-32854816D01*
X87451064Y-33197673D02*
X87184397Y-33197673D01*
X87070111Y-33616720D02*
X87451064Y-33616720D01*
X87451064Y-32816720D01*
X87070111Y-32816720D01*
X86270111Y-33616720D02*
X86536778Y-33235768D01*
X86727254Y-33616720D02*
X86727254Y-32816720D01*
X86422492Y-32816720D01*
X86346302Y-32854816D01*
X86308206Y-32892911D01*
X86270111Y-32969101D01*
X86270111Y-33083387D01*
X86308206Y-33159577D01*
X86346302Y-33197673D01*
X86422492Y-33235768D01*
X86727254Y-33235768D01*
X85927254Y-33616720D02*
X85927254Y-32816720D01*
X85584397Y-33388149D02*
X85203445Y-33388149D01*
X85660587Y-33616720D02*
X85393921Y-32816720D01*
X85127254Y-33616720D01*
X84479635Y-33616720D02*
X84860587Y-33616720D01*
X84860587Y-32816720D01*
X96092929Y-73266369D02*
X96362303Y-73535743D01*
X96119867Y-73832054D01*
X96119867Y-73778180D01*
X96092929Y-73697367D01*
X95958242Y-73562680D01*
X95877430Y-73535743D01*
X95823555Y-73535743D01*
X95742743Y-73562680D01*
X95608056Y-73697367D01*
X95581119Y-73778180D01*
X95581119Y-73832054D01*
X95608056Y-73912867D01*
X95742743Y-74047554D01*
X95823555Y-74074491D01*
X95877430Y-74074491D01*
X95904367Y-73077807D02*
X95150120Y-73454931D01*
X95527244Y-72700684D01*
X140982850Y-78844711D02*
X140982850Y-78898586D01*
X141036725Y-79006335D01*
X141090600Y-79060210D01*
X141198349Y-79114085D01*
X141306099Y-79114085D01*
X141386911Y-79087148D01*
X141521598Y-79006335D01*
X141602410Y-78925523D01*
X141683222Y-78790836D01*
X141710160Y-78710024D01*
X141710160Y-78602274D01*
X141656285Y-78494525D01*
X141602410Y-78440650D01*
X141494661Y-78386775D01*
X141440786Y-78386775D01*
X140821225Y-78036589D02*
X140444102Y-78413712D01*
X141171412Y-77955777D02*
X140902038Y-78494525D01*
X140551851Y-78144338D01*
X87271428Y-25250000D02*
X87347619Y-25211904D01*
X87461905Y-25211904D01*
X87576190Y-25250000D01*
X87652381Y-25326190D01*
X87690476Y-25402380D01*
X87728571Y-25554761D01*
X87728571Y-25669047D01*
X87690476Y-25821428D01*
X87652381Y-25897619D01*
X87576190Y-25973809D01*
X87461905Y-26011904D01*
X87385714Y-26011904D01*
X87271428Y-25973809D01*
X87233333Y-25935714D01*
X87233333Y-25669047D01*
X87385714Y-25669047D01*
X86890476Y-26011904D02*
X86890476Y-25211904D01*
X86433333Y-26011904D01*
X86433333Y-25211904D01*
X86052381Y-26011904D02*
X86052381Y-25211904D01*
X85861905Y-25211904D01*
X85747619Y-25250000D01*
X85671428Y-25326190D01*
X85633333Y-25402380D01*
X85595238Y-25554761D01*
X85595238Y-25669047D01*
X85633333Y-25821428D01*
X85671428Y-25897619D01*
X85747619Y-25973809D01*
X85861905Y-26011904D01*
X86052381Y-26011904D01*
X140982850Y-81384711D02*
X140982850Y-81438586D01*
X141036725Y-81546335D01*
X141090600Y-81600210D01*
X141198349Y-81654085D01*
X141306099Y-81654085D01*
X141386911Y-81627148D01*
X141521598Y-81546335D01*
X141602410Y-81465523D01*
X141683222Y-81330836D01*
X141710160Y-81250024D01*
X141710160Y-81142274D01*
X141656285Y-81034525D01*
X141602410Y-80980650D01*
X141494661Y-80926775D01*
X141440786Y-80926775D01*
X140982850Y-80361090D02*
X141252224Y-80630464D01*
X141009787Y-80926775D01*
X141009787Y-80872900D01*
X140982850Y-80792088D01*
X140848163Y-80657401D01*
X140767351Y-80630464D01*
X140713476Y-80630464D01*
X140632664Y-80657401D01*
X140497977Y-80792088D01*
X140471039Y-80872900D01*
X140471039Y-80926775D01*
X140497977Y-81007587D01*
X140632664Y-81142274D01*
X140713476Y-81169212D01*
X140767351Y-81169212D01*
X89649999Y-41169000D02*
X89726190Y-41130904D01*
X89840476Y-41130904D01*
X89954761Y-41169000D01*
X90030952Y-41245190D01*
X90069047Y-41321380D01*
X90107142Y-41473761D01*
X90107142Y-41588047D01*
X90069047Y-41740428D01*
X90030952Y-41816619D01*
X89954761Y-41892809D01*
X89840476Y-41930904D01*
X89764285Y-41930904D01*
X89649999Y-41892809D01*
X89611904Y-41854714D01*
X89611904Y-41588047D01*
X89764285Y-41588047D01*
X89269047Y-41930904D02*
X89269047Y-41130904D01*
X88811904Y-41930904D01*
X88811904Y-41130904D01*
X88430952Y-41930904D02*
X88430952Y-41130904D01*
X88240476Y-41130904D01*
X88126190Y-41169000D01*
X88049999Y-41245190D01*
X88011904Y-41321380D01*
X87973809Y-41473761D01*
X87973809Y-41588047D01*
X88011904Y-41740428D01*
X88049999Y-41816619D01*
X88126190Y-41892809D01*
X88240476Y-41930904D01*
X88430952Y-41930904D01*
D12*
X130921428Y-34003571D02*
X130921428Y-34717857D01*
X132421428Y-34717857D01*
X131707142Y-33503571D02*
X131707142Y-33003571D01*
X130921428Y-32789285D02*
X130921428Y-33503571D01*
X132421428Y-33503571D01*
X132421428Y-32789285D01*
X131707142Y-31646428D02*
X131707142Y-32146428D01*
X130921428Y-32146428D02*
X132421428Y-32146428D01*
X132421428Y-31432142D01*
X132421428Y-31075000D02*
X132421428Y-30217857D01*
X130921428Y-30646428D02*
X132421428Y-30646428D01*
D11*
%TO.C,U2*%
X148001904Y-16182380D02*
X148001904Y-16991904D01*
X147954285Y-17087142D01*
X147906666Y-17134761D01*
X147811428Y-17182380D01*
X147620952Y-17182380D01*
X147525714Y-17134761D01*
X147478095Y-17087142D01*
X147430476Y-16991904D01*
X147430476Y-16182380D01*
X147001904Y-16277619D02*
X146954285Y-16230000D01*
X146859047Y-16182380D01*
X146620952Y-16182380D01*
X146525714Y-16230000D01*
X146478095Y-16277619D01*
X146430476Y-16372857D01*
X146430476Y-16468095D01*
X146478095Y-16610952D01*
X147049523Y-17182380D01*
X146430476Y-17182380D01*
%TO.C,U1*%
X101921904Y-16192380D02*
X101921904Y-17001904D01*
X101874285Y-17097142D01*
X101826666Y-17144761D01*
X101731428Y-17192380D01*
X101540952Y-17192380D01*
X101445714Y-17144761D01*
X101398095Y-17097142D01*
X101350476Y-17001904D01*
X101350476Y-16192380D01*
X100350476Y-17192380D02*
X100921904Y-17192380D01*
X100636190Y-17192380D02*
X100636190Y-16192380D01*
X100731428Y-16335238D01*
X100826666Y-16430476D01*
X100921904Y-16478095D01*
%TO.C,J12*%
X97133999Y-72172200D02*
X99733999Y-72172200D01*
X99733999Y-72172200D02*
X99733999Y-87482200D01*
X99733999Y-87482200D02*
X97133999Y-87482200D01*
X97133999Y-87482200D02*
X97133999Y-72172200D01*
%TO.C,J5*%
X154265000Y-72190000D02*
X156865000Y-72190000D01*
X156865000Y-72190000D02*
X156865000Y-87500000D01*
X156865000Y-87500000D02*
X154265000Y-87500000D01*
X154265000Y-87500000D02*
X154265000Y-72190000D01*
%TO.C,J7*%
X91545999Y-72172200D02*
X94145999Y-72172200D01*
X94145999Y-72172200D02*
X94145999Y-87482200D01*
X94145999Y-87482200D02*
X91545999Y-87482200D01*
X91545999Y-87482200D02*
X91545999Y-72172200D01*
%TO.C,J11*%
X148634666Y-72190000D02*
X151234666Y-72190000D01*
X151234666Y-72190000D02*
X151234666Y-87500000D01*
X151234666Y-87500000D02*
X148634666Y-87500000D01*
X148634666Y-87500000D02*
X148634666Y-72190000D01*
%TO.C,J3*%
X160456000Y-37680000D02*
X163086000Y-37680000D01*
X163086000Y-37680000D02*
X163086000Y-45390000D01*
X163086000Y-45390000D02*
X160456000Y-45390000D01*
X160456000Y-45390000D02*
X160456000Y-37680000D01*
%TO.C,J9*%
X143024333Y-72182200D02*
X145634333Y-72182200D01*
X145634333Y-72182200D02*
X145634333Y-84942200D01*
X145634333Y-84942200D02*
X143024333Y-84942200D01*
X143024333Y-84942200D02*
X143024333Y-72182200D01*
%TO.C,J4*%
X85011000Y-37680000D02*
X87641000Y-37680000D01*
X87641000Y-37680000D02*
X87641000Y-45390000D01*
X87641000Y-45390000D02*
X85011000Y-45390000D01*
X85011000Y-45390000D02*
X85011000Y-37680000D01*
%TO.C,J8*%
X108309999Y-72172200D02*
X110909999Y-72172200D01*
X110909999Y-72172200D02*
X110909999Y-87482200D01*
X110909999Y-87482200D02*
X108309999Y-87482200D01*
X108309999Y-87482200D02*
X108309999Y-72172200D01*
%TO.C,J6*%
X102741998Y-72182200D02*
X105351998Y-72182200D01*
X105351998Y-72182200D02*
X105351998Y-84942200D01*
X105351998Y-84942200D02*
X102741998Y-84942200D01*
X102741998Y-84942200D02*
X102741998Y-72182200D01*
%TO.C,J10*%
X137374000Y-72172200D02*
X139974000Y-72172200D01*
X139974000Y-72172200D02*
X139974000Y-87482200D01*
X139974000Y-87482200D02*
X137374000Y-87482200D01*
X137374000Y-87482200D02*
X137374000Y-72172200D01*
D10*
%TO.C,R8*%
X98084000Y-43018064D02*
X98084000Y-41563936D01*
X96264000Y-43018064D02*
X96264000Y-41563936D01*
%TO.C,R7*%
X100264500Y-43018064D02*
X100264500Y-41563936D01*
X102084500Y-43018064D02*
X102084500Y-41563936D01*
%TO.C,R1*%
X146346500Y-43018064D02*
X146346500Y-41563936D01*
X148166500Y-43018064D02*
X148166500Y-41563936D01*
%TO.C,G\u002A\u002A\u002A*%
G36*
X124658457Y-67340873D02*
G01*
X124867078Y-67353681D01*
X125036761Y-67377808D01*
X125163505Y-67409276D01*
X125420937Y-67508213D01*
X125650939Y-67644890D01*
X125847668Y-67813784D01*
X126005286Y-68009373D01*
X126117952Y-68226136D01*
X126179826Y-68458550D01*
X126195608Y-68666564D01*
X126174359Y-68926725D01*
X126108207Y-69167788D01*
X125999272Y-69378952D01*
X125952588Y-69451289D01*
X125913532Y-69518693D01*
X125898528Y-69554533D01*
X125904462Y-69562262D01*
X125950767Y-69575267D01*
X126027973Y-69580408D01*
X126157418Y-69580408D01*
X126157418Y-70155719D01*
X126157388Y-70191305D01*
X126156354Y-70362643D01*
X126154023Y-70510896D01*
X126150630Y-70627452D01*
X126146412Y-70703701D01*
X126141607Y-70731030D01*
X126138538Y-70730548D01*
X126098286Y-70713836D01*
X126033736Y-70680691D01*
X126021761Y-70674791D01*
X125998493Y-70666531D01*
X125966282Y-70659313D01*
X125921390Y-70653048D01*
X125860080Y-70647651D01*
X125778615Y-70643033D01*
X125673257Y-70639109D01*
X125540268Y-70635791D01*
X125375910Y-70632992D01*
X125176447Y-70630626D01*
X124938141Y-70628604D01*
X124657254Y-70626841D01*
X124330048Y-70625249D01*
X123952787Y-70623741D01*
X123521732Y-70622230D01*
X121101788Y-70614109D01*
X121088394Y-70003770D01*
X121087056Y-69940236D01*
X121083985Y-69764882D01*
X121082219Y-69612707D01*
X121081804Y-69492293D01*
X121082783Y-69412224D01*
X121085200Y-69381084D01*
X121091256Y-69379769D01*
X121134593Y-69392721D01*
X121202909Y-69424233D01*
X121234978Y-69439070D01*
X121277775Y-69452933D01*
X121333454Y-69463610D01*
X121409454Y-69471657D01*
X121513219Y-69477630D01*
X121652190Y-69482084D01*
X121833808Y-69485576D01*
X122065515Y-69488661D01*
X122258134Y-69490438D01*
X122440586Y-69491087D01*
X122595574Y-69490553D01*
X122715585Y-69488897D01*
X122793102Y-69486182D01*
X122820612Y-69482468D01*
X122813652Y-69465485D01*
X122783130Y-69410792D01*
X122736561Y-69334810D01*
X122678473Y-69217516D01*
X122628711Y-69040022D01*
X123392514Y-69040022D01*
X123413370Y-69204820D01*
X123475823Y-69364666D01*
X123554379Y-69508494D01*
X124345310Y-69501303D01*
X124360996Y-69501161D01*
X124567894Y-69499288D01*
X124755407Y-69497605D01*
X124915906Y-69496178D01*
X125041763Y-69495075D01*
X125125350Y-69494364D01*
X125159036Y-69494112D01*
X125159535Y-69494072D01*
X125183006Y-69468260D01*
X125221479Y-69403860D01*
X125266884Y-69314326D01*
X125334452Y-69129133D01*
X125352851Y-68956876D01*
X125318448Y-68806344D01*
X125231428Y-68678327D01*
X125091978Y-68573612D01*
X125088725Y-68571794D01*
X125034653Y-68544123D01*
X124980399Y-68524416D01*
X124914492Y-68510992D01*
X124825463Y-68502174D01*
X124701843Y-68496281D01*
X124532163Y-68491634D01*
X124305096Y-68491044D01*
X124051686Y-68506284D01*
X123845465Y-68540773D01*
X123682059Y-68595658D01*
X123557095Y-68672086D01*
X123466198Y-68771205D01*
X123413502Y-68885567D01*
X123392514Y-69040022D01*
X122628711Y-69040022D01*
X122624512Y-69025043D01*
X122596923Y-68796922D01*
X122597389Y-68542727D01*
X122606765Y-68421324D01*
X122624550Y-68314096D01*
X122655415Y-68220843D01*
X122705304Y-68118178D01*
X122817921Y-67945871D01*
X123000639Y-67757627D01*
X123226322Y-67601321D01*
X123490497Y-67479933D01*
X123788692Y-67396441D01*
X123973113Y-67367761D01*
X124194059Y-67348173D01*
X124305096Y-67343884D01*
X124428312Y-67339124D01*
X124658457Y-67340873D01*
G37*
G36*
X127933471Y-61757188D02*
G01*
X128068228Y-61759488D01*
X128181677Y-61763422D01*
X128261749Y-61768959D01*
X128296378Y-61776069D01*
X128299738Y-61786235D01*
X128305276Y-61844723D01*
X128308745Y-61945057D01*
X128309867Y-62076703D01*
X128308364Y-62229126D01*
X128300453Y-62662287D01*
X128156625Y-62662287D01*
X128142242Y-62302718D01*
X128127860Y-61943148D01*
X127912118Y-61925292D01*
X127912118Y-62096027D01*
X127910704Y-62168748D01*
X127904068Y-62277554D01*
X127893832Y-62358187D01*
X127882364Y-62403147D01*
X127854661Y-62438282D01*
X127800344Y-62440888D01*
X127797351Y-62440538D01*
X127762457Y-62433701D01*
X127740623Y-62415563D01*
X127728181Y-62374574D01*
X127721460Y-62299181D01*
X127716792Y-62177831D01*
X127715202Y-62133127D01*
X127709225Y-62027057D01*
X127700126Y-61965953D01*
X127685790Y-61940283D01*
X127664099Y-61940515D01*
X127636802Y-61948523D01*
X127565464Y-61957531D01*
X127552120Y-61958605D01*
X127533263Y-61969964D01*
X127520589Y-62001414D01*
X127512440Y-62062315D01*
X127507161Y-62162027D01*
X127503094Y-62309909D01*
X127495017Y-62662287D01*
X127419814Y-62671013D01*
X127399380Y-62672088D01*
X127365173Y-62662475D01*
X127340574Y-62631003D01*
X127324073Y-62570546D01*
X127314159Y-62473976D01*
X127309318Y-62334166D01*
X127308041Y-62143989D01*
X127309025Y-61998658D01*
X127312917Y-61892829D01*
X127320869Y-61826280D01*
X127334027Y-61789664D01*
X127353542Y-61773632D01*
X127362412Y-61771301D01*
X127422703Y-61764960D01*
X127522021Y-61760410D01*
X127648300Y-61757618D01*
X127789473Y-61756555D01*
X127933471Y-61757188D01*
G37*
G36*
X127641712Y-57787237D02*
G01*
X127809690Y-57790752D01*
X127869926Y-57792301D01*
X128046634Y-57799332D01*
X128172836Y-57809246D01*
X128253972Y-57822594D01*
X128295479Y-57839926D01*
X128324976Y-57878262D01*
X128313219Y-57933371D01*
X128308026Y-57942110D01*
X128289824Y-57960043D01*
X128257513Y-57972591D01*
X128202409Y-57980702D01*
X128115829Y-57985322D01*
X127989088Y-57987400D01*
X127813504Y-57987882D01*
X127656722Y-57987368D01*
X127521939Y-57985055D01*
X127429551Y-57980178D01*
X127371443Y-57971987D01*
X127339499Y-57959728D01*
X127325604Y-57942650D01*
X127321449Y-57904321D01*
X127339530Y-57838965D01*
X127345282Y-57828911D01*
X127362497Y-57809560D01*
X127391631Y-57796652D01*
X127441800Y-57789252D01*
X127522121Y-57786426D01*
X127641712Y-57787237D01*
G37*
G36*
X127799504Y-53318877D02*
G01*
X127802492Y-53318923D01*
X127874898Y-53320031D01*
X128022254Y-53323621D01*
X128145487Y-53328394D01*
X128233461Y-53333864D01*
X128275040Y-53339548D01*
X128277061Y-53340585D01*
X128295421Y-53379963D01*
X128307989Y-53461639D01*
X128314662Y-53571946D01*
X128315333Y-53697219D01*
X128309899Y-53823790D01*
X128298255Y-53937993D01*
X128280296Y-54026161D01*
X128241748Y-54118260D01*
X128147094Y-54242023D01*
X128021872Y-54332213D01*
X127878341Y-54380957D01*
X127728763Y-54380380D01*
X127711826Y-54376717D01*
X127584879Y-54319247D01*
X127472803Y-54218707D01*
X127390363Y-54087861D01*
X127366192Y-54010920D01*
X127344457Y-53897624D01*
X127327744Y-53766094D01*
X127317203Y-53631279D01*
X127313984Y-53508130D01*
X127314402Y-53500453D01*
X127501096Y-53500453D01*
X127517159Y-53712843D01*
X127540626Y-53881466D01*
X127593191Y-54035444D01*
X127673569Y-54141501D01*
X127782769Y-54201493D01*
X127855157Y-54198311D01*
X127940050Y-54156336D01*
X128018451Y-54086678D01*
X128073342Y-54001074D01*
X128089604Y-53953314D01*
X128111758Y-53856843D01*
X128128367Y-53748504D01*
X128137556Y-53645270D01*
X128137454Y-53564119D01*
X128126188Y-53522027D01*
X128104501Y-53515364D01*
X128034329Y-53507662D01*
X127929294Y-53502401D01*
X127802492Y-53500453D01*
X127501096Y-53500453D01*
X127314402Y-53500453D01*
X127319237Y-53411595D01*
X127334112Y-53356625D01*
X127340270Y-53349473D01*
X127368012Y-53334639D01*
X127419329Y-53324851D01*
X127502698Y-53319419D01*
X127626597Y-53317657D01*
X127799504Y-53318877D01*
G37*
G36*
X127810845Y-63164075D02*
G01*
X127870350Y-63164767D01*
X128016780Y-63167889D01*
X128140228Y-63172506D01*
X128229178Y-63178114D01*
X128272113Y-63184211D01*
X128273338Y-63184708D01*
X128293614Y-63206023D01*
X128306319Y-63255505D01*
X128312869Y-63342909D01*
X128314675Y-63477992D01*
X128311660Y-63629954D01*
X128297624Y-63781920D01*
X128269039Y-63899815D01*
X128222537Y-63996408D01*
X128154751Y-64084470D01*
X128138516Y-64101746D01*
X128009830Y-64198759D01*
X127871411Y-64243635D01*
X127731981Y-64238080D01*
X127600266Y-64183800D01*
X127484989Y-64082500D01*
X127394875Y-63935888D01*
X127365748Y-63849766D01*
X127339947Y-63728472D01*
X127321945Y-63593704D01*
X127312964Y-63463797D01*
X127509400Y-63463797D01*
X127509644Y-63483002D01*
X127521091Y-63612883D01*
X127546291Y-63745919D01*
X127580579Y-63861881D01*
X127619294Y-63940542D01*
X127672712Y-63996534D01*
X127769741Y-64043073D01*
X127872530Y-64039503D01*
X127969981Y-63987186D01*
X128050993Y-63887487D01*
X128069247Y-63849556D01*
X128107598Y-63724366D01*
X128131385Y-63572755D01*
X128150504Y-63367044D01*
X127509400Y-63367044D01*
X127509400Y-63463797D01*
X127312964Y-63463797D01*
X127312660Y-63459394D01*
X127313010Y-63339473D01*
X127323913Y-63247870D01*
X127346288Y-63198518D01*
X127359490Y-63190471D01*
X127410820Y-63176739D01*
X127498466Y-63168110D01*
X127509400Y-63167772D01*
X127629462Y-63164063D01*
X127810845Y-63164075D01*
G37*
G36*
X127432303Y-65788201D02*
G01*
X127488781Y-65804805D01*
X127570591Y-65837464D01*
X127684370Y-65888383D01*
X127836752Y-65959769D01*
X128034371Y-66053829D01*
X128079795Y-66075690D01*
X128208991Y-66142771D01*
X128286174Y-66197089D01*
X128312488Y-66245249D01*
X128289080Y-66293855D01*
X128217094Y-66349513D01*
X128097677Y-66418829D01*
X128055078Y-66442758D01*
X127969264Y-66495077D01*
X127913571Y-66535203D01*
X127898450Y-66555943D01*
X127900444Y-66557658D01*
X127939553Y-66582190D01*
X128013575Y-66623903D01*
X128108417Y-66674819D01*
X128160973Y-66703241D01*
X128260758Y-66767273D01*
X128306466Y-66821597D01*
X128298371Y-66872618D01*
X128236747Y-66926741D01*
X128121866Y-66990372D01*
X127987904Y-67056360D01*
X127818811Y-67137261D01*
X127668543Y-67206493D01*
X127545204Y-67260430D01*
X127456895Y-67295449D01*
X127411721Y-67307927D01*
X127385082Y-67301079D01*
X127336359Y-67264239D01*
X127334313Y-67261699D01*
X127319781Y-67220082D01*
X127343167Y-67175198D01*
X127408739Y-67123638D01*
X127520766Y-67061990D01*
X127683515Y-66986845D01*
X127778475Y-66944042D01*
X127876898Y-66896541D01*
X127944026Y-66860293D01*
X127969002Y-66840848D01*
X127967957Y-66838037D01*
X127935178Y-66811746D01*
X127865662Y-66769864D01*
X127771933Y-66720068D01*
X127685812Y-66673675D01*
X127590973Y-66607754D01*
X127548084Y-66550453D01*
X127554595Y-66499179D01*
X127557349Y-66495896D01*
X127598251Y-66466854D01*
X127674283Y-66422629D01*
X127771554Y-66371402D01*
X127796378Y-66358674D01*
X127883274Y-66309874D01*
X127940981Y-66270516D01*
X127958075Y-66248146D01*
X127932005Y-66230354D01*
X127863203Y-66193599D01*
X127762990Y-66144176D01*
X127642389Y-66087688D01*
X127611763Y-66073584D01*
X127471708Y-66005080D01*
X127379722Y-65950337D01*
X127330571Y-65904774D01*
X127319020Y-65863807D01*
X127339832Y-65822854D01*
X127348521Y-65812648D01*
X127368809Y-65794329D01*
X127394524Y-65785444D01*
X127432303Y-65788201D01*
G37*
G36*
X127449259Y-68241980D02*
G01*
X127477686Y-68257096D01*
X127497478Y-68291505D01*
X127508753Y-68357196D01*
X127515362Y-68467290D01*
X127523783Y-68674292D01*
X127885986Y-68676969D01*
X127897466Y-68677064D01*
X128037155Y-68679964D01*
X128156196Y-68685463D01*
X128242295Y-68692812D01*
X128283157Y-68701257D01*
X128302132Y-68726164D01*
X128309289Y-68784877D01*
X128309022Y-68786710D01*
X128302106Y-68811224D01*
X128283792Y-68828537D01*
X128244857Y-68840425D01*
X128176082Y-68848660D01*
X128068242Y-68855017D01*
X127912118Y-68861268D01*
X127523783Y-68875651D01*
X127495017Y-69307135D01*
X127322424Y-69307135D01*
X127314585Y-68800605D01*
X127314193Y-68774488D01*
X127312635Y-68579753D01*
X127315440Y-68435304D01*
X127324162Y-68334701D01*
X127340353Y-68271507D01*
X127365564Y-68239281D01*
X127401349Y-68231585D01*
X127449259Y-68241980D01*
G37*
G36*
X124063410Y-60226507D02*
G01*
X124265820Y-60243710D01*
X124431484Y-60269806D01*
X124764545Y-60364932D01*
X125082467Y-60505159D01*
X125368853Y-60683857D01*
X125619679Y-60897025D01*
X125830921Y-61140665D01*
X125998554Y-61410778D01*
X126118555Y-61703363D01*
X126186900Y-62014423D01*
X126201769Y-62170741D01*
X126203479Y-62473804D01*
X126171979Y-62769203D01*
X126108849Y-63036240D01*
X126092802Y-63081369D01*
X126052720Y-63179032D01*
X126000473Y-63296087D01*
X125941905Y-63420507D01*
X125882862Y-63540263D01*
X125829190Y-63643328D01*
X125786734Y-63717675D01*
X125761340Y-63751275D01*
X125749246Y-63749760D01*
X125694199Y-63726324D01*
X125604080Y-63680269D01*
X125487923Y-63616308D01*
X125354764Y-63539156D01*
X125281871Y-63496101D01*
X125155100Y-63421979D01*
X125049647Y-63361294D01*
X124974868Y-63319405D01*
X124940118Y-63301670D01*
X124936778Y-63295219D01*
X124952320Y-63253107D01*
X124994995Y-63181667D01*
X125058690Y-63091723D01*
X125138398Y-62975390D01*
X125247974Y-62753813D01*
X125305088Y-62532733D01*
X125309912Y-62317140D01*
X125262618Y-62112022D01*
X125163381Y-61922369D01*
X125012371Y-61753170D01*
X124910288Y-61670469D01*
X124741271Y-61566836D01*
X124551127Y-61490413D01*
X124331451Y-61438817D01*
X124073835Y-61409661D01*
X123769875Y-61400559D01*
X123622125Y-61402654D01*
X123319593Y-61423376D01*
X123061325Y-61467744D01*
X122840862Y-61537571D01*
X122651745Y-61634674D01*
X122487514Y-61760867D01*
X122480703Y-61767162D01*
X122356798Y-61903881D01*
X122275358Y-62049837D01*
X122230619Y-62219194D01*
X122216816Y-62426117D01*
X122219855Y-62548201D01*
X122236579Y-62677442D01*
X122273721Y-62792330D01*
X122337760Y-62911480D01*
X122435175Y-63053505D01*
X122531529Y-63185832D01*
X122127066Y-63451368D01*
X122023497Y-63518878D01*
X121902502Y-63596362D01*
X121805410Y-63656921D01*
X121740224Y-63695583D01*
X121714949Y-63707375D01*
X121714649Y-63706970D01*
X121699952Y-63674131D01*
X121676244Y-63611551D01*
X121665962Y-63584498D01*
X121631691Y-63500123D01*
X121584671Y-63388483D01*
X121531923Y-63266364D01*
X121442826Y-63045525D01*
X121368772Y-62806153D01*
X121326567Y-62578471D01*
X121312247Y-62345866D01*
X121313238Y-62268590D01*
X121351184Y-61941676D01*
X121441369Y-61626180D01*
X121580575Y-61331191D01*
X121765581Y-61065798D01*
X121924821Y-60889756D01*
X122167217Y-60675427D01*
X122431476Y-60504852D01*
X122727482Y-60371985D01*
X123065119Y-60270779D01*
X123202915Y-60246403D01*
X123394009Y-60228145D01*
X123611675Y-60218736D01*
X123840086Y-60218186D01*
X124063410Y-60226507D01*
G37*
G36*
X127906662Y-58475650D02*
G01*
X128048483Y-58541974D01*
X128161694Y-58639679D01*
X128245970Y-58776073D01*
X128254678Y-58795848D01*
X128293656Y-58925146D01*
X128313468Y-59069972D01*
X128315270Y-59218371D01*
X128300218Y-59358383D01*
X128269468Y-59478052D01*
X128224176Y-59565420D01*
X128165498Y-59608530D01*
X128165290Y-59608584D01*
X128095778Y-59615459D01*
X128003433Y-59611193D01*
X127908345Y-59598472D01*
X127830605Y-59579980D01*
X127790305Y-59558401D01*
X127783262Y-59543856D01*
X127770746Y-59470380D01*
X127771524Y-59368504D01*
X127785901Y-59259002D01*
X127816476Y-59183008D01*
X127863826Y-59149202D01*
X127913877Y-59159626D01*
X127953521Y-59211274D01*
X127969649Y-59301141D01*
X127972251Y-59335936D01*
X127997583Y-59400121D01*
X128040964Y-59425297D01*
X128091337Y-59402276D01*
X128091811Y-59401789D01*
X128111081Y-59350954D01*
X128120703Y-59261124D01*
X128121232Y-59149587D01*
X128113223Y-59033630D01*
X128097234Y-58930539D01*
X128073820Y-58857601D01*
X128036063Y-58796286D01*
X127948422Y-58712827D01*
X127851408Y-58679077D01*
X127753587Y-58692801D01*
X127663522Y-58751768D01*
X127589779Y-58853746D01*
X127540922Y-58996502D01*
X127528828Y-59073156D01*
X127517466Y-59209360D01*
X127516194Y-59339864D01*
X127516546Y-59348630D01*
X127518645Y-59446241D01*
X127512631Y-59500944D01*
X127494689Y-59526277D01*
X127461006Y-59535777D01*
X127440981Y-59536928D01*
X127387977Y-59514178D01*
X127352440Y-59447727D01*
X127332884Y-59333463D01*
X127327821Y-59167270D01*
X127333691Y-59038425D01*
X127368347Y-58845626D01*
X127436583Y-58693678D01*
X127541409Y-58576884D01*
X127685835Y-58489547D01*
X127765925Y-58458762D01*
X127829886Y-58454407D01*
X127906662Y-58475650D01*
G37*
G36*
X127821110Y-67710646D02*
G01*
X127996081Y-67711346D01*
X128122385Y-67713904D01*
X128208496Y-67719147D01*
X128262888Y-67727901D01*
X128294035Y-67740993D01*
X128310411Y-67759248D01*
X128324634Y-67788553D01*
X128328697Y-67821231D01*
X128308000Y-67845266D01*
X128255989Y-67862541D01*
X128166112Y-67874943D01*
X128031816Y-67884355D01*
X127846547Y-67892662D01*
X127688207Y-67898067D01*
X127534311Y-67899766D01*
X127426163Y-67894337D01*
X127357282Y-67880281D01*
X127321184Y-67856102D01*
X127311387Y-67820302D01*
X127321406Y-67771384D01*
X127328149Y-67753914D01*
X127343270Y-67736285D01*
X127373205Y-67724234D01*
X127426496Y-67716702D01*
X127511688Y-67712632D01*
X127637324Y-67710966D01*
X127811947Y-67710645D01*
X127821110Y-67710646D01*
G37*
G36*
X127680409Y-56245496D02*
G01*
X127765583Y-56307506D01*
X127834751Y-56414555D01*
X127881253Y-56563699D01*
X127891389Y-56615725D01*
X127917667Y-56750446D01*
X127941646Y-56873216D01*
X127943589Y-56883072D01*
X127971046Y-57000487D01*
X127998310Y-57066822D01*
X128029151Y-57087980D01*
X128067343Y-57069861D01*
X128083679Y-57048385D01*
X128098175Y-57001845D01*
X128108323Y-56924168D01*
X128115198Y-56806561D01*
X128119875Y-56640228D01*
X128120370Y-56616093D01*
X128124014Y-56465998D01*
X128128692Y-56363023D01*
X128135999Y-56297990D01*
X128147531Y-56261720D01*
X128164881Y-56245036D01*
X128189646Y-56238758D01*
X128192540Y-56238377D01*
X128245421Y-56250843D01*
X128282315Y-56310672D01*
X128292784Y-56360302D01*
X128301895Y-56459769D01*
X128306847Y-56590363D01*
X128306825Y-56737883D01*
X128304222Y-56837712D01*
X128294592Y-56986660D01*
X128275758Y-57094968D01*
X128244154Y-57173575D01*
X128196216Y-57233416D01*
X128128381Y-57285429D01*
X128118242Y-57291607D01*
X128026349Y-57313731D01*
X127932101Y-57285109D01*
X127848940Y-57209398D01*
X127832930Y-57180136D01*
X127801976Y-57095766D01*
X127769596Y-56980440D01*
X127740640Y-56850246D01*
X127724184Y-56767241D01*
X127699611Y-56650132D01*
X127679086Y-56560246D01*
X127665854Y-56512251D01*
X127638100Y-56474226D01*
X127592074Y-56468489D01*
X127554682Y-56511268D01*
X127545869Y-56539388D01*
X127527796Y-56646321D01*
X127518787Y-56782328D01*
X127519706Y-56927033D01*
X127531417Y-57060059D01*
X127542305Y-57144265D01*
X127544482Y-57212961D01*
X127531737Y-57255823D01*
X127501877Y-57289934D01*
X127465700Y-57319095D01*
X127434467Y-57318841D01*
X127394176Y-57275687D01*
X127375616Y-57245356D01*
X127344374Y-57145882D01*
X127324960Y-57012057D01*
X127317258Y-56858848D01*
X127321155Y-56701220D01*
X127336534Y-56554140D01*
X127363282Y-56432574D01*
X127401282Y-56351490D01*
X127488675Y-56268367D01*
X127585887Y-56231468D01*
X127680409Y-56245496D01*
G37*
G36*
X128006792Y-69668634D02*
G01*
X128161812Y-69674715D01*
X128262305Y-69684860D01*
X128306835Y-69698975D01*
X128330652Y-69739453D01*
X128315937Y-69788403D01*
X128257401Y-69829407D01*
X128162750Y-69857586D01*
X128039690Y-69868063D01*
X127912118Y-69868063D01*
X127912118Y-70555808D01*
X128106285Y-70564314D01*
X128142533Y-70565969D01*
X128230726Y-70572352D01*
X128277953Y-70584091D01*
X128296951Y-70606460D01*
X128300453Y-70644734D01*
X128300408Y-70651312D01*
X128294654Y-70687894D01*
X128270172Y-70709871D01*
X128214076Y-70723456D01*
X128113477Y-70734860D01*
X128078775Y-70737912D01*
X127948427Y-70746285D01*
X127795766Y-70752864D01*
X127647048Y-70756434D01*
X127531020Y-70757074D01*
X127441181Y-70754090D01*
X127386623Y-70745079D01*
X127355464Y-70727904D01*
X127335822Y-70700426D01*
X127318301Y-70645951D01*
X127340896Y-70596598D01*
X127414826Y-70567794D01*
X127541688Y-70558437D01*
X127710759Y-70558437D01*
X127710759Y-69868063D01*
X127554603Y-69868063D01*
X127546117Y-69868029D01*
X127423557Y-69856075D01*
X127353244Y-69822860D01*
X127321327Y-69789305D01*
X127310542Y-69758888D01*
X127325501Y-69712205D01*
X127336343Y-69697214D01*
X127364857Y-69684177D01*
X127418177Y-69675378D01*
X127504483Y-69670046D01*
X127631952Y-69667411D01*
X127808763Y-69666704D01*
X128006792Y-69668634D01*
G37*
G36*
X127863287Y-54881419D02*
G01*
X128011126Y-54883483D01*
X128135846Y-54887376D01*
X128225976Y-54892670D01*
X128270048Y-54898934D01*
X128285689Y-54909729D01*
X128298506Y-54936744D01*
X128306490Y-54987471D01*
X128310331Y-55070354D01*
X128310723Y-55193840D01*
X128308358Y-55366375D01*
X128300453Y-55816081D01*
X128156625Y-55816081D01*
X128148574Y-55449320D01*
X128140524Y-55082559D01*
X127912118Y-55082559D01*
X127912118Y-55237174D01*
X127911590Y-55287003D01*
X127899991Y-55440652D01*
X127873046Y-55539914D01*
X127830543Y-55585683D01*
X127787523Y-55588465D01*
X127744978Y-55544203D01*
X127719339Y-55445524D01*
X127710759Y-55292803D01*
X127710759Y-55082559D01*
X127625010Y-55082559D01*
X127618589Y-55082597D01*
X127576234Y-55087377D01*
X127546494Y-55106267D01*
X127526793Y-55147951D01*
X127514554Y-55221113D01*
X127507199Y-55334437D01*
X127502153Y-55496607D01*
X127500287Y-55560827D01*
X127494230Y-55674579D01*
X127484073Y-55746982D01*
X127467699Y-55789359D01*
X127442992Y-55813029D01*
X127435027Y-55817675D01*
X127390019Y-55826185D01*
X127348212Y-55787316D01*
X127337708Y-55769662D01*
X127322558Y-55719438D01*
X127313411Y-55639993D01*
X127309431Y-55521924D01*
X127309781Y-55355832D01*
X127310032Y-55337012D01*
X127314101Y-55193742D01*
X127321214Y-55069950D01*
X127330440Y-54978322D01*
X127340852Y-54931540D01*
X127353527Y-54914840D01*
X127380834Y-54900078D01*
X127429721Y-54890327D01*
X127509173Y-54884594D01*
X127628176Y-54881883D01*
X127795715Y-54881200D01*
X127863287Y-54881419D01*
G37*
G36*
X125446532Y-63866975D02*
G01*
X125668169Y-63971700D01*
X125856365Y-64120198D01*
X126007325Y-64309216D01*
X126117257Y-64535502D01*
X126182365Y-64795802D01*
X126196528Y-64949219D01*
X126181287Y-65207435D01*
X126118554Y-65451508D01*
X126010729Y-65669227D01*
X126004905Y-65678254D01*
X125951089Y-65763313D01*
X125912989Y-65826452D01*
X125898528Y-65854583D01*
X125902858Y-65857993D01*
X125946114Y-65867320D01*
X126020781Y-65875186D01*
X126143035Y-65884032D01*
X126152661Y-66042242D01*
X126153330Y-66055303D01*
X126154868Y-66152805D01*
X126153386Y-66288459D01*
X126149174Y-66446103D01*
X126142519Y-66609575D01*
X126122750Y-67018697D01*
X126032213Y-66971876D01*
X126027041Y-66969329D01*
X125994767Y-66957722D01*
X125947973Y-66947837D01*
X125881284Y-66939378D01*
X125789324Y-66932050D01*
X125666716Y-66925556D01*
X125508084Y-66919600D01*
X125308053Y-66913888D01*
X125061246Y-66908123D01*
X124762288Y-66902010D01*
X124474984Y-66896160D01*
X124209999Y-66889868D01*
X123990844Y-66883072D01*
X123811406Y-66875131D01*
X123665571Y-66865408D01*
X123547228Y-66853263D01*
X123450264Y-66838056D01*
X123368564Y-66819149D01*
X123296018Y-66795902D01*
X123226511Y-66767677D01*
X123153931Y-66733833D01*
X123075411Y-66687241D01*
X122946465Y-66580086D01*
X122828417Y-66448528D01*
X122739360Y-66311022D01*
X122678002Y-66161757D01*
X122620851Y-65931273D01*
X122589804Y-65670914D01*
X122585530Y-65393095D01*
X122608696Y-65110235D01*
X122659970Y-64834752D01*
X122664601Y-64815623D01*
X122691109Y-64701423D01*
X122722110Y-64562363D01*
X122751821Y-64424290D01*
X122758692Y-64392011D01*
X122784547Y-64282092D01*
X122806205Y-64217616D01*
X122827622Y-64189318D01*
X122852755Y-64187935D01*
X122893265Y-64203780D01*
X122975575Y-64238712D01*
X123086287Y-64287075D01*
X123213058Y-64343541D01*
X123271529Y-64370108D01*
X123392975Y-64428646D01*
X123470289Y-64472980D01*
X123510521Y-64507538D01*
X123520723Y-64536748D01*
X123520376Y-64539774D01*
X123506268Y-64595861D01*
X123476966Y-64685565D01*
X123438290Y-64790940D01*
X123416428Y-64852491D01*
X123371842Y-65024537D01*
X123346628Y-65199956D01*
X123341539Y-65364655D01*
X123357330Y-65504542D01*
X123394752Y-65605524D01*
X123422340Y-65641448D01*
X123520836Y-65721609D01*
X123648214Y-65783730D01*
X123784258Y-65816844D01*
X123829984Y-65820314D01*
X123858092Y-65808869D01*
X123867626Y-65767604D01*
X123867142Y-65682673D01*
X123866824Y-65612027D01*
X123871952Y-65456920D01*
X123874030Y-65424629D01*
X124609009Y-65424629D01*
X124609453Y-65553227D01*
X124618460Y-65797735D01*
X124888971Y-65806064D01*
X124906078Y-65806586D01*
X125027737Y-65809187D01*
X125107951Y-65806161D01*
X125161119Y-65794591D01*
X125201642Y-65771560D01*
X125243917Y-65734150D01*
X125253122Y-65725173D01*
X125320398Y-65648030D01*
X125370557Y-65573089D01*
X125371995Y-65570278D01*
X125403143Y-65472854D01*
X125420904Y-65346282D01*
X125423162Y-65216837D01*
X125407799Y-65110793D01*
X125388464Y-65060193D01*
X125309287Y-64952995D01*
X125197592Y-64879353D01*
X125067829Y-64846833D01*
X124934447Y-64862997D01*
X124883667Y-64885701D01*
X124778955Y-64966527D01*
X124689762Y-65077461D01*
X124632325Y-65200372D01*
X124628826Y-65213977D01*
X124615946Y-65304151D01*
X124609009Y-65424629D01*
X123874030Y-65424629D01*
X123883225Y-65281704D01*
X123899183Y-65101904D01*
X123918362Y-64933046D01*
X123939303Y-64790656D01*
X123960545Y-64690260D01*
X123964080Y-64677882D01*
X124062861Y-64420641D01*
X124196823Y-64204008D01*
X124362703Y-64030732D01*
X124557238Y-63903562D01*
X124777167Y-63825244D01*
X125019227Y-63798528D01*
X125067829Y-63801495D01*
X125195247Y-63809275D01*
X125446532Y-63866975D01*
G37*
G36*
X127838177Y-60104260D02*
G01*
X128003924Y-60105752D01*
X128122340Y-60108997D01*
X128202516Y-60115039D01*
X128253543Y-60124920D01*
X128284512Y-60139683D01*
X128304513Y-60160370D01*
X128328868Y-60213121D01*
X128311685Y-60253552D01*
X128248591Y-60282539D01*
X128135828Y-60301795D01*
X127969638Y-60313031D01*
X127886001Y-60316976D01*
X127780777Y-60323954D01*
X127708718Y-60331342D01*
X127681993Y-60338079D01*
X127687498Y-60346819D01*
X127723857Y-60391731D01*
X127788604Y-60467479D01*
X127875133Y-60566388D01*
X127976840Y-60680780D01*
X128028641Y-60739048D01*
X128128017Y-60853380D01*
X128211035Y-60952253D01*
X128270214Y-61026661D01*
X128298076Y-61067597D01*
X128307516Y-61091484D01*
X128310589Y-61129744D01*
X128287766Y-61157762D01*
X128232725Y-61177287D01*
X128139141Y-61190069D01*
X128000692Y-61197859D01*
X127811055Y-61202408D01*
X127772721Y-61203012D01*
X127613428Y-61204808D01*
X127500882Y-61203928D01*
X127426123Y-61199491D01*
X127380184Y-61190618D01*
X127354104Y-61176429D01*
X127338919Y-61156042D01*
X127325879Y-61116624D01*
X127347186Y-61052026D01*
X127350838Y-61047377D01*
X127382647Y-61024082D01*
X127438645Y-61008210D01*
X127529945Y-60997614D01*
X127667657Y-60990151D01*
X127746844Y-60986671D01*
X127853898Y-60980846D01*
X127928879Y-60975308D01*
X127959075Y-60970898D01*
X127958837Y-60966929D01*
X127936018Y-60932870D01*
X127888974Y-60877781D01*
X127877603Y-60865333D01*
X127765814Y-60741726D01*
X127653260Y-60615327D01*
X127546497Y-60493714D01*
X127452080Y-60384468D01*
X127376568Y-60295168D01*
X127326516Y-60233393D01*
X127308481Y-60206723D01*
X127312424Y-60191705D01*
X127336352Y-60145300D01*
X127343544Y-60136890D01*
X127372122Y-60122490D01*
X127425250Y-60112725D01*
X127511168Y-60106886D01*
X127638113Y-60104263D01*
X127814322Y-60104148D01*
X127838177Y-60104260D01*
G37*
G36*
X120875451Y-53333578D02*
G01*
X121018385Y-53330279D01*
X121196488Y-53327489D01*
X121382333Y-53325499D01*
X121412556Y-53325175D01*
X121669383Y-53323305D01*
X121969764Y-53321844D01*
X122316496Y-53320759D01*
X122712373Y-53320018D01*
X123160190Y-53319586D01*
X123662742Y-53319431D01*
X124031893Y-53319561D01*
X124431811Y-53320048D01*
X124812790Y-53320872D01*
X125170971Y-53322008D01*
X125502495Y-53323430D01*
X125803503Y-53325116D01*
X126070135Y-53327038D01*
X126298532Y-53329173D01*
X126484834Y-53331496D01*
X126625183Y-53333982D01*
X126715720Y-53336605D01*
X126752585Y-53339342D01*
X126799704Y-53371879D01*
X126827629Y-53451506D01*
X126827705Y-53452150D01*
X126829293Y-53495452D01*
X126830762Y-53592257D01*
X126832101Y-53738716D01*
X126833299Y-53930979D01*
X126834346Y-54165196D01*
X126835231Y-54437517D01*
X126835943Y-54744093D01*
X126836472Y-55081073D01*
X126836807Y-55444609D01*
X126836937Y-55830849D01*
X126836851Y-56235945D01*
X126836539Y-56656047D01*
X126836489Y-56704281D01*
X126835849Y-57205677D01*
X126835009Y-57652643D01*
X126833933Y-58048024D01*
X126832583Y-58394663D01*
X126830924Y-58695403D01*
X126828919Y-58953090D01*
X126826531Y-59170565D01*
X126823723Y-59350674D01*
X126820460Y-59496260D01*
X126816704Y-59610167D01*
X126812420Y-59695238D01*
X126807569Y-59754318D01*
X126802116Y-59790249D01*
X126796025Y-59805877D01*
X126781016Y-59811836D01*
X126745301Y-59817391D01*
X126686230Y-59822378D01*
X126600955Y-59826838D01*
X126486626Y-59830812D01*
X126340398Y-59834344D01*
X126159422Y-59837475D01*
X125940849Y-59840246D01*
X125681833Y-59842700D01*
X125379525Y-59844878D01*
X125031077Y-59846822D01*
X124633642Y-59848575D01*
X124184371Y-59850177D01*
X123680417Y-59851672D01*
X123509021Y-59852146D01*
X123021997Y-59853512D01*
X122588060Y-59854618D01*
X122203862Y-59855286D01*
X121866055Y-59855341D01*
X121571291Y-59854607D01*
X121316220Y-59852908D01*
X121097494Y-59850067D01*
X120911766Y-59845910D01*
X120755686Y-59840259D01*
X120625907Y-59832939D01*
X120519079Y-59823775D01*
X120431855Y-59812589D01*
X120360886Y-59799206D01*
X120302824Y-59783450D01*
X120254320Y-59765146D01*
X120212026Y-59744116D01*
X120172593Y-59720186D01*
X120132674Y-59693178D01*
X120088919Y-59662918D01*
X120058289Y-59641310D01*
X119873501Y-59472936D01*
X119782170Y-59339864D01*
X122612105Y-59339864D01*
X124273495Y-59339864D01*
X124601161Y-59339901D01*
X124902789Y-59340121D01*
X125155816Y-59340682D01*
X125364873Y-59341742D01*
X125534591Y-59343458D01*
X125669599Y-59345989D01*
X125774529Y-59349491D01*
X125854011Y-59354122D01*
X125912676Y-59360041D01*
X125955153Y-59367405D01*
X125986074Y-59376371D01*
X126010069Y-59387097D01*
X126031769Y-59399741D01*
X126128652Y-59459618D01*
X126128652Y-58781281D01*
X126128285Y-58656711D01*
X126126369Y-58478589D01*
X126123038Y-58326338D01*
X126118545Y-58207874D01*
X126113141Y-58131111D01*
X126107078Y-58103964D01*
X126072803Y-58115826D01*
X126013590Y-58146093D01*
X126005243Y-58149332D01*
X125942405Y-58159259D01*
X125830641Y-58167915D01*
X125676551Y-58175300D01*
X125486738Y-58181415D01*
X125267803Y-58186262D01*
X125026348Y-58189840D01*
X124768975Y-58192150D01*
X124502286Y-58193194D01*
X124232882Y-58192972D01*
X123967365Y-58191485D01*
X123712336Y-58188734D01*
X123474398Y-58184719D01*
X123260152Y-58179440D01*
X123076199Y-58172900D01*
X122929143Y-58165099D01*
X122825583Y-58156037D01*
X122772123Y-58145715D01*
X122751012Y-58137345D01*
X122686118Y-58117917D01*
X122652201Y-58117939D01*
X122650670Y-58122066D01*
X122645245Y-58170085D01*
X122639501Y-58264271D01*
X122633830Y-58395918D01*
X122628625Y-58556321D01*
X122624278Y-58736776D01*
X122612105Y-59339864D01*
X119782170Y-59339864D01*
X119736233Y-59272932D01*
X119648067Y-59044191D01*
X119610588Y-58789603D01*
X119609842Y-58767135D01*
X120119261Y-58767135D01*
X120142748Y-58924183D01*
X120205411Y-59070038D01*
X120306749Y-59194106D01*
X120446262Y-59285794D01*
X120570300Y-59325694D01*
X120737494Y-59332996D01*
X120896776Y-59291899D01*
X121037920Y-59207134D01*
X121150706Y-59083430D01*
X121224911Y-58925518D01*
X121239719Y-58872972D01*
X121258260Y-58795664D01*
X121264190Y-58752140D01*
X121223447Y-58568332D01*
X121142462Y-58410884D01*
X121029095Y-58289900D01*
X120890630Y-58209565D01*
X120734354Y-58174063D01*
X120567551Y-58187580D01*
X120397507Y-58254301D01*
X120288865Y-58334780D01*
X120191819Y-58461840D01*
X120135451Y-58609490D01*
X120119261Y-58767135D01*
X119609842Y-58767135D01*
X119609477Y-58756132D01*
X119623393Y-58538097D01*
X119678933Y-58344190D01*
X119780954Y-58162265D01*
X119934316Y-57980174D01*
X120076373Y-57855835D01*
X120174488Y-57797292D01*
X121382333Y-57797292D01*
X121662797Y-57524288D01*
X121669528Y-57517744D01*
X121788314Y-57404322D01*
X121906262Y-57295091D01*
X122010066Y-57202190D01*
X122086423Y-57137759D01*
X122153680Y-57084085D01*
X122239688Y-57014565D01*
X122302165Y-56963052D01*
X122355615Y-56918940D01*
X122443368Y-56847699D01*
X122557363Y-56755801D01*
X122690493Y-56648916D01*
X122835649Y-56532713D01*
X122985723Y-56412864D01*
X123133607Y-56295038D01*
X123272191Y-56184905D01*
X123394368Y-56088136D01*
X123493029Y-56010399D01*
X123561067Y-55957366D01*
X123591371Y-55934707D01*
X123614384Y-55931983D01*
X123681195Y-55959338D01*
X123778347Y-56024473D01*
X123812334Y-56049744D01*
X123902053Y-56115458D01*
X124024732Y-56204573D01*
X124171657Y-56310781D01*
X124334117Y-56427778D01*
X124503398Y-56549257D01*
X124676294Y-56673407D01*
X125001155Y-56908632D01*
X125283867Y-57116190D01*
X125523290Y-57295223D01*
X125718286Y-57444876D01*
X125867716Y-57564291D01*
X125970442Y-57652613D01*
X125971028Y-57653151D01*
X126045193Y-57719518D01*
X126101806Y-57767075D01*
X126107078Y-57770705D01*
X126128652Y-57785559D01*
X126128976Y-57785382D01*
X126132713Y-57753641D01*
X126136071Y-57672327D01*
X126138917Y-57548782D01*
X126141115Y-57390353D01*
X126142533Y-57204383D01*
X126143035Y-56998217D01*
X126143035Y-56209917D01*
X126013590Y-56192417D01*
X125941997Y-56175876D01*
X125828378Y-56134852D01*
X125718151Y-56081796D01*
X125695643Y-56068668D01*
X125610772Y-56014958D01*
X125496856Y-55938907D01*
X125360838Y-55845518D01*
X125209660Y-55739798D01*
X125050266Y-55626750D01*
X124889599Y-55511379D01*
X124734601Y-55398690D01*
X124592215Y-55293688D01*
X124469385Y-55201377D01*
X124373053Y-55126762D01*
X124310162Y-55074849D01*
X124287656Y-55050641D01*
X124302694Y-55045749D01*
X124366550Y-55040815D01*
X124472186Y-55037720D01*
X124610560Y-55036339D01*
X124772627Y-55036545D01*
X124949344Y-55038212D01*
X125131669Y-55041215D01*
X125310558Y-55045427D01*
X125476969Y-55050723D01*
X125621857Y-55056977D01*
X125736179Y-55064062D01*
X125810893Y-55071853D01*
X125825471Y-55074490D01*
X125922682Y-55102487D01*
X126019443Y-55143077D01*
X126128652Y-55198791D01*
X126128783Y-54802680D01*
X126130048Y-54636955D01*
X126133856Y-54438866D01*
X126139589Y-54248255D01*
X126146620Y-54090147D01*
X126151551Y-53981099D01*
X126153716Y-53869513D01*
X126151824Y-53790456D01*
X126145903Y-53756360D01*
X126129123Y-53754825D01*
X126072350Y-53771581D01*
X125993747Y-53806700D01*
X125860012Y-53874405D01*
X121649792Y-53874405D01*
X121516062Y-53803301D01*
X121382333Y-53732196D01*
X121382333Y-54464909D01*
X121382964Y-54637465D01*
X121385133Y-54818774D01*
X121388623Y-54973074D01*
X121393203Y-55092736D01*
X121398639Y-55170128D01*
X121404698Y-55197622D01*
X121431025Y-55189081D01*
X121483803Y-55158566D01*
X121537459Y-55127146D01*
X121604360Y-55101383D01*
X121690052Y-55081821D01*
X121802279Y-55067485D01*
X121948787Y-55057397D01*
X122137321Y-55050581D01*
X122375626Y-55046058D01*
X122451026Y-55045123D01*
X122634509Y-55043827D01*
X122797879Y-55044027D01*
X122931787Y-55045632D01*
X123026878Y-55048555D01*
X123073802Y-55052705D01*
X123081052Y-55055310D01*
X123087346Y-55068612D01*
X123072319Y-55094302D01*
X123031857Y-55136074D01*
X122961846Y-55197619D01*
X122858172Y-55282631D01*
X122716721Y-55394803D01*
X122533380Y-55537828D01*
X122323062Y-55700093D01*
X122124649Y-55850173D01*
X121961046Y-55969675D01*
X121827266Y-56061875D01*
X121718325Y-56130052D01*
X121629237Y-56177482D01*
X121555016Y-56207442D01*
X121490676Y-56223210D01*
X121382333Y-56240535D01*
X121382333Y-57797292D01*
X120174488Y-57797292D01*
X120257155Y-57747966D01*
X120440260Y-57688462D01*
X120548131Y-57668854D01*
X120548131Y-55530644D01*
X120548238Y-55124588D01*
X120548608Y-54772254D01*
X120549318Y-54469850D01*
X120550446Y-54213577D01*
X120552067Y-53999636D01*
X120554259Y-53824225D01*
X120557098Y-53683545D01*
X120560661Y-53573795D01*
X120565024Y-53491177D01*
X120570265Y-53431890D01*
X120576460Y-53392133D01*
X120583685Y-53368107D01*
X120592018Y-53356013D01*
X120599505Y-53352538D01*
X120629714Y-53346867D01*
X120683911Y-53341839D01*
X120734354Y-53339086D01*
X120764892Y-53337420D01*
X120875451Y-53333578D01*
G37*
%TO.C,R3*%
X152167000Y-43018064D02*
X152167000Y-41563936D01*
X150347000Y-43018064D02*
X150347000Y-41563936D01*
%TO.C,R6*%
X104265000Y-43018064D02*
X104265000Y-41563936D01*
X106085000Y-43018064D02*
X106085000Y-41563936D01*
%TO.C,R2*%
X144166000Y-43018064D02*
X144166000Y-41563936D01*
X142346000Y-43018064D02*
X142346000Y-41563936D01*
%TO.C,R5*%
X85450000Y-49241064D02*
X85450000Y-47786936D01*
X87270000Y-49241064D02*
X87270000Y-47786936D01*
%TO.C,G\u002A\u002A\u002A*%
G36*
X107157218Y-52279457D02*
G01*
X107139936Y-52574001D01*
X107109099Y-52855014D01*
X107063765Y-53130862D01*
X107002992Y-53409908D01*
X106951850Y-53606231D01*
X106821061Y-54018509D01*
X106662330Y-54417719D01*
X106476655Y-54802624D01*
X106265038Y-55171988D01*
X106028480Y-55524574D01*
X105767980Y-55859147D01*
X105484541Y-56174469D01*
X105179161Y-56469304D01*
X104852843Y-56742417D01*
X104506586Y-56992570D01*
X104141392Y-57218527D01*
X103758260Y-57419052D01*
X103564742Y-57507618D01*
X103204599Y-57651235D01*
X102836289Y-57770453D01*
X102455735Y-57866378D01*
X102058862Y-57940113D01*
X101641594Y-57992763D01*
X101597193Y-57995649D01*
X101518323Y-57997834D01*
X101417571Y-57998640D01*
X101300265Y-57998190D01*
X101171731Y-57996608D01*
X101037298Y-57994016D01*
X100902293Y-57990538D01*
X100772042Y-57986297D01*
X100651874Y-57981417D01*
X100547116Y-57976019D01*
X100463095Y-57970229D01*
X100405139Y-57964168D01*
X100174991Y-57927735D01*
X99748739Y-57839674D01*
X99340674Y-57727079D01*
X98948810Y-57589212D01*
X98571159Y-57425337D01*
X98205735Y-57234716D01*
X97850549Y-57016613D01*
X97715653Y-56924783D01*
X97367370Y-56662084D01*
X97041725Y-56377976D01*
X96739404Y-56073589D01*
X96461091Y-55750055D01*
X96207472Y-55408503D01*
X95979230Y-55050064D01*
X95777051Y-54675870D01*
X95601619Y-54287052D01*
X95453620Y-53884739D01*
X95333737Y-53470064D01*
X95242657Y-53044156D01*
X95181062Y-52608147D01*
X95179003Y-52587687D01*
X95169688Y-52462634D01*
X95163086Y-52315462D01*
X95159201Y-52153827D01*
X95158036Y-51985386D01*
X95158194Y-51968408D01*
X96138634Y-51968408D01*
X96138978Y-52073865D01*
X96140765Y-52183766D01*
X96144756Y-52278905D01*
X96151693Y-52368442D01*
X96162320Y-52461535D01*
X96177381Y-52567343D01*
X96197618Y-52695025D01*
X96231522Y-52891878D01*
X96272332Y-53097002D01*
X96316869Y-53283786D01*
X96367403Y-53459347D01*
X96426204Y-53630802D01*
X96495541Y-53805267D01*
X96577683Y-53989860D01*
X96674900Y-54191698D01*
X96712933Y-54267779D01*
X96758276Y-54356726D01*
X96797933Y-54432559D01*
X96829865Y-54491456D01*
X96852034Y-54529597D01*
X96862400Y-54543159D01*
X96865905Y-54541707D01*
X96881643Y-54521116D01*
X96899686Y-54483924D01*
X96899920Y-54483351D01*
X96912059Y-54456283D01*
X96936429Y-54403946D01*
X96971581Y-54329384D01*
X97016070Y-54235638D01*
X97068449Y-54125751D01*
X97127270Y-54002765D01*
X97191086Y-53869722D01*
X97258450Y-53729664D01*
X97313399Y-53615479D01*
X97385699Y-53464973D01*
X97456656Y-53316986D01*
X97524202Y-53175841D01*
X97586273Y-53045859D01*
X97640804Y-52931362D01*
X97685728Y-52836671D01*
X97718981Y-52766107D01*
X97767408Y-52662901D01*
X97831668Y-52526694D01*
X97884056Y-52416736D01*
X97925309Y-52331510D01*
X97956165Y-52269497D01*
X97977361Y-52229180D01*
X97989636Y-52209041D01*
X97999059Y-52192433D01*
X98019227Y-52151163D01*
X98046294Y-52092825D01*
X98077334Y-52023992D01*
X98109423Y-51951237D01*
X98139635Y-51881134D01*
X98165044Y-51820256D01*
X98182726Y-51775175D01*
X98204369Y-51716208D01*
X98059949Y-51530337D01*
X97994461Y-51445597D01*
X97918809Y-51346951D01*
X97843868Y-51248594D01*
X97779028Y-51162811D01*
X97718801Y-51083839D01*
X97646347Y-50990902D01*
X97574210Y-50900136D01*
X97511568Y-50823197D01*
X97507310Y-50818056D01*
X97455711Y-50755051D01*
X97409922Y-50697930D01*
X97374780Y-50652794D01*
X97355119Y-50625746D01*
X97338195Y-50601562D01*
X97305236Y-50556921D01*
X97262250Y-50500089D01*
X97214238Y-50437737D01*
X97170759Y-50379401D01*
X97134635Y-50326162D01*
X97111047Y-50285744D01*
X97103705Y-50263981D01*
X97105611Y-50259637D01*
X97113709Y-50253989D01*
X97130608Y-50249367D01*
X97159156Y-50245639D01*
X97202202Y-50242672D01*
X97262595Y-50240334D01*
X97343184Y-50238491D01*
X97446819Y-50237013D01*
X97576348Y-50235765D01*
X97734619Y-50234615D01*
X98360677Y-50230486D01*
X98422617Y-50305697D01*
X98434429Y-50320352D01*
X98476461Y-50375270D01*
X98524772Y-50441319D01*
X98571097Y-50507276D01*
X98607832Y-50560787D01*
X98668892Y-50648990D01*
X98729438Y-50735316D01*
X98794298Y-50826580D01*
X98868300Y-50929601D01*
X98956270Y-51051196D01*
X98980525Y-51084705D01*
X99046317Y-51176101D01*
X99113385Y-51269879D01*
X99175092Y-51356739D01*
X99224802Y-51427385D01*
X99335375Y-51585760D01*
X99344974Y-50849068D01*
X99345179Y-50833239D01*
X99347401Y-50647627D01*
X99349553Y-50444001D01*
X99351565Y-50230626D01*
X99353367Y-50015771D01*
X99354891Y-49807702D01*
X99356065Y-49614688D01*
X99356821Y-49444994D01*
X99359069Y-48777612D01*
X100527974Y-48777612D01*
X100527974Y-54243035D01*
X99359069Y-54243035D01*
X99359069Y-53143653D01*
X99223149Y-52962778D01*
X99208097Y-52942809D01*
X99156823Y-52875674D01*
X99110694Y-52816547D01*
X99074265Y-52771217D01*
X99052096Y-52745475D01*
X99016962Y-52709047D01*
X98950426Y-52856047D01*
X98931217Y-52898062D01*
X98903367Y-52957443D01*
X98881225Y-53002811D01*
X98868360Y-53026741D01*
X98859808Y-53041399D01*
X98839277Y-53080699D01*
X98815479Y-53129415D01*
X98804496Y-53152465D01*
X98778041Y-53207580D01*
X98740275Y-53285997D01*
X98692660Y-53384697D01*
X98636655Y-53500664D01*
X98573723Y-53630880D01*
X98505322Y-53772328D01*
X98432914Y-53921991D01*
X98357958Y-54076852D01*
X98281916Y-54233892D01*
X98206248Y-54390096D01*
X98132415Y-54542446D01*
X98061876Y-54687925D01*
X97996093Y-54823514D01*
X97936526Y-54946198D01*
X97884635Y-55052959D01*
X97841881Y-55140780D01*
X97646833Y-55540950D01*
X97709201Y-55594835D01*
X97794285Y-55667664D01*
X97915220Y-55768936D01*
X98031932Y-55864183D01*
X98140579Y-55950373D01*
X98237320Y-56024472D01*
X98318312Y-56083447D01*
X98379715Y-56124265D01*
X98471960Y-56180393D01*
X98550835Y-56227657D01*
X98618945Y-56267205D01*
X98684110Y-56303374D01*
X98754151Y-56340500D01*
X98836889Y-56382918D01*
X98940145Y-56434964D01*
X99100819Y-56513034D01*
X99273979Y-56590160D01*
X99443705Y-56657222D01*
X99614999Y-56715646D01*
X99792866Y-56766858D01*
X99982310Y-56812287D01*
X100188334Y-56853357D01*
X100415942Y-56891495D01*
X100670138Y-56928128D01*
X100679095Y-56929261D01*
X100746986Y-56935257D01*
X100837916Y-56940313D01*
X100944608Y-56944292D01*
X101059791Y-56947056D01*
X101176189Y-56948464D01*
X101286529Y-56948379D01*
X101383537Y-56946663D01*
X101459939Y-56943176D01*
X101476942Y-56941887D01*
X101562707Y-56933309D01*
X101657688Y-56921299D01*
X101744268Y-56908034D01*
X101766877Y-56904168D01*
X101860385Y-56888525D01*
X101961665Y-56871990D01*
X102052447Y-56857555D01*
X102143051Y-56841705D01*
X102360772Y-56791716D01*
X102592000Y-56723788D01*
X102829917Y-56640231D01*
X103067704Y-56543356D01*
X103298541Y-56435473D01*
X103472629Y-56346494D01*
X103637941Y-56256987D01*
X103784878Y-56170885D01*
X103919336Y-56084379D01*
X104047212Y-55993662D01*
X104174401Y-55894927D01*
X104306800Y-55784367D01*
X104452010Y-55655534D01*
X104696306Y-55418833D01*
X104919042Y-55176320D01*
X105117005Y-54931590D01*
X105286983Y-54688233D01*
X105288441Y-54685956D01*
X105340197Y-54601488D01*
X105400410Y-54497505D01*
X105464202Y-54382775D01*
X105526694Y-54266069D01*
X105583006Y-54156157D01*
X105661450Y-53993974D01*
X105753505Y-53786225D01*
X105830703Y-53586602D01*
X105895556Y-53387176D01*
X105950577Y-53180022D01*
X105998279Y-52957212D01*
X106041176Y-52710821D01*
X106056862Y-52610854D01*
X106072712Y-52504784D01*
X106084394Y-52416231D01*
X106092538Y-52337543D01*
X106097775Y-52261069D01*
X106100735Y-52179156D01*
X106102049Y-52084153D01*
X106102347Y-51968408D01*
X106102343Y-51960804D01*
X106101566Y-51855028D01*
X106099589Y-51753388D01*
X106096631Y-51662746D01*
X106092914Y-51589967D01*
X106088657Y-51541915D01*
X106081216Y-51487641D01*
X106057927Y-51332493D01*
X106031563Y-51174685D01*
X106003115Y-51019076D01*
X105973576Y-50870526D01*
X105943939Y-50733894D01*
X105915197Y-50614038D01*
X105888343Y-50515818D01*
X105864369Y-50444092D01*
X105854757Y-50418995D01*
X105831832Y-50357359D01*
X105804779Y-50283085D01*
X105777618Y-50207152D01*
X105758010Y-50155336D01*
X105714606Y-50052822D01*
X105659927Y-49933787D01*
X105597215Y-49804695D01*
X105529714Y-49672009D01*
X105460668Y-49542190D01*
X105393319Y-49421703D01*
X105330910Y-49317009D01*
X105321084Y-49301172D01*
X105281182Y-49236066D01*
X105248763Y-49181900D01*
X105226938Y-49143942D01*
X105218824Y-49127457D01*
X105218074Y-49124809D01*
X105204499Y-49102686D01*
X105179412Y-49069838D01*
X105140569Y-49022450D01*
X105139888Y-50499378D01*
X105139670Y-50700039D01*
X105139145Y-50922720D01*
X105138345Y-51141156D01*
X105137295Y-51352309D01*
X105136020Y-51553141D01*
X105134542Y-51740611D01*
X105132888Y-51911683D01*
X105131080Y-52063317D01*
X105129142Y-52192474D01*
X105127100Y-52296117D01*
X105124978Y-52371207D01*
X105124135Y-52394612D01*
X105110748Y-52766107D01*
X105045298Y-52963557D01*
X105017037Y-53044256D01*
X104983253Y-53132479D01*
X104950123Y-53211787D01*
X104921915Y-53271526D01*
X104908332Y-53296765D01*
X104814027Y-53447202D01*
X104698816Y-53597856D01*
X104569616Y-53740957D01*
X104433344Y-53868738D01*
X104296918Y-53973427D01*
X104285582Y-53981003D01*
X104176094Y-54048014D01*
X104057894Y-54110951D01*
X103939337Y-54165910D01*
X103828777Y-54208986D01*
X103734566Y-54236274D01*
X103727334Y-54237867D01*
X103666089Y-54252927D01*
X103615004Y-54268045D01*
X103584504Y-54280171D01*
X103570202Y-54284702D01*
X103522717Y-54291138D01*
X103446471Y-54296476D01*
X103343201Y-54300606D01*
X103214642Y-54303421D01*
X103207624Y-54303526D01*
X103089452Y-54304814D01*
X102998134Y-54304610D01*
X102929192Y-54302708D01*
X102878148Y-54298898D01*
X102840525Y-54292972D01*
X102811843Y-54284724D01*
X102802713Y-54281469D01*
X102750887Y-54264806D01*
X102683613Y-54244997D01*
X102613049Y-54225653D01*
X102498218Y-54190678D01*
X102363550Y-54135101D01*
X102228297Y-54061785D01*
X102083882Y-53966531D01*
X102011575Y-53910832D01*
X101926867Y-53838160D01*
X101838586Y-53756564D01*
X101753978Y-53672971D01*
X101680285Y-53594307D01*
X101624751Y-53527499D01*
X101623191Y-53525421D01*
X101524901Y-53373672D01*
X101436270Y-53194952D01*
X101358831Y-52992771D01*
X101294119Y-52770640D01*
X101288982Y-52749940D01*
X101275036Y-52689460D01*
X101265467Y-52636088D01*
X101259626Y-52582088D01*
X101256867Y-52519724D01*
X101256542Y-52441260D01*
X101257353Y-52384499D01*
X102265536Y-52384499D01*
X102265760Y-52405193D01*
X102269975Y-52485607D01*
X102278429Y-52563006D01*
X102289679Y-52623117D01*
X102338894Y-52761498D01*
X102419032Y-52902958D01*
X102522961Y-53029695D01*
X102647107Y-53138082D01*
X102787894Y-53224486D01*
X102941750Y-53285280D01*
X102988997Y-53296593D01*
X103069789Y-53309395D01*
X103156767Y-53317741D01*
X103237654Y-53320551D01*
X103300176Y-53316748D01*
X103330276Y-53311713D01*
X103493946Y-53266963D01*
X103643714Y-53196710D01*
X103777139Y-53103721D01*
X103891780Y-52990765D01*
X103985195Y-52860609D01*
X104054943Y-52716020D01*
X104098582Y-52559765D01*
X104113671Y-52394612D01*
X104111345Y-52321075D01*
X104087168Y-52160032D01*
X104035655Y-52012549D01*
X103955463Y-51875381D01*
X103845253Y-51745286D01*
X103757562Y-51665982D01*
X103618777Y-51573073D01*
X103470688Y-51507941D01*
X103316575Y-51470684D01*
X103159720Y-51461405D01*
X103003407Y-51480204D01*
X102850916Y-51527182D01*
X102705529Y-51602441D01*
X102570530Y-51706080D01*
X102497125Y-51779699D01*
X102395305Y-51913693D01*
X102322989Y-52058663D01*
X102279844Y-52215351D01*
X102265536Y-52384499D01*
X101257353Y-52384499D01*
X101258004Y-52338961D01*
X101258365Y-52319833D01*
X101260879Y-52220465D01*
X101264706Y-52142864D01*
X101270871Y-52078601D01*
X101280401Y-52019243D01*
X101294320Y-51956363D01*
X101313655Y-51881530D01*
X101319007Y-51861929D01*
X101388431Y-51655208D01*
X101477387Y-51460164D01*
X101582740Y-51282879D01*
X101701355Y-51129437D01*
X101772566Y-51051345D01*
X101902312Y-50920936D01*
X102028200Y-50812661D01*
X102156569Y-50722287D01*
X102293754Y-50645586D01*
X102446092Y-50578328D01*
X102619920Y-50516282D01*
X102824242Y-50449684D01*
X103631892Y-50462602D01*
X103789852Y-50518173D01*
X103831098Y-50533077D01*
X103908699Y-50562914D01*
X103979034Y-50592025D01*
X104030742Y-50615807D01*
X104113671Y-50657871D01*
X104113671Y-47988291D01*
X104038640Y-47931221D01*
X103996653Y-47900888D01*
X103910530Y-47844143D01*
X103805641Y-47779769D01*
X103687040Y-47710488D01*
X103559780Y-47639021D01*
X103428914Y-47568088D01*
X103299496Y-47500411D01*
X103176580Y-47438712D01*
X103065219Y-47385711D01*
X102970467Y-47344129D01*
X102897377Y-47316688D01*
X102885406Y-47312773D01*
X102823633Y-47291427D01*
X102749404Y-47264521D01*
X102676233Y-47236930D01*
X102602171Y-47211559D01*
X102498822Y-47181651D01*
X102377975Y-47150666D01*
X102246787Y-47120258D01*
X102112413Y-47092080D01*
X101982011Y-47067786D01*
X101862738Y-47049027D01*
X101806372Y-47040793D01*
X101732948Y-47028859D01*
X101672336Y-47017651D01*
X101633800Y-47008795D01*
X101624550Y-47006842D01*
X101580999Y-47002420D01*
X101512955Y-46998830D01*
X101425514Y-46996075D01*
X101323775Y-46994153D01*
X101212836Y-46993065D01*
X101097794Y-46992811D01*
X100983746Y-46993391D01*
X100875791Y-46994804D01*
X100779026Y-46997051D01*
X100698549Y-47000132D01*
X100639458Y-47004047D01*
X100606850Y-47008795D01*
X100581281Y-47014960D01*
X100525716Y-47025694D01*
X100454838Y-47037592D01*
X100377912Y-47049027D01*
X100267576Y-47066249D01*
X100137729Y-47090204D01*
X100003401Y-47118161D01*
X99871750Y-47148464D01*
X99749930Y-47179463D01*
X99645101Y-47209502D01*
X99564417Y-47236930D01*
X99546873Y-47243660D01*
X99472164Y-47271546D01*
X99399793Y-47297530D01*
X99343273Y-47316735D01*
X99312646Y-47327771D01*
X99241936Y-47357499D01*
X99151964Y-47398841D01*
X99047830Y-47449187D01*
X98934636Y-47505923D01*
X98817484Y-47566436D01*
X98701473Y-47628115D01*
X98591706Y-47688347D01*
X98493284Y-47744519D01*
X98411307Y-47794019D01*
X98311054Y-47859419D01*
X98141315Y-47981646D01*
X97970172Y-48120005D01*
X97792990Y-48278330D01*
X97605130Y-48460454D01*
X97458393Y-48611520D01*
X97295776Y-48791481D01*
X97151348Y-48968308D01*
X97020214Y-49148820D01*
X96897481Y-49339837D01*
X96778256Y-49548177D01*
X96657643Y-49780659D01*
X96605936Y-49886285D01*
X96519168Y-50074881D01*
X96445500Y-50253655D01*
X96382761Y-50429512D01*
X96328776Y-50609351D01*
X96281372Y-50800076D01*
X96238378Y-51008589D01*
X96197618Y-51241791D01*
X96180892Y-51346613D01*
X96164882Y-51455962D01*
X96153450Y-51550812D01*
X96145853Y-51640324D01*
X96141347Y-51733654D01*
X96139188Y-51839963D01*
X96138634Y-51968408D01*
X95158194Y-51968408D01*
X95159593Y-51817794D01*
X95163875Y-51658707D01*
X95170884Y-51515782D01*
X95180624Y-51396674D01*
X95195957Y-51265266D01*
X95266476Y-50832348D01*
X95366151Y-50409717D01*
X95494277Y-49998552D01*
X95650146Y-49600032D01*
X95833052Y-49215336D01*
X96042288Y-48845643D01*
X96277147Y-48492132D01*
X96536923Y-48155981D01*
X96820909Y-47838371D01*
X97128398Y-47540479D01*
X97458684Y-47263485D01*
X97811059Y-47008568D01*
X98006145Y-46882885D01*
X98372842Y-46673420D01*
X98750250Y-46492164D01*
X99140101Y-46338469D01*
X99544124Y-46211685D01*
X99964049Y-46111162D01*
X100401606Y-46036252D01*
X100462228Y-46029148D01*
X100571369Y-46020171D01*
X100701372Y-46012678D01*
X100845940Y-46006791D01*
X100998776Y-46002630D01*
X101153585Y-46000317D01*
X101304068Y-45999973D01*
X101443931Y-46001717D01*
X101566876Y-46005672D01*
X101666607Y-46011959D01*
X101929040Y-46040506D01*
X102354380Y-46111410D01*
X102769737Y-46211185D01*
X103173911Y-46338884D01*
X103565704Y-46493564D01*
X103943916Y-46674278D01*
X104307348Y-46880083D01*
X104654803Y-47110032D01*
X104985080Y-47363181D01*
X105296981Y-47638583D01*
X105589307Y-47935296D01*
X105860860Y-48252372D01*
X106110439Y-48588867D01*
X106336847Y-48943836D01*
X106538885Y-49316333D01*
X106715353Y-49705414D01*
X106865052Y-50110134D01*
X106923844Y-50297254D01*
X107012656Y-50628936D01*
X107079716Y-50957679D01*
X107126182Y-51290855D01*
X107153212Y-51635838D01*
X107161205Y-51968408D01*
X107161964Y-52000000D01*
X107157218Y-52279457D01*
G37*
%TO.C,R4*%
X162671000Y-49495064D02*
X162671000Y-48040936D01*
X160851000Y-49495064D02*
X160851000Y-48040936D01*
%TO.C,G\u002A\u002A\u002A*%
G36*
X153237218Y-52279457D02*
G01*
X153219936Y-52574001D01*
X153189099Y-52855014D01*
X153143765Y-53130862D01*
X153082992Y-53409908D01*
X153031850Y-53606231D01*
X152901061Y-54018509D01*
X152742330Y-54417719D01*
X152556655Y-54802624D01*
X152345038Y-55171988D01*
X152108480Y-55524574D01*
X151847980Y-55859147D01*
X151564541Y-56174469D01*
X151259161Y-56469304D01*
X150932843Y-56742417D01*
X150586586Y-56992570D01*
X150221392Y-57218527D01*
X149838260Y-57419052D01*
X149644742Y-57507618D01*
X149284599Y-57651235D01*
X148916289Y-57770453D01*
X148535735Y-57866378D01*
X148138862Y-57940113D01*
X147721594Y-57992763D01*
X147677193Y-57995649D01*
X147598323Y-57997834D01*
X147497571Y-57998640D01*
X147380265Y-57998190D01*
X147251731Y-57996608D01*
X147117298Y-57994016D01*
X146982293Y-57990538D01*
X146852042Y-57986297D01*
X146731874Y-57981417D01*
X146627116Y-57976019D01*
X146543095Y-57970229D01*
X146485139Y-57964168D01*
X146254991Y-57927735D01*
X145828739Y-57839674D01*
X145420674Y-57727079D01*
X145028810Y-57589212D01*
X144651159Y-57425337D01*
X144285735Y-57234716D01*
X143930549Y-57016613D01*
X143795653Y-56924783D01*
X143447370Y-56662084D01*
X143121725Y-56377976D01*
X142819404Y-56073589D01*
X142541091Y-55750055D01*
X142287472Y-55408503D01*
X142059230Y-55050064D01*
X141857051Y-54675870D01*
X141681619Y-54287052D01*
X141533620Y-53884739D01*
X141413737Y-53470064D01*
X141322657Y-53044156D01*
X141261062Y-52608147D01*
X141259003Y-52587687D01*
X141249688Y-52462634D01*
X141243086Y-52315462D01*
X141239201Y-52153827D01*
X141238036Y-51985386D01*
X141238194Y-51968408D01*
X142218634Y-51968408D01*
X142218978Y-52073865D01*
X142220765Y-52183766D01*
X142224756Y-52278905D01*
X142231693Y-52368442D01*
X142242320Y-52461535D01*
X142257381Y-52567343D01*
X142277618Y-52695025D01*
X142311522Y-52891878D01*
X142352332Y-53097002D01*
X142396869Y-53283786D01*
X142447403Y-53459347D01*
X142506204Y-53630802D01*
X142575541Y-53805267D01*
X142657683Y-53989860D01*
X142754900Y-54191698D01*
X142792933Y-54267779D01*
X142838276Y-54356726D01*
X142877933Y-54432559D01*
X142909865Y-54491456D01*
X142932034Y-54529597D01*
X142942400Y-54543159D01*
X142945905Y-54541707D01*
X142961643Y-54521116D01*
X142979686Y-54483924D01*
X142979920Y-54483351D01*
X142992059Y-54456283D01*
X143016429Y-54403946D01*
X143051581Y-54329384D01*
X143096070Y-54235638D01*
X143148449Y-54125751D01*
X143207270Y-54002765D01*
X143271086Y-53869722D01*
X143338450Y-53729664D01*
X143393399Y-53615479D01*
X143465699Y-53464973D01*
X143536656Y-53316986D01*
X143604202Y-53175841D01*
X143666273Y-53045859D01*
X143720804Y-52931362D01*
X143765728Y-52836671D01*
X143798981Y-52766107D01*
X143847408Y-52662901D01*
X143911668Y-52526694D01*
X143964056Y-52416736D01*
X144005309Y-52331510D01*
X144036165Y-52269497D01*
X144057361Y-52229180D01*
X144069636Y-52209041D01*
X144079059Y-52192433D01*
X144099227Y-52151163D01*
X144126294Y-52092825D01*
X144157334Y-52023992D01*
X144189423Y-51951237D01*
X144219635Y-51881134D01*
X144245044Y-51820256D01*
X144262726Y-51775175D01*
X144284369Y-51716208D01*
X144139949Y-51530337D01*
X144074461Y-51445597D01*
X143998809Y-51346951D01*
X143923868Y-51248594D01*
X143859028Y-51162811D01*
X143798801Y-51083839D01*
X143726347Y-50990902D01*
X143654210Y-50900136D01*
X143591568Y-50823197D01*
X143587310Y-50818056D01*
X143535711Y-50755051D01*
X143489922Y-50697930D01*
X143454780Y-50652794D01*
X143435119Y-50625746D01*
X143418195Y-50601562D01*
X143385236Y-50556921D01*
X143342250Y-50500089D01*
X143294238Y-50437737D01*
X143250759Y-50379401D01*
X143214635Y-50326162D01*
X143191047Y-50285744D01*
X143183705Y-50263981D01*
X143185611Y-50259637D01*
X143193709Y-50253989D01*
X143210608Y-50249367D01*
X143239156Y-50245639D01*
X143282202Y-50242672D01*
X143342595Y-50240334D01*
X143423184Y-50238491D01*
X143526819Y-50237013D01*
X143656348Y-50235765D01*
X143814619Y-50234615D01*
X144440677Y-50230486D01*
X144502617Y-50305697D01*
X144514429Y-50320352D01*
X144556461Y-50375270D01*
X144604772Y-50441319D01*
X144651097Y-50507276D01*
X144687832Y-50560787D01*
X144748892Y-50648990D01*
X144809438Y-50735316D01*
X144874298Y-50826580D01*
X144948300Y-50929601D01*
X145036270Y-51051196D01*
X145060525Y-51084705D01*
X145126317Y-51176101D01*
X145193385Y-51269879D01*
X145255092Y-51356739D01*
X145304802Y-51427385D01*
X145415375Y-51585760D01*
X145424974Y-50849068D01*
X145425179Y-50833239D01*
X145427401Y-50647627D01*
X145429553Y-50444001D01*
X145431565Y-50230626D01*
X145433367Y-50015771D01*
X145434891Y-49807702D01*
X145436065Y-49614688D01*
X145436821Y-49444994D01*
X145439069Y-48777612D01*
X146607974Y-48777612D01*
X146607974Y-54243035D01*
X145439069Y-54243035D01*
X145439069Y-53143653D01*
X145303149Y-52962778D01*
X145288097Y-52942809D01*
X145236823Y-52875674D01*
X145190694Y-52816547D01*
X145154265Y-52771217D01*
X145132096Y-52745475D01*
X145096962Y-52709047D01*
X145030426Y-52856047D01*
X145011217Y-52898062D01*
X144983367Y-52957443D01*
X144961225Y-53002811D01*
X144948360Y-53026741D01*
X144939808Y-53041399D01*
X144919277Y-53080699D01*
X144895479Y-53129415D01*
X144884496Y-53152465D01*
X144858041Y-53207580D01*
X144820275Y-53285997D01*
X144772660Y-53384697D01*
X144716655Y-53500664D01*
X144653723Y-53630880D01*
X144585322Y-53772328D01*
X144512914Y-53921991D01*
X144437958Y-54076852D01*
X144361916Y-54233892D01*
X144286248Y-54390096D01*
X144212415Y-54542446D01*
X144141876Y-54687925D01*
X144076093Y-54823514D01*
X144016526Y-54946198D01*
X143964635Y-55052959D01*
X143921881Y-55140780D01*
X143726833Y-55540950D01*
X143789201Y-55594835D01*
X143874285Y-55667664D01*
X143995220Y-55768936D01*
X144111932Y-55864183D01*
X144220579Y-55950373D01*
X144317320Y-56024472D01*
X144398312Y-56083447D01*
X144459715Y-56124265D01*
X144551960Y-56180393D01*
X144630835Y-56227657D01*
X144698945Y-56267205D01*
X144764110Y-56303374D01*
X144834151Y-56340500D01*
X144916889Y-56382918D01*
X145020145Y-56434964D01*
X145180819Y-56513034D01*
X145353979Y-56590160D01*
X145523705Y-56657222D01*
X145694999Y-56715646D01*
X145872866Y-56766858D01*
X146062310Y-56812287D01*
X146268334Y-56853357D01*
X146495942Y-56891495D01*
X146750138Y-56928128D01*
X146759095Y-56929261D01*
X146826986Y-56935257D01*
X146917916Y-56940313D01*
X147024608Y-56944292D01*
X147139791Y-56947056D01*
X147256189Y-56948464D01*
X147366529Y-56948379D01*
X147463537Y-56946663D01*
X147539939Y-56943176D01*
X147556942Y-56941887D01*
X147642707Y-56933309D01*
X147737688Y-56921299D01*
X147824268Y-56908034D01*
X147846877Y-56904168D01*
X147940385Y-56888525D01*
X148041665Y-56871990D01*
X148132447Y-56857555D01*
X148223051Y-56841705D01*
X148440772Y-56791716D01*
X148672000Y-56723788D01*
X148909917Y-56640231D01*
X149147704Y-56543356D01*
X149378541Y-56435473D01*
X149552629Y-56346494D01*
X149717941Y-56256987D01*
X149864878Y-56170885D01*
X149999336Y-56084379D01*
X150127212Y-55993662D01*
X150254401Y-55894927D01*
X150386800Y-55784367D01*
X150532010Y-55655534D01*
X150776306Y-55418833D01*
X150999042Y-55176320D01*
X151197005Y-54931590D01*
X151366983Y-54688233D01*
X151368441Y-54685956D01*
X151420197Y-54601488D01*
X151480410Y-54497505D01*
X151544202Y-54382775D01*
X151606694Y-54266069D01*
X151663006Y-54156157D01*
X151741450Y-53993974D01*
X151833505Y-53786225D01*
X151910703Y-53586602D01*
X151975556Y-53387176D01*
X152030577Y-53180022D01*
X152078279Y-52957212D01*
X152121176Y-52710821D01*
X152136862Y-52610854D01*
X152152712Y-52504784D01*
X152164394Y-52416231D01*
X152172538Y-52337543D01*
X152177775Y-52261069D01*
X152180735Y-52179156D01*
X152182049Y-52084153D01*
X152182347Y-51968408D01*
X152182343Y-51960804D01*
X152181566Y-51855028D01*
X152179589Y-51753388D01*
X152176631Y-51662746D01*
X152172914Y-51589967D01*
X152168657Y-51541915D01*
X152161216Y-51487641D01*
X152137927Y-51332493D01*
X152111563Y-51174685D01*
X152083115Y-51019076D01*
X152053576Y-50870526D01*
X152023939Y-50733894D01*
X151995197Y-50614038D01*
X151968343Y-50515818D01*
X151944369Y-50444092D01*
X151934757Y-50418995D01*
X151911832Y-50357359D01*
X151884779Y-50283085D01*
X151857618Y-50207152D01*
X151838010Y-50155336D01*
X151794606Y-50052822D01*
X151739927Y-49933787D01*
X151677215Y-49804695D01*
X151609714Y-49672009D01*
X151540668Y-49542190D01*
X151473319Y-49421703D01*
X151410910Y-49317009D01*
X151401084Y-49301172D01*
X151361182Y-49236066D01*
X151328763Y-49181900D01*
X151306938Y-49143942D01*
X151298824Y-49127457D01*
X151298074Y-49124809D01*
X151284499Y-49102686D01*
X151259412Y-49069838D01*
X151220569Y-49022450D01*
X151219888Y-50499378D01*
X151219670Y-50700039D01*
X151219145Y-50922720D01*
X151218345Y-51141156D01*
X151217295Y-51352309D01*
X151216020Y-51553141D01*
X151214542Y-51740611D01*
X151212888Y-51911683D01*
X151211080Y-52063317D01*
X151209142Y-52192474D01*
X151207100Y-52296117D01*
X151204978Y-52371207D01*
X151204135Y-52394612D01*
X151190748Y-52766107D01*
X151125298Y-52963557D01*
X151097037Y-53044256D01*
X151063253Y-53132479D01*
X151030123Y-53211787D01*
X151001915Y-53271526D01*
X150988332Y-53296765D01*
X150894027Y-53447202D01*
X150778816Y-53597856D01*
X150649616Y-53740957D01*
X150513344Y-53868738D01*
X150376918Y-53973427D01*
X150365582Y-53981003D01*
X150256094Y-54048014D01*
X150137894Y-54110951D01*
X150019337Y-54165910D01*
X149908777Y-54208986D01*
X149814566Y-54236274D01*
X149807334Y-54237867D01*
X149746089Y-54252927D01*
X149695004Y-54268045D01*
X149664504Y-54280171D01*
X149650202Y-54284702D01*
X149602717Y-54291138D01*
X149526471Y-54296476D01*
X149423201Y-54300606D01*
X149294642Y-54303421D01*
X149287624Y-54303526D01*
X149169452Y-54304814D01*
X149078134Y-54304610D01*
X149009192Y-54302708D01*
X148958148Y-54298898D01*
X148920525Y-54292972D01*
X148891843Y-54284724D01*
X148882713Y-54281469D01*
X148830887Y-54264806D01*
X148763613Y-54244997D01*
X148693049Y-54225653D01*
X148578218Y-54190678D01*
X148443550Y-54135101D01*
X148308297Y-54061785D01*
X148163882Y-53966531D01*
X148091575Y-53910832D01*
X148006867Y-53838160D01*
X147918586Y-53756564D01*
X147833978Y-53672971D01*
X147760285Y-53594307D01*
X147704751Y-53527499D01*
X147703191Y-53525421D01*
X147604901Y-53373672D01*
X147516270Y-53194952D01*
X147438831Y-52992771D01*
X147374119Y-52770640D01*
X147368982Y-52749940D01*
X147355036Y-52689460D01*
X147345467Y-52636088D01*
X147339626Y-52582088D01*
X147336867Y-52519724D01*
X147336542Y-52441260D01*
X147337353Y-52384499D01*
X148345536Y-52384499D01*
X148345760Y-52405193D01*
X148349975Y-52485607D01*
X148358429Y-52563006D01*
X148369679Y-52623117D01*
X148418894Y-52761498D01*
X148499032Y-52902958D01*
X148602961Y-53029695D01*
X148727107Y-53138082D01*
X148867894Y-53224486D01*
X149021750Y-53285280D01*
X149068997Y-53296593D01*
X149149789Y-53309395D01*
X149236767Y-53317741D01*
X149317654Y-53320551D01*
X149380176Y-53316748D01*
X149410276Y-53311713D01*
X149573946Y-53266963D01*
X149723714Y-53196710D01*
X149857139Y-53103721D01*
X149971780Y-52990765D01*
X150065195Y-52860609D01*
X150134943Y-52716020D01*
X150178582Y-52559765D01*
X150193671Y-52394612D01*
X150191345Y-52321075D01*
X150167168Y-52160032D01*
X150115655Y-52012549D01*
X150035463Y-51875381D01*
X149925253Y-51745286D01*
X149837562Y-51665982D01*
X149698777Y-51573073D01*
X149550688Y-51507941D01*
X149396575Y-51470684D01*
X149239720Y-51461405D01*
X149083407Y-51480204D01*
X148930916Y-51527182D01*
X148785529Y-51602441D01*
X148650530Y-51706080D01*
X148577125Y-51779699D01*
X148475305Y-51913693D01*
X148402989Y-52058663D01*
X148359844Y-52215351D01*
X148345536Y-52384499D01*
X147337353Y-52384499D01*
X147338004Y-52338961D01*
X147338365Y-52319833D01*
X147340879Y-52220465D01*
X147344706Y-52142864D01*
X147350871Y-52078601D01*
X147360401Y-52019243D01*
X147374320Y-51956363D01*
X147393655Y-51881530D01*
X147399007Y-51861929D01*
X147468431Y-51655208D01*
X147557387Y-51460164D01*
X147662740Y-51282879D01*
X147781355Y-51129437D01*
X147852566Y-51051345D01*
X147982312Y-50920936D01*
X148108200Y-50812661D01*
X148236569Y-50722287D01*
X148373754Y-50645586D01*
X148526092Y-50578328D01*
X148699920Y-50516282D01*
X148904242Y-50449684D01*
X149711892Y-50462602D01*
X149869852Y-50518173D01*
X149911098Y-50533077D01*
X149988699Y-50562914D01*
X150059034Y-50592025D01*
X150110742Y-50615807D01*
X150193671Y-50657871D01*
X150193671Y-47988291D01*
X150118640Y-47931221D01*
X150076653Y-47900888D01*
X149990530Y-47844143D01*
X149885641Y-47779769D01*
X149767040Y-47710488D01*
X149639780Y-47639021D01*
X149508914Y-47568088D01*
X149379496Y-47500411D01*
X149256580Y-47438712D01*
X149145219Y-47385711D01*
X149050467Y-47344129D01*
X148977377Y-47316688D01*
X148965406Y-47312773D01*
X148903633Y-47291427D01*
X148829404Y-47264521D01*
X148756233Y-47236930D01*
X148682171Y-47211559D01*
X148578822Y-47181651D01*
X148457975Y-47150666D01*
X148326787Y-47120258D01*
X148192413Y-47092080D01*
X148062011Y-47067786D01*
X147942738Y-47049027D01*
X147886372Y-47040793D01*
X147812948Y-47028859D01*
X147752336Y-47017651D01*
X147713800Y-47008795D01*
X147704550Y-47006842D01*
X147660999Y-47002420D01*
X147592955Y-46998830D01*
X147505514Y-46996075D01*
X147403775Y-46994153D01*
X147292836Y-46993065D01*
X147177794Y-46992811D01*
X147063746Y-46993391D01*
X146955791Y-46994804D01*
X146859026Y-46997051D01*
X146778549Y-47000132D01*
X146719458Y-47004047D01*
X146686850Y-47008795D01*
X146661281Y-47014960D01*
X146605716Y-47025694D01*
X146534838Y-47037592D01*
X146457912Y-47049027D01*
X146347576Y-47066249D01*
X146217729Y-47090204D01*
X146083401Y-47118161D01*
X145951750Y-47148464D01*
X145829930Y-47179463D01*
X145725101Y-47209502D01*
X145644417Y-47236930D01*
X145626873Y-47243660D01*
X145552164Y-47271546D01*
X145479793Y-47297530D01*
X145423273Y-47316735D01*
X145392646Y-47327771D01*
X145321936Y-47357499D01*
X145231964Y-47398841D01*
X145127830Y-47449187D01*
X145014636Y-47505923D01*
X144897484Y-47566436D01*
X144781473Y-47628115D01*
X144671706Y-47688347D01*
X144573284Y-47744519D01*
X144491307Y-47794019D01*
X144391054Y-47859419D01*
X144221315Y-47981646D01*
X144050172Y-48120005D01*
X143872990Y-48278330D01*
X143685130Y-48460454D01*
X143538393Y-48611520D01*
X143375776Y-48791481D01*
X143231348Y-48968308D01*
X143100214Y-49148820D01*
X142977481Y-49339837D01*
X142858256Y-49548177D01*
X142737643Y-49780659D01*
X142685936Y-49886285D01*
X142599168Y-50074881D01*
X142525500Y-50253655D01*
X142462761Y-50429512D01*
X142408776Y-50609351D01*
X142361372Y-50800076D01*
X142318378Y-51008589D01*
X142277618Y-51241791D01*
X142260892Y-51346613D01*
X142244882Y-51455962D01*
X142233450Y-51550812D01*
X142225853Y-51640324D01*
X142221347Y-51733654D01*
X142219188Y-51839963D01*
X142218634Y-51968408D01*
X141238194Y-51968408D01*
X141239593Y-51817794D01*
X141243875Y-51658707D01*
X141250884Y-51515782D01*
X141260624Y-51396674D01*
X141275957Y-51265266D01*
X141346476Y-50832348D01*
X141446151Y-50409717D01*
X141574277Y-49998552D01*
X141730146Y-49600032D01*
X141913052Y-49215336D01*
X142122288Y-48845643D01*
X142357147Y-48492132D01*
X142616923Y-48155981D01*
X142900909Y-47838371D01*
X143208398Y-47540479D01*
X143538684Y-47263485D01*
X143891059Y-47008568D01*
X144086145Y-46882885D01*
X144452842Y-46673420D01*
X144830250Y-46492164D01*
X145220101Y-46338469D01*
X145624124Y-46211685D01*
X146044049Y-46111162D01*
X146481606Y-46036252D01*
X146542228Y-46029148D01*
X146651369Y-46020171D01*
X146781372Y-46012678D01*
X146925940Y-46006791D01*
X147078776Y-46002630D01*
X147233585Y-46000317D01*
X147384068Y-45999973D01*
X147523931Y-46001717D01*
X147646876Y-46005672D01*
X147746607Y-46011959D01*
X148009040Y-46040506D01*
X148434380Y-46111410D01*
X148849737Y-46211185D01*
X149253911Y-46338884D01*
X149645704Y-46493564D01*
X150023916Y-46674278D01*
X150387348Y-46880083D01*
X150734803Y-47110032D01*
X151065080Y-47363181D01*
X151376981Y-47638583D01*
X151669307Y-47935296D01*
X151940860Y-48252372D01*
X152190439Y-48588867D01*
X152416847Y-48943836D01*
X152618885Y-49316333D01*
X152795353Y-49705414D01*
X152945052Y-50110134D01*
X153003844Y-50297254D01*
X153092656Y-50628936D01*
X153159716Y-50957679D01*
X153206182Y-51290855D01*
X153233212Y-51635838D01*
X153241205Y-51968408D01*
X153241964Y-52000000D01*
X153237218Y-52279457D01*
G37*
%TD*%
%LPC*%
D14*
%TO.C,H3*%
X132216000Y-25230000D03*
%TD*%
D15*
%TO.C,J12*%
X98443999Y-73482200D03*
D16*
X98443999Y-76022200D03*
X98443999Y-78562200D03*
X98443999Y-81102200D03*
X98443999Y-83642200D03*
X98443999Y-86182200D03*
%TD*%
D15*
%TO.C,J5*%
X155575000Y-73500000D03*
D16*
X155575000Y-76040000D03*
X155575000Y-78580000D03*
X155575000Y-81120000D03*
X155575000Y-83660000D03*
X155575000Y-86200000D03*
%TD*%
D15*
%TO.C,J7*%
X92855999Y-73482200D03*
D16*
X92855999Y-76022200D03*
X92855999Y-78562200D03*
X92855999Y-81102200D03*
X92855999Y-83642200D03*
X92855999Y-86182200D03*
%TD*%
D15*
%TO.C,J11*%
X149944666Y-73500000D03*
D16*
X149944666Y-76040000D03*
X149944666Y-78580000D03*
X149944666Y-81120000D03*
X149944666Y-83660000D03*
X149944666Y-86200000D03*
%TD*%
D15*
%TO.C,J3*%
X161786000Y-39000000D03*
D16*
X161786000Y-41540000D03*
X161786000Y-44080000D03*
%TD*%
D14*
%TO.C,H4*%
X166800000Y-53150000D03*
%TD*%
D15*
%TO.C,J9*%
X144314333Y-73482200D03*
D16*
X144314333Y-76022200D03*
X144314333Y-78562200D03*
X144314333Y-81102200D03*
X144314333Y-83642200D03*
%TD*%
D14*
%TO.C,H2*%
X81376000Y-53080000D03*
%TD*%
D15*
%TO.C,J4*%
X86341000Y-39000000D03*
D16*
X86341000Y-41540000D03*
X86341000Y-44080000D03*
%TD*%
D15*
%TO.C,J8*%
X109619999Y-73482200D03*
D16*
X109619999Y-76022200D03*
X109619999Y-78562200D03*
X109619999Y-81102200D03*
X109619999Y-83642200D03*
X109619999Y-86182200D03*
%TD*%
D14*
%TO.C,H1*%
X115951000Y-25180000D03*
%TD*%
D15*
%TO.C,J6*%
X104031998Y-73482200D03*
D16*
X104031998Y-76022200D03*
X104031998Y-78562200D03*
X104031998Y-81102200D03*
X104031998Y-83642200D03*
%TD*%
D15*
%TO.C,J10*%
X138684000Y-73482200D03*
D16*
X138684000Y-76022200D03*
X138684000Y-78562200D03*
X138684000Y-81102200D03*
X138684000Y-83642200D03*
X138684000Y-86182200D03*
%TD*%
D17*
%TO.C,R8*%
X97174000Y-43841000D03*
X97174000Y-40741000D03*
%TD*%
%TO.C,R7*%
X101174500Y-43841000D03*
X101174500Y-40741000D03*
%TD*%
D18*
%TO.C,J2*%
X159011000Y-22450000D03*
D19*
X162211000Y-20850000D03*
X162211000Y-27850000D03*
D18*
X164511000Y-25450000D03*
X164511000Y-22450000D03*
D20*
X160011000Y-30200000D03*
D21*
X164511000Y-29450000D03*
%TD*%
D19*
%TO.C,J1*%
X86766000Y-20725000D03*
X86766000Y-27725000D03*
D18*
X83566000Y-22325000D03*
X89066000Y-25325000D03*
X89066000Y-22325000D03*
D20*
X84566000Y-30075000D03*
D21*
X89066000Y-29325000D03*
%TD*%
D17*
%TO.C,R1*%
X147256500Y-43841000D03*
X147256500Y-40741000D03*
%TD*%
D22*
%TO.C,U2*%
X154860000Y-23080000D03*
X154860000Y-25620000D03*
X154860000Y-28160000D03*
X154860000Y-30700000D03*
X154860000Y-33240000D03*
X154860000Y-35780000D03*
X154860000Y-38320000D03*
X154860000Y-40860000D03*
X154860000Y-43400000D03*
X154860000Y-45940000D03*
X154860000Y-48480000D03*
X154860000Y-51020000D03*
X154860000Y-53560000D03*
X154860000Y-56100000D03*
X154860000Y-58640000D03*
X154860000Y-61180000D03*
X154860000Y-63720000D03*
X154860000Y-66260000D03*
X154860000Y-68800000D03*
X139620000Y-68800000D03*
X139620000Y-66260000D03*
X139620000Y-63720000D03*
X139620000Y-61180000D03*
X139620000Y-58640000D03*
X139620000Y-56100000D03*
X139620000Y-53560000D03*
X139620000Y-51020000D03*
X139620000Y-48480000D03*
X139620000Y-45940000D03*
X139620000Y-43400000D03*
X139620000Y-40860000D03*
X139620000Y-38320000D03*
X139620000Y-35780000D03*
X139620000Y-33240000D03*
X139620000Y-30700000D03*
X139620000Y-28160000D03*
X139620000Y-25620000D03*
X139620000Y-23080000D03*
%TD*%
D17*
%TO.C,R3*%
X151257000Y-43841000D03*
X151257000Y-40741000D03*
%TD*%
%TO.C,R6*%
X105175000Y-43841000D03*
X105175000Y-40741000D03*
%TD*%
%TO.C,R2*%
X143256000Y-43841000D03*
X143256000Y-40741000D03*
%TD*%
%TO.C,R5*%
X86360000Y-50064000D03*
X86360000Y-46964000D03*
%TD*%
D23*
%TO.C,SW2*%
X99409996Y-61797000D03*
X99359996Y-67997000D03*
X102859996Y-67897000D03*
X102859996Y-61797000D03*
%TD*%
D22*
%TO.C,U1*%
X108780000Y-23090000D03*
X108780000Y-25630000D03*
X108780000Y-28170000D03*
X108780000Y-30710000D03*
X108780000Y-33250000D03*
X108780000Y-35790000D03*
X108780000Y-38330000D03*
X108780000Y-40870000D03*
X108780000Y-43410000D03*
X108780000Y-45950000D03*
X108780000Y-48490000D03*
X108780000Y-51030000D03*
X108780000Y-53570000D03*
X108780000Y-56110000D03*
X108780000Y-58650000D03*
X108780000Y-61190000D03*
X108780000Y-63730000D03*
X108780000Y-66270000D03*
X108780000Y-68810000D03*
X93540000Y-68810000D03*
X93540000Y-66270000D03*
X93540000Y-63730000D03*
X93540000Y-61190000D03*
X93540000Y-58650000D03*
X93540000Y-56110000D03*
X93540000Y-53570000D03*
X93540000Y-51030000D03*
X93540000Y-48490000D03*
X93540000Y-45950000D03*
X93540000Y-43410000D03*
X93540000Y-40870000D03*
X93540000Y-38330000D03*
X93540000Y-35790000D03*
X93540000Y-33250000D03*
X93540000Y-30710000D03*
X93540000Y-28170000D03*
X93540000Y-25630000D03*
X93540000Y-23090000D03*
%TD*%
D17*
%TO.C,R4*%
X161761000Y-50318000D03*
X161761000Y-47218000D03*
%TD*%
D23*
%TO.C,SW1*%
X145440000Y-67997000D03*
X145490000Y-61797000D03*
X148940000Y-67897000D03*
X148940000Y-61797000D03*
%TD*%
M02*
