%TF.GenerationSoftware,KiCad,Pcbnew,6.0.0-rc1-bf2b03b42f~115~ubuntu21.10.1*%
%TF.CreationDate,2021-12-06T18:49:25+01:00*%
%TF.ProjectId,adapter,61646170-7465-4722-9e6b-696361645f70,rev?*%
%TF.SameCoordinates,Original*%
%TF.FileFunction,Paste,Bot*%
%TF.FilePolarity,Positive*%
%FSLAX46Y46*%
G04 Gerber Fmt 4.6, Leading zero omitted, Abs format (unit mm)*
G04 Created by KiCad (PCBNEW 6.0.0-rc1-bf2b03b42f~115~ubuntu21.10.1) date 2021-12-06 18:49:25*
%MOMM*%
%LPD*%
G01*
G04 APERTURE LIST*
G04 Aperture macros list*
%AMRoundRect*
0 Rectangle with rounded corners*
0 $1 Rounding radius*
0 $2 $3 $4 $5 $6 $7 $8 $9 X,Y pos of 4 corners*
0 Add a 4 corners polygon primitive as box body*
4,1,4,$2,$3,$4,$5,$6,$7,$8,$9,$2,$3,0*
0 Add four circle primitives for the rounded corners*
1,1,$1+$1,$2,$3*
1,1,$1+$1,$4,$5*
1,1,$1+$1,$6,$7*
1,1,$1+$1,$8,$9*
0 Add four rect primitives between the rounded corners*
20,1,$1+$1,$2,$3,$4,$5,0*
20,1,$1+$1,$4,$5,$6,$7,0*
20,1,$1+$1,$6,$7,$8,$9,0*
20,1,$1+$1,$8,$9,$2,$3,0*%
G04 Aperture macros list end*
%TA.AperFunction,Profile*%
%ADD10C,0.200000*%
%TD*%
%ADD11RoundRect,0.250000X0.400000X0.625000X-0.400000X0.625000X-0.400000X-0.625000X0.400000X-0.625000X0*%
%ADD12RoundRect,0.250000X0.625000X-0.400000X0.625000X0.400000X-0.625000X0.400000X-0.625000X-0.400000X0*%
G04 APERTURE END LIST*
D10*
X89461922Y-59811325D02*
G75*
G03*
X86921922Y-57271325I-2540001J-1D01*
G01*
X92942279Y-21706283D02*
X90698495Y-20866952D01*
X89461922Y-84095026D02*
X89461922Y-59811325D01*
X86003204Y-20857382D02*
X87481927Y-20860396D01*
X119423514Y-25217534D02*
G75*
G03*
X115950000Y-21706283I-3473514J37534D01*
G01*
X81808327Y-22327890D02*
X81815209Y-46202659D01*
X119166648Y-33968362D02*
G75*
G03*
X119339931Y-32952692I-2884873J1014804D01*
G01*
X83257287Y-20851784D02*
G75*
G03*
X81808327Y-22327890I360535J-1803115D01*
G01*
X112686922Y-84653915D02*
X112686922Y-46157609D01*
X90698495Y-20866952D02*
X87481927Y-20860396D01*
X93406921Y-88095026D02*
X109741923Y-88095026D01*
X81431985Y-57271325D02*
X86921922Y-57271325D01*
X115950000Y-21706283D02*
X92942279Y-21706283D01*
X79203530Y-49362023D02*
G75*
G03*
X81431985Y-57271325I2196419J-3649742D01*
G01*
X86003204Y-20857382D02*
X83257287Y-20851785D01*
X119423514Y-25217534D02*
X119339931Y-32952692D01*
X109741924Y-88095025D02*
G75*
G03*
X112686922Y-84653915I-1291601J4086148D01*
G01*
X89461922Y-84095026D02*
G75*
G03*
X93406921Y-88095026I4096522J94817D01*
G01*
X79203531Y-49362023D02*
G75*
G03*
X81815209Y-46202659I-1619292J3997732D01*
G01*
X112686922Y-46157609D02*
X119166648Y-33968362D01*
X164892713Y-20911785D02*
X162146796Y-20917382D01*
X135463077Y-84713915D02*
G75*
G03*
X138408076Y-88155026I4236600J645038D01*
G01*
X135463078Y-46217609D02*
X135463078Y-84713915D01*
X128983352Y-34028362D02*
X135463078Y-46217609D01*
X166718015Y-57331326D02*
G75*
G03*
X168946470Y-49422023I32038J4259560D01*
G01*
X161228078Y-57331325D02*
G75*
G03*
X158688078Y-59871325I1J-2540001D01*
G01*
X166341672Y-22387890D02*
G75*
G03*
X164892713Y-20911785I-1809494J-327009D01*
G01*
X157451505Y-20926952D02*
X155207721Y-21766283D01*
X132200000Y-21766282D02*
G75*
G03*
X128726486Y-25277534I2J-3473719D01*
G01*
X128810069Y-33012692D02*
X128726486Y-25277534D01*
X161228078Y-57331325D02*
X166718015Y-57331325D01*
X166334791Y-46262659D02*
G75*
G03*
X168946469Y-49422023I4230970J838368D01*
G01*
X138408077Y-88155026D02*
X154743079Y-88155026D01*
X158688078Y-59871325D02*
X158688078Y-84155026D01*
X160668073Y-20920396D02*
X157451505Y-20926952D01*
X166334791Y-46262659D02*
X166341673Y-22387890D01*
X160668073Y-20920396D02*
X162146796Y-20917382D01*
X155207721Y-21766283D02*
X132200000Y-21766283D01*
X154743079Y-88155026D02*
G75*
G03*
X158688078Y-84155026I-151523J4094817D01*
G01*
X128810069Y-33012692D02*
G75*
G03*
X128983352Y-34028362I3058156J-866D01*
G01*
X107392893Y-31700000D02*
G75*
G03*
X106392893Y-30700000I-999999J1D01*
G01*
X95900000Y-38692893D02*
X106392893Y-38692893D01*
X107392893Y-31700000D02*
X107392893Y-37692893D01*
X94900000Y-37692893D02*
G75*
G03*
X95900000Y-38692893I999999J-1D01*
G01*
X106392893Y-30700000D02*
X95900000Y-30700000D01*
X94900000Y-31700000D02*
X94900000Y-37692893D01*
X95900000Y-30700000D02*
G75*
G03*
X94900000Y-31700000I-1J-999999D01*
G01*
X106392893Y-38692893D02*
G75*
G03*
X107392893Y-37692893I1J999999D01*
G01*
X140997354Y-31700000D02*
X140997354Y-37692893D01*
X152490247Y-38692893D02*
G75*
G03*
X153490247Y-37692893I-1J1000001D01*
G01*
X153490247Y-31700000D02*
X153490247Y-37692893D01*
X140997354Y-37692893D02*
G75*
G03*
X141997354Y-38692893I1000001J1D01*
G01*
X153490247Y-31700000D02*
G75*
G03*
X152490247Y-30700000I-1000001J-1D01*
G01*
X141997354Y-38692893D02*
X152490247Y-38692893D01*
X141997354Y-30700000D02*
G75*
G03*
X140997354Y-31700000I1J-1000001D01*
G01*
X152490247Y-30700000D02*
X141997354Y-30700000D01*
D11*
%TO.C,R8*%
X99460000Y-45280000D03*
X96360000Y-45280000D03*
%TD*%
%TO.C,R7*%
X102070000Y-50410000D03*
X98970000Y-50410000D03*
%TD*%
D12*
%TO.C,R1*%
X147256500Y-43841000D03*
X147256500Y-40741000D03*
%TD*%
%TO.C,R3*%
X151257000Y-43841000D03*
X151257000Y-40741000D03*
%TD*%
D11*
%TO.C,R6*%
X99460000Y-42330000D03*
X96360000Y-42330000D03*
%TD*%
D12*
%TO.C,R2*%
X143256000Y-43841000D03*
X143256000Y-40741000D03*
%TD*%
%TO.C,R5*%
X86360000Y-50064000D03*
X86360000Y-46964000D03*
%TD*%
%TO.C,R4*%
X161761000Y-50318000D03*
X161761000Y-47218000D03*
%TD*%
M02*
