M48
; DRILL file {KiCad 6.0.0-rc1-bf2b03b42f~115~ubuntu21.10.1} date Mi 08 Dez 2021 18:47:52 CET
; FORMAT={-:-/ absolute / inch / decimal}
; #@! TF.CreationDate,2021-12-08T18:47:52+01:00
; #@! TF.GenerationSoftware,Kicad,Pcbnew,6.0.0-rc1-bf2b03b42f~115~ubuntu21.10.1
; #@! TF.FileFunction,MixedPlating,1,2
FMAT,2
INCH
; #@! TA.AperFunction,Plated,PTH,ViaDrill
T1C0.0120
; #@! TA.AperFunction,Plated,PTH,ComponentDrill
T2C0.0236
; #@! TA.AperFunction,Plated,PTH,ComponentDrill
T3C0.0394
; #@! TA.AperFunction,Plated,PTH,ComponentDrill
T4C0.1575
; #@! TA.AperFunction,NonPlated,NPTH,ComponentDrill
T5C0.0591
%
G90
G05
T1
X3.5363Y-1.9615
X3.5807Y-1.5615
X3.6207Y-2.6665
X3.6207Y-3.0412
X3.6207Y-3.1412
X3.6207Y-3.2412
X3.7357Y-2.6665
X3.8057Y-1.5515
X3.8253Y-1.7665
X3.8457Y-1.5515
X3.9057Y-3.0415
X3.9057Y-3.1415
X3.9057Y-3.2415
X3.9857Y-1.5565
X4.0607Y-3.2415
X4.0607Y-3.0415
X4.0607Y-3.1465
X4.1407Y-1.6565
X4.2007Y-1.7824
X4.2807Y-3.0415
X4.2807Y-3.1415
X4.2807Y-3.2415
X4.3207Y-2.2565
X4.3457Y-3.3415
X4.3807Y-2.0215
X5.4457Y-2.6565
X5.4457Y-2.7565
X5.559Y-2.7729
X5.5798Y-2.7415
X5.6017Y-2.7115
X5.6607Y-1.8215
X5.6607Y-1.9365
X5.675Y-2.435
X5.725Y-2.48
X5.725Y-2.62
X5.8007Y-1.56
X5.8057Y-1.8715
X5.905Y-2.435
X5.905Y-2.675
X5.9557Y-1.6565
X6.0229Y-1.8529
X6.2057Y-1.1965
X6.2607Y-0.9565
X6.2607Y-0.9965
X6.2607Y-1.0365
T3
X3.3993Y-1.5354
X3.3993Y-1.6354
X3.3993Y-1.7354
X3.6557Y-2.893
X3.6557Y-2.993
X3.6557Y-3.093
X3.6557Y-3.193
X3.6557Y-3.293
X3.6557Y-3.393
X3.6827Y-0.9091
X3.6827Y-1.0091
X3.6827Y-1.1091
X3.6827Y-1.2091
X3.6827Y-1.3091
X3.6827Y-1.4091
X3.6827Y-1.5091
X3.6827Y-1.6091
X3.6827Y-1.7091
X3.6827Y-1.8091
X3.6827Y-1.9091
X3.6827Y-2.0091
X3.6827Y-2.1091
X3.6827Y-2.2091
X3.6827Y-2.3091
X3.6827Y-2.4091
X3.6827Y-2.5091
X3.6827Y-2.6091
X3.6827Y-2.7091
X3.8757Y-2.893
X3.8757Y-2.993
X3.8757Y-3.093
X3.8757Y-3.193
X3.8757Y-3.293
X3.8757Y-3.393
X4.0957Y-2.893
X4.0957Y-2.993
X4.0957Y-3.093
X4.0957Y-3.193
X4.0957Y-3.293
X4.2827Y-0.9091
X4.2827Y-1.0091
X4.2827Y-1.1091
X4.2827Y-1.2091
X4.2827Y-1.3091
X4.2827Y-1.4091
X4.2827Y-1.5091
X4.2827Y-1.6091
X4.2827Y-1.7091
X4.2827Y-1.8091
X4.2827Y-1.9091
X4.2827Y-2.0091
X4.2827Y-2.1091
X4.2827Y-2.2091
X4.2827Y-2.3091
X4.2827Y-2.4091
X4.2827Y-2.5091
X4.2827Y-2.6091
X4.2827Y-2.7091
X4.3157Y-2.893
X4.3157Y-2.993
X4.3157Y-3.093
X4.3157Y-3.193
X4.3157Y-3.293
X4.3157Y-3.393
X5.46Y-2.893
X5.46Y-2.993
X5.46Y-3.093
X5.46Y-3.193
X5.46Y-3.293
X5.46Y-3.393
X5.4969Y-0.9087
X5.4969Y-1.0087
X5.4969Y-1.1087
X5.4969Y-1.2087
X5.4969Y-1.3087
X5.4969Y-1.4087
X5.4969Y-1.5087
X5.4969Y-1.6087
X5.4969Y-1.7087
X5.4969Y-1.8087
X5.4969Y-1.9087
X5.4969Y-2.0087
X5.4969Y-2.1087
X5.4969Y-2.2087
X5.4969Y-2.3087
X5.4969Y-2.4087
X5.4969Y-2.5087
X5.4969Y-2.6087
X5.4969Y-2.7087
X5.6817Y-2.893
X5.6817Y-2.993
X5.6817Y-3.093
X5.6817Y-3.193
X5.6817Y-3.293
X5.9033Y-2.8937
X5.9033Y-2.9937
X5.9033Y-3.0937
X5.9033Y-3.1937
X5.9033Y-3.2937
X5.9033Y-3.3937
X6.0969Y-0.9087
X6.0969Y-1.0087
X6.0969Y-1.1087
X6.0969Y-1.2087
X6.0969Y-1.3087
X6.0969Y-1.4087
X6.0969Y-1.5087
X6.0969Y-1.6087
X6.0969Y-1.7087
X6.0969Y-1.8087
X6.0969Y-1.9087
X6.0969Y-2.0087
X6.0969Y-2.1087
X6.0969Y-2.2087
X6.0969Y-2.3087
X6.0969Y-2.4087
X6.0969Y-2.5087
X6.0969Y-2.6087
X6.0969Y-2.7087
X6.125Y-2.8937
X6.125Y-2.9937
X6.125Y-3.0937
X6.125Y-3.1937
X6.125Y-3.2937
X6.125Y-3.3937
X6.3695Y-1.5354
X6.3695Y-1.6354
X6.3695Y-1.7354
T4
X3.2038Y-2.0898
X4.565Y-0.9913
X5.2054Y-0.9933
X6.5669Y-2.0925
T2
G00X3.29Y-0.8671
M15
G01X3.29Y-0.8907
M16
G05
G00X3.3294Y-1.1427
M15
G01X3.3294Y-1.2254
M16
G05
G00X3.5065Y-0.8671
M15
G01X3.5065Y-0.8907
M16
G05
G00X3.5065Y-0.9852
M15
G01X3.5065Y-1.0089
M16
G05
G00X3.5065Y-1.1427
M15
G01X3.5065Y-1.1663
M16
G05
G00X6.2603Y-0.872
M15
G01X6.2603Y-0.8957
M16
G05
G00X6.2996Y-1.1476
M15
G01X6.2996Y-1.2303
M16
G05
G00X6.4768Y-0.872
M15
G01X6.4768Y-0.8957
M16
G05
G00X6.4768Y-0.9902
M15
G01X6.4768Y-1.0138
M16
G05
G00X6.4768Y-1.1476
M15
G01X6.4768Y-1.1713
M16
G05
T5
G00X3.416Y-0.8159
M15
G01X3.416Y-0.8159
M16
G05
G00X3.416Y-1.0915
M15
G01X3.416Y-1.0915
M16
G05
G00X6.3863Y-0.8209
M15
G01X6.3863Y-0.8209
M16
G05
G00X6.3863Y-1.0965
M15
G01X6.3863Y-1.0965
M16
G05
T0
M30
