%TF.GenerationSoftware,KiCad,Pcbnew,6.0.0-rc1-bf2b03b42f~115~ubuntu21.10.1*%
%TF.CreationDate,2021-12-06T18:49:25+01:00*%
%TF.ProjectId,adapter,61646170-7465-4722-9e6b-696361645f70,rev?*%
%TF.SameCoordinates,Original*%
%TF.FileFunction,Soldermask,Top*%
%TF.FilePolarity,Negative*%
%FSLAX46Y46*%
G04 Gerber Fmt 4.6, Leading zero omitted, Abs format (unit mm)*
G04 Created by KiCad (PCBNEW 6.0.0-rc1-bf2b03b42f~115~ubuntu21.10.1) date 2021-12-06 18:49:25*
%MOMM*%
%LPD*%
G01*
G04 APERTURE LIST*
%TA.AperFunction,Profile*%
%ADD10C,0.200000*%
%TD*%
%ADD11R,1.700000X1.700000*%
%ADD12O,1.700000X1.700000*%
%ADD13C,5.000000*%
%ADD14O,1.500000X1.500000*%
%ADD15O,1.400000X2.000000*%
%ADD16O,1.400000X3.500000*%
%ADD17R,1.400000X2.000000*%
%ADD18C,1.700000*%
G04 APERTURE END LIST*
D10*
X89461922Y-59811325D02*
G75*
G03*
X86921922Y-57271325I-2540001J-1D01*
G01*
X92942279Y-21706283D02*
X90698495Y-20866952D01*
X89461922Y-84095026D02*
X89461922Y-59811325D01*
X86003204Y-20857382D02*
X87481927Y-20860396D01*
X119423514Y-25217534D02*
G75*
G03*
X115950000Y-21706283I-3473514J37534D01*
G01*
X81808327Y-22327890D02*
X81815209Y-46202659D01*
X119166648Y-33968362D02*
G75*
G03*
X119339931Y-32952692I-2884873J1014804D01*
G01*
X83257287Y-20851784D02*
G75*
G03*
X81808327Y-22327890I360535J-1803115D01*
G01*
X112686922Y-84653915D02*
X112686922Y-46157609D01*
X90698495Y-20866952D02*
X87481927Y-20860396D01*
X93406921Y-88095026D02*
X109741923Y-88095026D01*
X81431985Y-57271325D02*
X86921922Y-57271325D01*
X115950000Y-21706283D02*
X92942279Y-21706283D01*
X79203530Y-49362023D02*
G75*
G03*
X81431985Y-57271325I2196419J-3649742D01*
G01*
X86003204Y-20857382D02*
X83257287Y-20851785D01*
X119423514Y-25217534D02*
X119339931Y-32952692D01*
X109741924Y-88095025D02*
G75*
G03*
X112686922Y-84653915I-1291601J4086148D01*
G01*
X89461922Y-84095026D02*
G75*
G03*
X93406921Y-88095026I4096522J94817D01*
G01*
X79203531Y-49362023D02*
G75*
G03*
X81815209Y-46202659I-1619292J3997732D01*
G01*
X112686922Y-46157609D02*
X119166648Y-33968362D01*
X164892713Y-20911785D02*
X162146796Y-20917382D01*
X135463077Y-84713915D02*
G75*
G03*
X138408076Y-88155026I4236600J645038D01*
G01*
X135463078Y-46217609D02*
X135463078Y-84713915D01*
X128983352Y-34028362D02*
X135463078Y-46217609D01*
X166718015Y-57331326D02*
G75*
G03*
X168946470Y-49422023I32038J4259560D01*
G01*
X161228078Y-57331325D02*
G75*
G03*
X158688078Y-59871325I1J-2540001D01*
G01*
X166341672Y-22387890D02*
G75*
G03*
X164892713Y-20911785I-1809494J-327009D01*
G01*
X157451505Y-20926952D02*
X155207721Y-21766283D01*
X132200000Y-21766282D02*
G75*
G03*
X128726486Y-25277534I2J-3473719D01*
G01*
X128810069Y-33012692D02*
X128726486Y-25277534D01*
X161228078Y-57331325D02*
X166718015Y-57331325D01*
X166334791Y-46262659D02*
G75*
G03*
X168946469Y-49422023I4230970J838368D01*
G01*
X138408077Y-88155026D02*
X154743079Y-88155026D01*
X158688078Y-59871325D02*
X158688078Y-84155026D01*
X160668073Y-20920396D02*
X157451505Y-20926952D01*
X166334791Y-46262659D02*
X166341673Y-22387890D01*
X160668073Y-20920396D02*
X162146796Y-20917382D01*
X155207721Y-21766283D02*
X132200000Y-21766283D01*
X154743079Y-88155026D02*
G75*
G03*
X158688078Y-84155026I-151523J4094817D01*
G01*
X128810069Y-33012692D02*
G75*
G03*
X128983352Y-34028362I3058156J-866D01*
G01*
X107392893Y-31700000D02*
G75*
G03*
X106392893Y-30700000I-999999J1D01*
G01*
X95900000Y-38692893D02*
X106392893Y-38692893D01*
X107392893Y-31700000D02*
X107392893Y-37692893D01*
X94900000Y-37692893D02*
G75*
G03*
X95900000Y-38692893I999999J-1D01*
G01*
X106392893Y-30700000D02*
X95900000Y-30700000D01*
X94900000Y-31700000D02*
X94900000Y-37692893D01*
X95900000Y-30700000D02*
G75*
G03*
X94900000Y-31700000I-1J-999999D01*
G01*
X106392893Y-38692893D02*
G75*
G03*
X107392893Y-37692893I1J999999D01*
G01*
X140997354Y-31700000D02*
X140997354Y-37692893D01*
X152490247Y-38692893D02*
G75*
G03*
X153490247Y-37692893I-1J1000001D01*
G01*
X153490247Y-31700000D02*
X153490247Y-37692893D01*
X140997354Y-37692893D02*
G75*
G03*
X141997354Y-38692893I1000001J1D01*
G01*
X153490247Y-31700000D02*
G75*
G03*
X152490247Y-30700000I-1000001J-1D01*
G01*
X141997354Y-38692893D02*
X152490247Y-38692893D01*
X141997354Y-30700000D02*
G75*
G03*
X140997354Y-31700000I1J-1000001D01*
G01*
X152490247Y-30700000D02*
X141997354Y-30700000D01*
D11*
%TO.C,J3*%
X161786000Y-39000000D03*
D12*
X161786000Y-41540000D03*
X161786000Y-44080000D03*
%TD*%
D11*
%TO.C,J4*%
X86341000Y-39000000D03*
D12*
X86341000Y-41540000D03*
X86341000Y-44080000D03*
%TD*%
D11*
%TO.C,J9*%
X147240000Y-73482200D03*
D12*
X147240000Y-76022200D03*
X147240000Y-78562200D03*
X147240000Y-81102200D03*
X147240000Y-83642200D03*
%TD*%
D11*
%TO.C,J6*%
X101160000Y-73500000D03*
D12*
X101160000Y-76040000D03*
X101160000Y-78580000D03*
X101160000Y-81120000D03*
X101160000Y-83660000D03*
%TD*%
D11*
%TO.C,J5*%
X154860000Y-73500000D03*
D12*
X154860000Y-76040000D03*
X154860000Y-78580000D03*
X154860000Y-81120000D03*
X154860000Y-83660000D03*
X154860000Y-86200000D03*
%TD*%
D11*
%TO.C,J7*%
X93540000Y-73500000D03*
D12*
X93540000Y-76040000D03*
X93540000Y-78580000D03*
X93540000Y-81120000D03*
X93540000Y-83660000D03*
X93540000Y-86200000D03*
%TD*%
D11*
%TO.C,J8*%
X108780000Y-73500000D03*
D12*
X108780000Y-76040000D03*
X108780000Y-78580000D03*
X108780000Y-81120000D03*
X108780000Y-83660000D03*
X108780000Y-86200000D03*
%TD*%
D11*
%TO.C,J10*%
X139620000Y-73482200D03*
D12*
X139620000Y-76022200D03*
X139620000Y-78562200D03*
X139620000Y-81102200D03*
X139620000Y-83642200D03*
X139620000Y-86182200D03*
%TD*%
D13*
%TO.C,H3*%
X132216000Y-25230000D03*
%TD*%
%TO.C,H4*%
X166800000Y-53150000D03*
%TD*%
%TO.C,H2*%
X81376000Y-53080000D03*
%TD*%
%TO.C,H1*%
X115951000Y-25180000D03*
%TD*%
D14*
%TO.C,J2*%
X162211000Y-20850000D03*
X162211000Y-27850000D03*
D15*
X159011000Y-22450000D03*
X164511000Y-25450000D03*
X164511000Y-22450000D03*
D16*
X160011000Y-30200000D03*
D17*
X164511000Y-29450000D03*
%TD*%
D15*
%TO.C,J1*%
X83566000Y-22325000D03*
D14*
X86766000Y-20725000D03*
X86766000Y-27725000D03*
D15*
X89066000Y-25325000D03*
X89066000Y-22325000D03*
D16*
X84566000Y-30075000D03*
D17*
X89066000Y-29325000D03*
%TD*%
D18*
%TO.C,U2*%
X154860000Y-23080000D03*
X154860000Y-25620000D03*
X154860000Y-28160000D03*
X154860000Y-30700000D03*
X154860000Y-33240000D03*
X154860000Y-35780000D03*
X154860000Y-43400000D03*
X154860000Y-45940000D03*
X154860000Y-48480000D03*
X154860000Y-51020000D03*
X154860000Y-53560000D03*
X154860000Y-56100000D03*
X154860000Y-58640000D03*
X154860000Y-61180000D03*
X154860000Y-63720000D03*
X154860000Y-66260000D03*
X154860000Y-68800000D03*
X139620000Y-68800000D03*
X139620000Y-66260000D03*
X139620000Y-63720000D03*
X139620000Y-61180000D03*
X139620000Y-58640000D03*
X139620000Y-56100000D03*
X139620000Y-53560000D03*
X139620000Y-51020000D03*
X139620000Y-48480000D03*
X139620000Y-45940000D03*
X139620000Y-43400000D03*
X139620000Y-40860000D03*
X139620000Y-38320000D03*
X139620000Y-35780000D03*
X139620000Y-33240000D03*
X139620000Y-30700000D03*
X139620000Y-28160000D03*
X139620000Y-25620000D03*
X139620000Y-23080000D03*
%TD*%
%TO.C,U1*%
X108780000Y-23090000D03*
X108780000Y-25630000D03*
X108780000Y-28170000D03*
X108780000Y-30710000D03*
X108780000Y-33250000D03*
X108780000Y-35790000D03*
X108780000Y-43410000D03*
X108780000Y-45950000D03*
X108780000Y-48490000D03*
X108780000Y-51030000D03*
X108780000Y-53570000D03*
X108780000Y-56110000D03*
X108780000Y-58650000D03*
X108780000Y-61190000D03*
X108780000Y-63730000D03*
X108780000Y-66270000D03*
X108780000Y-68810000D03*
X93540000Y-68810000D03*
X93540000Y-66270000D03*
X93540000Y-63730000D03*
X93540000Y-61190000D03*
X93540000Y-58650000D03*
X93540000Y-56110000D03*
X93540000Y-53570000D03*
X93540000Y-51030000D03*
X93540000Y-48490000D03*
X93540000Y-45950000D03*
X93540000Y-43410000D03*
X93540000Y-40870000D03*
X93540000Y-38330000D03*
X93540000Y-35790000D03*
X93540000Y-33250000D03*
X93540000Y-30710000D03*
X93540000Y-28170000D03*
X93540000Y-25630000D03*
X93540000Y-23090000D03*
%TD*%
M02*
