%TF.GenerationSoftware,KiCad,Pcbnew,6.0.0-rc1-bf2b03b42f~115~ubuntu21.10.1*%
%TF.CreationDate,2021-12-06T18:49:25+01:00*%
%TF.ProjectId,adapter,61646170-7465-4722-9e6b-696361645f70,rev?*%
%TF.SameCoordinates,Original*%
%TF.FileFunction,Legend,Top*%
%TF.FilePolarity,Positive*%
%FSLAX46Y46*%
G04 Gerber Fmt 4.6, Leading zero omitted, Abs format (unit mm)*
G04 Created by KiCad (PCBNEW 6.0.0-rc1-bf2b03b42f~115~ubuntu21.10.1) date 2021-12-06 18:49:25*
%MOMM*%
%LPD*%
G01*
G04 APERTURE LIST*
%TA.AperFunction,Profile*%
%ADD10C,0.200000*%
%TD*%
%ADD11C,0.150000*%
%ADD12C,0.120000*%
%ADD13C,0.200000*%
%ADD14C,0.100000*%
G04 APERTURE END LIST*
D10*
X89461922Y-59811325D02*
G75*
G03*
X86921922Y-57271325I-2540001J-1D01*
G01*
X92942279Y-21706283D02*
X90698495Y-20866952D01*
X89461922Y-84095026D02*
X89461922Y-59811325D01*
X86003204Y-20857382D02*
X87481927Y-20860396D01*
X119423514Y-25217534D02*
G75*
G03*
X115950000Y-21706283I-3473514J37534D01*
G01*
X81808327Y-22327890D02*
X81815209Y-46202659D01*
X119166648Y-33968362D02*
G75*
G03*
X119339931Y-32952692I-2884873J1014804D01*
G01*
X83257287Y-20851784D02*
G75*
G03*
X81808327Y-22327890I360535J-1803115D01*
G01*
X112686922Y-84653915D02*
X112686922Y-46157609D01*
X90698495Y-20866952D02*
X87481927Y-20860396D01*
X93406921Y-88095026D02*
X109741923Y-88095026D01*
X81431985Y-57271325D02*
X86921922Y-57271325D01*
X115950000Y-21706283D02*
X92942279Y-21706283D01*
X79203530Y-49362023D02*
G75*
G03*
X81431985Y-57271325I2196419J-3649742D01*
G01*
X86003204Y-20857382D02*
X83257287Y-20851785D01*
X119423514Y-25217534D02*
X119339931Y-32952692D01*
X109741924Y-88095025D02*
G75*
G03*
X112686922Y-84653915I-1291601J4086148D01*
G01*
X89461922Y-84095026D02*
G75*
G03*
X93406921Y-88095026I4096522J94817D01*
G01*
X79203531Y-49362023D02*
G75*
G03*
X81815209Y-46202659I-1619292J3997732D01*
G01*
X112686922Y-46157609D02*
X119166648Y-33968362D01*
X164892713Y-20911785D02*
X162146796Y-20917382D01*
X135463077Y-84713915D02*
G75*
G03*
X138408076Y-88155026I4236600J645038D01*
G01*
X135463078Y-46217609D02*
X135463078Y-84713915D01*
X128983352Y-34028362D02*
X135463078Y-46217609D01*
X166718015Y-57331326D02*
G75*
G03*
X168946470Y-49422023I32038J4259560D01*
G01*
X161228078Y-57331325D02*
G75*
G03*
X158688078Y-59871325I1J-2540001D01*
G01*
X166341672Y-22387890D02*
G75*
G03*
X164892713Y-20911785I-1809494J-327009D01*
G01*
X157451505Y-20926952D02*
X155207721Y-21766283D01*
X132200000Y-21766282D02*
G75*
G03*
X128726486Y-25277534I2J-3473719D01*
G01*
X128810069Y-33012692D02*
X128726486Y-25277534D01*
X161228078Y-57331325D02*
X166718015Y-57331325D01*
X166334791Y-46262659D02*
G75*
G03*
X168946469Y-49422023I4230970J838368D01*
G01*
X138408077Y-88155026D02*
X154743079Y-88155026D01*
X158688078Y-59871325D02*
X158688078Y-84155026D01*
X160668073Y-20920396D02*
X157451505Y-20926952D01*
X166334791Y-46262659D02*
X166341673Y-22387890D01*
X160668073Y-20920396D02*
X162146796Y-20917382D01*
X155207721Y-21766283D02*
X132200000Y-21766283D01*
X154743079Y-88155026D02*
G75*
G03*
X158688078Y-84155026I-151523J4094817D01*
G01*
X128810069Y-33012692D02*
G75*
G03*
X128983352Y-34028362I3058156J-866D01*
G01*
D11*
X91009407Y-73597969D02*
X90740033Y-73867343D01*
X90982469Y-74163654D01*
X90982469Y-74109780D01*
X91009407Y-74028967D01*
X91144094Y-73894280D01*
X91224906Y-73867343D01*
X91278781Y-73867343D01*
X91359593Y-73894280D01*
X91494280Y-74028967D01*
X91521217Y-74109780D01*
X91521217Y-74163654D01*
X91494280Y-74244467D01*
X91359593Y-74379154D01*
X91278781Y-74406091D01*
X91224906Y-74406091D01*
X91197969Y-73409407D02*
X91952216Y-73786531D01*
X91575092Y-73032284D01*
X91171031Y-82093435D02*
X91278781Y-82039560D01*
X91413468Y-81904873D01*
X91440405Y-81824061D01*
X91440405Y-81770186D01*
X91413468Y-81689374D01*
X91359593Y-81635499D01*
X91278781Y-81608561D01*
X91224906Y-81608561D01*
X91144094Y-81635499D01*
X91009407Y-81716311D01*
X90928595Y-81743248D01*
X90874720Y-81743248D01*
X90793908Y-81716311D01*
X90740033Y-81662436D01*
X90713095Y-81581624D01*
X90713095Y-81527749D01*
X90740033Y-81446937D01*
X90874720Y-81312250D01*
X90982469Y-81258375D01*
X92033028Y-81177563D02*
X92033028Y-81231438D01*
X91979153Y-81339187D01*
X91925279Y-81393062D01*
X91817529Y-81446937D01*
X91709779Y-81446937D01*
X91628967Y-81420000D01*
X91494280Y-81339187D01*
X91413468Y-81258375D01*
X91332656Y-81123688D01*
X91305718Y-81042876D01*
X91305718Y-80935126D01*
X91359593Y-80827377D01*
X91413468Y-80773502D01*
X91521218Y-80719627D01*
X91575092Y-80719627D01*
X90282098Y-85104838D02*
X89716412Y-84539153D01*
X90309035Y-84754652D01*
X90093536Y-84162029D01*
X90659221Y-84727714D01*
X90928595Y-84458340D02*
X90362910Y-83892655D01*
X91144094Y-84188966D02*
X91251844Y-84135092D01*
X91386531Y-84000405D01*
X91413468Y-83919592D01*
X91413468Y-83865718D01*
X91386531Y-83784905D01*
X91332656Y-83731031D01*
X91251844Y-83704093D01*
X91197969Y-83704093D01*
X91117157Y-83731031D01*
X90982470Y-83811843D01*
X90901658Y-83838780D01*
X90847783Y-83838780D01*
X90766971Y-83811843D01*
X90713096Y-83757968D01*
X90686159Y-83677156D01*
X90686159Y-83623281D01*
X90713096Y-83542469D01*
X90847783Y-83407782D01*
X90955533Y-83353907D01*
X91278781Y-82976783D02*
X91386531Y-82869034D01*
X91467343Y-82842096D01*
X91575093Y-82842096D01*
X91709780Y-82922909D01*
X91898342Y-83111470D01*
X91979154Y-83246157D01*
X91979154Y-83353907D01*
X91952216Y-83434719D01*
X91844467Y-83542469D01*
X91763655Y-83569406D01*
X91655905Y-83569406D01*
X91521218Y-83488594D01*
X91332656Y-83300032D01*
X91251844Y-83165345D01*
X91251844Y-83057596D01*
X91278781Y-82976783D01*
X90282098Y-80024838D02*
X89716412Y-79459153D01*
X90309035Y-79674652D01*
X90093536Y-79082029D01*
X90659221Y-79647714D01*
X90470659Y-78704905D02*
X90578409Y-78597156D01*
X90659221Y-78570218D01*
X90766971Y-78570218D01*
X90901658Y-78651031D01*
X91090220Y-78839592D01*
X91171032Y-78974279D01*
X91171032Y-79082029D01*
X91144094Y-79162841D01*
X91036345Y-79270591D01*
X90955533Y-79297528D01*
X90847783Y-79297528D01*
X90713096Y-79216716D01*
X90524534Y-79028154D01*
X90443722Y-78893467D01*
X90443722Y-78785718D01*
X90470659Y-78704905D01*
X91467343Y-78785718D02*
X91575093Y-78731843D01*
X91709780Y-78597156D01*
X91736717Y-78516344D01*
X91736717Y-78462469D01*
X91709780Y-78381657D01*
X91655905Y-78327782D01*
X91575093Y-78300844D01*
X91521218Y-78300844D01*
X91440406Y-78327782D01*
X91305719Y-78408594D01*
X91224907Y-78435531D01*
X91171032Y-78435531D01*
X91090220Y-78408594D01*
X91036345Y-78354719D01*
X91009407Y-78273907D01*
X91009407Y-78220032D01*
X91036345Y-78139220D01*
X91171032Y-78004533D01*
X91278781Y-77950658D01*
X92059966Y-78246970D02*
X91494281Y-77681284D01*
X90362909Y-86648155D02*
X90282097Y-86675093D01*
X90201285Y-86755905D01*
X90147410Y-86863654D01*
X90147410Y-86971404D01*
X90174348Y-87052216D01*
X90255160Y-87186903D01*
X90335972Y-87267715D01*
X90470659Y-87348528D01*
X90551471Y-87375465D01*
X90659221Y-87375465D01*
X90766970Y-87321590D01*
X90820845Y-87267715D01*
X90874720Y-87159966D01*
X90874720Y-87106091D01*
X90686158Y-86917529D01*
X90578409Y-87025279D01*
X91171031Y-86917529D02*
X90605346Y-86351844D01*
X91494280Y-86594280D01*
X90928595Y-86028595D01*
X91763654Y-86324906D02*
X91197969Y-85759221D01*
X91332656Y-85624534D01*
X91440405Y-85570659D01*
X91548155Y-85570659D01*
X91628967Y-85597597D01*
X91763654Y-85678409D01*
X91844466Y-85759221D01*
X91925279Y-85893908D01*
X91952216Y-85974720D01*
X91952216Y-86082470D01*
X91898341Y-86190219D01*
X91763654Y-86324906D01*
X91197969Y-76999965D02*
X91305719Y-76946090D01*
X91440406Y-76811403D01*
X91467343Y-76730591D01*
X91467343Y-76676716D01*
X91440406Y-76595904D01*
X91386531Y-76542029D01*
X91305719Y-76515092D01*
X91251844Y-76515092D01*
X91171032Y-76542029D01*
X91036345Y-76622841D01*
X90955532Y-76649779D01*
X90901658Y-76649779D01*
X90820845Y-76622841D01*
X90766971Y-76568966D01*
X90740033Y-76488154D01*
X90740033Y-76434279D01*
X90766971Y-76353467D01*
X90901658Y-76218780D01*
X91009407Y-76164905D01*
X91736717Y-76461217D02*
X91844467Y-76407342D01*
X91979154Y-76272655D01*
X92006091Y-76191843D01*
X92006091Y-76137968D01*
X91979154Y-76057156D01*
X91925279Y-76003281D01*
X91844467Y-75976344D01*
X91790592Y-75976344D01*
X91709780Y-76003281D01*
X91575093Y-76084093D01*
X91494280Y-76111031D01*
X91440406Y-76111031D01*
X91359593Y-76084093D01*
X91305719Y-76030218D01*
X91278781Y-75949406D01*
X91278781Y-75895531D01*
X91305719Y-75814719D01*
X91440406Y-75680032D01*
X91548155Y-75626157D01*
X106707749Y-78652311D02*
X106707749Y-78706186D01*
X106653874Y-78813935D01*
X106599999Y-78867810D01*
X106492250Y-78921685D01*
X106384500Y-78921685D01*
X106303688Y-78894748D01*
X106169001Y-78813935D01*
X106088189Y-78733123D01*
X106007377Y-78598436D01*
X105980439Y-78517624D01*
X105980439Y-78409874D01*
X106034314Y-78302125D01*
X106088189Y-78248250D01*
X106195938Y-78194375D01*
X106249813Y-78194375D01*
X106869374Y-77844189D02*
X107246497Y-78221312D01*
X106519187Y-77763377D02*
X106788561Y-78302125D01*
X107138748Y-77951938D01*
X106761624Y-73750186D02*
X106303688Y-73669374D01*
X106438375Y-74073435D02*
X105872690Y-73507749D01*
X106088189Y-73292250D01*
X106169001Y-73265312D01*
X106222876Y-73265312D01*
X106303688Y-73292250D01*
X106384500Y-73373062D01*
X106411438Y-73453874D01*
X106411438Y-73507749D01*
X106384500Y-73588561D01*
X106169001Y-73804061D01*
X106869374Y-72888189D02*
X107246497Y-73265312D01*
X106519187Y-72807377D02*
X106788561Y-73346125D01*
X107138748Y-72995938D01*
X106761624Y-86140186D02*
X106303688Y-86059374D01*
X106438375Y-86463435D02*
X105872690Y-85897749D01*
X106088189Y-85682250D01*
X106169001Y-85655312D01*
X106222876Y-85655312D01*
X106303688Y-85682250D01*
X106384500Y-85763062D01*
X106411438Y-85843874D01*
X106411438Y-85897749D01*
X106384500Y-85978561D01*
X106169001Y-86194061D01*
X106707749Y-85062690D02*
X106438375Y-85332064D01*
X106680812Y-85628375D01*
X106680812Y-85574500D01*
X106707749Y-85493688D01*
X106842436Y-85359001D01*
X106923248Y-85332064D01*
X106977123Y-85332064D01*
X107057935Y-85359001D01*
X107192622Y-85493688D01*
X107219560Y-85574500D01*
X107219560Y-85628375D01*
X107192622Y-85709187D01*
X107057935Y-85843874D01*
X106977123Y-85870812D01*
X106923248Y-85870812D01*
X106707749Y-81130311D02*
X106707749Y-81184186D01*
X106653874Y-81291935D01*
X106599999Y-81345810D01*
X106492250Y-81399685D01*
X106384500Y-81399685D01*
X106303688Y-81372748D01*
X106169001Y-81291935D01*
X106088189Y-81211123D01*
X106007377Y-81076436D01*
X105980439Y-80995624D01*
X105980439Y-80887874D01*
X106034314Y-80780125D01*
X106088189Y-80726250D01*
X106195938Y-80672375D01*
X106249813Y-80672375D01*
X106707749Y-80106690D02*
X106438375Y-80376064D01*
X106680812Y-80672375D01*
X106680812Y-80618500D01*
X106707749Y-80537688D01*
X106842436Y-80403001D01*
X106923248Y-80376064D01*
X106977123Y-80376064D01*
X107057935Y-80403001D01*
X107192622Y-80537688D01*
X107219560Y-80618500D01*
X107219560Y-80672375D01*
X107192622Y-80753187D01*
X107057935Y-80887874D01*
X106977123Y-80914812D01*
X106923248Y-80914812D01*
X106707749Y-83608311D02*
X106707749Y-83662186D01*
X106653874Y-83769935D01*
X106599999Y-83823810D01*
X106492250Y-83877685D01*
X106384500Y-83877685D01*
X106303688Y-83850748D01*
X106169001Y-83769935D01*
X106088189Y-83689123D01*
X106007377Y-83554436D01*
X105980439Y-83473624D01*
X105980439Y-83365874D01*
X106034314Y-83258125D01*
X106088189Y-83204250D01*
X106195938Y-83150375D01*
X106249813Y-83150375D01*
X106680812Y-82611627D02*
X106573062Y-82719377D01*
X106546125Y-82800189D01*
X106546125Y-82854064D01*
X106573062Y-82988751D01*
X106653874Y-83123438D01*
X106869374Y-83338937D01*
X106950186Y-83365874D01*
X107004061Y-83365874D01*
X107084873Y-83338937D01*
X107192622Y-83231187D01*
X107219560Y-83150375D01*
X107219560Y-83096500D01*
X107192622Y-83015688D01*
X107057935Y-82881001D01*
X106977123Y-82854064D01*
X106923248Y-82854064D01*
X106842436Y-82881001D01*
X106734687Y-82988751D01*
X106707749Y-83069563D01*
X106707749Y-83123438D01*
X106734687Y-83204250D01*
X106761624Y-76228186D02*
X106303688Y-76147374D01*
X106438375Y-76551435D02*
X105872690Y-75985749D01*
X106088189Y-75770250D01*
X106169001Y-75743312D01*
X106222876Y-75743312D01*
X106303688Y-75770250D01*
X106384500Y-75851062D01*
X106411438Y-75931874D01*
X106411438Y-75985749D01*
X106384500Y-76066561D01*
X106169001Y-76282061D01*
X106384500Y-75473938D02*
X106734687Y-75123752D01*
X106761624Y-75527813D01*
X106842436Y-75447001D01*
X106923248Y-75420064D01*
X106977123Y-75420064D01*
X107057935Y-75447001D01*
X107192622Y-75581688D01*
X107219560Y-75662500D01*
X107219560Y-75716375D01*
X107192622Y-75797187D01*
X107030998Y-75958812D01*
X106950186Y-75985749D01*
X106896311Y-75985749D01*
X99161624Y-76517686D02*
X98703688Y-76436874D01*
X98838375Y-76840935D02*
X98272690Y-76275249D01*
X98488189Y-76059750D01*
X98569001Y-76032812D01*
X98622876Y-76032812D01*
X98703688Y-76059750D01*
X98784500Y-76140562D01*
X98811438Y-76221374D01*
X98811438Y-76275249D01*
X98784500Y-76356061D01*
X98569001Y-76571561D01*
X99700372Y-75978938D02*
X99377123Y-76302187D01*
X99538748Y-76140562D02*
X98973062Y-75574877D01*
X99000000Y-75709564D01*
X99000000Y-75817313D01*
X98973062Y-75898125D01*
X99107749Y-78931311D02*
X99107749Y-78985186D01*
X99053874Y-79092935D01*
X98999999Y-79146810D01*
X98892250Y-79200685D01*
X98784500Y-79200685D01*
X98703688Y-79173748D01*
X98569001Y-79092935D01*
X98488189Y-79012123D01*
X98407377Y-78877436D01*
X98380439Y-78796624D01*
X98380439Y-78688874D01*
X98434314Y-78581125D01*
X98488189Y-78527250D01*
X98595938Y-78473375D01*
X98649813Y-78473375D01*
X98865312Y-78257876D02*
X98865312Y-78204001D01*
X98892250Y-78123189D01*
X99026937Y-77988502D01*
X99107749Y-77961564D01*
X99161624Y-77961564D01*
X99242436Y-77988502D01*
X99296311Y-78042377D01*
X99350186Y-78150126D01*
X99350186Y-78796624D01*
X99700372Y-78446438D01*
X99161624Y-83920186D02*
X98703688Y-83839374D01*
X98838375Y-84243435D02*
X98272690Y-83677749D01*
X98488189Y-83462250D01*
X98569001Y-83435312D01*
X98622876Y-83435312D01*
X98703688Y-83462250D01*
X98784500Y-83543062D01*
X98811438Y-83623874D01*
X98811438Y-83677749D01*
X98784500Y-83758561D01*
X98569001Y-83974061D01*
X98865312Y-83192876D02*
X98865312Y-83139001D01*
X98892250Y-83058189D01*
X99026937Y-82923502D01*
X99107749Y-82896564D01*
X99161624Y-82896564D01*
X99242436Y-82923502D01*
X99296311Y-82977377D01*
X99350186Y-83085126D01*
X99350186Y-83731624D01*
X99700372Y-83381438D01*
X99107749Y-73996311D02*
X99107749Y-74050186D01*
X99053874Y-74157935D01*
X98999999Y-74211810D01*
X98892250Y-74265685D01*
X98784500Y-74265685D01*
X98703688Y-74238748D01*
X98569001Y-74157935D01*
X98488189Y-74077123D01*
X98407377Y-73942436D01*
X98380439Y-73861624D01*
X98380439Y-73753874D01*
X98434314Y-73646125D01*
X98488189Y-73592250D01*
X98595938Y-73538375D01*
X98649813Y-73538375D01*
X98784500Y-73295938D02*
X99134687Y-72945752D01*
X99161624Y-73349813D01*
X99242436Y-73269001D01*
X99323248Y-73242064D01*
X99377123Y-73242064D01*
X99457935Y-73269001D01*
X99592622Y-73403688D01*
X99619560Y-73484500D01*
X99619560Y-73538375D01*
X99592622Y-73619187D01*
X99430998Y-73780812D01*
X99350186Y-73807749D01*
X99296311Y-73807749D01*
X99107749Y-81398811D02*
X99107749Y-81452686D01*
X99053874Y-81560435D01*
X98999999Y-81614310D01*
X98892250Y-81668185D01*
X98784500Y-81668185D01*
X98703688Y-81641248D01*
X98569001Y-81560435D01*
X98488189Y-81479623D01*
X98407377Y-81344936D01*
X98380439Y-81264124D01*
X98380439Y-81156374D01*
X98434314Y-81048625D01*
X98488189Y-80994750D01*
X98595938Y-80940875D01*
X98649813Y-80940875D01*
X99700372Y-80913938D02*
X99377123Y-81237187D01*
X99538748Y-81075562D02*
X98973062Y-80509877D01*
X99000000Y-80644564D01*
X99000000Y-80752313D01*
X98973062Y-80833125D01*
D10*
X107392893Y-31700000D02*
G75*
G03*
X106392893Y-30700000I-999999J1D01*
G01*
X95900000Y-38692893D02*
X106392893Y-38692893D01*
X107392893Y-31700000D02*
X107392893Y-37692893D01*
X94900000Y-37692893D02*
G75*
G03*
X95900000Y-38692893I999999J-1D01*
G01*
X106392893Y-30700000D02*
X95900000Y-30700000D01*
X94900000Y-31700000D02*
X94900000Y-37692893D01*
X95900000Y-30700000D02*
G75*
G03*
X94900000Y-31700000I-1J-999999D01*
G01*
X106392893Y-38692893D02*
G75*
G03*
X107392893Y-37692893I1J999999D01*
G01*
X140997354Y-31700000D02*
X140997354Y-37692893D01*
X152490247Y-38692893D02*
G75*
G03*
X153490247Y-37692893I-1J1000001D01*
G01*
X153490247Y-31700000D02*
X153490247Y-37692893D01*
X140997354Y-37692893D02*
G75*
G03*
X141997354Y-38692893I1000001J1D01*
G01*
X153490247Y-31700000D02*
G75*
G03*
X152490247Y-30700000I-1000001J-1D01*
G01*
X141997354Y-38692893D02*
X152490247Y-38692893D01*
X141997354Y-30700000D02*
G75*
G03*
X140997354Y-31700000I1J-1000001D01*
G01*
X152490247Y-30700000D02*
X141997354Y-30700000D01*
D12*
X116327011Y-36135878D02*
X115307900Y-36135878D01*
X132004320Y-36693589D02*
G75*
G03*
X132775399Y-37474478I800720J19520D01*
G01*
X132004321Y-30868589D02*
X132004321Y-36693589D01*
X134575400Y-30853400D02*
G75*
G03*
X133804321Y-30072511I-800720J-19520D01*
G01*
X116327011Y-36135878D02*
G75*
G03*
X117107901Y-35339800I-19496J800159D01*
G01*
D11*
X90351000Y-32280000D02*
X82241000Y-32280000D01*
X82241000Y-32280000D02*
X82241000Y-16280000D01*
X82241000Y-16280000D02*
X90351000Y-16280000D01*
X90351000Y-16280000D02*
X90351000Y-32280000D01*
D12*
X117107901Y-29514800D02*
G75*
G03*
X116336822Y-28733911I-800720J-19520D01*
G01*
D11*
X165811000Y-32180000D02*
X157701000Y-32180000D01*
X157701000Y-32180000D02*
X157701000Y-16180000D01*
X157701000Y-16180000D02*
X165811000Y-16180000D01*
X165811000Y-16180000D02*
X165811000Y-32180000D01*
D12*
X132785210Y-30072511D02*
X133804321Y-30072511D01*
X133794510Y-37474478D02*
G75*
G03*
X134575400Y-36678400I-19496J800159D01*
G01*
X133794510Y-37474478D02*
X132775399Y-37474478D01*
X132785210Y-30072511D02*
G75*
G03*
X132004320Y-30868589I19496J-800159D01*
G01*
X115317711Y-28733911D02*
X116336822Y-28733911D01*
X115317711Y-28733911D02*
G75*
G03*
X114536821Y-29529989I19496J-800159D01*
G01*
X117107901Y-35339800D02*
X117107900Y-29514800D01*
X134575400Y-36678400D02*
X134575399Y-30853400D01*
X114536821Y-35354989D02*
G75*
G03*
X115307900Y-36135878I800720J19520D01*
G01*
X114536822Y-29529989D02*
X114536822Y-35354989D01*
D11*
X87322428Y-22803809D02*
X87436714Y-22841904D01*
X87627190Y-22841904D01*
X87703380Y-22803809D01*
X87741476Y-22765714D01*
X87779571Y-22689523D01*
X87779571Y-22613333D01*
X87741476Y-22537142D01*
X87703380Y-22499047D01*
X87627190Y-22460952D01*
X87474809Y-22422857D01*
X87398619Y-22384761D01*
X87360523Y-22346666D01*
X87322428Y-22270476D01*
X87322428Y-22194285D01*
X87360523Y-22118095D01*
X87398619Y-22080000D01*
X87474809Y-22041904D01*
X87665285Y-22041904D01*
X87779571Y-22080000D01*
D12*
X112225714Y-52307142D02*
X112263809Y-52345238D01*
X112301904Y-52459523D01*
X112301904Y-52535714D01*
X112263809Y-52650000D01*
X112187619Y-52726190D01*
X112111428Y-52764285D01*
X111959047Y-52802380D01*
X111844761Y-52802380D01*
X111692380Y-52764285D01*
X111616190Y-52726190D01*
X111540000Y-52650000D01*
X111501904Y-52535714D01*
X111501904Y-52459523D01*
X111540000Y-52345238D01*
X111578095Y-52307142D01*
X112301904Y-51964285D02*
X111501904Y-51964285D01*
X111882857Y-51964285D02*
X111882857Y-51507142D01*
X112301904Y-51507142D02*
X111501904Y-51507142D01*
X112073333Y-51164285D02*
X112073333Y-50783333D01*
X112301904Y-51240476D02*
X111501904Y-50973809D01*
X112301904Y-50707142D01*
X112301904Y-49983333D02*
X111920952Y-50250000D01*
X112301904Y-50440476D02*
X111501904Y-50440476D01*
X111501904Y-50135714D01*
X111540000Y-50059523D01*
X111578095Y-50021428D01*
X111654285Y-49983333D01*
X111768571Y-49983333D01*
X111844761Y-50021428D01*
X111882857Y-50059523D01*
X111920952Y-50135714D01*
X111920952Y-50440476D01*
X111920952Y-49488095D02*
X112301904Y-49488095D01*
X111501904Y-49754761D02*
X111920952Y-49488095D01*
X111501904Y-49221428D01*
X111882857Y-48688095D02*
X111920952Y-48573809D01*
X111959047Y-48535714D01*
X112035238Y-48497619D01*
X112149523Y-48497619D01*
X112225714Y-48535714D01*
X112263809Y-48573809D01*
X112301904Y-48650000D01*
X112301904Y-48954761D01*
X111501904Y-48954761D01*
X111501904Y-48688095D01*
X111540000Y-48611904D01*
X111578095Y-48573809D01*
X111654285Y-48535714D01*
X111730476Y-48535714D01*
X111806666Y-48573809D01*
X111844761Y-48611904D01*
X111882857Y-48688095D01*
X111882857Y-48954761D01*
X112301904Y-48154761D02*
X111501904Y-48154761D01*
X111501904Y-47964285D01*
X111540000Y-47850000D01*
X111616190Y-47773809D01*
X111692380Y-47735714D01*
X111844761Y-47697619D01*
X111959047Y-47697619D01*
X112111428Y-47735714D01*
X112187619Y-47773809D01*
X112263809Y-47850000D01*
X112301904Y-47964285D01*
X112301904Y-48154761D01*
X112301904Y-47354761D02*
X111501904Y-47354761D01*
X112263809Y-47011904D02*
X112301904Y-46897619D01*
X112301904Y-46707142D01*
X112263809Y-46630952D01*
X112225714Y-46592857D01*
X112149523Y-46554761D01*
X112073333Y-46554761D01*
X111997142Y-46592857D01*
X111959047Y-46630952D01*
X111920952Y-46707142D01*
X111882857Y-46859523D01*
X111844761Y-46935714D01*
X111806666Y-46973809D01*
X111730476Y-47011904D01*
X111654285Y-47011904D01*
X111578095Y-46973809D01*
X111540000Y-46935714D01*
X111501904Y-46859523D01*
X111501904Y-46669047D01*
X111540000Y-46554761D01*
X112301904Y-45602380D02*
X111501904Y-45602380D01*
X111882857Y-45602380D02*
X111882857Y-45145238D01*
X112301904Y-45145238D02*
X111501904Y-45145238D01*
X111501904Y-44611904D02*
X111501904Y-44459523D01*
X111540000Y-44383333D01*
X111616190Y-44307142D01*
X111768571Y-44269047D01*
X112035238Y-44269047D01*
X112187619Y-44307142D01*
X112263809Y-44383333D01*
X112301904Y-44459523D01*
X112301904Y-44611904D01*
X112263809Y-44688095D01*
X112187619Y-44764285D01*
X112035238Y-44802380D01*
X111768571Y-44802380D01*
X111616190Y-44764285D01*
X111540000Y-44688095D01*
X111501904Y-44611904D01*
X112301904Y-43545238D02*
X112301904Y-43926190D01*
X111501904Y-43926190D01*
X112301904Y-43278571D02*
X111501904Y-43278571D01*
X111501904Y-43088095D01*
X111540000Y-42973809D01*
X111616190Y-42897619D01*
X111692380Y-42859523D01*
X111844761Y-42821428D01*
X111959047Y-42821428D01*
X112111428Y-42859523D01*
X112187619Y-42897619D01*
X112263809Y-42973809D01*
X112301904Y-43088095D01*
X112301904Y-43278571D01*
X111882857Y-42478571D02*
X111882857Y-42211904D01*
X112301904Y-42097619D02*
X112301904Y-42478571D01*
X111501904Y-42478571D01*
X111501904Y-42097619D01*
X112301904Y-41297619D02*
X111920952Y-41564285D01*
X112301904Y-41754761D02*
X111501904Y-41754761D01*
X111501904Y-41450000D01*
X111540000Y-41373809D01*
X111578095Y-41335714D01*
X111654285Y-41297619D01*
X111768571Y-41297619D01*
X111844761Y-41335714D01*
X111882857Y-41373809D01*
X111920952Y-41450000D01*
X111920952Y-41754761D01*
D11*
X158894500Y-38990170D02*
X158625126Y-39259544D01*
X158867562Y-39555855D01*
X158867562Y-39501981D01*
X158894500Y-39421168D01*
X159029187Y-39286481D01*
X159109999Y-39259544D01*
X159163874Y-39259544D01*
X159244686Y-39286481D01*
X159379373Y-39421168D01*
X159406310Y-39501981D01*
X159406310Y-39555855D01*
X159379373Y-39636668D01*
X159244686Y-39771355D01*
X159163874Y-39798292D01*
X159109999Y-39798292D01*
X159083062Y-38801608D02*
X159837309Y-39178732D01*
X159460185Y-38424485D01*
D12*
X117439047Y-44830000D02*
X117362857Y-44791904D01*
X117248571Y-44791904D01*
X117134285Y-44830000D01*
X117058095Y-44906190D01*
X117020000Y-44982380D01*
X116981904Y-45134761D01*
X116981904Y-45249047D01*
X117020000Y-45401428D01*
X117058095Y-45477619D01*
X117134285Y-45553809D01*
X117248571Y-45591904D01*
X117324761Y-45591904D01*
X117439047Y-45553809D01*
X117477142Y-45515714D01*
X117477142Y-45249047D01*
X117324761Y-45249047D01*
X117820000Y-45591904D02*
X117820000Y-44791904D01*
X118086666Y-44791904D02*
X118543809Y-44791904D01*
X118315238Y-45591904D02*
X118315238Y-44791904D01*
X118810476Y-45591904D02*
X118810476Y-44791904D01*
X118810476Y-45172857D02*
X119267619Y-45172857D01*
X119267619Y-45591904D02*
X119267619Y-44791904D01*
X119648571Y-44791904D02*
X119648571Y-45439523D01*
X119686666Y-45515714D01*
X119724761Y-45553809D01*
X119800952Y-45591904D01*
X119953333Y-45591904D01*
X120029523Y-45553809D01*
X120067619Y-45515714D01*
X120105714Y-45439523D01*
X120105714Y-44791904D01*
X120753333Y-45172857D02*
X120867619Y-45210952D01*
X120905714Y-45249047D01*
X120943809Y-45325238D01*
X120943809Y-45439523D01*
X120905714Y-45515714D01*
X120867619Y-45553809D01*
X120791428Y-45591904D01*
X120486666Y-45591904D01*
X120486666Y-44791904D01*
X120753333Y-44791904D01*
X120829523Y-44830000D01*
X120867619Y-44868095D01*
X120905714Y-44944285D01*
X120905714Y-45020476D01*
X120867619Y-45096666D01*
X120829523Y-45134761D01*
X120753333Y-45172857D01*
X120486666Y-45172857D01*
X121286666Y-45515714D02*
X121324761Y-45553809D01*
X121286666Y-45591904D01*
X121248571Y-45553809D01*
X121286666Y-45515714D01*
X121286666Y-45591904D01*
X122124761Y-45515714D02*
X122086666Y-45553809D01*
X121972380Y-45591904D01*
X121896190Y-45591904D01*
X121781904Y-45553809D01*
X121705714Y-45477619D01*
X121667619Y-45401428D01*
X121629523Y-45249047D01*
X121629523Y-45134761D01*
X121667619Y-44982380D01*
X121705714Y-44906190D01*
X121781904Y-44830000D01*
X121896190Y-44791904D01*
X121972380Y-44791904D01*
X122086666Y-44830000D01*
X122124761Y-44868095D01*
X122620000Y-44791904D02*
X122772380Y-44791904D01*
X122848571Y-44830000D01*
X122924761Y-44906190D01*
X122962857Y-45058571D01*
X122962857Y-45325238D01*
X122924761Y-45477619D01*
X122848571Y-45553809D01*
X122772380Y-45591904D01*
X122620000Y-45591904D01*
X122543809Y-45553809D01*
X122467619Y-45477619D01*
X122429523Y-45325238D01*
X122429523Y-45058571D01*
X122467619Y-44906190D01*
X122543809Y-44830000D01*
X122620000Y-44791904D01*
X123305714Y-45591904D02*
X123305714Y-44791904D01*
X123572380Y-45363333D01*
X123839047Y-44791904D01*
X123839047Y-45591904D01*
X124791428Y-44753809D02*
X124105714Y-45782380D01*
X125324761Y-45172857D02*
X125439047Y-45210952D01*
X125477142Y-45249047D01*
X125515238Y-45325238D01*
X125515238Y-45439523D01*
X125477142Y-45515714D01*
X125439047Y-45553809D01*
X125362857Y-45591904D01*
X125058095Y-45591904D01*
X125058095Y-44791904D01*
X125324761Y-44791904D01*
X125400952Y-44830000D01*
X125439047Y-44868095D01*
X125477142Y-44944285D01*
X125477142Y-45020476D01*
X125439047Y-45096666D01*
X125400952Y-45134761D01*
X125324761Y-45172857D01*
X125058095Y-45172857D01*
X125820000Y-45363333D02*
X126200952Y-45363333D01*
X125743809Y-45591904D02*
X126010476Y-44791904D01*
X126277142Y-45591904D01*
X126505714Y-45553809D02*
X126620000Y-45591904D01*
X126810476Y-45591904D01*
X126886666Y-45553809D01*
X126924761Y-45515714D01*
X126962857Y-45439523D01*
X126962857Y-45363333D01*
X126924761Y-45287142D01*
X126886666Y-45249047D01*
X126810476Y-45210952D01*
X126658095Y-45172857D01*
X126581904Y-45134761D01*
X126543809Y-45096666D01*
X126505714Y-45020476D01*
X126505714Y-44944285D01*
X126543809Y-44868095D01*
X126581904Y-44830000D01*
X126658095Y-44791904D01*
X126848571Y-44791904D01*
X126962857Y-44830000D01*
X127191428Y-44791904D02*
X127648571Y-44791904D01*
X127420000Y-45591904D02*
X127420000Y-44791904D01*
X127877142Y-45363333D02*
X128258095Y-45363333D01*
X127800952Y-45591904D02*
X128067619Y-44791904D01*
X128334285Y-45591904D01*
X129058095Y-45591904D02*
X128791428Y-45210952D01*
X128600952Y-45591904D02*
X128600952Y-44791904D01*
X128905714Y-44791904D01*
X128981904Y-44830000D01*
X129020000Y-44868095D01*
X129058095Y-44944285D01*
X129058095Y-45058571D01*
X129020000Y-45134761D01*
X128981904Y-45172857D01*
X128905714Y-45210952D01*
X128600952Y-45210952D01*
X129400952Y-45591904D02*
X129400952Y-44791904D01*
X129591428Y-44791904D01*
X129705714Y-44830000D01*
X129781904Y-44906190D01*
X129820000Y-44982380D01*
X129858095Y-45134761D01*
X129858095Y-45249047D01*
X129820000Y-45401428D01*
X129781904Y-45477619D01*
X129705714Y-45553809D01*
X129591428Y-45591904D01*
X129400952Y-45591904D01*
X130200952Y-45591904D02*
X130200952Y-44791904D01*
X130658095Y-45591904D02*
X130315238Y-45134761D01*
X130658095Y-44791904D02*
X130200952Y-45249047D01*
X131267619Y-45172857D02*
X131381904Y-45210952D01*
X131420000Y-45249047D01*
X131458095Y-45325238D01*
X131458095Y-45439523D01*
X131420000Y-45515714D01*
X131381904Y-45553809D01*
X131305714Y-45591904D01*
X131000952Y-45591904D01*
X131000952Y-44791904D01*
X131267619Y-44791904D01*
X131343809Y-44830000D01*
X131381904Y-44868095D01*
X131420000Y-44944285D01*
X131420000Y-45020476D01*
X131381904Y-45096666D01*
X131343809Y-45134761D01*
X131267619Y-45172857D01*
X131000952Y-45172857D01*
D11*
X161552381Y-24980000D02*
X161476190Y-24941904D01*
X161361905Y-24941904D01*
X161247619Y-24980000D01*
X161171428Y-25056190D01*
X161133333Y-25132380D01*
X161095238Y-25284761D01*
X161095238Y-25399047D01*
X161133333Y-25551428D01*
X161171428Y-25627619D01*
X161247619Y-25703809D01*
X161361905Y-25741904D01*
X161438095Y-25741904D01*
X161552381Y-25703809D01*
X161590476Y-25665714D01*
X161590476Y-25399047D01*
X161438095Y-25399047D01*
X161933333Y-25741904D02*
X161933333Y-24941904D01*
X162390476Y-25741904D01*
X162390476Y-24941904D01*
X162771428Y-25741904D02*
X162771428Y-24941904D01*
X162961905Y-24941904D01*
X163076190Y-24980000D01*
X163152381Y-25056190D01*
X163190476Y-25132380D01*
X163228571Y-25284761D01*
X163228571Y-25399047D01*
X163190476Y-25551428D01*
X163152381Y-25627619D01*
X163076190Y-25703809D01*
X162961905Y-25741904D01*
X162771428Y-25741904D01*
X137423224Y-76561386D02*
X136965288Y-76480574D01*
X137099975Y-76884635D02*
X136534290Y-76318949D01*
X136749789Y-76103450D01*
X136830601Y-76076512D01*
X136884476Y-76076512D01*
X136965288Y-76103450D01*
X137046100Y-76184262D01*
X137073038Y-76265074D01*
X137073038Y-76318949D01*
X137046100Y-76399761D01*
X136830601Y-76615261D01*
X137046100Y-75807138D02*
X137396287Y-75456952D01*
X137423224Y-75861013D01*
X137504036Y-75780201D01*
X137584848Y-75753264D01*
X137638723Y-75753264D01*
X137719535Y-75780201D01*
X137854222Y-75914888D01*
X137881160Y-75995700D01*
X137881160Y-76049575D01*
X137854222Y-76130387D01*
X137692598Y-76292012D01*
X137611786Y-76318949D01*
X137557911Y-76318949D01*
X162504762Y-29041904D02*
X162123809Y-29041904D01*
X162085714Y-29422857D01*
X162123809Y-29384761D01*
X162200000Y-29346666D01*
X162390476Y-29346666D01*
X162466666Y-29384761D01*
X162504762Y-29422857D01*
X162542857Y-29499047D01*
X162542857Y-29689523D01*
X162504762Y-29765714D01*
X162466666Y-29803809D01*
X162390476Y-29841904D01*
X162200000Y-29841904D01*
X162123809Y-29803809D01*
X162085714Y-29765714D01*
X162771428Y-29041904D02*
X163038095Y-29841904D01*
X163304762Y-29041904D01*
X144963949Y-74017311D02*
X144963949Y-74071186D01*
X144910074Y-74178935D01*
X144856200Y-74232810D01*
X144748450Y-74286685D01*
X144640700Y-74286685D01*
X144559888Y-74259748D01*
X144425201Y-74178935D01*
X144344389Y-74098123D01*
X144263577Y-73963436D01*
X144236639Y-73882624D01*
X144236639Y-73774874D01*
X144290514Y-73667125D01*
X144344389Y-73613250D01*
X144452138Y-73559375D01*
X144506013Y-73559375D01*
X144640700Y-73316938D02*
X144990887Y-72966752D01*
X145017824Y-73370813D01*
X145098636Y-73290001D01*
X145179448Y-73263064D01*
X145233323Y-73263064D01*
X145314135Y-73290001D01*
X145448822Y-73424688D01*
X145475760Y-73505500D01*
X145475760Y-73559375D01*
X145448822Y-73640187D01*
X145287198Y-73801812D01*
X145206386Y-73828749D01*
X145152511Y-73828749D01*
X152338438Y-76961565D02*
X152446188Y-76907690D01*
X152580875Y-76773003D01*
X152607812Y-76692191D01*
X152607812Y-76638316D01*
X152580875Y-76557504D01*
X152527000Y-76503629D01*
X152446188Y-76476692D01*
X152392313Y-76476692D01*
X152311501Y-76503629D01*
X152176814Y-76584441D01*
X152096001Y-76611379D01*
X152042127Y-76611379D01*
X151961314Y-76584441D01*
X151907440Y-76530566D01*
X151880502Y-76449754D01*
X151880502Y-76395879D01*
X151907440Y-76315067D01*
X152042127Y-76180380D01*
X152149876Y-76126505D01*
X152877186Y-76422817D02*
X152984936Y-76368942D01*
X153119623Y-76234255D01*
X153146560Y-76153443D01*
X153146560Y-76099568D01*
X153119623Y-76018756D01*
X153065748Y-75964881D01*
X152984936Y-75937944D01*
X152931061Y-75937944D01*
X152850249Y-75964881D01*
X152715562Y-76045693D01*
X152634749Y-76072631D01*
X152580875Y-76072631D01*
X152500062Y-76045693D01*
X152446188Y-75991818D01*
X152419250Y-75911006D01*
X152419250Y-75857131D01*
X152446188Y-75776319D01*
X152580875Y-75641632D01*
X152688624Y-75587757D01*
X95361904Y-83011904D02*
X95361904Y-82554761D01*
X96161904Y-82783333D02*
X95361904Y-82783333D01*
X96161904Y-81830952D02*
X95780952Y-82097619D01*
X96161904Y-82288095D02*
X95361904Y-82288095D01*
X95361904Y-81983333D01*
X95400000Y-81907142D01*
X95438095Y-81869047D01*
X95514285Y-81830952D01*
X95628571Y-81830952D01*
X95704761Y-81869047D01*
X95742857Y-81907142D01*
X95780952Y-81983333D01*
X95780952Y-82288095D01*
X95933333Y-81526190D02*
X95933333Y-81145238D01*
X96161904Y-81602380D02*
X95361904Y-81335714D01*
X96161904Y-81069047D01*
X96085714Y-80345238D02*
X96123809Y-80383333D01*
X96161904Y-80497619D01*
X96161904Y-80573809D01*
X96123809Y-80688095D01*
X96047619Y-80764285D01*
X95971428Y-80802380D01*
X95819047Y-80840476D01*
X95704761Y-80840476D01*
X95552380Y-80802380D01*
X95476190Y-80764285D01*
X95400000Y-80688095D01*
X95361904Y-80573809D01*
X95361904Y-80497619D01*
X95400000Y-80383333D01*
X95438095Y-80345238D01*
X96161904Y-80002380D02*
X95361904Y-80002380D01*
X96161904Y-79545238D02*
X95704761Y-79888095D01*
X95361904Y-79545238D02*
X95819047Y-80002380D01*
X95742857Y-78935714D02*
X95780952Y-78821428D01*
X95819047Y-78783333D01*
X95895238Y-78745238D01*
X96009523Y-78745238D01*
X96085714Y-78783333D01*
X96123809Y-78821428D01*
X96161904Y-78897619D01*
X96161904Y-79202380D01*
X95361904Y-79202380D01*
X95361904Y-78935714D01*
X95400000Y-78859523D01*
X95438095Y-78821428D01*
X95514285Y-78783333D01*
X95590476Y-78783333D01*
X95666666Y-78821428D01*
X95704761Y-78859523D01*
X95742857Y-78935714D01*
X95742857Y-79202380D01*
X95933333Y-78440476D02*
X95933333Y-78059523D01*
X96161904Y-78516666D02*
X95361904Y-78250000D01*
X96161904Y-77983333D01*
X96161904Y-77335714D02*
X96161904Y-77716666D01*
X95361904Y-77716666D01*
X96161904Y-76688095D02*
X96161904Y-77069047D01*
X95361904Y-77069047D01*
D12*
X136752857Y-65703333D02*
X136790952Y-65589047D01*
X136829047Y-65550952D01*
X136905238Y-65512857D01*
X137019523Y-65512857D01*
X137095714Y-65550952D01*
X137133809Y-65589047D01*
X137171904Y-65665238D01*
X137171904Y-65970000D01*
X136371904Y-65970000D01*
X136371904Y-65703333D01*
X136410000Y-65627142D01*
X136448095Y-65589047D01*
X136524285Y-65550952D01*
X136600476Y-65550952D01*
X136676666Y-65589047D01*
X136714761Y-65627142D01*
X136752857Y-65703333D01*
X136752857Y-65970000D01*
X137171904Y-64789047D02*
X137171904Y-65170000D01*
X136371904Y-65170000D01*
X136943333Y-64560476D02*
X136943333Y-64179523D01*
X137171904Y-64636666D02*
X136371904Y-64370000D01*
X137171904Y-64103333D01*
X137095714Y-63379523D02*
X137133809Y-63417619D01*
X137171904Y-63531904D01*
X137171904Y-63608095D01*
X137133809Y-63722380D01*
X137057619Y-63798571D01*
X136981428Y-63836666D01*
X136829047Y-63874761D01*
X136714761Y-63874761D01*
X136562380Y-63836666D01*
X136486190Y-63798571D01*
X136410000Y-63722380D01*
X136371904Y-63608095D01*
X136371904Y-63531904D01*
X136410000Y-63417619D01*
X136448095Y-63379523D01*
X137171904Y-63036666D02*
X136371904Y-63036666D01*
X137171904Y-62579523D02*
X136714761Y-62922380D01*
X136371904Y-62579523D02*
X136829047Y-63036666D01*
X137171904Y-62236666D02*
X136371904Y-62236666D01*
X136371904Y-61931904D01*
X136410000Y-61855714D01*
X136448095Y-61817619D01*
X136524285Y-61779523D01*
X136638571Y-61779523D01*
X136714761Y-61817619D01*
X136752857Y-61855714D01*
X136790952Y-61931904D01*
X136790952Y-62236666D01*
X137171904Y-61436666D02*
X136371904Y-61436666D01*
X137171904Y-60674761D02*
X137171904Y-61055714D01*
X136371904Y-61055714D01*
X137171904Y-60027142D02*
X137171904Y-60408095D01*
X136371904Y-60408095D01*
X137171904Y-59150952D02*
X136371904Y-59150952D01*
X136752857Y-59150952D02*
X136752857Y-58693809D01*
X137171904Y-58693809D02*
X136371904Y-58693809D01*
X136371904Y-58160476D02*
X136371904Y-58008095D01*
X136410000Y-57931904D01*
X136486190Y-57855714D01*
X136638571Y-57817619D01*
X136905238Y-57817619D01*
X137057619Y-57855714D01*
X137133809Y-57931904D01*
X137171904Y-58008095D01*
X137171904Y-58160476D01*
X137133809Y-58236666D01*
X137057619Y-58312857D01*
X136905238Y-58350952D01*
X136638571Y-58350952D01*
X136486190Y-58312857D01*
X136410000Y-58236666D01*
X136371904Y-58160476D01*
X137171904Y-57093809D02*
X137171904Y-57474761D01*
X136371904Y-57474761D01*
X137171904Y-56827142D02*
X136371904Y-56827142D01*
X136371904Y-56636666D01*
X136410000Y-56522380D01*
X136486190Y-56446190D01*
X136562380Y-56408095D01*
X136714761Y-56370000D01*
X136829047Y-56370000D01*
X136981428Y-56408095D01*
X137057619Y-56446190D01*
X137133809Y-56522380D01*
X137171904Y-56636666D01*
X137171904Y-56827142D01*
X136752857Y-56027142D02*
X136752857Y-55760476D01*
X137171904Y-55646190D02*
X137171904Y-56027142D01*
X136371904Y-56027142D01*
X136371904Y-55646190D01*
X137171904Y-54846190D02*
X136790952Y-55112857D01*
X137171904Y-55303333D02*
X136371904Y-55303333D01*
X136371904Y-54998571D01*
X136410000Y-54922380D01*
X136448095Y-54884285D01*
X136524285Y-54846190D01*
X136638571Y-54846190D01*
X136714761Y-54884285D01*
X136752857Y-54922380D01*
X136790952Y-54998571D01*
X136790952Y-55303333D01*
X136371904Y-53741428D02*
X136371904Y-53665238D01*
X136410000Y-53589047D01*
X136448095Y-53550952D01*
X136524285Y-53512857D01*
X136676666Y-53474761D01*
X136867142Y-53474761D01*
X137019523Y-53512857D01*
X137095714Y-53550952D01*
X137133809Y-53589047D01*
X137171904Y-53665238D01*
X137171904Y-53741428D01*
X137133809Y-53817619D01*
X137095714Y-53855714D01*
X137019523Y-53893809D01*
X136867142Y-53931904D01*
X136676666Y-53931904D01*
X136524285Y-53893809D01*
X136448095Y-53855714D01*
X136410000Y-53817619D01*
X136371904Y-53741428D01*
X137095714Y-53131904D02*
X137133809Y-53093809D01*
X137171904Y-53131904D01*
X137133809Y-53170000D01*
X137095714Y-53131904D01*
X137171904Y-53131904D01*
X137171904Y-52331904D02*
X137171904Y-52789047D01*
X137171904Y-52560476D02*
X136371904Y-52560476D01*
X136486190Y-52636666D01*
X136562380Y-52712857D01*
X136600476Y-52789047D01*
D11*
X162771428Y-22803809D02*
X162885714Y-22841904D01*
X163076190Y-22841904D01*
X163152380Y-22803809D01*
X163190476Y-22765714D01*
X163228571Y-22689523D01*
X163228571Y-22613333D01*
X163190476Y-22537142D01*
X163152380Y-22499047D01*
X163076190Y-22460952D01*
X162923809Y-22422857D01*
X162847619Y-22384761D01*
X162809523Y-22346666D01*
X162771428Y-22270476D01*
X162771428Y-22194285D01*
X162809523Y-22118095D01*
X162847619Y-22080000D01*
X162923809Y-22041904D01*
X163114285Y-22041904D01*
X163228571Y-22080000D01*
X84811428Y-48602857D02*
X84411428Y-48031428D01*
X84125714Y-48602857D02*
X84125714Y-47402857D01*
X84582857Y-47402857D01*
X84697142Y-47460000D01*
X84754285Y-47517142D01*
X84811428Y-47631428D01*
X84811428Y-47802857D01*
X84754285Y-47917142D01*
X84697142Y-47974285D01*
X84582857Y-48031428D01*
X84125714Y-48031428D01*
X85954285Y-47460000D02*
X85840000Y-47402857D01*
X85668571Y-47402857D01*
X85497142Y-47460000D01*
X85382857Y-47574285D01*
X85325714Y-47688571D01*
X85268571Y-47917142D01*
X85268571Y-48088571D01*
X85325714Y-48317142D01*
X85382857Y-48431428D01*
X85497142Y-48545714D01*
X85668571Y-48602857D01*
X85782857Y-48602857D01*
X85954285Y-48545714D01*
X86011428Y-48488571D01*
X86011428Y-48088571D01*
X85782857Y-48088571D01*
X86925714Y-47974285D02*
X87097142Y-48031428D01*
X87154285Y-48088571D01*
X87211428Y-48202857D01*
X87211428Y-48374285D01*
X87154285Y-48488571D01*
X87097142Y-48545714D01*
X86982857Y-48602857D01*
X86525714Y-48602857D01*
X86525714Y-47402857D01*
X86925714Y-47402857D01*
X87040000Y-47460000D01*
X87097142Y-47517142D01*
X87154285Y-47631428D01*
X87154285Y-47745714D01*
X87097142Y-47860000D01*
X87040000Y-47917142D01*
X86925714Y-47974285D01*
X86525714Y-47974285D01*
D13*
X134053971Y-34981971D02*
X134053971Y-35696257D01*
X132553971Y-35696257D01*
X133268257Y-34481971D02*
X133268257Y-33981971D01*
X134053971Y-33767685D02*
X134053971Y-34481971D01*
X132553971Y-34481971D01*
X132553971Y-33767685D01*
X133268257Y-32624828D02*
X133268257Y-33124828D01*
X134053971Y-33124828D02*
X132553971Y-33124828D01*
X132553971Y-32410542D01*
X132553971Y-32053400D02*
X132553971Y-31196257D01*
X134053971Y-31624828D02*
X132553971Y-31624828D01*
D12*
X115628571Y-95938095D02*
X115666666Y-95900000D01*
X115742857Y-95861904D01*
X115933333Y-95861904D01*
X116009523Y-95900000D01*
X116047619Y-95938095D01*
X116085714Y-96014285D01*
X116085714Y-96090476D01*
X116047619Y-96204761D01*
X115590476Y-96661904D01*
X116085714Y-96661904D01*
X116580952Y-95861904D02*
X116657142Y-95861904D01*
X116733333Y-95900000D01*
X116771428Y-95938095D01*
X116809523Y-96014285D01*
X116847619Y-96166666D01*
X116847619Y-96357142D01*
X116809523Y-96509523D01*
X116771428Y-96585714D01*
X116733333Y-96623809D01*
X116657142Y-96661904D01*
X116580952Y-96661904D01*
X116504761Y-96623809D01*
X116466666Y-96585714D01*
X116428571Y-96509523D01*
X116390476Y-96357142D01*
X116390476Y-96166666D01*
X116428571Y-96014285D01*
X116466666Y-95938095D01*
X116504761Y-95900000D01*
X116580952Y-95861904D01*
X117152380Y-95938095D02*
X117190476Y-95900000D01*
X117266666Y-95861904D01*
X117457142Y-95861904D01*
X117533333Y-95900000D01*
X117571428Y-95938095D01*
X117609523Y-96014285D01*
X117609523Y-96090476D01*
X117571428Y-96204761D01*
X117114285Y-96661904D01*
X117609523Y-96661904D01*
X118371428Y-96661904D02*
X117914285Y-96661904D01*
X118142857Y-96661904D02*
X118142857Y-95861904D01*
X118066666Y-95976190D01*
X117990476Y-96052380D01*
X117914285Y-96090476D01*
X119857142Y-96738095D02*
X119780952Y-96700000D01*
X119704761Y-96623809D01*
X119590476Y-96509523D01*
X119514285Y-96471428D01*
X119438095Y-96471428D01*
X119476190Y-96661904D02*
X119400000Y-96623809D01*
X119323809Y-96547619D01*
X119285714Y-96395238D01*
X119285714Y-96128571D01*
X119323809Y-95976190D01*
X119400000Y-95900000D01*
X119476190Y-95861904D01*
X119628571Y-95861904D01*
X119704761Y-95900000D01*
X119780952Y-95976190D01*
X119819047Y-96128571D01*
X119819047Y-96395238D01*
X119780952Y-96547619D01*
X119704761Y-96623809D01*
X119628571Y-96661904D01*
X119476190Y-96661904D01*
X120161904Y-95861904D02*
X120161904Y-96509523D01*
X120200000Y-96585714D01*
X120238095Y-96623809D01*
X120314285Y-96661904D01*
X120466666Y-96661904D01*
X120542857Y-96623809D01*
X120580952Y-96585714D01*
X120619047Y-96509523D01*
X120619047Y-95861904D01*
X121000000Y-96242857D02*
X121266666Y-96242857D01*
X121380952Y-96661904D02*
X121000000Y-96661904D01*
X121000000Y-95861904D01*
X121380952Y-95861904D01*
X121723809Y-96661904D02*
X121723809Y-95861904D01*
X122180952Y-96661904D01*
X122180952Y-95861904D01*
X122447619Y-95861904D02*
X122904761Y-95861904D01*
X122676190Y-96661904D02*
X122676190Y-95861904D01*
X123171428Y-96661904D02*
X123171428Y-95861904D01*
X123552380Y-96661904D02*
X123552380Y-95861904D01*
X124009523Y-96661904D01*
X124009523Y-95861904D01*
X125380952Y-96661904D02*
X125000000Y-96661904D01*
X125000000Y-95861904D01*
X125647619Y-96242857D02*
X125914285Y-96242857D01*
X126028571Y-96661904D02*
X125647619Y-96661904D01*
X125647619Y-95861904D01*
X126028571Y-95861904D01*
X126638095Y-96242857D02*
X126752380Y-96280952D01*
X126790476Y-96319047D01*
X126828571Y-96395238D01*
X126828571Y-96509523D01*
X126790476Y-96585714D01*
X126752380Y-96623809D01*
X126676190Y-96661904D01*
X126371428Y-96661904D01*
X126371428Y-95861904D01*
X126638095Y-95861904D01*
X126714285Y-95900000D01*
X126752380Y-95938095D01*
X126790476Y-96014285D01*
X126790476Y-96090476D01*
X126752380Y-96166666D01*
X126714285Y-96204761D01*
X126638095Y-96242857D01*
X126371428Y-96242857D01*
X127133333Y-96433333D02*
X127514285Y-96433333D01*
X127057142Y-96661904D02*
X127323809Y-95861904D01*
X127590476Y-96661904D01*
X127819047Y-96623809D02*
X127933333Y-96661904D01*
X128123809Y-96661904D01*
X128200000Y-96623809D01*
X128238095Y-96585714D01*
X128276190Y-96509523D01*
X128276190Y-96433333D01*
X128238095Y-96357142D01*
X128200000Y-96319047D01*
X128123809Y-96280952D01*
X127971428Y-96242857D01*
X127895238Y-96204761D01*
X127857142Y-96166666D01*
X127819047Y-96090476D01*
X127819047Y-96014285D01*
X127857142Y-95938095D01*
X127895238Y-95900000D01*
X127971428Y-95861904D01*
X128161904Y-95861904D01*
X128276190Y-95900000D01*
X128504761Y-95861904D02*
X128961904Y-95861904D01*
X128733333Y-96661904D02*
X128733333Y-95861904D01*
X129190476Y-96433333D02*
X129571428Y-96433333D01*
X129114285Y-96661904D02*
X129380952Y-95861904D01*
X129647619Y-96661904D01*
X130371428Y-96661904D02*
X130104761Y-96280952D01*
X129914285Y-96661904D02*
X129914285Y-95861904D01*
X130219047Y-95861904D01*
X130295238Y-95900000D01*
X130333333Y-95938095D01*
X130371428Y-96014285D01*
X130371428Y-96128571D01*
X130333333Y-96204761D01*
X130295238Y-96242857D01*
X130219047Y-96280952D01*
X129914285Y-96280952D01*
X130714285Y-96661904D02*
X130714285Y-95861904D01*
X130904761Y-95861904D01*
X131019047Y-95900000D01*
X131095238Y-95976190D01*
X131133333Y-96052380D01*
X131171428Y-96204761D01*
X131171428Y-96319047D01*
X131133333Y-96471428D01*
X131095238Y-96547619D01*
X131019047Y-96623809D01*
X130904761Y-96661904D01*
X130714285Y-96661904D01*
D11*
X82806772Y-41880356D02*
X82725960Y-41907294D01*
X82645148Y-41988106D01*
X82591273Y-42095855D01*
X82591273Y-42203605D01*
X82618211Y-42284417D01*
X82699023Y-42419104D01*
X82779835Y-42499916D01*
X82914522Y-42580729D01*
X82995334Y-42607666D01*
X83103084Y-42607666D01*
X83210833Y-42553791D01*
X83264708Y-42499916D01*
X83318583Y-42392167D01*
X83318583Y-42338292D01*
X83130021Y-42149730D01*
X83022272Y-42257480D01*
X83614894Y-42149730D02*
X83049209Y-41584045D01*
X83938143Y-41826481D01*
X83372458Y-41260796D01*
X84207517Y-41557107D02*
X83641832Y-40991422D01*
X83776519Y-40856735D01*
X83884268Y-40802860D01*
X83992018Y-40802860D01*
X84072830Y-40829798D01*
X84207517Y-40910610D01*
X84288329Y-40991422D01*
X84369142Y-41126109D01*
X84396079Y-41206921D01*
X84396079Y-41314671D01*
X84342204Y-41422420D01*
X84207517Y-41557107D01*
X137423224Y-86473386D02*
X136965288Y-86392574D01*
X137099975Y-86796635D02*
X136534290Y-86230949D01*
X136749789Y-86015450D01*
X136830601Y-85988512D01*
X136884476Y-85988512D01*
X136965288Y-86015450D01*
X137046100Y-86096262D01*
X137073038Y-86177074D01*
X137073038Y-86230949D01*
X137046100Y-86311761D01*
X136830601Y-86527261D01*
X137369349Y-85395890D02*
X137099975Y-85665264D01*
X137342412Y-85961575D01*
X137342412Y-85907700D01*
X137369349Y-85826888D01*
X137504036Y-85692201D01*
X137584848Y-85665264D01*
X137638723Y-85665264D01*
X137719535Y-85692201D01*
X137854222Y-85826888D01*
X137881160Y-85907700D01*
X137881160Y-85961575D01*
X137854222Y-86042387D01*
X137719535Y-86177074D01*
X137638723Y-86204012D01*
X137584848Y-86204012D01*
X151503378Y-86609755D02*
X151422566Y-86636693D01*
X151341754Y-86717505D01*
X151287879Y-86825254D01*
X151287879Y-86933004D01*
X151314817Y-87013816D01*
X151395629Y-87148503D01*
X151476441Y-87229315D01*
X151611128Y-87310128D01*
X151691940Y-87337065D01*
X151799690Y-87337065D01*
X151907439Y-87283190D01*
X151961314Y-87229315D01*
X152015189Y-87121566D01*
X152015189Y-87067691D01*
X151826627Y-86879129D01*
X151718878Y-86986879D01*
X152311500Y-86879129D02*
X151745815Y-86313444D01*
X152634749Y-86555880D01*
X152069064Y-85990195D01*
X152904123Y-86286506D02*
X152338438Y-85720821D01*
X152473125Y-85586134D01*
X152580874Y-85532259D01*
X152688624Y-85532259D01*
X152769436Y-85559197D01*
X152904123Y-85640009D01*
X152984935Y-85720821D01*
X153065748Y-85855508D01*
X153092685Y-85936320D01*
X153092685Y-86044070D01*
X153038810Y-86151819D01*
X152904123Y-86286506D01*
X158248002Y-41880356D02*
X158167190Y-41907294D01*
X158086378Y-41988106D01*
X158032503Y-42095855D01*
X158032503Y-42203605D01*
X158059441Y-42284417D01*
X158140253Y-42419104D01*
X158221065Y-42499916D01*
X158355752Y-42580729D01*
X158436564Y-42607666D01*
X158544314Y-42607666D01*
X158652063Y-42553791D01*
X158705938Y-42499916D01*
X158759813Y-42392167D01*
X158759813Y-42338292D01*
X158571251Y-42149730D01*
X158463502Y-42257480D01*
X159056124Y-42149730D02*
X158490439Y-41584045D01*
X159379373Y-41826481D01*
X158813688Y-41260796D01*
X159648747Y-41557107D02*
X159083062Y-40991422D01*
X159217749Y-40856735D01*
X159325498Y-40802860D01*
X159433248Y-40802860D01*
X159514060Y-40829798D01*
X159648747Y-40910610D01*
X159729559Y-40991422D01*
X159810372Y-41126109D01*
X159837309Y-41206921D01*
X159837309Y-41314671D01*
X159783434Y-41422420D01*
X159648747Y-41557107D01*
X137369349Y-81463511D02*
X137369349Y-81517386D01*
X137315474Y-81625135D01*
X137261600Y-81679010D01*
X137153850Y-81732885D01*
X137046100Y-81732885D01*
X136965288Y-81705948D01*
X136830601Y-81625135D01*
X136749789Y-81544323D01*
X136668977Y-81409636D01*
X136642039Y-81328824D01*
X136642039Y-81221074D01*
X136695914Y-81113325D01*
X136749789Y-81059450D01*
X136857538Y-81005575D01*
X136911413Y-81005575D01*
X137369349Y-80439890D02*
X137099975Y-80709264D01*
X137342412Y-81005575D01*
X137342412Y-80951700D01*
X137369349Y-80870888D01*
X137504036Y-80736201D01*
X137584848Y-80709264D01*
X137638723Y-80709264D01*
X137719535Y-80736201D01*
X137854222Y-80870888D01*
X137881160Y-80951700D01*
X137881160Y-81005575D01*
X137854222Y-81086387D01*
X137719535Y-81221074D01*
X137638723Y-81248012D01*
X137584848Y-81248012D01*
X86636715Y-29041904D02*
X86255762Y-29041904D01*
X86217667Y-29422857D01*
X86255762Y-29384761D01*
X86331953Y-29346666D01*
X86522429Y-29346666D01*
X86598619Y-29384761D01*
X86636715Y-29422857D01*
X86674810Y-29499047D01*
X86674810Y-29689523D01*
X86636715Y-29765714D01*
X86598619Y-29803809D01*
X86522429Y-29841904D01*
X86331953Y-29841904D01*
X86255762Y-29803809D01*
X86217667Y-29765714D01*
X86903381Y-29041904D02*
X87170048Y-29841904D01*
X87436715Y-29041904D01*
X151422567Y-79986438D02*
X150856881Y-79420753D01*
X151449504Y-79636252D01*
X151234005Y-79043629D01*
X151799690Y-79609314D01*
X151611128Y-78666505D02*
X151718878Y-78558756D01*
X151799690Y-78531818D01*
X151907440Y-78531818D01*
X152042127Y-78612631D01*
X152230689Y-78801192D01*
X152311501Y-78935879D01*
X152311501Y-79043629D01*
X152284563Y-79124441D01*
X152176814Y-79232191D01*
X152096002Y-79259128D01*
X151988252Y-79259128D01*
X151853565Y-79178316D01*
X151665003Y-78989754D01*
X151584191Y-78855067D01*
X151584191Y-78747318D01*
X151611128Y-78666505D01*
X152607812Y-78747318D02*
X152715562Y-78693443D01*
X152850249Y-78558756D01*
X152877186Y-78477944D01*
X152877186Y-78424069D01*
X152850249Y-78343257D01*
X152796374Y-78289382D01*
X152715562Y-78262444D01*
X152661687Y-78262444D01*
X152580875Y-78289382D01*
X152446188Y-78370194D01*
X152365376Y-78397131D01*
X152311501Y-78397131D01*
X152230689Y-78370194D01*
X152176814Y-78316319D01*
X152149876Y-78235507D01*
X152149876Y-78181632D01*
X152176814Y-78100820D01*
X152311501Y-77966133D01*
X152419250Y-77912258D01*
X153200435Y-78208570D02*
X152634750Y-77642884D01*
X144963949Y-81419811D02*
X144963949Y-81473686D01*
X144910074Y-81581435D01*
X144856200Y-81635310D01*
X144748450Y-81689185D01*
X144640700Y-81689185D01*
X144559888Y-81662248D01*
X144425201Y-81581435D01*
X144344389Y-81500623D01*
X144263577Y-81365936D01*
X144236639Y-81285124D01*
X144236639Y-81177374D01*
X144290514Y-81069625D01*
X144344389Y-81015750D01*
X144452138Y-80961875D01*
X144506013Y-80961875D01*
X145556572Y-80934938D02*
X145233323Y-81258187D01*
X145394948Y-81096562D02*
X144829262Y-80530877D01*
X144856200Y-80665564D01*
X144856200Y-80773313D01*
X144829262Y-80854125D01*
D13*
X116588972Y-34504990D02*
X115874686Y-35004990D01*
X116588972Y-35362132D02*
X115088972Y-35362132D01*
X115088972Y-34790704D01*
X115160401Y-34647847D01*
X115231829Y-34576418D01*
X115374686Y-34504990D01*
X115588972Y-34504990D01*
X115731829Y-34576418D01*
X115803258Y-34647847D01*
X115874686Y-34790704D01*
X115874686Y-35362132D01*
X116588972Y-33862132D02*
X115088972Y-33862132D01*
X115160401Y-32362132D02*
X115088972Y-32504990D01*
X115088972Y-32719275D01*
X115160401Y-32933561D01*
X115303258Y-33076418D01*
X115446115Y-33147847D01*
X115731829Y-33219275D01*
X115946115Y-33219275D01*
X116231829Y-33147847D01*
X116374686Y-33076418D01*
X116517543Y-32933561D01*
X116588972Y-32719275D01*
X116588972Y-32576418D01*
X116517543Y-32362132D01*
X116446115Y-32290704D01*
X115946115Y-32290704D01*
X115946115Y-32576418D01*
X116588972Y-31647847D02*
X115088972Y-31647847D01*
X115803258Y-31647847D02*
X115803258Y-30790704D01*
X116588972Y-30790704D02*
X115088972Y-30790704D01*
X115088972Y-30290704D02*
X115088972Y-29433561D01*
X116588972Y-29862132D02*
X115088972Y-29862132D01*
D11*
X151422567Y-85066438D02*
X150856881Y-84500753D01*
X151449504Y-84716252D01*
X151234005Y-84123629D01*
X151799690Y-84689314D01*
X152069064Y-84419940D02*
X151503379Y-83854255D01*
X152284563Y-84150566D02*
X152392313Y-84096692D01*
X152527000Y-83962005D01*
X152553937Y-83881192D01*
X152553937Y-83827318D01*
X152527000Y-83746505D01*
X152473125Y-83692631D01*
X152392313Y-83665693D01*
X152338438Y-83665693D01*
X152257626Y-83692631D01*
X152122939Y-83773443D01*
X152042127Y-83800380D01*
X151988252Y-83800380D01*
X151907440Y-83773443D01*
X151853565Y-83719568D01*
X151826628Y-83638756D01*
X151826628Y-83584881D01*
X151853565Y-83504069D01*
X151988252Y-83369382D01*
X152096002Y-83315507D01*
X152419250Y-82938383D02*
X152527000Y-82830634D01*
X152607812Y-82803696D01*
X152715562Y-82803696D01*
X152850249Y-82884509D01*
X153038811Y-83073070D01*
X153119623Y-83207757D01*
X153119623Y-83315507D01*
X153092685Y-83396319D01*
X152984936Y-83504069D01*
X152904124Y-83531006D01*
X152796374Y-83531006D01*
X152661687Y-83450194D01*
X152473125Y-83261632D01*
X152392313Y-83126945D01*
X152392313Y-83019196D01*
X152419250Y-82938383D01*
X145017824Y-83941186D02*
X144559888Y-83860374D01*
X144694575Y-84264435D02*
X144128890Y-83698749D01*
X144344389Y-83483250D01*
X144425201Y-83456312D01*
X144479076Y-83456312D01*
X144559888Y-83483250D01*
X144640700Y-83564062D01*
X144667638Y-83644874D01*
X144667638Y-83698749D01*
X144640700Y-83779561D01*
X144425201Y-83995061D01*
X144721512Y-83213876D02*
X144721512Y-83160001D01*
X144748450Y-83079189D01*
X144883137Y-82944502D01*
X144963949Y-82917564D01*
X145017824Y-82917564D01*
X145098636Y-82944502D01*
X145152511Y-82998377D01*
X145206386Y-83106126D01*
X145206386Y-83752624D01*
X145556572Y-83402438D01*
X83453270Y-38990170D02*
X83183896Y-39259544D01*
X83426332Y-39555855D01*
X83426332Y-39501981D01*
X83453270Y-39421168D01*
X83587957Y-39286481D01*
X83668769Y-39259544D01*
X83722644Y-39259544D01*
X83803456Y-39286481D01*
X83938143Y-39421168D01*
X83965080Y-39501981D01*
X83965080Y-39555855D01*
X83938143Y-39636668D01*
X83803456Y-39771355D01*
X83722644Y-39798292D01*
X83668769Y-39798292D01*
X83641832Y-38801608D02*
X84396079Y-39178732D01*
X84018955Y-38424485D01*
X152311500Y-82055035D02*
X152419250Y-82001160D01*
X152553937Y-81866473D01*
X152580874Y-81785661D01*
X152580874Y-81731786D01*
X152553937Y-81650974D01*
X152500062Y-81597099D01*
X152419250Y-81570161D01*
X152365375Y-81570161D01*
X152284563Y-81597099D01*
X152149876Y-81677911D01*
X152069064Y-81704848D01*
X152015189Y-81704848D01*
X151934377Y-81677911D01*
X151880502Y-81624036D01*
X151853564Y-81543224D01*
X151853564Y-81489349D01*
X151880502Y-81408537D01*
X152015189Y-81273850D01*
X152122938Y-81219975D01*
X153173497Y-81139163D02*
X153173497Y-81193038D01*
X153119622Y-81300787D01*
X153065748Y-81354662D01*
X152957998Y-81408537D01*
X152850248Y-81408537D01*
X152769436Y-81381600D01*
X152634749Y-81300787D01*
X152553937Y-81219975D01*
X152473125Y-81085288D01*
X152446187Y-81004476D01*
X152446187Y-80896726D01*
X152500062Y-80788977D01*
X152553937Y-80735102D01*
X152661687Y-80681227D01*
X152715561Y-80681227D01*
X137423224Y-74083386D02*
X136965288Y-74002574D01*
X137099975Y-74406635D02*
X136534290Y-73840949D01*
X136749789Y-73625450D01*
X136830601Y-73598512D01*
X136884476Y-73598512D01*
X136965288Y-73625450D01*
X137046100Y-73706262D01*
X137073038Y-73787074D01*
X137073038Y-73840949D01*
X137046100Y-73921761D01*
X136830601Y-74137261D01*
X137530974Y-73221389D02*
X137908097Y-73598512D01*
X137180787Y-73140577D02*
X137450161Y-73679325D01*
X137800348Y-73329138D01*
X144963949Y-78952311D02*
X144963949Y-79006186D01*
X144910074Y-79113935D01*
X144856200Y-79167810D01*
X144748450Y-79221685D01*
X144640700Y-79221685D01*
X144559888Y-79194748D01*
X144425201Y-79113935D01*
X144344389Y-79033123D01*
X144263577Y-78898436D01*
X144236639Y-78817624D01*
X144236639Y-78709874D01*
X144290514Y-78602125D01*
X144344389Y-78548250D01*
X144452138Y-78494375D01*
X144506013Y-78494375D01*
X144721512Y-78278876D02*
X144721512Y-78225001D01*
X144748450Y-78144189D01*
X144883137Y-78009502D01*
X144963949Y-77982564D01*
X145017824Y-77982564D01*
X145098636Y-78009502D01*
X145152511Y-78063377D01*
X145206386Y-78171126D01*
X145206386Y-78817624D01*
X145556572Y-78467438D01*
X137369349Y-83941511D02*
X137369349Y-83995386D01*
X137315474Y-84103135D01*
X137261600Y-84157010D01*
X137153850Y-84210885D01*
X137046100Y-84210885D01*
X136965288Y-84183948D01*
X136830601Y-84103135D01*
X136749789Y-84022323D01*
X136668977Y-83887636D01*
X136642039Y-83806824D01*
X136642039Y-83699074D01*
X136695914Y-83591325D01*
X136749789Y-83537450D01*
X136857538Y-83483575D01*
X136911413Y-83483575D01*
X137342412Y-82944827D02*
X137234662Y-83052577D01*
X137207725Y-83133389D01*
X137207725Y-83187264D01*
X137234662Y-83321951D01*
X137315474Y-83456638D01*
X137530974Y-83672137D01*
X137611786Y-83699074D01*
X137665661Y-83699074D01*
X137746473Y-83672137D01*
X137854222Y-83564387D01*
X137881160Y-83483575D01*
X137881160Y-83429700D01*
X137854222Y-83348888D01*
X137719535Y-83214201D01*
X137638723Y-83187264D01*
X137584848Y-83187264D01*
X137504036Y-83214201D01*
X137396287Y-83321951D01*
X137369349Y-83402763D01*
X137369349Y-83456638D01*
X137396287Y-83537450D01*
D13*
X140671428Y-95942857D02*
X140671428Y-94742857D01*
X140671428Y-95314285D02*
X141357142Y-95314285D01*
X141357142Y-95942857D02*
X141357142Y-94742857D01*
X142442857Y-95942857D02*
X142442857Y-95314285D01*
X142385714Y-95200000D01*
X142271428Y-95142857D01*
X142042857Y-95142857D01*
X141928571Y-95200000D01*
X142442857Y-95885714D02*
X142328571Y-95942857D01*
X142042857Y-95942857D01*
X141928571Y-95885714D01*
X141871428Y-95771428D01*
X141871428Y-95657142D01*
X141928571Y-95542857D01*
X142042857Y-95485714D01*
X142328571Y-95485714D01*
X142442857Y-95428571D01*
X142900000Y-95142857D02*
X143185714Y-95942857D01*
X143471428Y-95142857D01*
X144385714Y-95885714D02*
X144271428Y-95942857D01*
X144042857Y-95942857D01*
X143928571Y-95885714D01*
X143871428Y-95771428D01*
X143871428Y-95314285D01*
X143928571Y-95200000D01*
X144042857Y-95142857D01*
X144271428Y-95142857D01*
X144385714Y-95200000D01*
X144442857Y-95314285D01*
X144442857Y-95428571D01*
X143871428Y-95542857D01*
X146385714Y-95942857D02*
X146385714Y-95314285D01*
X146328571Y-95200000D01*
X146214285Y-95142857D01*
X145985714Y-95142857D01*
X145871428Y-95200000D01*
X146385714Y-95885714D02*
X146271428Y-95942857D01*
X145985714Y-95942857D01*
X145871428Y-95885714D01*
X145814285Y-95771428D01*
X145814285Y-95657142D01*
X145871428Y-95542857D01*
X145985714Y-95485714D01*
X146271428Y-95485714D01*
X146385714Y-95428571D01*
X147700000Y-95142857D02*
X148157142Y-95142857D01*
X147871428Y-95942857D02*
X147871428Y-94914285D01*
X147928571Y-94800000D01*
X148042857Y-94742857D01*
X148157142Y-94742857D01*
X149071428Y-95142857D02*
X149071428Y-95942857D01*
X148557142Y-95142857D02*
X148557142Y-95771428D01*
X148614285Y-95885714D01*
X148728571Y-95942857D01*
X148900000Y-95942857D01*
X149014285Y-95885714D01*
X149071428Y-95828571D01*
X149642857Y-95142857D02*
X149642857Y-95942857D01*
X149642857Y-95257142D02*
X149700000Y-95200000D01*
X149814285Y-95142857D01*
X149985714Y-95142857D01*
X150100000Y-95200000D01*
X150157142Y-95314285D01*
X150157142Y-95942857D01*
X151642857Y-95942857D02*
X151642857Y-94742857D01*
X151642857Y-95200000D02*
X151757142Y-95142857D01*
X151985714Y-95142857D01*
X152100000Y-95200000D01*
X152157142Y-95257142D01*
X152214285Y-95371428D01*
X152214285Y-95714285D01*
X152157142Y-95828571D01*
X152100000Y-95885714D01*
X151985714Y-95942857D01*
X151757142Y-95942857D01*
X151642857Y-95885714D01*
X153242857Y-95142857D02*
X153242857Y-95942857D01*
X152728571Y-95142857D02*
X152728571Y-95771428D01*
X152785714Y-95885714D01*
X152900000Y-95942857D01*
X153071428Y-95942857D01*
X153185714Y-95885714D01*
X153242857Y-95828571D01*
X153814285Y-95942857D02*
X153814285Y-95142857D01*
X153814285Y-94742857D02*
X153757142Y-94800000D01*
X153814285Y-94857142D01*
X153871428Y-94800000D01*
X153814285Y-94742857D01*
X153814285Y-94857142D01*
X154557142Y-95942857D02*
X154442857Y-95885714D01*
X154385714Y-95771428D01*
X154385714Y-94742857D01*
X155528571Y-95942857D02*
X155528571Y-94742857D01*
X155528571Y-95885714D02*
X155414285Y-95942857D01*
X155185714Y-95942857D01*
X155071428Y-95885714D01*
X155014285Y-95828571D01*
X154957142Y-95714285D01*
X154957142Y-95371428D01*
X155014285Y-95257142D01*
X155071428Y-95200000D01*
X155185714Y-95142857D01*
X155414285Y-95142857D01*
X155528571Y-95200000D01*
D11*
X83710476Y-33554761D02*
X83853333Y-33602380D01*
X84091428Y-33602380D01*
X84186666Y-33554761D01*
X84234285Y-33507142D01*
X84281904Y-33411904D01*
X84281904Y-33316666D01*
X84234285Y-33221428D01*
X84186666Y-33173809D01*
X84091428Y-33126190D01*
X83900952Y-33078571D01*
X83805714Y-33030952D01*
X83758095Y-32983333D01*
X83710476Y-32888095D01*
X83710476Y-32792857D01*
X83758095Y-32697619D01*
X83805714Y-32650000D01*
X83900952Y-32602380D01*
X84139047Y-32602380D01*
X84281904Y-32650000D01*
X84710476Y-33078571D02*
X85043809Y-33078571D01*
X85186666Y-33602380D02*
X84710476Y-33602380D01*
X84710476Y-32602380D01*
X85186666Y-32602380D01*
X86186666Y-33602380D02*
X85853333Y-33126190D01*
X85615238Y-33602380D02*
X85615238Y-32602380D01*
X85996190Y-32602380D01*
X86091428Y-32650000D01*
X86139047Y-32697619D01*
X86186666Y-32792857D01*
X86186666Y-32935714D01*
X86139047Y-33030952D01*
X86091428Y-33078571D01*
X85996190Y-33126190D01*
X85615238Y-33126190D01*
X86615238Y-33602380D02*
X86615238Y-32602380D01*
X87043809Y-33316666D02*
X87520000Y-33316666D01*
X86948571Y-33602380D02*
X87281904Y-32602380D01*
X87615238Y-33602380D01*
X88424761Y-33602380D02*
X87948571Y-33602380D01*
X87948571Y-32602380D01*
X83345521Y-45107259D02*
X82779835Y-44541574D01*
X82914522Y-44406887D01*
X83022272Y-44353012D01*
X83130021Y-44353012D01*
X83210834Y-44379949D01*
X83345521Y-44460761D01*
X83426333Y-44541574D01*
X83507145Y-44676261D01*
X83534082Y-44757073D01*
X83534082Y-44864822D01*
X83480208Y-44972572D01*
X83345521Y-45107259D01*
X83911206Y-44541574D02*
X83345521Y-43975888D01*
X84180580Y-44272200D02*
X83614895Y-43706514D01*
X84503829Y-43948951D01*
X83938144Y-43383265D01*
X145017824Y-76538686D02*
X144559888Y-76457874D01*
X144694575Y-76861935D02*
X144128890Y-76296249D01*
X144344389Y-76080750D01*
X144425201Y-76053812D01*
X144479076Y-76053812D01*
X144559888Y-76080750D01*
X144640700Y-76161562D01*
X144667638Y-76242374D01*
X144667638Y-76296249D01*
X144640700Y-76377061D01*
X144425201Y-76592561D01*
X145556572Y-75999938D02*
X145233323Y-76323187D01*
X145394948Y-76161562D02*
X144829262Y-75595877D01*
X144856200Y-75730564D01*
X144856200Y-75838313D01*
X144829262Y-75919125D01*
X152149876Y-73559569D02*
X151880502Y-73828943D01*
X152122938Y-74125254D01*
X152122938Y-74071380D01*
X152149876Y-73990567D01*
X152284563Y-73855880D01*
X152365375Y-73828943D01*
X152419250Y-73828943D01*
X152500062Y-73855880D01*
X152634749Y-73990567D01*
X152661686Y-74071380D01*
X152661686Y-74125254D01*
X152634749Y-74206067D01*
X152500062Y-74340754D01*
X152419250Y-74367691D01*
X152365375Y-74367691D01*
X152338438Y-73371007D02*
X153092685Y-73748131D01*
X152715561Y-72993884D01*
X56605800Y-26607381D02*
X56605800Y-25607381D01*
X57081990Y-25940715D02*
X57081990Y-26607381D01*
X57081990Y-26035953D02*
X57129609Y-25988334D01*
X57224847Y-25940715D01*
X57367704Y-25940715D01*
X57462942Y-25988334D01*
X57510561Y-26083572D01*
X57510561Y-26607381D01*
X57939133Y-26559762D02*
X58034371Y-26607381D01*
X58224847Y-26607381D01*
X58320085Y-26559762D01*
X58367704Y-26464524D01*
X58367704Y-26416905D01*
X58320085Y-26321667D01*
X58224847Y-26274048D01*
X58081990Y-26274048D01*
X57986752Y-26226429D01*
X57939133Y-26131191D01*
X57939133Y-26083572D01*
X57986752Y-25988334D01*
X58081990Y-25940715D01*
X58224847Y-25940715D01*
X58320085Y-25988334D01*
X58653419Y-25940715D02*
X59034371Y-25940715D01*
X58796276Y-25607381D02*
X58796276Y-26464524D01*
X58843895Y-26559762D01*
X58939133Y-26607381D01*
X59034371Y-26607381D01*
X59796276Y-26607381D02*
X59796276Y-26083572D01*
X59748657Y-25988334D01*
X59653419Y-25940715D01*
X59462942Y-25940715D01*
X59367704Y-25988334D01*
X59796276Y-26559762D02*
X59701038Y-26607381D01*
X59462942Y-26607381D01*
X59367704Y-26559762D01*
X59320085Y-26464524D01*
X59320085Y-26369286D01*
X59367704Y-26274048D01*
X59462942Y-26226429D01*
X59701038Y-26226429D01*
X59796276Y-26178810D01*
X60415323Y-26607381D02*
X60320085Y-26559762D01*
X60272466Y-26464524D01*
X60272466Y-25607381D01*
X60939133Y-26607381D02*
X60843895Y-26559762D01*
X60796276Y-26464524D01*
X60796276Y-25607381D01*
X56177228Y-27693572D02*
X56320085Y-27741191D01*
X56367704Y-27788810D01*
X56415323Y-27884048D01*
X56415323Y-28026905D01*
X56367704Y-28122143D01*
X56320085Y-28169762D01*
X56224847Y-28217381D01*
X55843895Y-28217381D01*
X55843895Y-27217381D01*
X56177228Y-27217381D01*
X56272466Y-27265001D01*
X56320085Y-27312620D01*
X56367704Y-27407858D01*
X56367704Y-27503096D01*
X56320085Y-27598334D01*
X56272466Y-27645953D01*
X56177228Y-27693572D01*
X55843895Y-27693572D01*
X56986752Y-28217381D02*
X56891514Y-28169762D01*
X56843895Y-28074524D01*
X56843895Y-27217381D01*
X57796276Y-28217381D02*
X57796276Y-27693572D01*
X57748657Y-27598334D01*
X57653419Y-27550715D01*
X57462942Y-27550715D01*
X57367704Y-27598334D01*
X57796276Y-28169762D02*
X57701038Y-28217381D01*
X57462942Y-28217381D01*
X57367704Y-28169762D01*
X57320085Y-28074524D01*
X57320085Y-27979286D01*
X57367704Y-27884048D01*
X57462942Y-27836429D01*
X57701038Y-27836429D01*
X57796276Y-27788810D01*
X58701038Y-28169762D02*
X58605800Y-28217381D01*
X58415323Y-28217381D01*
X58320085Y-28169762D01*
X58272466Y-28122143D01*
X58224847Y-28026905D01*
X58224847Y-27741191D01*
X58272466Y-27645953D01*
X58320085Y-27598334D01*
X58415323Y-27550715D01*
X58605800Y-27550715D01*
X58701038Y-27598334D01*
X59129609Y-28217381D02*
X59129609Y-27217381D01*
X59224847Y-27836429D02*
X59510561Y-28217381D01*
X59510561Y-27550715D02*
X59129609Y-27931667D01*
X59939133Y-27550715D02*
X59939133Y-28550715D01*
X59939133Y-27598334D02*
X60034371Y-27550715D01*
X60224847Y-27550715D01*
X60320085Y-27598334D01*
X60367704Y-27645953D01*
X60415323Y-27741191D01*
X60415323Y-28026905D01*
X60367704Y-28122143D01*
X60320085Y-28169762D01*
X60224847Y-28217381D01*
X60034371Y-28217381D01*
X59939133Y-28169762D01*
X60843895Y-28217381D02*
X60843895Y-27550715D01*
X60843895Y-27217381D02*
X60796276Y-27265001D01*
X60843895Y-27312620D01*
X60891514Y-27265001D01*
X60843895Y-27217381D01*
X60843895Y-27312620D01*
X61462942Y-28217381D02*
X61367704Y-28169762D01*
X61320085Y-28074524D01*
X61320085Y-27217381D01*
X61986752Y-28217381D02*
X61891514Y-28169762D01*
X61843895Y-28074524D01*
X61843895Y-27217381D01*
X62415323Y-28169762D02*
X62415323Y-28217381D01*
X62367704Y-28312620D01*
X62320085Y-28360239D01*
X57343895Y-29779762D02*
X57248657Y-29827381D01*
X57058180Y-29827381D01*
X56962942Y-29779762D01*
X56915323Y-29732143D01*
X56867704Y-29636905D01*
X56867704Y-29351191D01*
X56915323Y-29255953D01*
X56962942Y-29208334D01*
X57058180Y-29160715D01*
X57248657Y-29160715D01*
X57343895Y-29208334D01*
X58201038Y-29827381D02*
X58201038Y-29303572D01*
X58153419Y-29208334D01*
X58058180Y-29160715D01*
X57867704Y-29160715D01*
X57772466Y-29208334D01*
X58201038Y-29779762D02*
X58105800Y-29827381D01*
X57867704Y-29827381D01*
X57772466Y-29779762D01*
X57724847Y-29684524D01*
X57724847Y-29589286D01*
X57772466Y-29494048D01*
X57867704Y-29446429D01*
X58105800Y-29446429D01*
X58201038Y-29398810D01*
X58677228Y-29827381D02*
X58677228Y-28827381D01*
X58677228Y-29208334D02*
X58772466Y-29160715D01*
X58962942Y-29160715D01*
X59058180Y-29208334D01*
X59105800Y-29255953D01*
X59153419Y-29351191D01*
X59153419Y-29636905D01*
X59105800Y-29732143D01*
X59058180Y-29779762D01*
X58962942Y-29827381D01*
X58772466Y-29827381D01*
X58677228Y-29779762D01*
X59724847Y-29827381D02*
X59629609Y-29779762D01*
X59581990Y-29684524D01*
X59581990Y-28827381D01*
X60486752Y-29779762D02*
X60391514Y-29827381D01*
X60201038Y-29827381D01*
X60105800Y-29779762D01*
X60058180Y-29684524D01*
X60058180Y-29303572D01*
X60105800Y-29208334D01*
X60201038Y-29160715D01*
X60391514Y-29160715D01*
X60486752Y-29208334D01*
X60534371Y-29303572D01*
X60534371Y-29398810D01*
X60058180Y-29494048D01*
X60915323Y-29779762D02*
X61010561Y-29827381D01*
X61201038Y-29827381D01*
X61296276Y-29779762D01*
X61343895Y-29684524D01*
X61343895Y-29636905D01*
X61296276Y-29541667D01*
X61201038Y-29494048D01*
X61058180Y-29494048D01*
X60962942Y-29446429D01*
X60915323Y-29351191D01*
X60915323Y-29303572D01*
X60962942Y-29208334D01*
X61058180Y-29160715D01*
X61201038Y-29160715D01*
X61296276Y-29208334D01*
X56510561Y-31437381D02*
X56510561Y-30913572D01*
X56462942Y-30818334D01*
X56367704Y-30770715D01*
X56177228Y-30770715D01*
X56081990Y-30818334D01*
X56510561Y-31389762D02*
X56415323Y-31437381D01*
X56177228Y-31437381D01*
X56081990Y-31389762D01*
X56034371Y-31294524D01*
X56034371Y-31199286D01*
X56081990Y-31104048D01*
X56177228Y-31056429D01*
X56415323Y-31056429D01*
X56510561Y-31008810D01*
X56986752Y-30770715D02*
X56986752Y-31437381D01*
X56986752Y-30865953D02*
X57034371Y-30818334D01*
X57129609Y-30770715D01*
X57272466Y-30770715D01*
X57367704Y-30818334D01*
X57415323Y-30913572D01*
X57415323Y-31437381D01*
X58320085Y-31437381D02*
X58320085Y-30437381D01*
X58320085Y-31389762D02*
X58224847Y-31437381D01*
X58034371Y-31437381D01*
X57939133Y-31389762D01*
X57891514Y-31342143D01*
X57843895Y-31246905D01*
X57843895Y-30961191D01*
X57891514Y-30865953D01*
X57939133Y-30818334D01*
X58034371Y-30770715D01*
X58224847Y-30770715D01*
X58320085Y-30818334D01*
X59558180Y-30770715D02*
X59558180Y-31627858D01*
X59510561Y-31723096D01*
X59415323Y-31770715D01*
X59367704Y-31770715D01*
X59558180Y-30437381D02*
X59510561Y-30485001D01*
X59558180Y-30532620D01*
X59605800Y-30485001D01*
X59558180Y-30437381D01*
X59558180Y-30532620D01*
X60462942Y-31437381D02*
X60462942Y-30913572D01*
X60415323Y-30818334D01*
X60320085Y-30770715D01*
X60129609Y-30770715D01*
X60034371Y-30818334D01*
X60462942Y-31389762D02*
X60367704Y-31437381D01*
X60129609Y-31437381D01*
X60034371Y-31389762D01*
X59986752Y-31294524D01*
X59986752Y-31199286D01*
X60034371Y-31104048D01*
X60129609Y-31056429D01*
X60367704Y-31056429D01*
X60462942Y-31008810D01*
X61367704Y-31389762D02*
X61272466Y-31437381D01*
X61081990Y-31437381D01*
X60986752Y-31389762D01*
X60939133Y-31342143D01*
X60891514Y-31246905D01*
X60891514Y-30961191D01*
X60939133Y-30865953D01*
X60986752Y-30818334D01*
X61081990Y-30770715D01*
X61272466Y-30770715D01*
X61367704Y-30818334D01*
X61796276Y-31437381D02*
X61796276Y-30437381D01*
X61891514Y-31056429D02*
X62177228Y-31437381D01*
X62177228Y-30770715D02*
X61796276Y-31151667D01*
X56820085Y-33047381D02*
X56724847Y-32999762D01*
X56677228Y-32952143D01*
X56629609Y-32856905D01*
X56629609Y-32571191D01*
X56677228Y-32475953D01*
X56724847Y-32428334D01*
X56820085Y-32380715D01*
X56962942Y-32380715D01*
X57058180Y-32428334D01*
X57105800Y-32475953D01*
X57153419Y-32571191D01*
X57153419Y-32856905D01*
X57105800Y-32952143D01*
X57058180Y-32999762D01*
X56962942Y-33047381D01*
X56820085Y-33047381D01*
X57581990Y-32380715D02*
X57581990Y-33047381D01*
X57581990Y-32475953D02*
X57629609Y-32428334D01*
X57724847Y-32380715D01*
X57867704Y-32380715D01*
X57962942Y-32428334D01*
X58010561Y-32523572D01*
X58010561Y-33047381D01*
X59105800Y-32380715D02*
X59486752Y-32380715D01*
X59248657Y-32047381D02*
X59248657Y-32904524D01*
X59296276Y-32999762D01*
X59391514Y-33047381D01*
X59486752Y-33047381D01*
X59820085Y-33047381D02*
X59820085Y-32047381D01*
X60248657Y-33047381D02*
X60248657Y-32523572D01*
X60201038Y-32428334D01*
X60105800Y-32380715D01*
X59962942Y-32380715D01*
X59867704Y-32428334D01*
X59820085Y-32475953D01*
X60724847Y-33047381D02*
X60724847Y-32380715D01*
X60724847Y-32047381D02*
X60677228Y-32095001D01*
X60724847Y-32142620D01*
X60772466Y-32095001D01*
X60724847Y-32047381D01*
X60724847Y-32142620D01*
X61153419Y-32999762D02*
X61248657Y-33047381D01*
X61439133Y-33047381D01*
X61534371Y-32999762D01*
X61581990Y-32904524D01*
X61581990Y-32856905D01*
X61534371Y-32761667D01*
X61439133Y-32714048D01*
X61296276Y-32714048D01*
X61201038Y-32666429D01*
X61153419Y-32571191D01*
X61153419Y-32523572D01*
X61201038Y-32428334D01*
X61296276Y-32380715D01*
X61439133Y-32380715D01*
X61534371Y-32428334D01*
X57772466Y-34609762D02*
X57867704Y-34657381D01*
X58058180Y-34657381D01*
X58153419Y-34609762D01*
X58201038Y-34514524D01*
X58201038Y-34466905D01*
X58153419Y-34371667D01*
X58058180Y-34324048D01*
X57915323Y-34324048D01*
X57820085Y-34276429D01*
X57772466Y-34181191D01*
X57772466Y-34133572D01*
X57820085Y-34038334D01*
X57915323Y-33990715D01*
X58058180Y-33990715D01*
X58153419Y-34038334D01*
X58629609Y-34657381D02*
X58629609Y-33990715D01*
X58629609Y-33657381D02*
X58581990Y-33705001D01*
X58629609Y-33752620D01*
X58677228Y-33705001D01*
X58629609Y-33657381D01*
X58629609Y-33752620D01*
X59534371Y-34657381D02*
X59534371Y-33657381D01*
X59534371Y-34609762D02*
X59439133Y-34657381D01*
X59248657Y-34657381D01*
X59153419Y-34609762D01*
X59105800Y-34562143D01*
X59058180Y-34466905D01*
X59058180Y-34181191D01*
X59105800Y-34085953D01*
X59153419Y-34038334D01*
X59248657Y-33990715D01*
X59439133Y-33990715D01*
X59534371Y-34038334D01*
X60391514Y-34609762D02*
X60296276Y-34657381D01*
X60105800Y-34657381D01*
X60010561Y-34609762D01*
X59962942Y-34514524D01*
X59962942Y-34133572D01*
X60010561Y-34038334D01*
X60105800Y-33990715D01*
X60296276Y-33990715D01*
X60391514Y-34038334D01*
X60439133Y-34133572D01*
X60439133Y-34228810D01*
X59962942Y-34324048D01*
X137369349Y-78985511D02*
X137369349Y-79039386D01*
X137315474Y-79147135D01*
X137261600Y-79201010D01*
X137153850Y-79254885D01*
X137046100Y-79254885D01*
X136965288Y-79227948D01*
X136830601Y-79147135D01*
X136749789Y-79066323D01*
X136668977Y-78931636D01*
X136642039Y-78850824D01*
X136642039Y-78743074D01*
X136695914Y-78635325D01*
X136749789Y-78581450D01*
X136857538Y-78527575D01*
X136911413Y-78527575D01*
X137530974Y-78177389D02*
X137908097Y-78554512D01*
X137180787Y-78096577D02*
X137450161Y-78635325D01*
X137800348Y-78285138D01*
D12*
X119519047Y-46642857D02*
X119633333Y-46680952D01*
X119671428Y-46719047D01*
X119709523Y-46795238D01*
X119709523Y-46909523D01*
X119671428Y-46985714D01*
X119633333Y-47023809D01*
X119557142Y-47061904D01*
X119252380Y-47061904D01*
X119252380Y-46261904D01*
X119519047Y-46261904D01*
X119595238Y-46300000D01*
X119633333Y-46338095D01*
X119671428Y-46414285D01*
X119671428Y-46490476D01*
X119633333Y-46566666D01*
X119595238Y-46604761D01*
X119519047Y-46642857D01*
X119252380Y-46642857D01*
X120014285Y-46833333D02*
X120395238Y-46833333D01*
X119938095Y-47061904D02*
X120204761Y-46261904D01*
X120471428Y-47061904D01*
X120700000Y-47023809D02*
X120814285Y-47061904D01*
X121004761Y-47061904D01*
X121080952Y-47023809D01*
X121119047Y-46985714D01*
X121157142Y-46909523D01*
X121157142Y-46833333D01*
X121119047Y-46757142D01*
X121080952Y-46719047D01*
X121004761Y-46680952D01*
X120852380Y-46642857D01*
X120776190Y-46604761D01*
X120738095Y-46566666D01*
X120700000Y-46490476D01*
X120700000Y-46414285D01*
X120738095Y-46338095D01*
X120776190Y-46300000D01*
X120852380Y-46261904D01*
X121042857Y-46261904D01*
X121157142Y-46300000D01*
X121385714Y-46261904D02*
X121842857Y-46261904D01*
X121614285Y-47061904D02*
X121614285Y-46261904D01*
X122071428Y-46833333D02*
X122452380Y-46833333D01*
X121995238Y-47061904D02*
X122261904Y-46261904D01*
X122528571Y-47061904D01*
X123252380Y-47061904D02*
X122985714Y-46680952D01*
X122795238Y-47061904D02*
X122795238Y-46261904D01*
X123100000Y-46261904D01*
X123176190Y-46300000D01*
X123214285Y-46338095D01*
X123252380Y-46414285D01*
X123252380Y-46528571D01*
X123214285Y-46604761D01*
X123176190Y-46642857D01*
X123100000Y-46680952D01*
X122795238Y-46680952D01*
X123595238Y-47061904D02*
X123595238Y-46261904D01*
X123785714Y-46261904D01*
X123900000Y-46300000D01*
X123976190Y-46376190D01*
X124014285Y-46452380D01*
X124052380Y-46604761D01*
X124052380Y-46719047D01*
X124014285Y-46871428D01*
X123976190Y-46947619D01*
X123900000Y-47023809D01*
X123785714Y-47061904D01*
X123595238Y-47061904D01*
X124395238Y-47061904D02*
X124395238Y-46261904D01*
X124852380Y-47061904D02*
X124509523Y-46604761D01*
X124852380Y-46261904D02*
X124395238Y-46719047D01*
X125461904Y-46642857D02*
X125576190Y-46680952D01*
X125614285Y-46719047D01*
X125652380Y-46795238D01*
X125652380Y-46909523D01*
X125614285Y-46985714D01*
X125576190Y-47023809D01*
X125500000Y-47061904D01*
X125195238Y-47061904D01*
X125195238Y-46261904D01*
X125461904Y-46261904D01*
X125538095Y-46300000D01*
X125576190Y-46338095D01*
X125614285Y-46414285D01*
X125614285Y-46490476D01*
X125576190Y-46566666D01*
X125538095Y-46604761D01*
X125461904Y-46642857D01*
X125195238Y-46642857D01*
X125995238Y-46985714D02*
X126033333Y-47023809D01*
X125995238Y-47061904D01*
X125957142Y-47023809D01*
X125995238Y-46985714D01*
X125995238Y-47061904D01*
X126833333Y-46985714D02*
X126795238Y-47023809D01*
X126680952Y-47061904D01*
X126604761Y-47061904D01*
X126490476Y-47023809D01*
X126414285Y-46947619D01*
X126376190Y-46871428D01*
X126338095Y-46719047D01*
X126338095Y-46604761D01*
X126376190Y-46452380D01*
X126414285Y-46376190D01*
X126490476Y-46300000D01*
X126604761Y-46261904D01*
X126680952Y-46261904D01*
X126795238Y-46300000D01*
X126833333Y-46338095D01*
X127328571Y-46261904D02*
X127480952Y-46261904D01*
X127557142Y-46300000D01*
X127633333Y-46376190D01*
X127671428Y-46528571D01*
X127671428Y-46795238D01*
X127633333Y-46947619D01*
X127557142Y-47023809D01*
X127480952Y-47061904D01*
X127328571Y-47061904D01*
X127252380Y-47023809D01*
X127176190Y-46947619D01*
X127138095Y-46795238D01*
X127138095Y-46528571D01*
X127176190Y-46376190D01*
X127252380Y-46300000D01*
X127328571Y-46261904D01*
X128014285Y-47061904D02*
X128014285Y-46261904D01*
X128280952Y-46833333D01*
X128547619Y-46261904D01*
X128547619Y-47061904D01*
D11*
X158786751Y-45107259D02*
X158221065Y-44541574D01*
X158355752Y-44406887D01*
X158463502Y-44353012D01*
X158571251Y-44353012D01*
X158652064Y-44379949D01*
X158786751Y-44460761D01*
X158867563Y-44541574D01*
X158948375Y-44676261D01*
X158975312Y-44757073D01*
X158975312Y-44864822D01*
X158921438Y-44972572D01*
X158786751Y-45107259D01*
X159352436Y-44541574D02*
X158786751Y-43975888D01*
X159621810Y-44272200D02*
X159056125Y-43706514D01*
X159945059Y-43948951D01*
X159379374Y-43383265D01*
X157001904Y-83011904D02*
X157001904Y-82554761D01*
X157801904Y-82783333D02*
X157001904Y-82783333D01*
X157801904Y-81830952D02*
X157420952Y-82097619D01*
X157801904Y-82288095D02*
X157001904Y-82288095D01*
X157001904Y-81983333D01*
X157040000Y-81907142D01*
X157078095Y-81869047D01*
X157154285Y-81830952D01*
X157268571Y-81830952D01*
X157344761Y-81869047D01*
X157382857Y-81907142D01*
X157420952Y-81983333D01*
X157420952Y-82288095D01*
X157573333Y-81526190D02*
X157573333Y-81145238D01*
X157801904Y-81602380D02*
X157001904Y-81335714D01*
X157801904Y-81069047D01*
X157725714Y-80345238D02*
X157763809Y-80383333D01*
X157801904Y-80497619D01*
X157801904Y-80573809D01*
X157763809Y-80688095D01*
X157687619Y-80764285D01*
X157611428Y-80802380D01*
X157459047Y-80840476D01*
X157344761Y-80840476D01*
X157192380Y-80802380D01*
X157116190Y-80764285D01*
X157040000Y-80688095D01*
X157001904Y-80573809D01*
X157001904Y-80497619D01*
X157040000Y-80383333D01*
X157078095Y-80345238D01*
X157801904Y-80002380D02*
X157001904Y-80002380D01*
X157801904Y-79545238D02*
X157344761Y-79888095D01*
X157001904Y-79545238D02*
X157459047Y-80002380D01*
X157382857Y-78935714D02*
X157420952Y-78821428D01*
X157459047Y-78783333D01*
X157535238Y-78745238D01*
X157649523Y-78745238D01*
X157725714Y-78783333D01*
X157763809Y-78821428D01*
X157801904Y-78897619D01*
X157801904Y-79202380D01*
X157001904Y-79202380D01*
X157001904Y-78935714D01*
X157040000Y-78859523D01*
X157078095Y-78821428D01*
X157154285Y-78783333D01*
X157230476Y-78783333D01*
X157306666Y-78821428D01*
X157344761Y-78859523D01*
X157382857Y-78935714D01*
X157382857Y-79202380D01*
X157573333Y-78440476D02*
X157573333Y-78059523D01*
X157801904Y-78516666D02*
X157001904Y-78250000D01*
X157801904Y-77983333D01*
X157801904Y-77335714D02*
X157801904Y-77716666D01*
X157001904Y-77716666D01*
X157801904Y-76688095D02*
X157801904Y-77069047D01*
X157001904Y-77069047D01*
X86103381Y-25280000D02*
X86027190Y-25241904D01*
X85912905Y-25241904D01*
X85798619Y-25280000D01*
X85722428Y-25356190D01*
X85684333Y-25432380D01*
X85646238Y-25584761D01*
X85646238Y-25699047D01*
X85684333Y-25851428D01*
X85722428Y-25927619D01*
X85798619Y-26003809D01*
X85912905Y-26041904D01*
X85989095Y-26041904D01*
X86103381Y-26003809D01*
X86141476Y-25965714D01*
X86141476Y-25699047D01*
X85989095Y-25699047D01*
X86484333Y-26041904D02*
X86484333Y-25241904D01*
X86941476Y-26041904D01*
X86941476Y-25241904D01*
X87322428Y-26041904D02*
X87322428Y-25241904D01*
X87512905Y-25241904D01*
X87627190Y-25280000D01*
X87703381Y-25356190D01*
X87741476Y-25432380D01*
X87779571Y-25584761D01*
X87779571Y-25699047D01*
X87741476Y-25851428D01*
X87703381Y-25927619D01*
X87627190Y-26003809D01*
X87512905Y-26041904D01*
X87322428Y-26041904D01*
X170347000Y-26457368D02*
X170347000Y-25457368D01*
X170823190Y-25790702D02*
X170823190Y-26457368D01*
X170823190Y-25885940D02*
X170870809Y-25838321D01*
X170966047Y-25790702D01*
X171108904Y-25790702D01*
X171204142Y-25838321D01*
X171251761Y-25933559D01*
X171251761Y-26457368D01*
X171680333Y-26409749D02*
X171775571Y-26457368D01*
X171966047Y-26457368D01*
X172061285Y-26409749D01*
X172108904Y-26314511D01*
X172108904Y-26266892D01*
X172061285Y-26171654D01*
X171966047Y-26124035D01*
X171823190Y-26124035D01*
X171727952Y-26076416D01*
X171680333Y-25981178D01*
X171680333Y-25933559D01*
X171727952Y-25838321D01*
X171823190Y-25790702D01*
X171966047Y-25790702D01*
X172061285Y-25838321D01*
X172394619Y-25790702D02*
X172775571Y-25790702D01*
X172537476Y-25457368D02*
X172537476Y-26314511D01*
X172585095Y-26409749D01*
X172680333Y-26457368D01*
X172775571Y-26457368D01*
X173537476Y-26457368D02*
X173537476Y-25933559D01*
X173489857Y-25838321D01*
X173394619Y-25790702D01*
X173204142Y-25790702D01*
X173108904Y-25838321D01*
X173537476Y-26409749D02*
X173442238Y-26457368D01*
X173204142Y-26457368D01*
X173108904Y-26409749D01*
X173061285Y-26314511D01*
X173061285Y-26219273D01*
X173108904Y-26124035D01*
X173204142Y-26076416D01*
X173442238Y-26076416D01*
X173537476Y-26028797D01*
X174156523Y-26457368D02*
X174061285Y-26409749D01*
X174013666Y-26314511D01*
X174013666Y-25457368D01*
X174680333Y-26457368D02*
X174585095Y-26409749D01*
X174537476Y-26314511D01*
X174537476Y-25457368D01*
X169918428Y-27543559D02*
X170061285Y-27591178D01*
X170108904Y-27638797D01*
X170156523Y-27734035D01*
X170156523Y-27876892D01*
X170108904Y-27972130D01*
X170061285Y-28019749D01*
X169966047Y-28067368D01*
X169585095Y-28067368D01*
X169585095Y-27067368D01*
X169918428Y-27067368D01*
X170013666Y-27114988D01*
X170061285Y-27162607D01*
X170108904Y-27257845D01*
X170108904Y-27353083D01*
X170061285Y-27448321D01*
X170013666Y-27495940D01*
X169918428Y-27543559D01*
X169585095Y-27543559D01*
X170727952Y-28067368D02*
X170632714Y-28019749D01*
X170585095Y-27924511D01*
X170585095Y-27067368D01*
X171537476Y-28067368D02*
X171537476Y-27543559D01*
X171489857Y-27448321D01*
X171394619Y-27400702D01*
X171204142Y-27400702D01*
X171108904Y-27448321D01*
X171537476Y-28019749D02*
X171442238Y-28067368D01*
X171204142Y-28067368D01*
X171108904Y-28019749D01*
X171061285Y-27924511D01*
X171061285Y-27829273D01*
X171108904Y-27734035D01*
X171204142Y-27686416D01*
X171442238Y-27686416D01*
X171537476Y-27638797D01*
X172442238Y-28019749D02*
X172347000Y-28067368D01*
X172156523Y-28067368D01*
X172061285Y-28019749D01*
X172013666Y-27972130D01*
X171966047Y-27876892D01*
X171966047Y-27591178D01*
X172013666Y-27495940D01*
X172061285Y-27448321D01*
X172156523Y-27400702D01*
X172347000Y-27400702D01*
X172442238Y-27448321D01*
X172870809Y-28067368D02*
X172870809Y-27067368D01*
X172966047Y-27686416D02*
X173251761Y-28067368D01*
X173251761Y-27400702D02*
X172870809Y-27781654D01*
X173680333Y-27400702D02*
X173680333Y-28400702D01*
X173680333Y-27448321D02*
X173775571Y-27400702D01*
X173966047Y-27400702D01*
X174061285Y-27448321D01*
X174108904Y-27495940D01*
X174156523Y-27591178D01*
X174156523Y-27876892D01*
X174108904Y-27972130D01*
X174061285Y-28019749D01*
X173966047Y-28067368D01*
X173775571Y-28067368D01*
X173680333Y-28019749D01*
X174585095Y-28067368D02*
X174585095Y-27400702D01*
X174585095Y-27067368D02*
X174537476Y-27114988D01*
X174585095Y-27162607D01*
X174632714Y-27114988D01*
X174585095Y-27067368D01*
X174585095Y-27162607D01*
X175204142Y-28067368D02*
X175108904Y-28019749D01*
X175061285Y-27924511D01*
X175061285Y-27067368D01*
X175727952Y-28067368D02*
X175632714Y-28019749D01*
X175585095Y-27924511D01*
X175585095Y-27067368D01*
X176156523Y-28019749D02*
X176156523Y-28067368D01*
X176108904Y-28162607D01*
X176061285Y-28210226D01*
X171085095Y-29629749D02*
X170989857Y-29677368D01*
X170799380Y-29677368D01*
X170704142Y-29629749D01*
X170656523Y-29582130D01*
X170608904Y-29486892D01*
X170608904Y-29201178D01*
X170656523Y-29105940D01*
X170704142Y-29058321D01*
X170799380Y-29010702D01*
X170989857Y-29010702D01*
X171085095Y-29058321D01*
X171942238Y-29677368D02*
X171942238Y-29153559D01*
X171894619Y-29058321D01*
X171799380Y-29010702D01*
X171608904Y-29010702D01*
X171513666Y-29058321D01*
X171942238Y-29629749D02*
X171847000Y-29677368D01*
X171608904Y-29677368D01*
X171513666Y-29629749D01*
X171466047Y-29534511D01*
X171466047Y-29439273D01*
X171513666Y-29344035D01*
X171608904Y-29296416D01*
X171847000Y-29296416D01*
X171942238Y-29248797D01*
X172418428Y-29677368D02*
X172418428Y-28677368D01*
X172418428Y-29058321D02*
X172513666Y-29010702D01*
X172704142Y-29010702D01*
X172799380Y-29058321D01*
X172847000Y-29105940D01*
X172894619Y-29201178D01*
X172894619Y-29486892D01*
X172847000Y-29582130D01*
X172799380Y-29629749D01*
X172704142Y-29677368D01*
X172513666Y-29677368D01*
X172418428Y-29629749D01*
X173466047Y-29677368D02*
X173370809Y-29629749D01*
X173323190Y-29534511D01*
X173323190Y-28677368D01*
X174227952Y-29629749D02*
X174132714Y-29677368D01*
X173942238Y-29677368D01*
X173847000Y-29629749D01*
X173799380Y-29534511D01*
X173799380Y-29153559D01*
X173847000Y-29058321D01*
X173942238Y-29010702D01*
X174132714Y-29010702D01*
X174227952Y-29058321D01*
X174275571Y-29153559D01*
X174275571Y-29248797D01*
X173799380Y-29344035D01*
X174656523Y-29629749D02*
X174751761Y-29677368D01*
X174942238Y-29677368D01*
X175037476Y-29629749D01*
X175085095Y-29534511D01*
X175085095Y-29486892D01*
X175037476Y-29391654D01*
X174942238Y-29344035D01*
X174799380Y-29344035D01*
X174704142Y-29296416D01*
X174656523Y-29201178D01*
X174656523Y-29153559D01*
X174704142Y-29058321D01*
X174799380Y-29010702D01*
X174942238Y-29010702D01*
X175037476Y-29058321D01*
X170251761Y-31287368D02*
X170251761Y-30763559D01*
X170204142Y-30668321D01*
X170108904Y-30620702D01*
X169918428Y-30620702D01*
X169823190Y-30668321D01*
X170251761Y-31239749D02*
X170156523Y-31287368D01*
X169918428Y-31287368D01*
X169823190Y-31239749D01*
X169775571Y-31144511D01*
X169775571Y-31049273D01*
X169823190Y-30954035D01*
X169918428Y-30906416D01*
X170156523Y-30906416D01*
X170251761Y-30858797D01*
X170727952Y-30620702D02*
X170727952Y-31287368D01*
X170727952Y-30715940D02*
X170775571Y-30668321D01*
X170870809Y-30620702D01*
X171013666Y-30620702D01*
X171108904Y-30668321D01*
X171156523Y-30763559D01*
X171156523Y-31287368D01*
X172061285Y-31287368D02*
X172061285Y-30287368D01*
X172061285Y-31239749D02*
X171966047Y-31287368D01*
X171775571Y-31287368D01*
X171680333Y-31239749D01*
X171632714Y-31192130D01*
X171585095Y-31096892D01*
X171585095Y-30811178D01*
X171632714Y-30715940D01*
X171680333Y-30668321D01*
X171775571Y-30620702D01*
X171966047Y-30620702D01*
X172061285Y-30668321D01*
X173299380Y-30620702D02*
X173299380Y-31477845D01*
X173251761Y-31573083D01*
X173156523Y-31620702D01*
X173108904Y-31620702D01*
X173299380Y-30287368D02*
X173251761Y-30334988D01*
X173299380Y-30382607D01*
X173347000Y-30334988D01*
X173299380Y-30287368D01*
X173299380Y-30382607D01*
X174204142Y-31287368D02*
X174204142Y-30763559D01*
X174156523Y-30668321D01*
X174061285Y-30620702D01*
X173870809Y-30620702D01*
X173775571Y-30668321D01*
X174204142Y-31239749D02*
X174108904Y-31287368D01*
X173870809Y-31287368D01*
X173775571Y-31239749D01*
X173727952Y-31144511D01*
X173727952Y-31049273D01*
X173775571Y-30954035D01*
X173870809Y-30906416D01*
X174108904Y-30906416D01*
X174204142Y-30858797D01*
X175108904Y-31239749D02*
X175013666Y-31287368D01*
X174823190Y-31287368D01*
X174727952Y-31239749D01*
X174680333Y-31192130D01*
X174632714Y-31096892D01*
X174632714Y-30811178D01*
X174680333Y-30715940D01*
X174727952Y-30668321D01*
X174823190Y-30620702D01*
X175013666Y-30620702D01*
X175108904Y-30668321D01*
X175537476Y-31287368D02*
X175537476Y-30287368D01*
X175632714Y-30906416D02*
X175918428Y-31287368D01*
X175918428Y-30620702D02*
X175537476Y-31001654D01*
X170561285Y-32897368D02*
X170466047Y-32849749D01*
X170418428Y-32802130D01*
X170370809Y-32706892D01*
X170370809Y-32421178D01*
X170418428Y-32325940D01*
X170466047Y-32278321D01*
X170561285Y-32230702D01*
X170704142Y-32230702D01*
X170799380Y-32278321D01*
X170847000Y-32325940D01*
X170894619Y-32421178D01*
X170894619Y-32706892D01*
X170847000Y-32802130D01*
X170799380Y-32849749D01*
X170704142Y-32897368D01*
X170561285Y-32897368D01*
X171323190Y-32230702D02*
X171323190Y-32897368D01*
X171323190Y-32325940D02*
X171370809Y-32278321D01*
X171466047Y-32230702D01*
X171608904Y-32230702D01*
X171704142Y-32278321D01*
X171751761Y-32373559D01*
X171751761Y-32897368D01*
X172847000Y-32230702D02*
X173227952Y-32230702D01*
X172989857Y-31897368D02*
X172989857Y-32754511D01*
X173037476Y-32849749D01*
X173132714Y-32897368D01*
X173227952Y-32897368D01*
X173561285Y-32897368D02*
X173561285Y-31897368D01*
X173989857Y-32897368D02*
X173989857Y-32373559D01*
X173942238Y-32278321D01*
X173847000Y-32230702D01*
X173704142Y-32230702D01*
X173608904Y-32278321D01*
X173561285Y-32325940D01*
X174466047Y-32897368D02*
X174466047Y-32230702D01*
X174466047Y-31897368D02*
X174418428Y-31944988D01*
X174466047Y-31992607D01*
X174513666Y-31944988D01*
X174466047Y-31897368D01*
X174466047Y-31992607D01*
X174894619Y-32849749D02*
X174989857Y-32897368D01*
X175180333Y-32897368D01*
X175275571Y-32849749D01*
X175323190Y-32754511D01*
X175323190Y-32706892D01*
X175275571Y-32611654D01*
X175180333Y-32564035D01*
X175037476Y-32564035D01*
X174942238Y-32516416D01*
X174894619Y-32421178D01*
X174894619Y-32373559D01*
X174942238Y-32278321D01*
X175037476Y-32230702D01*
X175180333Y-32230702D01*
X175275571Y-32278321D01*
X171513666Y-34459749D02*
X171608904Y-34507368D01*
X171799380Y-34507368D01*
X171894619Y-34459749D01*
X171942238Y-34364511D01*
X171942238Y-34316892D01*
X171894619Y-34221654D01*
X171799380Y-34174035D01*
X171656523Y-34174035D01*
X171561285Y-34126416D01*
X171513666Y-34031178D01*
X171513666Y-33983559D01*
X171561285Y-33888321D01*
X171656523Y-33840702D01*
X171799380Y-33840702D01*
X171894619Y-33888321D01*
X172370809Y-34507368D02*
X172370809Y-33840702D01*
X172370809Y-33507368D02*
X172323190Y-33554988D01*
X172370809Y-33602607D01*
X172418428Y-33554988D01*
X172370809Y-33507368D01*
X172370809Y-33602607D01*
X173275571Y-34507368D02*
X173275571Y-33507368D01*
X173275571Y-34459749D02*
X173180333Y-34507368D01*
X172989857Y-34507368D01*
X172894619Y-34459749D01*
X172847000Y-34412130D01*
X172799380Y-34316892D01*
X172799380Y-34031178D01*
X172847000Y-33935940D01*
X172894619Y-33888321D01*
X172989857Y-33840702D01*
X173180333Y-33840702D01*
X173275571Y-33888321D01*
X174132714Y-34459749D02*
X174037476Y-34507368D01*
X173847000Y-34507368D01*
X173751761Y-34459749D01*
X173704142Y-34364511D01*
X173704142Y-33983559D01*
X173751761Y-33888321D01*
X173847000Y-33840702D01*
X174037476Y-33840702D01*
X174132714Y-33888321D01*
X174180333Y-33983559D01*
X174180333Y-34078797D01*
X173704142Y-34174035D01*
D14*
%TO.C,J3*%
X160456000Y-37680000D02*
X163086000Y-37680000D01*
X163086000Y-37680000D02*
X163086000Y-45390000D01*
X163086000Y-45390000D02*
X160456000Y-45390000D01*
X160456000Y-45390000D02*
X160456000Y-37680000D01*
%TO.C,J4*%
X85011000Y-37680000D02*
X87641000Y-37680000D01*
X87641000Y-37680000D02*
X87641000Y-45390000D01*
X87641000Y-45390000D02*
X85011000Y-45390000D01*
X85011000Y-45390000D02*
X85011000Y-37680000D01*
%TO.C,J9*%
X145950000Y-72182200D02*
X148560000Y-72182200D01*
X148560000Y-72182200D02*
X148560000Y-84942200D01*
X148560000Y-84942200D02*
X145950000Y-84942200D01*
X145950000Y-84942200D02*
X145950000Y-72182200D01*
%TO.C,J6*%
X99870000Y-72200000D02*
X102480000Y-72200000D01*
X102480000Y-72200000D02*
X102480000Y-84960000D01*
X102480000Y-84960000D02*
X99870000Y-84960000D01*
X99870000Y-84960000D02*
X99870000Y-72200000D01*
%TO.C,J5*%
X153550000Y-72190000D02*
X156150000Y-72190000D01*
X156150000Y-72190000D02*
X156150000Y-87500000D01*
X156150000Y-87500000D02*
X153550000Y-87500000D01*
X153550000Y-87500000D02*
X153550000Y-72190000D01*
%TO.C,J7*%
X92230000Y-72190000D02*
X94830000Y-72190000D01*
X94830000Y-72190000D02*
X94830000Y-87500000D01*
X94830000Y-87500000D02*
X92230000Y-87500000D01*
X92230000Y-87500000D02*
X92230000Y-72190000D01*
%TO.C,J8*%
X107470000Y-72190000D02*
X110070000Y-72190000D01*
X110070000Y-72190000D02*
X110070000Y-87500000D01*
X110070000Y-87500000D02*
X107470000Y-87500000D01*
X107470000Y-87500000D02*
X107470000Y-72190000D01*
%TO.C,J10*%
X138310000Y-72172200D02*
X140910000Y-72172200D01*
X140910000Y-72172200D02*
X140910000Y-87482200D01*
X140910000Y-87482200D02*
X138310000Y-87482200D01*
X138310000Y-87482200D02*
X138310000Y-72172200D01*
%TO.C,G\u002A\u002A\u002A*%
G36*
X124558471Y-55636567D02*
G01*
X124786153Y-55678772D01*
X125025525Y-55752826D01*
X125246364Y-55841923D01*
X125368483Y-55894671D01*
X125480123Y-55941691D01*
X125564498Y-55975962D01*
X125591551Y-55986244D01*
X125654131Y-56009952D01*
X125686970Y-56024649D01*
X125687375Y-56024949D01*
X125675583Y-56050224D01*
X125636921Y-56115410D01*
X125576362Y-56212502D01*
X125498878Y-56333497D01*
X125431368Y-56437066D01*
X125165832Y-56841529D01*
X125033505Y-56745175D01*
X124891480Y-56647760D01*
X124772330Y-56583721D01*
X124657442Y-56546579D01*
X124528201Y-56529855D01*
X124406117Y-56526816D01*
X124199194Y-56540619D01*
X124029837Y-56585358D01*
X123883881Y-56666798D01*
X123747162Y-56790703D01*
X123740867Y-56797514D01*
X123614674Y-56961745D01*
X123517571Y-57150862D01*
X123447744Y-57371325D01*
X123403376Y-57629593D01*
X123382654Y-57932125D01*
X123380559Y-58079875D01*
X123389661Y-58383835D01*
X123418817Y-58641451D01*
X123470413Y-58861127D01*
X123546836Y-59051271D01*
X123650469Y-59220288D01*
X123733170Y-59322371D01*
X123902369Y-59473381D01*
X124092022Y-59572618D01*
X124297140Y-59619912D01*
X124512733Y-59615088D01*
X124733813Y-59557974D01*
X124955390Y-59448398D01*
X125071723Y-59368690D01*
X125161667Y-59304995D01*
X125233107Y-59262320D01*
X125275219Y-59246778D01*
X125281670Y-59250118D01*
X125299405Y-59284868D01*
X125341294Y-59359647D01*
X125401979Y-59465100D01*
X125476101Y-59591871D01*
X125519156Y-59664764D01*
X125596308Y-59797923D01*
X125660269Y-59914080D01*
X125706324Y-60004199D01*
X125729760Y-60059246D01*
X125731275Y-60071340D01*
X125697675Y-60096734D01*
X125623328Y-60139190D01*
X125520263Y-60192862D01*
X125400507Y-60251905D01*
X125276087Y-60310473D01*
X125159032Y-60362720D01*
X125061369Y-60402802D01*
X125016240Y-60418849D01*
X124749203Y-60481979D01*
X124453804Y-60513479D01*
X124150741Y-60511769D01*
X123994423Y-60496900D01*
X123683363Y-60428555D01*
X123390778Y-60308554D01*
X123120665Y-60140921D01*
X122877025Y-59929679D01*
X122663857Y-59678853D01*
X122485159Y-59392467D01*
X122344932Y-59074545D01*
X122249806Y-58741484D01*
X122223710Y-58575820D01*
X122206507Y-58373410D01*
X122198186Y-58150086D01*
X122198736Y-57921675D01*
X122208145Y-57704009D01*
X122226403Y-57512915D01*
X122250779Y-57375119D01*
X122351985Y-57037482D01*
X122484852Y-56741476D01*
X122655427Y-56477217D01*
X122869756Y-56234821D01*
X123045798Y-56075581D01*
X123311191Y-55890575D01*
X123606180Y-55751369D01*
X123921676Y-55661184D01*
X124248590Y-55623238D01*
X124325866Y-55622247D01*
X124558471Y-55636567D01*
G37*
G36*
X127884774Y-61640571D02*
G01*
X127930337Y-61689722D01*
X127985080Y-61781708D01*
X128053584Y-61921763D01*
X128067688Y-61952389D01*
X128124176Y-62072990D01*
X128173599Y-62173203D01*
X128210354Y-62242005D01*
X128228146Y-62268075D01*
X128250516Y-62250981D01*
X128289874Y-62193274D01*
X128338674Y-62106378D01*
X128351402Y-62081554D01*
X128402629Y-61984283D01*
X128446854Y-61908251D01*
X128475896Y-61867349D01*
X128479179Y-61864595D01*
X128530453Y-61858084D01*
X128587754Y-61900973D01*
X128653675Y-61995812D01*
X128700068Y-62081933D01*
X128749864Y-62175662D01*
X128791746Y-62245178D01*
X128818037Y-62277957D01*
X128820848Y-62279002D01*
X128840293Y-62254026D01*
X128876541Y-62186898D01*
X128924042Y-62088475D01*
X128966845Y-61993515D01*
X129041990Y-61830766D01*
X129103638Y-61718739D01*
X129155198Y-61653167D01*
X129200082Y-61629781D01*
X129241699Y-61644313D01*
X129244239Y-61646359D01*
X129281079Y-61695082D01*
X129287927Y-61721721D01*
X129275449Y-61766895D01*
X129240430Y-61855204D01*
X129186493Y-61978543D01*
X129117261Y-62128811D01*
X129036360Y-62297904D01*
X128970372Y-62431866D01*
X128906741Y-62546747D01*
X128852618Y-62608371D01*
X128801597Y-62616466D01*
X128747273Y-62570758D01*
X128683241Y-62470973D01*
X128654819Y-62418417D01*
X128603903Y-62323575D01*
X128562190Y-62249553D01*
X128537658Y-62210444D01*
X128535943Y-62208450D01*
X128515203Y-62223571D01*
X128475077Y-62279264D01*
X128422758Y-62365078D01*
X128398829Y-62407677D01*
X128329513Y-62527094D01*
X128273855Y-62599080D01*
X128225249Y-62622488D01*
X128177089Y-62596174D01*
X128122771Y-62518991D01*
X128055690Y-62389795D01*
X128033829Y-62344371D01*
X127939769Y-62146752D01*
X127868383Y-61994370D01*
X127817464Y-61880591D01*
X127784805Y-61798781D01*
X127768201Y-61742303D01*
X127765444Y-61704524D01*
X127774329Y-61678809D01*
X127792648Y-61658521D01*
X127802854Y-61649832D01*
X127843807Y-61629020D01*
X127884774Y-61640571D01*
G37*
G36*
X130754488Y-61624193D02*
G01*
X130780605Y-61624585D01*
X131287135Y-61632424D01*
X131287135Y-61805017D01*
X130855651Y-61833783D01*
X130841268Y-62222118D01*
X130835017Y-62378242D01*
X130828660Y-62486082D01*
X130820425Y-62554857D01*
X130808537Y-62593792D01*
X130791224Y-62612106D01*
X130766710Y-62619022D01*
X130764877Y-62619289D01*
X130706164Y-62612132D01*
X130681257Y-62593157D01*
X130672812Y-62552295D01*
X130665463Y-62466196D01*
X130659964Y-62347155D01*
X130657064Y-62207466D01*
X130656969Y-62195986D01*
X130654292Y-61833783D01*
X130447290Y-61825362D01*
X130337196Y-61818753D01*
X130271505Y-61807478D01*
X130237096Y-61787686D01*
X130221980Y-61759259D01*
X130211585Y-61711349D01*
X130219281Y-61675564D01*
X130251507Y-61650353D01*
X130314701Y-61634162D01*
X130415304Y-61625440D01*
X130559753Y-61622635D01*
X130754488Y-61624193D01*
G37*
G36*
X122213393Y-61636516D02*
G01*
X122275168Y-61686568D01*
X122364468Y-61762080D01*
X122473714Y-61856497D01*
X122595327Y-61963260D01*
X122721726Y-62075814D01*
X122845333Y-62187603D01*
X122857781Y-62198974D01*
X122912870Y-62246018D01*
X122946929Y-62268837D01*
X122950898Y-62269075D01*
X122955308Y-62238879D01*
X122960846Y-62163898D01*
X122966671Y-62056844D01*
X122970151Y-61977657D01*
X122977614Y-61839945D01*
X122988210Y-61748645D01*
X123004082Y-61692647D01*
X123027377Y-61660838D01*
X123032026Y-61657186D01*
X123096624Y-61635879D01*
X123136042Y-61648919D01*
X123156429Y-61664104D01*
X123170618Y-61690184D01*
X123179491Y-61736123D01*
X123183928Y-61810882D01*
X123184808Y-61923428D01*
X123183012Y-62082721D01*
X123182408Y-62121055D01*
X123177859Y-62310692D01*
X123170069Y-62449141D01*
X123157287Y-62542725D01*
X123137762Y-62597766D01*
X123109744Y-62620589D01*
X123071484Y-62617516D01*
X123047597Y-62608076D01*
X123006661Y-62580214D01*
X122932253Y-62521035D01*
X122833380Y-62438017D01*
X122719048Y-62338641D01*
X122660780Y-62286840D01*
X122546388Y-62185133D01*
X122447479Y-62098604D01*
X122371731Y-62033857D01*
X122326819Y-61997498D01*
X122318079Y-61991993D01*
X122311342Y-62018718D01*
X122303954Y-62090777D01*
X122296976Y-62196001D01*
X122293031Y-62279638D01*
X122281795Y-62445828D01*
X122262539Y-62558591D01*
X122233552Y-62621685D01*
X122193121Y-62638868D01*
X122140370Y-62614513D01*
X122119683Y-62594512D01*
X122104920Y-62563543D01*
X122095039Y-62512516D01*
X122088997Y-62432340D01*
X122085752Y-62313924D01*
X122084260Y-62148177D01*
X122084148Y-62124322D01*
X122084263Y-61948113D01*
X122086886Y-61821168D01*
X122092725Y-61735250D01*
X122102490Y-61682122D01*
X122116890Y-61653544D01*
X122125300Y-61646352D01*
X122171705Y-61622424D01*
X122186723Y-61618481D01*
X122213393Y-61636516D01*
G37*
G36*
X117619993Y-61623411D02*
G01*
X117699438Y-61632558D01*
X117749662Y-61647708D01*
X117767316Y-61658212D01*
X117806185Y-61700019D01*
X117797675Y-61745027D01*
X117793029Y-61752992D01*
X117769359Y-61777699D01*
X117726982Y-61794073D01*
X117654579Y-61804230D01*
X117540827Y-61810287D01*
X117476607Y-61812153D01*
X117314437Y-61817199D01*
X117201113Y-61824554D01*
X117127951Y-61836793D01*
X117086267Y-61856494D01*
X117067377Y-61886234D01*
X117062597Y-61928589D01*
X117062559Y-61935010D01*
X117062559Y-62020759D01*
X117272803Y-62020759D01*
X117425524Y-62029339D01*
X117524203Y-62054978D01*
X117568465Y-62097523D01*
X117565683Y-62140543D01*
X117519914Y-62183046D01*
X117420652Y-62209991D01*
X117267003Y-62221590D01*
X117217174Y-62222118D01*
X117062559Y-62222118D01*
X117062559Y-62450524D01*
X117429320Y-62458574D01*
X117796081Y-62466625D01*
X117796081Y-62610453D01*
X117346375Y-62618358D01*
X117173840Y-62620723D01*
X117050354Y-62620331D01*
X116967471Y-62616490D01*
X116916744Y-62608506D01*
X116889729Y-62595689D01*
X116878934Y-62580048D01*
X116872670Y-62535976D01*
X116867376Y-62445846D01*
X116863483Y-62321126D01*
X116861419Y-62173287D01*
X116861200Y-62105715D01*
X116861883Y-61938176D01*
X116864594Y-61819173D01*
X116870327Y-61739721D01*
X116880078Y-61690834D01*
X116894840Y-61663527D01*
X116911540Y-61650852D01*
X116958322Y-61640440D01*
X117049950Y-61631214D01*
X117173742Y-61624101D01*
X117317012Y-61620032D01*
X117335832Y-61619781D01*
X117501924Y-61619431D01*
X117619993Y-61623411D01*
G37*
G36*
X121313463Y-61642884D02*
G01*
X121427727Y-61662440D01*
X121494178Y-61697977D01*
X121516928Y-61750981D01*
X121515777Y-61771006D01*
X121506277Y-61804689D01*
X121480944Y-61822631D01*
X121426241Y-61828645D01*
X121328630Y-61826546D01*
X121319864Y-61826194D01*
X121189360Y-61827466D01*
X121053156Y-61838828D01*
X120976502Y-61850922D01*
X120833746Y-61899779D01*
X120731768Y-61973522D01*
X120672801Y-62063587D01*
X120659077Y-62161408D01*
X120692827Y-62258422D01*
X120776286Y-62346063D01*
X120837601Y-62383820D01*
X120910539Y-62407234D01*
X121013630Y-62423223D01*
X121129587Y-62431232D01*
X121241124Y-62430703D01*
X121330954Y-62421081D01*
X121381789Y-62401811D01*
X121382276Y-62401337D01*
X121405297Y-62350964D01*
X121380121Y-62307583D01*
X121315936Y-62282251D01*
X121281141Y-62279649D01*
X121191274Y-62263521D01*
X121139626Y-62223877D01*
X121129202Y-62173826D01*
X121163008Y-62126476D01*
X121239002Y-62095901D01*
X121348504Y-62081524D01*
X121450380Y-62080746D01*
X121523856Y-62093262D01*
X121538401Y-62100305D01*
X121559980Y-62140605D01*
X121578472Y-62218345D01*
X121591193Y-62313433D01*
X121595459Y-62405778D01*
X121588584Y-62475290D01*
X121588530Y-62475498D01*
X121545420Y-62534176D01*
X121458052Y-62579468D01*
X121338383Y-62610218D01*
X121198371Y-62625270D01*
X121049972Y-62623468D01*
X120905146Y-62603656D01*
X120775848Y-62564678D01*
X120756073Y-62555970D01*
X120619679Y-62471694D01*
X120521974Y-62358483D01*
X120455650Y-62216662D01*
X120434407Y-62139886D01*
X120438762Y-62075925D01*
X120469547Y-61995835D01*
X120556884Y-61851409D01*
X120673678Y-61746583D01*
X120825626Y-61678347D01*
X121018425Y-61643691D01*
X121147270Y-61637821D01*
X121313463Y-61642884D01*
G37*
G36*
X129836102Y-61631184D02*
G01*
X129860281Y-61667282D01*
X129874337Y-61736163D01*
X129879766Y-61844311D01*
X129878067Y-61998207D01*
X129872662Y-62156547D01*
X129864355Y-62341816D01*
X129854943Y-62476112D01*
X129842541Y-62565989D01*
X129825266Y-62618000D01*
X129801231Y-62638697D01*
X129768553Y-62634634D01*
X129739248Y-62620411D01*
X129720993Y-62604035D01*
X129707901Y-62572888D01*
X129699147Y-62518496D01*
X129693904Y-62432385D01*
X129691346Y-62306081D01*
X129690646Y-62131110D01*
X129690645Y-62121947D01*
X129690966Y-61947324D01*
X129692632Y-61821688D01*
X129696702Y-61736496D01*
X129704234Y-61683205D01*
X129716285Y-61653270D01*
X129733914Y-61638149D01*
X129751384Y-61631406D01*
X129800302Y-61621387D01*
X129836102Y-61631184D01*
G37*
G36*
X115297657Y-61936597D02*
G01*
X115299419Y-61812698D01*
X115304851Y-61729329D01*
X115314639Y-61678012D01*
X115329473Y-61650270D01*
X115336625Y-61644112D01*
X115391595Y-61629237D01*
X115488130Y-61623984D01*
X115611279Y-61627203D01*
X115746094Y-61637744D01*
X115877624Y-61654457D01*
X115990920Y-61676192D01*
X116067861Y-61700363D01*
X116198707Y-61782803D01*
X116299247Y-61894879D01*
X116356717Y-62021826D01*
X116360380Y-62038763D01*
X116360957Y-62188341D01*
X116312213Y-62331872D01*
X116222023Y-62457094D01*
X116098260Y-62551748D01*
X116006161Y-62590296D01*
X115917993Y-62608255D01*
X115803790Y-62619899D01*
X115677219Y-62625333D01*
X115551946Y-62624662D01*
X115441639Y-62617989D01*
X115359963Y-62605421D01*
X115320585Y-62587061D01*
X115319548Y-62585040D01*
X115313864Y-62543461D01*
X115308394Y-62455487D01*
X115303621Y-62332254D01*
X115300031Y-62184898D01*
X115298923Y-62112492D01*
X115480453Y-62112492D01*
X115482401Y-62239294D01*
X115487662Y-62344329D01*
X115495364Y-62414501D01*
X115502027Y-62436188D01*
X115544119Y-62447454D01*
X115625270Y-62447556D01*
X115728504Y-62438367D01*
X115836843Y-62421758D01*
X115933314Y-62399604D01*
X115981074Y-62383342D01*
X116066678Y-62328451D01*
X116136336Y-62250050D01*
X116178311Y-62165157D01*
X116181493Y-62092769D01*
X116121501Y-61983569D01*
X116015444Y-61903191D01*
X115861466Y-61850626D01*
X115692843Y-61827159D01*
X115480453Y-61811096D01*
X115480453Y-62112492D01*
X115298923Y-62112492D01*
X115298877Y-62109504D01*
X115297657Y-61936597D01*
G37*
G36*
X115326867Y-54939714D02*
G01*
X115332538Y-54909505D01*
X115336013Y-54902018D01*
X115348107Y-54893685D01*
X115372133Y-54886460D01*
X115411890Y-54880265D01*
X115471177Y-54875024D01*
X115553795Y-54870661D01*
X115663545Y-54867098D01*
X115804225Y-54864259D01*
X115979636Y-54862067D01*
X116193577Y-54860446D01*
X116449850Y-54859318D01*
X116752254Y-54858608D01*
X117104588Y-54858238D01*
X117510644Y-54858131D01*
X119648854Y-54858131D01*
X119668462Y-54750260D01*
X119727966Y-54567155D01*
X119835835Y-54386373D01*
X119960174Y-54244316D01*
X120142265Y-54090954D01*
X120324190Y-53988933D01*
X120518097Y-53933393D01*
X120736132Y-53919477D01*
X120769603Y-53920588D01*
X121024191Y-53958067D01*
X121252932Y-54046233D01*
X121452936Y-54183501D01*
X121621310Y-54368289D01*
X121642918Y-54398919D01*
X121673178Y-54442674D01*
X121700186Y-54482593D01*
X121724116Y-54522026D01*
X121745146Y-54564320D01*
X121763450Y-54612824D01*
X121779206Y-54670886D01*
X121792589Y-54741855D01*
X121803775Y-54829079D01*
X121812939Y-54935907D01*
X121820259Y-55065686D01*
X121825910Y-55221766D01*
X121830067Y-55407494D01*
X121832908Y-55626220D01*
X121834607Y-55881291D01*
X121835341Y-56176055D01*
X121835286Y-56513862D01*
X121834618Y-56898060D01*
X121833512Y-57331997D01*
X121832146Y-57819021D01*
X121831672Y-57990417D01*
X121830177Y-58494371D01*
X121828575Y-58943642D01*
X121826822Y-59341077D01*
X121824878Y-59689525D01*
X121822700Y-59991833D01*
X121820246Y-60250849D01*
X121817475Y-60469422D01*
X121814344Y-60650398D01*
X121810812Y-60796626D01*
X121806838Y-60910955D01*
X121802378Y-60996230D01*
X121797391Y-61055301D01*
X121791836Y-61091016D01*
X121785877Y-61106025D01*
X121770249Y-61112116D01*
X121734318Y-61117569D01*
X121675238Y-61122420D01*
X121590167Y-61126704D01*
X121476260Y-61130460D01*
X121330674Y-61133723D01*
X121150565Y-61136531D01*
X120933090Y-61138919D01*
X120675403Y-61140924D01*
X120374663Y-61142583D01*
X120028024Y-61143933D01*
X119632643Y-61145009D01*
X119185677Y-61145849D01*
X118684281Y-61146489D01*
X118636047Y-61146539D01*
X118215945Y-61146851D01*
X117810849Y-61146937D01*
X117424609Y-61146807D01*
X117061073Y-61146472D01*
X116724093Y-61145943D01*
X116417517Y-61145231D01*
X116145196Y-61144346D01*
X115910979Y-61143299D01*
X115718716Y-61142101D01*
X115572257Y-61140762D01*
X115475452Y-61139293D01*
X115432150Y-61137705D01*
X115431506Y-61137629D01*
X115351879Y-61109704D01*
X115319342Y-61062585D01*
X115316605Y-61025720D01*
X115313982Y-60935183D01*
X115311496Y-60794834D01*
X115309173Y-60608532D01*
X115307038Y-60380135D01*
X115305116Y-60113503D01*
X115303430Y-59812495D01*
X115302008Y-59480971D01*
X115300872Y-59122790D01*
X115300048Y-58741811D01*
X115299561Y-58341893D01*
X115299431Y-57972742D01*
X115299586Y-57470190D01*
X115300018Y-57022373D01*
X115300759Y-56626496D01*
X115301844Y-56279764D01*
X115303305Y-55979383D01*
X115305175Y-55722556D01*
X115305499Y-55692333D01*
X115712196Y-55692333D01*
X115783301Y-55826062D01*
X115854405Y-55959792D01*
X115854405Y-60170012D01*
X115786700Y-60303747D01*
X115751581Y-60382350D01*
X115734825Y-60439123D01*
X115736360Y-60455903D01*
X115770456Y-60461824D01*
X115849513Y-60463716D01*
X115961099Y-60461551D01*
X116070147Y-60456620D01*
X116228255Y-60449589D01*
X116418866Y-60443856D01*
X116616955Y-60440048D01*
X116782680Y-60438783D01*
X117178791Y-60438652D01*
X117123077Y-60329443D01*
X117082487Y-60232682D01*
X117054490Y-60135471D01*
X117051853Y-60120893D01*
X117044062Y-60046179D01*
X117036977Y-59931857D01*
X117030723Y-59786969D01*
X117025427Y-59620558D01*
X117021215Y-59441669D01*
X117018212Y-59259344D01*
X117016545Y-59082627D01*
X117016339Y-58920560D01*
X117017720Y-58782186D01*
X117020815Y-58676550D01*
X117025749Y-58612694D01*
X117030641Y-58597656D01*
X117054849Y-58620162D01*
X117106762Y-58683053D01*
X117181377Y-58779385D01*
X117273688Y-58902215D01*
X117378690Y-59044601D01*
X117491379Y-59199599D01*
X117606750Y-59360266D01*
X117719798Y-59519660D01*
X117825518Y-59670838D01*
X117918907Y-59806856D01*
X117994958Y-59920772D01*
X118048668Y-60005643D01*
X118061796Y-60028151D01*
X118114852Y-60138378D01*
X118155876Y-60251997D01*
X118172417Y-60323590D01*
X118189917Y-60453035D01*
X118978217Y-60453035D01*
X119184383Y-60452533D01*
X119370353Y-60451115D01*
X119528782Y-60448917D01*
X119652327Y-60446071D01*
X119733641Y-60442713D01*
X119765382Y-60438976D01*
X119765559Y-60438652D01*
X119750705Y-60417078D01*
X120083964Y-60417078D01*
X120111111Y-60423141D01*
X120187874Y-60428545D01*
X120306338Y-60433038D01*
X120458589Y-60436369D01*
X120636711Y-60438285D01*
X120761281Y-60438652D01*
X121439618Y-60438652D01*
X121379741Y-60341769D01*
X121367097Y-60320069D01*
X121356371Y-60296074D01*
X121347405Y-60265153D01*
X121340041Y-60222676D01*
X121334122Y-60164011D01*
X121329491Y-60084529D01*
X121325989Y-59979599D01*
X121323458Y-59844591D01*
X121321742Y-59674873D01*
X121320682Y-59465816D01*
X121320121Y-59212789D01*
X121319901Y-58911161D01*
X121319864Y-58583495D01*
X121319864Y-56922105D01*
X120716776Y-56934278D01*
X120536321Y-56938625D01*
X120375918Y-56943830D01*
X120244271Y-56949501D01*
X120150085Y-56955245D01*
X120102066Y-56960670D01*
X120097939Y-56962201D01*
X120097917Y-56996118D01*
X120117345Y-57061012D01*
X120125715Y-57082123D01*
X120136037Y-57135583D01*
X120145099Y-57239143D01*
X120152900Y-57386199D01*
X120159440Y-57570152D01*
X120164719Y-57784398D01*
X120168734Y-58022336D01*
X120171485Y-58277365D01*
X120172972Y-58542882D01*
X120173194Y-58812286D01*
X120172150Y-59078975D01*
X120169840Y-59336348D01*
X120166262Y-59577803D01*
X120161415Y-59796738D01*
X120155300Y-59986551D01*
X120147915Y-60140641D01*
X120139259Y-60252405D01*
X120129332Y-60315243D01*
X120126093Y-60323590D01*
X120095826Y-60382803D01*
X120083964Y-60417078D01*
X119750705Y-60417078D01*
X119747075Y-60411806D01*
X119699518Y-60355193D01*
X119633151Y-60281028D01*
X119632613Y-60280442D01*
X119544291Y-60177716D01*
X119424876Y-60028286D01*
X119275223Y-59833290D01*
X119096190Y-59593867D01*
X118888632Y-59311155D01*
X118653407Y-58986294D01*
X118529257Y-58813398D01*
X118407778Y-58644117D01*
X118290781Y-58481657D01*
X118184573Y-58334732D01*
X118095458Y-58212053D01*
X118029744Y-58122334D01*
X118004473Y-58088347D01*
X117939338Y-57991195D01*
X117911983Y-57924384D01*
X117914707Y-57901371D01*
X117937366Y-57871067D01*
X117990399Y-57803029D01*
X118068136Y-57704368D01*
X118164905Y-57582191D01*
X118275038Y-57443607D01*
X118392864Y-57295723D01*
X118512713Y-57145649D01*
X118628916Y-57000493D01*
X118735801Y-56867363D01*
X118827699Y-56753368D01*
X118898940Y-56665615D01*
X118943052Y-56612165D01*
X118994565Y-56549688D01*
X119064085Y-56463680D01*
X119117759Y-56396423D01*
X119182190Y-56320066D01*
X119275091Y-56216262D01*
X119384322Y-56098314D01*
X119497744Y-55979528D01*
X119504288Y-55972797D01*
X119777292Y-55692333D01*
X118220535Y-55692333D01*
X118203210Y-55800676D01*
X118187442Y-55865016D01*
X118157482Y-55939237D01*
X118110052Y-56028325D01*
X118041875Y-56137266D01*
X117949675Y-56271046D01*
X117830173Y-56434649D01*
X117680093Y-56633062D01*
X117517828Y-56843380D01*
X117374803Y-57026721D01*
X117262631Y-57168172D01*
X117177619Y-57271846D01*
X117116074Y-57341857D01*
X117074302Y-57382319D01*
X117048612Y-57397346D01*
X117035310Y-57391052D01*
X117032705Y-57383802D01*
X117028555Y-57336878D01*
X117025632Y-57241787D01*
X117024027Y-57107879D01*
X117023827Y-56944509D01*
X117025123Y-56761026D01*
X117026058Y-56685626D01*
X117030581Y-56447321D01*
X117037397Y-56258787D01*
X117047485Y-56112279D01*
X117061821Y-56000052D01*
X117081383Y-55914360D01*
X117107146Y-55847459D01*
X117138566Y-55793803D01*
X117169081Y-55741025D01*
X117177622Y-55714698D01*
X117150128Y-55708639D01*
X117072736Y-55703203D01*
X116953074Y-55698623D01*
X116798774Y-55695133D01*
X116617465Y-55692964D01*
X116444909Y-55692333D01*
X115712196Y-55692333D01*
X115305499Y-55692333D01*
X115307489Y-55506488D01*
X115310279Y-55328385D01*
X115313578Y-55185451D01*
X115317420Y-55074892D01*
X115319086Y-55044354D01*
X120154063Y-55044354D01*
X120189565Y-55200630D01*
X120269900Y-55339095D01*
X120390884Y-55452462D01*
X120548332Y-55533447D01*
X120732140Y-55574190D01*
X120775664Y-55568260D01*
X120852972Y-55549719D01*
X120905518Y-55534911D01*
X121063430Y-55460706D01*
X121187134Y-55347920D01*
X121271899Y-55206776D01*
X121312996Y-55047494D01*
X121305694Y-54880300D01*
X121265794Y-54756262D01*
X121174106Y-54616749D01*
X121050038Y-54515411D01*
X120904183Y-54452748D01*
X120747135Y-54429261D01*
X120589490Y-54445451D01*
X120441840Y-54501819D01*
X120314780Y-54598865D01*
X120234301Y-54707507D01*
X120167580Y-54877551D01*
X120154063Y-55044354D01*
X115319086Y-55044354D01*
X115321839Y-54993911D01*
X115326867Y-54939714D01*
G37*
G36*
X125573704Y-61631945D02*
G01*
X125708472Y-61649947D01*
X125829766Y-61675748D01*
X125915888Y-61704875D01*
X126062500Y-61794989D01*
X126163800Y-61910266D01*
X126218080Y-62041981D01*
X126223635Y-62181411D01*
X126178759Y-62319830D01*
X126081746Y-62448516D01*
X126064470Y-62464751D01*
X125976408Y-62532537D01*
X125879815Y-62579039D01*
X125761920Y-62607624D01*
X125609954Y-62621660D01*
X125457992Y-62624675D01*
X125322909Y-62622869D01*
X125235505Y-62616319D01*
X125186023Y-62603614D01*
X125164708Y-62583338D01*
X125164211Y-62582113D01*
X125158114Y-62539178D01*
X125153154Y-62460504D01*
X125347044Y-62460504D01*
X125552755Y-62441385D01*
X125704366Y-62417598D01*
X125829556Y-62379247D01*
X125867487Y-62360993D01*
X125967186Y-62279981D01*
X126019503Y-62182530D01*
X126023073Y-62079741D01*
X125976534Y-61982712D01*
X125920542Y-61929294D01*
X125841881Y-61890579D01*
X125725919Y-61856291D01*
X125592883Y-61831091D01*
X125463002Y-61819644D01*
X125443797Y-61819400D01*
X125347044Y-61819400D01*
X125347044Y-62460504D01*
X125153154Y-62460504D01*
X125152506Y-62450228D01*
X125147889Y-62326780D01*
X125144767Y-62180350D01*
X125144075Y-62120845D01*
X125144063Y-61939462D01*
X125147772Y-61819400D01*
X125148110Y-61808466D01*
X125156739Y-61720820D01*
X125170471Y-61669490D01*
X125178518Y-61656288D01*
X125227870Y-61633913D01*
X125319473Y-61623010D01*
X125439394Y-61622660D01*
X125573704Y-61631945D01*
G37*
G36*
X119922650Y-61635604D02*
G01*
X119939728Y-61649499D01*
X119951987Y-61681443D01*
X119960178Y-61739551D01*
X119965055Y-61831939D01*
X119967368Y-61966722D01*
X119967882Y-62123504D01*
X119967400Y-62299088D01*
X119965322Y-62425829D01*
X119960702Y-62512409D01*
X119952591Y-62567513D01*
X119940043Y-62599824D01*
X119922110Y-62618026D01*
X119913371Y-62623219D01*
X119858262Y-62634976D01*
X119819926Y-62605479D01*
X119802594Y-62563972D01*
X119789246Y-62482836D01*
X119779332Y-62356634D01*
X119772301Y-62179926D01*
X119770752Y-62119690D01*
X119767237Y-61951712D01*
X119766426Y-61832121D01*
X119769252Y-61751800D01*
X119776652Y-61701631D01*
X119789560Y-61672497D01*
X119808911Y-61655282D01*
X119818965Y-61649530D01*
X119884321Y-61631449D01*
X119922650Y-61635604D01*
G37*
G36*
X129347761Y-58283113D02*
G01*
X129376441Y-58098692D01*
X129459933Y-57800497D01*
X129581321Y-57536322D01*
X129737627Y-57310639D01*
X129925871Y-57127921D01*
X130098178Y-57015304D01*
X130200843Y-56965415D01*
X130294096Y-56934550D01*
X130401324Y-56916765D01*
X130522727Y-56907389D01*
X130776922Y-56906923D01*
X131005043Y-56934512D01*
X131197516Y-56988473D01*
X131314810Y-57046561D01*
X131390792Y-57093130D01*
X131445485Y-57123652D01*
X131462468Y-57130612D01*
X131466182Y-57103102D01*
X131468897Y-57025585D01*
X131470553Y-56905574D01*
X131471087Y-56750586D01*
X131470438Y-56568134D01*
X131468661Y-56375515D01*
X131465576Y-56143808D01*
X131462084Y-55962190D01*
X131457630Y-55823219D01*
X131451657Y-55719454D01*
X131443610Y-55643454D01*
X131432933Y-55587775D01*
X131419070Y-55544978D01*
X131404233Y-55512909D01*
X131372721Y-55444593D01*
X131359769Y-55401256D01*
X131361084Y-55395200D01*
X131392224Y-55392783D01*
X131472293Y-55391804D01*
X131592707Y-55392219D01*
X131744882Y-55393985D01*
X131920236Y-55397056D01*
X131983770Y-55398394D01*
X132594109Y-55411788D01*
X132602230Y-57831732D01*
X132603741Y-58262787D01*
X132605249Y-58640048D01*
X132606841Y-58967254D01*
X132608604Y-59248141D01*
X132610626Y-59486447D01*
X132612992Y-59685910D01*
X132615791Y-59850268D01*
X132619109Y-59983257D01*
X132623033Y-60088615D01*
X132627651Y-60170080D01*
X132633048Y-60231390D01*
X132639313Y-60276282D01*
X132646531Y-60308493D01*
X132654791Y-60331761D01*
X132660691Y-60343736D01*
X132693836Y-60408286D01*
X132710548Y-60448538D01*
X132711030Y-60451607D01*
X132683701Y-60456412D01*
X132607452Y-60460630D01*
X132490896Y-60464023D01*
X132342643Y-60466354D01*
X132171305Y-60467388D01*
X132135719Y-60467418D01*
X131560408Y-60467418D01*
X131560408Y-60337973D01*
X131555267Y-60260767D01*
X131542262Y-60214462D01*
X131534533Y-60208528D01*
X131498693Y-60223532D01*
X131431289Y-60262588D01*
X131358952Y-60309272D01*
X131147788Y-60418207D01*
X130906725Y-60484359D01*
X130646564Y-60505608D01*
X130438550Y-60489826D01*
X130206136Y-60427952D01*
X129989373Y-60315286D01*
X129793784Y-60157668D01*
X129624890Y-59960939D01*
X129488213Y-59730937D01*
X129389276Y-59473505D01*
X129357808Y-59346761D01*
X129333681Y-59177078D01*
X129320873Y-58968457D01*
X129319124Y-58738312D01*
X129323884Y-58615096D01*
X130471044Y-58615096D01*
X130471634Y-58842163D01*
X130476281Y-59011843D01*
X130482174Y-59135463D01*
X130490992Y-59224492D01*
X130504416Y-59290399D01*
X130524123Y-59344653D01*
X130551794Y-59398725D01*
X130553612Y-59401978D01*
X130658327Y-59541428D01*
X130786344Y-59628448D01*
X130936876Y-59662851D01*
X131109133Y-59644452D01*
X131294326Y-59576884D01*
X131383860Y-59531479D01*
X131448260Y-59493006D01*
X131474072Y-59469535D01*
X131474112Y-59469036D01*
X131474364Y-59435350D01*
X131475075Y-59351763D01*
X131476178Y-59225906D01*
X131477605Y-59065407D01*
X131479288Y-58877894D01*
X131481161Y-58670996D01*
X131481303Y-58655310D01*
X131488494Y-57864379D01*
X131344666Y-57785823D01*
X131184820Y-57723370D01*
X131020022Y-57702514D01*
X130865567Y-57723502D01*
X130751205Y-57776198D01*
X130652086Y-57867095D01*
X130575658Y-57992059D01*
X130520773Y-58155465D01*
X130486284Y-58361686D01*
X130471044Y-58615096D01*
X129323884Y-58615096D01*
X129328173Y-58504059D01*
X129347761Y-58283113D01*
G37*
G36*
X118992057Y-61634960D02*
G01*
X119125882Y-61654374D01*
X119225356Y-61685616D01*
X119255687Y-61704176D01*
X119298841Y-61744467D01*
X119299095Y-61775700D01*
X119269934Y-61811877D01*
X119235823Y-61841737D01*
X119192961Y-61854482D01*
X119124265Y-61852305D01*
X119040059Y-61841417D01*
X118907033Y-61829706D01*
X118762328Y-61828787D01*
X118626321Y-61837796D01*
X118519388Y-61855869D01*
X118491268Y-61864682D01*
X118448489Y-61902074D01*
X118454226Y-61948100D01*
X118492251Y-61975854D01*
X118540246Y-61989086D01*
X118630132Y-62009611D01*
X118747241Y-62034184D01*
X118830246Y-62050640D01*
X118960440Y-62079596D01*
X119075766Y-62111976D01*
X119160136Y-62142930D01*
X119189398Y-62158940D01*
X119265109Y-62242101D01*
X119293731Y-62336349D01*
X119271607Y-62428242D01*
X119265429Y-62438381D01*
X119213416Y-62506216D01*
X119153575Y-62554154D01*
X119074968Y-62585758D01*
X118966660Y-62604592D01*
X118817712Y-62614222D01*
X118717883Y-62616825D01*
X118570363Y-62616847D01*
X118439769Y-62611895D01*
X118340302Y-62602784D01*
X118290672Y-62592315D01*
X118230843Y-62555421D01*
X118218377Y-62502540D01*
X118218758Y-62499646D01*
X118225036Y-62474881D01*
X118241720Y-62457531D01*
X118277990Y-62445999D01*
X118343023Y-62438692D01*
X118445998Y-62434014D01*
X118596093Y-62430370D01*
X118620228Y-62429875D01*
X118786561Y-62425198D01*
X118904168Y-62418323D01*
X118981845Y-62408175D01*
X119028385Y-62393679D01*
X119049861Y-62377343D01*
X119067980Y-62339151D01*
X119046822Y-62308310D01*
X118980487Y-62281046D01*
X118863072Y-62253589D01*
X118853216Y-62251646D01*
X118730446Y-62227667D01*
X118595725Y-62201389D01*
X118543699Y-62191253D01*
X118394555Y-62144751D01*
X118287506Y-62075583D01*
X118225496Y-61990409D01*
X118211468Y-61895887D01*
X118248367Y-61798675D01*
X118331490Y-61711282D01*
X118412574Y-61673282D01*
X118534140Y-61646534D01*
X118681220Y-61631155D01*
X118838848Y-61627258D01*
X118992057Y-61634960D01*
G37*
G36*
X131769305Y-61631327D02*
G01*
X131802860Y-61663244D01*
X131836075Y-61733557D01*
X131848029Y-61856117D01*
X131848063Y-61864603D01*
X131848063Y-62020759D01*
X132538437Y-62020759D01*
X132538437Y-61851688D01*
X132547794Y-61724826D01*
X132576598Y-61650896D01*
X132625951Y-61628301D01*
X132680426Y-61645822D01*
X132707904Y-61665464D01*
X132725079Y-61696623D01*
X132734090Y-61751181D01*
X132737074Y-61841020D01*
X132736434Y-61957048D01*
X132732864Y-62105766D01*
X132726285Y-62258427D01*
X132717912Y-62388775D01*
X132714860Y-62423477D01*
X132703456Y-62524076D01*
X132689871Y-62580172D01*
X132667894Y-62604654D01*
X132631312Y-62610408D01*
X132624734Y-62610453D01*
X132586460Y-62606951D01*
X132564091Y-62587953D01*
X132552352Y-62540726D01*
X132545969Y-62452533D01*
X132544314Y-62416285D01*
X132535808Y-62222118D01*
X131848063Y-62222118D01*
X131848063Y-62349690D01*
X131837586Y-62472750D01*
X131809407Y-62567401D01*
X131768403Y-62625937D01*
X131719453Y-62640652D01*
X131678975Y-62616835D01*
X131664860Y-62572305D01*
X131654715Y-62471812D01*
X131648634Y-62316792D01*
X131646704Y-62118763D01*
X131647411Y-61941952D01*
X131650046Y-61814483D01*
X131655378Y-61728177D01*
X131664177Y-61674857D01*
X131677214Y-61646343D01*
X131692205Y-61635501D01*
X131738888Y-61620542D01*
X131769305Y-61631327D01*
G37*
G36*
X125805244Y-59087167D02*
G01*
X125883562Y-58867238D01*
X126010732Y-58672703D01*
X126184008Y-58506823D01*
X126400641Y-58372861D01*
X126657882Y-58274080D01*
X126670260Y-58270545D01*
X126770656Y-58249303D01*
X126913046Y-58228362D01*
X127081904Y-58209183D01*
X127261704Y-58193225D01*
X127436920Y-58181952D01*
X127592027Y-58176824D01*
X127662673Y-58177142D01*
X127747604Y-58177626D01*
X127788869Y-58168092D01*
X127800314Y-58139984D01*
X127796844Y-58094258D01*
X127763730Y-57958214D01*
X127701609Y-57830836D01*
X127621448Y-57732340D01*
X127585524Y-57704752D01*
X127484542Y-57667330D01*
X127344655Y-57651539D01*
X127179956Y-57656628D01*
X127004537Y-57681842D01*
X126832491Y-57726428D01*
X126770940Y-57748290D01*
X126665565Y-57786966D01*
X126575861Y-57816268D01*
X126519774Y-57830376D01*
X126516748Y-57830723D01*
X126487538Y-57820521D01*
X126452980Y-57780289D01*
X126408646Y-57702975D01*
X126350108Y-57581529D01*
X126323541Y-57523058D01*
X126267075Y-57396287D01*
X126218712Y-57285575D01*
X126183780Y-57203265D01*
X126167935Y-57162755D01*
X126169318Y-57137622D01*
X126197616Y-57116205D01*
X126262092Y-57094547D01*
X126372011Y-57068692D01*
X126404290Y-57061821D01*
X126542363Y-57032110D01*
X126681423Y-57001109D01*
X126795623Y-56974601D01*
X126814752Y-56969970D01*
X127090235Y-56918696D01*
X127373095Y-56895530D01*
X127650914Y-56899804D01*
X127911273Y-56930851D01*
X128141757Y-56988002D01*
X128291022Y-57049360D01*
X128428528Y-57138417D01*
X128560086Y-57256465D01*
X128667241Y-57385411D01*
X128713833Y-57463931D01*
X128747677Y-57536511D01*
X128775902Y-57606018D01*
X128799149Y-57678564D01*
X128818056Y-57760264D01*
X128833263Y-57857228D01*
X128845408Y-57975571D01*
X128855131Y-58121406D01*
X128863072Y-58300844D01*
X128869868Y-58519999D01*
X128876160Y-58784984D01*
X128882010Y-59072288D01*
X128888123Y-59371246D01*
X128893888Y-59618053D01*
X128899600Y-59818084D01*
X128905556Y-59976716D01*
X128912050Y-60099324D01*
X128919378Y-60191284D01*
X128927837Y-60257973D01*
X128937722Y-60304767D01*
X128949329Y-60337041D01*
X128951876Y-60342213D01*
X128998697Y-60432750D01*
X128589575Y-60452519D01*
X128426103Y-60459174D01*
X128268459Y-60463386D01*
X128132805Y-60464868D01*
X128035303Y-60463330D01*
X128022242Y-60462661D01*
X127864032Y-60453035D01*
X127855186Y-60330781D01*
X127847320Y-60256114D01*
X127837993Y-60212858D01*
X127834583Y-60208528D01*
X127806452Y-60222989D01*
X127743313Y-60261089D01*
X127658254Y-60314905D01*
X127649227Y-60320729D01*
X127431508Y-60428554D01*
X127187435Y-60491287D01*
X126929219Y-60506528D01*
X126775802Y-60492365D01*
X126515502Y-60427257D01*
X126289216Y-60317325D01*
X126100198Y-60166365D01*
X125951700Y-59978169D01*
X125846975Y-59756532D01*
X125789275Y-59505247D01*
X125781495Y-59377829D01*
X126826833Y-59377829D01*
X126859353Y-59507592D01*
X126932995Y-59619287D01*
X127040193Y-59698464D01*
X127090793Y-59717799D01*
X127196837Y-59733162D01*
X127326282Y-59730904D01*
X127452854Y-59713143D01*
X127550278Y-59681995D01*
X127553089Y-59680557D01*
X127628030Y-59630398D01*
X127705173Y-59563122D01*
X127714150Y-59553917D01*
X127751560Y-59511642D01*
X127774591Y-59471119D01*
X127786161Y-59417951D01*
X127789187Y-59337737D01*
X127786586Y-59216078D01*
X127786064Y-59198971D01*
X127777735Y-58928460D01*
X127533227Y-58919453D01*
X127404629Y-58919009D01*
X127284151Y-58925946D01*
X127193977Y-58938826D01*
X127180372Y-58942325D01*
X127057461Y-58999762D01*
X126946527Y-59088955D01*
X126865701Y-59193667D01*
X126842997Y-59244447D01*
X126826833Y-59377829D01*
X125781495Y-59377829D01*
X125778528Y-59329227D01*
X125805244Y-59087167D01*
G37*
G36*
X124314166Y-61619318D02*
G01*
X124453976Y-61624159D01*
X124550546Y-61634073D01*
X124611003Y-61650574D01*
X124642475Y-61675173D01*
X124652088Y-61709380D01*
X124651013Y-61729814D01*
X124642287Y-61805017D01*
X124289909Y-61813094D01*
X124142027Y-61817161D01*
X124042315Y-61822440D01*
X123981414Y-61830589D01*
X123949964Y-61843263D01*
X123938605Y-61862120D01*
X123937531Y-61875464D01*
X123928523Y-61946802D01*
X123920515Y-61974099D01*
X123920283Y-61995790D01*
X123945953Y-62010126D01*
X124007057Y-62019225D01*
X124113127Y-62025202D01*
X124157831Y-62026792D01*
X124279181Y-62031460D01*
X124354574Y-62038181D01*
X124395563Y-62050623D01*
X124413701Y-62072457D01*
X124420538Y-62107351D01*
X124420888Y-62110344D01*
X124418282Y-62164661D01*
X124383147Y-62192364D01*
X124338187Y-62203832D01*
X124257554Y-62214068D01*
X124148748Y-62220704D01*
X124076027Y-62222118D01*
X123905292Y-62222118D01*
X123923148Y-62437860D01*
X124282718Y-62452242D01*
X124642287Y-62466625D01*
X124642287Y-62610453D01*
X124209126Y-62618364D01*
X124056703Y-62619867D01*
X123925057Y-62618745D01*
X123824723Y-62615276D01*
X123766235Y-62609738D01*
X123756069Y-62606378D01*
X123748959Y-62571749D01*
X123743422Y-62491677D01*
X123739488Y-62378228D01*
X123737188Y-62243471D01*
X123736555Y-62099473D01*
X123737618Y-61958300D01*
X123740410Y-61832021D01*
X123744960Y-61732703D01*
X123751301Y-61672412D01*
X123753632Y-61663542D01*
X123769664Y-61644027D01*
X123806280Y-61630869D01*
X123872829Y-61622917D01*
X123978658Y-61619025D01*
X124123989Y-61618041D01*
X124314166Y-61619318D01*
G37*
%TD*%
M02*
