M48
; DRILL file {KiCad (6.0.0)} date Fri Dec 31 23:30:28 2021
; FORMAT={-:-/ absolute / metric / decimal}
; #@! TF.CreationDate,2021-12-31T23:30:28+08:00
; #@! TF.GenerationSoftware,Kicad,Pcbnew,(6.0.0)
; #@! TF.FileFunction,MixedPlating,1,2
FMAT,2
METRIC
; #@! TA.AperFunction,Plated,PTH,ViaDrill
T1C0.305
; #@! TA.AperFunction,Plated,PTH,ViaDrill
T2C0.406
; #@! TA.AperFunction,Plated,PTH,ComponentDrill
T3C0.600
; #@! TA.AperFunction,Plated,PTH,ComponentDrill
T4C1.000
; #@! TA.AperFunction,Plated,PTH,ComponentDrill
T5C4.000
; #@! TA.AperFunction,NonPlated,NPTH,ComponentDrill
T6C1.500
%
G90
G05
T1
X85.003Y-43.001
X94.843Y-38.713
X96.041Y-43.41
X96.096Y-41.987
X103.352Y-64.61
X103.67Y-59.932
X103.999Y-56.11
X104.307Y-54.515
X107.12Y-64.61
X136.067Y-74.564
X138.643Y-67.721
X142.39Y-65.85
X142.4Y-69.33
X144.1Y-71.524
X145.643Y-57.499
X145.84Y-54.97
X147.8Y-51.02
X148.94Y-66.232
X153.26Y-46.46
X156.202Y-42.277
X157.24Y-29.66
X157.28Y-40.29
T2
X87.71Y-52.67
T4
X86.341Y-39.0
X86.341Y-41.54
X86.341Y-44.08
X92.856Y-73.482
X92.856Y-76.022
X92.856Y-78.562
X92.856Y-81.102
X92.856Y-83.642
X92.856Y-86.182
X93.54Y-23.09
X93.54Y-25.63
X93.54Y-28.17
X93.54Y-30.71
X93.54Y-33.25
X93.54Y-35.79
X93.54Y-38.33
X93.54Y-40.87
X93.54Y-43.41
X93.54Y-45.95
X93.54Y-48.49
X93.54Y-51.03
X93.54Y-53.57
X93.54Y-56.11
X93.54Y-58.65
X93.54Y-61.19
X93.54Y-63.73
X93.54Y-66.27
X93.54Y-68.81
X98.444Y-73.482
X98.444Y-76.022
X98.444Y-78.562
X98.444Y-81.102
X98.444Y-83.642
X98.444Y-86.182
X104.032Y-73.482
X104.032Y-76.022
X104.032Y-78.562
X104.032Y-81.102
X104.032Y-83.642
X104.032Y-86.182
X108.78Y-23.09
X108.78Y-25.63
X108.78Y-28.17
X108.78Y-30.71
X108.78Y-33.25
X108.78Y-35.79
X108.78Y-38.33
X108.78Y-40.87
X108.78Y-43.41
X108.78Y-45.95
X108.78Y-48.49
X108.78Y-51.03
X108.78Y-53.57
X108.78Y-56.11
X108.78Y-58.65
X108.78Y-61.19
X108.78Y-63.73
X108.78Y-66.27
X108.78Y-68.81
X109.62Y-73.482
X109.62Y-76.022
X109.62Y-78.562
X109.62Y-81.102
X109.62Y-83.642
X109.62Y-86.182
X138.684Y-73.482
X138.684Y-76.022
X138.684Y-78.562
X138.684Y-81.102
X138.684Y-83.642
X138.684Y-86.182
X139.62Y-23.08
X139.62Y-25.62
X139.62Y-28.16
X139.62Y-30.7
X139.62Y-33.24
X139.62Y-35.78
X139.62Y-38.32
X139.62Y-40.86
X139.62Y-43.4
X139.62Y-45.94
X139.62Y-48.48
X139.62Y-51.02
X139.62Y-53.56
X139.62Y-56.1
X139.62Y-58.64
X139.62Y-61.18
X139.62Y-63.72
X139.62Y-66.26
X139.62Y-68.8
X144.314Y-73.482
X144.314Y-76.022
X144.314Y-78.562
X144.314Y-81.102
X144.314Y-83.642
X144.314Y-86.182
X149.945Y-73.5
X149.945Y-76.04
X149.945Y-78.58
X149.945Y-81.12
X149.945Y-83.66
X149.945Y-86.2
X154.86Y-23.08
X154.86Y-25.62
X154.86Y-28.16
X154.86Y-30.7
X154.86Y-33.24
X154.86Y-35.78
X154.86Y-38.32
X154.86Y-40.86
X154.86Y-43.4
X154.86Y-45.94
X154.86Y-48.48
X154.86Y-51.02
X154.86Y-53.56
X154.86Y-56.1
X154.86Y-58.64
X154.86Y-61.18
X154.86Y-63.72
X154.86Y-66.26
X154.86Y-68.8
X155.575Y-73.5
X155.575Y-76.04
X155.575Y-78.58
X155.575Y-81.12
X155.575Y-83.66
X155.575Y-86.2
X161.786Y-39.0
X161.786Y-41.54
X161.786Y-44.08
T5
X81.376Y-53.08
X115.951Y-25.18
X132.216Y-25.23
X166.8Y-53.15
T3
G00X83.566Y-22.025
M15
G01X83.566Y-22.625
M16
G05
G00X84.566Y-29.025
M15
G01X84.566Y-31.125
M16
G05
G00X89.066Y-22.025
M15
G01X89.066Y-22.625
M16
G05
G00X89.066Y-25.025
M15
G01X89.066Y-25.625
M16
G05
G00X89.066Y-29.025
M15
G01X89.066Y-29.625
M16
G05
G00X159.011Y-22.15
M15
G01X159.011Y-22.75
M16
G05
G00X160.011Y-29.15
M15
G01X160.011Y-31.25
M16
G05
G00X164.511Y-22.15
M15
G01X164.511Y-22.75
M16
G05
G00X164.511Y-25.15
M15
G01X164.511Y-25.75
M16
G05
G00X164.511Y-29.15
M15
G01X164.511Y-29.75
M16
G05
T6
G00X86.766Y-20.725
M15
G01X86.766Y-20.725
M16
G05
G00X86.766Y-27.725
M15
G01X86.766Y-27.725
M16
G05
G00X162.211Y-20.85
M15
G01X162.211Y-20.85
M16
G05
G00X162.211Y-27.85
M15
G01X162.211Y-27.85
M16
G05
T0
M30
